<svg version="1.2" xmlns="http://www.w3.org/2000/svg" width="150" height="150"><style>.s1{fill:#ff8b00}.s2{fill:#ffe600}.s3{fill:#94bce0}.s5{fill:#03f}.s6{fill:#0035f7}</style><path d="M75 150c41.4 0 75-33.6 75-75S116.4 0 75 0 0 33.6 0 75s33.6 75 75 75z" style="fill:#ea18aa"/><path class="s1" d="m40.6 131.4-11.1-3.9 8.9-7.6z"/><path fill-rule="evenodd" class="s2" d="M76.2 143.5c-.3 0-.5-.2-.7-.3l-.8-.9c-.1-.1-.2-.1-.3-.1-.1 0-.2 0-.3.1l-.8.9c-.3.3-.7.4-1 .2-.4-.2-.6-.5-.6-.9l.1-1.2c0-.1-.1-.2-.1-.3-.1 0-.2-.1-.3-.1l-1.2.1c-.4 0-.7-.2-.9-.6-.2-.3-.1-.7.2-1l.9-.8c.1-.1.1-.2.1-.3 0-.1 0-.2-.1-.3l-.9-.8c-.3-.3-.4-.7-.2-1 .2-.3.5-.6.9-.6l1.2.1c.1 0 .2-.1.3-.1 0-.1.1-.2.1-.3l-.1-1.2c0-.4.2-.7.6-.9.3-.2.7-.1 1 .2l.8.9c.1.1.2.1.3.1.1 0 .2 0 .3-.1l.8-.9c.3-.3.7-.4 1-.2.3.2.6.5.6.9l-.1 1.2c0 .1.1.2.1.3.1 0 .2.1.3.1l1.2-.1c.4 0 .7.3.9.6.2.3 0 .7-.2 1l-.9.8c-.1.1-.1.2-.1.3 0 .1 0 .2.1.3l.9.8c.2.3.4.7.2 1-.2.3-.5.6-.9.6l-1.2-.1c-.1 0-.2.1-.3.1 0 .1-.1.2-.1.3l.1 1.2c0 .4-.2.7-.6.9q-.2.1-.3.1zm-1.8-1.9c.3 0 .5.1.7.3l.8.9c.2.2.4.1.4.1.1 0 .3-.1.3-.3l-.1-1.3c0-.2.1-.5.3-.6.1-.2.4-.3.6-.3l1.3.1c.2 0 .3-.2.3-.3 0 0 0-.2-.1-.4l-.9-.8q-.3-.2-.3-.6c0-.3.1-.5.3-.7l.9-.8c.1-.2.1-.4.1-.4 0-.1-.1-.3-.3-.3l-1.3.2c-.2 0-.5-.1-.7-.3-.1-.2-.3-.5-.3-.7l.1-1.2c0-.2-.2-.3-.2-.3-.1 0-.2-.1-.4.1l-.8.9q-.3.2-.7.2c-.2 0-.5-.1-.7-.2l-.8-.9c-.2-.2-.3-.1-.4-.1-.1 0-.2.1-.2.3v1.2c0 .2 0 .5-.2.7-.2.1-.5.3-.7.3l-1.2-.1c-.2 0-.4.2-.4.2 0 .1 0 .2.2.4l.8.8q.3.3.3.7c0 .2-.1.5-.3.7l-.8.8c-.2.2-.2.3-.2.4 0 0 .2.2.4.2h1.2c.2 0 .5 0 .7.2.1.2.2.5.2.7v1.2c0 .2.1.4.2.4s.2 0 .4-.2l.8-.8q.3-.4.7-.4z"/><path fill-rule="evenodd" class="s3" d="M97.8 17c0 1.5-1.3 2.7-2.8 2.7-1.5 0-2.7-1.2-2.7-2.7 0-1.6 1.2-2.8 2.7-2.8 1.5 0 2.8 1.3 2.8 2.8zm-4.9 0c0 1.2.9 2.1 2.1 2.1 1.2 0 2.2-1 2.2-2.1 0-1.2-1-2.2-2.2-2.2-1.1 0-2.1 1-2.1 2.2zM91.8 17c0 1.5-1.3 2.7-2.8 2.7-1.5 0-2.7-1.2-2.7-2.7 0-1.6 1.2-2.8 2.7-2.8 1.5 0 2.8 1.3 2.8 2.8zm-4.9 0c0 1.2 1 2.1 2.1 2.1 1.3 0 2.2-1 2.2-2.1 0-1.2-1-2.2-2.2-2.2-1.1 0-2.1 1-2.1 2.2zM97.8 11c0 1.5-1.3 2.8-2.8 2.8-1.5 0-2.7-1.3-2.7-2.8 0-1.6 1.2-2.8 2.7-2.8 1.5 0 2.8 1.2 2.8 2.8zm-4.9 0c0 1.2.9 2.1 2.1 2.1 1.2 0 2.2-1 2.2-2.1 0-1.2-1-2.2-2.2-2.2-1.1 0-2.1 1-2.1 2.2zM91.8 11c0 1.5-1.3 2.8-2.8 2.8-1.5 0-2.7-1.3-2.7-2.8 0-1.6 1.2-2.8 2.7-2.8 1.5 0 2.8 1.2 2.8 2.8zm-4.9 0c0 1.2 1 2.1 2.1 2.1 1.3 0 2.2-1 2.2-2.1 0-1.2-1-2.2-2.2-2.2-1.1 0-2.1 1-2.1 2.2z"/><path fill-rule="evenodd" class="s2" d="M133.3 104.4c-.4.2-1 .1-1.7-.5-.7-.7-1.1-1.4-1.2-2.1-.3.3-.6.7-1 1.2-1.1 1.6-.3 2.8-.3 2.8l-.7.5s-1.2-1.7.2-3.8c.6-.9 1.2-1.5 1.8-1.8q.1-1 .6-2c.4-.8 1.1-1.3 2-1.6-.3-1.3.1-2.4.5-3 .9-1.6 2.7-2.8 4-2.6q.9.1 1.4.8c.6.8.4 2 .4 2.1l-.9-.2s.2-.8-.2-1.4c-.2-.2-.5-.4-.8-.4-.7-.1-2.2.6-3 2.1-.4.6-.7 1.5-.5 2.5 1 0 1.8.4 2.3 1 .8.9.6 1.8.1 2.2-.4.4-1.1.4-1.9-.5-.5-.6-.9-1.2-1.1-1.7q-1 .2-1.4 1.1c-.3.6-.4 1-.5 1.5.8 0 1.5.6 2 1.1.8.8.8 2 .2 2.5 0 0-.1.1-.3.2zm-2-3c.1.7.3 1.3.9 1.8.3.3.7.5.8.3.2-.2.2-.8-.2-1.3q-.8-.8-1.5-.8zm3-3.5q.3.6.8 1.3c.4.4.6.4.7.4.1-.1.2-.6-.2-1.1-.2-.3-.7-.5-1.3-.6zM6.6 65.8c.3-.3.8-.5 1.7-.3 1 .3 1.6.7 2.1 1.3q.2-.6.3-1.6c.2-1.9-1.2-2.6-1.2-2.6l.4-.7c.1 0 1.9.9 1.7 3.4-.1 1.1-.3 1.9-.7 2.5.2.6.3 1.3.4 2 0 .9-.3 1.8-1 2.4.7 1 .9 2.2.9 2.9 0 1.8-1 3.8-2.3 4.2-.6.2-1.1.2-1.6 0-.9-.5-1.3-1.6-1.3-1.6l.9-.3s.3.8.8 1.1c.3.1.6.2 1 0 .6-.2 1.6-1.7 1.6-3.4 0-.7-.1-1.6-.8-2.4-.8.5-1.7.6-2.5.2-1-.4-1.3-1.3-1.1-1.9.1-.5.8-.9 1.9-.5.8.3 1.4.7 1.9 1.1.5-.5.7-1.1.7-1.7q-.1-.8-.2-1.5c-.8.4-1.7.2-2.4 0-1.1-.3-1.6-1.4-1.4-2.1 0-.2.1-.3.2-.5zm3.2 1.7c-.4-.6-.9-.9-1.7-1.2-.3-.1-.8-.1-.8.2-.1.2.2.8.7 1 .9.2 1.4.2 1.8 0zM8.9 72q-.5-.4-1.4-.7c-.4-.2-.7-.1-.7 0-.1.1.1.6.6.8.4.2.9.1 1.5-.1z"/><path fill-rule="evenodd" d="M26.5 41.4c-3 0-5.5-2.4-5.5-5.5 0-3 2.5-5.4 5.5-5.4 3.1 0 5.5 2.4 5.5 5.4 0 3.1-2.5 5.5-5.5 5.5zm0-10.3c-2.7 0-4.9 2.2-4.9 4.8 0 2.8 2.3 4.9 4.9 4.9 2.7 0 4.9-2.2 4.9-4.9 0-2.6-2.2-4.8-4.9-4.8z" style="fill:#03cea4"/><path fill-rule="evenodd" class="s5" d="M51.4 100.1q-.3-.4-.4-.8 0-.5.3-.8V96.6c0-.3 0-.6.2-.9.2-.2.5-.3.8-.3.3 0 .7.2.9.6q1.8-1.5 3.4-.9 1 .4 1.5 1.3c.4.5.8 1.2 1 1.9.5 1.4.5 2.8.1 4q-.2 1.1-1 2c-.5.5-1 .9-1.7 1.2-.9.2-1.7.1-2.4-.3-.2-.1-.4-.2-.6-.4.1 1.2.1 2.2.1 3.1 0 .3-.1.6-.3.9-.2.2-.4.4-.7.4-.3 0-.6-.1-.7-.4q-.4-.3-.4-.8c0-1.7 0-4.3-.1-7.9zm5.8 1.9c.3-.9.3-1.9-.1-2.9q-.4-1.4-1.1-1.7-.8-.3-2.1 1-.2.2-.5.7l.1 2.6.5.5q.3.4.5.5c.1.1.3.3.4.3.3.2.7.2 1.1.1.6-.2 1-.6 1.2-1.1zM63.5 103c-.4-.9-.6-1.8-.6-2.7 0-.9.2-1.9.5-2.7.3-.9.9-1.6 1.6-2 .3-.2.7-.4 1.2-.4.2-.2.4-.3.6-.3q.4-.1.7.1.4.4 1.2.9c.4.2.8.5 1 .7.3.3.5.8.7 1.2.2.5.3 1.1.4 1.8q.2 1.4-.2 2.7-.4 1.3-1.2 2.2c-.6.6-1.3 1-2.1 1.1-.7.1-1.6-.1-2.4-.6-.6-.5-1.1-1.2-1.4-2zm4.6-.3q.4-.4.7-1.2c.2-.5.2-1 .1-1.5q-.2-1.4-.5-1.6c-.1-.2-.3-.3-.6-.5l-.6-.4h-.7c-.3 0-.4.1-.4.1-.4.2-.6.5-.8 1-.2.5-.3 1-.3 1.6 0 .7.1 1.2.3 1.6q.3.7.8 1c.7.6 1.4.5 2-.1z"/><path class="s5" d="m77.9 101.2-1.1 1.3q.1.8.1 1.7c.1.3 0 .6-.2.9q-.2.4-.6.4c-.3.1-.6 0-.8-.2-.2-.2-.4-.5-.4-.8q-.4-3.4-.2-8.1 0-.5.3-.9.3-.3.7-.3c.3 0 .6.2.7.4.2.2.3.5.3.9v2.9l3.6-3.9q.3-.4.7-.4c.3 0 .5.2.8.4.1.3.2.6.2.9q0 .5-.3.8l-2.2 2.4q1.1 1.8 2.9 3.9c.1.2.3.5.3.8q0 .5-.4.9-.3.3-.7.3c-.3 0-.5-.2-.7-.4-1.2-1.4-2.2-2.6-3-3.9zM66.2 72.9s-.5-1.5 0-3c.4-1.5 9.9-.8 11.2-.6 1.4.3 7.3-.5 8-.3.6.1 2.3 4.1.5 5.1-1.9 1.1-8.8 0-9.6-.1-.7-.1-5.4.4-6.9.4-1.6.1-2.6-.2-3.2-1.5z"/><path fill-rule="evenodd" class="s1" d="m122.8 43.7-7.1-12.4h14.2zm-6-11.7 6 10.4 6-10.4z"/><path class="s2" d="m53.6 19.9-1.1 1.2c-.5.6-1.5.2-1.5-.6l.1-1.6c0-.5-.3-.9-.8-.9l-1.7.1c-.8 0-1.2-1-.6-1.5l1.2-1.1c.4-.4.4-1 0-1.3L48 13.1c-.6-.6-.2-1.5.6-1.5l1.7.1c.5 0 .8-.4.8-.9L51 9.2c0-.8 1-1.3 1.5-.7l1.1 1.3c.4.4 1 .4 1.3 0L56 8.5c.6-.6 1.5-.1 1.5.7l-.1 1.6c0 .5.4.9.9.9l1.7-.1c.7-.1 1.2.9.6 1.5l-1.2 1.1c-.4.3-.4.9 0 1.3l1.2 1.1c.6.5.1 1.5-.6 1.5l-1.7-.1c-.5 0-.9.4-.9.9l.1 1.6c.1.8-.9 1.2-1.5.6l-1.1-1.2c-.3-.4-.9-.4-1.3 0z"/><path fill-rule="evenodd" class="s6" d="M21.6 96.9v2.7l2-1.9q.2-.2.4-.2.3 0 .5.2l1.4 1.4c.2.3.2.6 0 .9l-2 2h2.7c.4 0 .7.2.7.6v2c0 .4-.3.6-.7.6h-2.7l2 2c.2.3.2.6 0 .9l-1.4 1.4q-.2.2-.5.2-.2 0-.4-.2l-2-1.9v2.7c0 .4-.2.6-.6.6h-2c-.4 0-.6-.2-.6-.6v-2.7l-2 1.9q-.2.2-.4.2-.3 0-.5-.2l-1.4-1.4c-.2-.3-.2-.6 0-.9l2-2h-2.7c-.4 0-.7-.2-.7-.6v-2c0-.4.3-.6.7-.6h2.7l-2-2c-.2-.3-.2-.6 0-.9l1.4-1.4q.2-.2.5-.2.2 0 .4.2l2 1.9v-2.7c0-.4.2-.7.6-.7h2c.3 0 .6.3.6.7zm-2.5.1v4.5l-1.3-1.3-1.9-1.8-1.2 1.2 1.8 1.8 1.4 1.3h-4.5v1.8h4.5l-1.4 1.3-1.8 1.8 1.2 1.2 1.9-1.8 1.3-1.3v4.5h1.7v-4.5l1.3 1.3 1.9 1.8 1.2-1.2-1.8-1.8-1.4-1.3h4.5v-1.8H22l1.4-1.3 1.8-1.8-1.2-1.2-1.9 1.8-1.3 1.3V97z"/><path class="s6" d="M106.1 126.7V125c0-.3.2-.5.6-.5h2.3l-1.7-1.6c-.2-.2-.2-.6 0-.8l1.2-1.2c.2-.2.6-.2.8 0l1.6 1.6v-2.2c0-.4.2-.6.5-.6h1.7c.3 0 .6.2.6.6v2.2l1.6-1.6c.2-.2.5-.2.8 0l1.1 1.2c.2.2.2.6 0 .8l-1.6 1.6h2.3c.3 0 .5.2.5.5v1.7c0 .3-.2.6-.5.6h-2.3l1.6 1.6c.2.2.2.5 0 .7l-1.1 1.2c-.3.2-.6.2-.8 0l-1.6-1.6v2.3c0 .3-.3.5-.6.5h-1.7c-.3 0-.5-.2-.5-.5v-2.3l-1.6 1.6c-.2.2-.6.2-.8 0l-1.2-1.1c-.2-.2-.2-.6 0-.8l1.7-1.6h-2.3c-.4 0-.6-.3-.6-.6z"/><path fill-rule="evenodd" class="s5" d="M59.2 80.4c-7.9.1-3.3 6.2-4.6 7.4-1.3 1.2-11.2 2.6-12.2 0s-.5-5.6-5-5.6c-4.4 0-12.2 2.3-14.9-1.6 0 0-2.2-4.7 0-9.9 2.1-5.2 5.4-7.1 7.9-12.1 2.5-5.1 7.5-11.4 10.9-11.7 3.4-.4 12-.8 13.2 1.6 1.2 2.4-.1 18.3.6 20.5.7 2.1 4.1 2.1 5.3 2.8 1.2.7 3.3 8.5-1.2 8.6zM40.7 63.9s-5.3 5.9-5 6.5c.2.6 4.4 1.4 5 0 .7-1.4 0-6.5 0-6.5z"/><path class="s5" d="M93.3 55.8s.9-7.1 1.8-8.1c.8-.9 12.1-.8 16-1 3.8-.3 13.4-1.3 13.7 2.7.3 4 2 9.1-7 8.8-9.1-.3-11.5 0-11.5 1.1s.4 3.8 2.9 2.7c2.5-1.1 7.5-.3 10.4 1.8 4.1 3 7.7 6.5 8.5 8.8.9 2.1.4 7.3-3.3 10.8-4.4 4.2-9.1 6.6-13.1 8.1-4.1 1.6-9.2.4-13.5-2.8-4.2-3.2-10.7-8.3-7.5-12.3 3.3-4.1 8.5-2.1 12-.7 3.6 1.4 7.5 2.5 8.4 1 .8-1.4 1.8-4.8-1.8-4.9-3.6-.2-10.9 2.4-14.3 0-3.4-2.4-4.3-5.1-3.1-9.7 1.2-4.7 1.4-6.3 1.4-6.3zM88.9 92.9q0 .5-.5.8-.4.3-.9.3t-.9-.3q-.3-.3-.3-.8t.3-.9q.4-.3.9-.3t1 .3q.4.4.4.9zm-2.5 7.6c-.1-1.7-.1-3.1-.1-4q0-.5.4-.9.4-.3.9-.3t.8.4q.4.4.4.9v3.9q.2 3.8.2 4 0 .4-.4.8-.3.4-.8.4t-.9-.3q-.3-.3-.3-.8c-.1-.7-.1-2-.2-4.1z"/><path fill-rule="evenodd" class="s5" d="M94.2 105.8c-.2-.1-.4-.4-.5-.7v-.2q-.1-.2-.1-.5v-.1c-.2-1.5-.5-3.8-.6-7.2-.1-.1-.1-.1-.1-.2v-.6c.1-.3.2-.6.4-.7.2-.2.4-.3.8-.4.2 0 .4.1.6.2q1.6-.3 2.7-.3 1.2 0 2.1.4c1 .3 1.5.9 1.8 1.7q.5 1.5-.5 2.7l-.2.1c.5.4.9.7 1.1 1.1.3.6.4 1.2.2 1.7-.1.6-.4 1.2-.9 1.7-.8.7-1.9 1.1-3.4 1.2H95.7q-.2.3-.6.4-.4.1-.9-.3zm3.8-7.1q.8-.2 1-.5.1 0 0-.3 0-.1-.3-.2-.5-.1-1.4-.1-.8 0-1.9.1v1.6c1.1-.2 2-.3 2.6-.6zm1.2 4.1c.3-.2.4-.5.4-.5-.1-.2-.5-.5-1.1-.7-.3-.1-.8-.1-1.6 0-.3 0-.8.1-1.3.2q.1.8.2 1.5h1.7q1.4-.1 1.7-.5z"/></svg>