<svg version="1.2" xmlns="http://www.w3.org/2000/svg" width="186" height="60"><style>.s0{fill:#ffe600}.s1{fill:#03f}.s2{fill:#f09}.s3{fill:#ff8b00}.s4{fill:#03cea4}</style><path class="s0" d="m1.6 22.1 182.9-4.4.8 42.3-174.9-3.1 171.8-.3V20.7z"/><path class="s1" d="m1.6 22.1 180.6-2v37.3L0 56.8l34.7-.8-1.4-33.7z"/><path fill-rule="evenodd" class="s0" d="M33.1 54.9 0 55.1l1.2-31 30.1-.2zm-2.4-1.4-.6-27.7-27.7-.6-.5 28 7.9.1 4.7-1.1.4-3.4-.5.1-.5-.1-.5.1-.5.3s.1-1.2-.4-1.7c-.5-.6-2.3-2.1-2.7-3.8-.5-1.7.4-5.1.2-6.2-.2-1.1-.7-2-3.5-1.3s-3.5 1-3.5 1v-1.6l12.2-5.3 13.4-.6s.6 1.1.3 1.9q-.1.2-.2.3l-.1 4.9.6 1.3-1.9-.2.6-1.1.6-4.9c-.2-.1-.5-.4-.7-.4-.4 0-4.4 1.4-4.4 1.4s.4 2.9.7 3.2c.2.3 1.2 1.6 1.4 2.7q.1.3 0 .6c-.1.2-.2.5-.3.8-.2.6-.3 2 .1 2.4.4.4 1.6.7 1.4 1.2-.2.6-.8.6-.8.6s.4 1.7.2 1.8c-.4.2-.2.3-.2.3l.1.1c.1.1.1.2 0 .3-.2.1-.3.3-.3.5 0 .3.1 1.3-1 1.8-1.1.4-3.1.3-3.3.5-.2.2-.1 1.9.2 2.1.2.1 4.9 1.4 5.7 1.7z"/><path class="s0" d="M46.7 51.9q-.4-.1-.5-.5L45 48.7v1q-.1.9-.1 1.3t-.2.7q-.3.3-.6.3-.4 0-.7-.3-.2-.3-.2-.7 0-5-.1-6.1 0-.4.3-.7.2-.2.6-.2.3-.2.6 0 .3.1.5.4l2 4.6q1.3-2.8 2-4.3.1-.4.3-.6.2-.2.5-.2.4 0 .7.2.3.3.3.7.3 4.2.1 6.3 0 .4-.3.7-.2.2-.6.2-.4 0-.6-.3-.3-.3-.3-.7.1-1.1.1-2.4l-1.4 2.7q-.1.2-.3.4l-.2.2q-.4.1-.7 0z"/><path fill-rule="evenodd" class="s0" d="M56.2 52q-.7-.2-1.2-.6-.5-.4-.8-1-.3-.6-.3-1.2-.2-1.1.1-2.2.2-1.1.9-1.8.7-.9 1.8-1.2 1-.2 2.3.3.5.2 1 .6 0 .1.2.2l.2.2.2.2q.3.2.3.6.1.4-.1.7-.2.2-.5.3.1.3.2.7v.6q.1.5.2 1.1v.2l.1.1.6.7q.3.2.3.6 0 .4-.3.7-.2.2-.6.2-.4 0-.6-.2l-.6-.7q-.3-.3-.5-.6l-.1.2-.2.2-.2.2-.2.2-.2.2q-.2.1-.3.2-.2.1-.3.2-.8.2-1.4.1zm.9-1.9q0-.1.1-.1l.1-.1q.1-.1.1-.2.1 0 .2-.2l.2-.2.3-.6V48q.1-1 .8-1.4h.2l-.3-.3q-.3-.2-.5-.3-1.3-.6-2.1.4-.4.4-.5 1.1-.2.8-.1 1.5.1.6.5.9.5.4.8.2h.2z"/><path class="s0" d="M63.9 52.4q-.3 0-.6-.2-.3-.3-.4-.6 0-.4.2-.7l.5-.7q.3-.2.5-.4.1-.2.2-.5.2-.4.2-1.9v-2.5q0-.4.2-.6.3-.3.6-.3h.8q.5-.1.6-.1h2.9q.4.1.6.4.2.3.2.7-.3 3.7-.3 6 0 .4-.3.7-.2.3-.6.3-.4 0-.6-.3-.3-.3-.3-.7 0-2.3.2-5.2h-2.2v1.6q0 1.9-.3 2.7-.2.4-.5.8-.3.3-.6.7-.3.4-.4.4-.2.3-.6.4z"/><path fill-rule="evenodd" class="s0" d="M74.7 51.4q-.7-.4-1.2-1.1-.4-.7-.5-1.4 0-.7.1-1.4t.4-1.4q.3-.6.8-1.1.5-.5 1.1-.8.7-.3 1.4-.3.8 0 1.6.4 1 .6 1.5 1.6.2.5.3 1.2v.7q0 .3-.1.5-.1.3-.3.4-.2.2-.5.2-2.4-.2-4.5-.1.1.7.7 1.1.4.2.9.3.5.1.8 0l.4-.2.3-.3.3-.3q.3-.2.7-.1.3 0 .5.4.2.3.2.6-.1.4-.4.6l-.2.2-.3.3q-.5.4-1 .5-.8.2-1.6.1-.8-.2-1.4-.6zm3.7-4.4v-.2q-.3-.6-.8-.9-.8-.4-1.4-.1-.7.3-1.2 1.2h3.4z"/><path class="s0" d="M84.1 52q-.4 0-.7-.2-.3-.3-.3-.7-.1-.6-.1-1.2-.1-.6-.1-1.4V45q0-.4.2-.7.3-.3.7-.3.3 0 .6.3.3.2.3.6v2h2.9l-.1-2q0-.4.3-.7.2-.2.6-.2.3 0 .6.2.3.3.3.7.1 4.6.1 6.1.1.4-.2.7-.3.3-.6.3-.4 0-.7-.3-.2-.3-.2-.7-.1-1-.1-2.3-1.6.1-2.9.1.1 1.1.2 2.1 0 .4-.2.7-.3.3-.6.4z"/><path fill-rule="evenodd" class="s0" d="M93.1 51.8q-.3-.2-.3-.6 0-1.2-.1-3.4-.1-2.1-.1-2.9 0-.4.2-.7.3-.2.7-.2.3-.1.6.2.3.3.3.7v1.9q.6-.1.9-.1.7-.1 1.1 0 .7 0 1 .2.5.3.9.9.4.5.5 1.1.2 1.4-.6 2.2-.6.6-1.7.8-.8.1-2.2 0-.2.2-.6.2-.4 0-.6-.3zm3.1-1.8q.5 0 .7-.2.1-.2.1-.6-.1-.4-.4-.6h-.2q0-.1-.1-.1-.3 0-.8.1h-1q.1.8.1 1.4 1 .1 1.6 0z"/><path class="s0" d="m104.3 48.7-1 .9q0 .7.1 1.3 0 .4-.2.7-.2.3-.6.4-.3 0-.6-.2t-.4-.6q-.3-2.7-.2-6.3 0-.4.3-.7.3-.2.6-.2.4 0 .7.3.2.3.2.7 0 1.2-.1 2.2l3.2-3q.3-.3.7-.2.3 0 .6.3.2.3.2.6 0 .4-.3.7l-1.9 1.8q1 1.4 2.5 3 .2.3.2.7 0 .4-.3.6-.3.3-.7.3-.3 0-.6-.3-1.5-1.7-2.4-3zM110.6 50.9v-.1q-.1-3.1.1-6 0-.4.3-.7.3-.2.7-.2.4.1.6.3.2.3.2.7-.1 1.8-.1 3.4l.6-.9q1.4-1.8 2.1-3 .2-.4.6-.5.2-.1.3-.1.4 0 .7.3.3.3.3.7V51q0 .4-.2.7-.3.3-.7.3-.3 0-.6-.3-.3-.2-.3-.6v-3.6l-.8 1q-2 2.8-2.1 3.1-.2.3-.6.4-.4 0-.7-.2-.4-.3-.4-.9zM120.3 52q-.4 0-.6-.3-.3-.3-.3-.7 0-.3.3-.6 1-1.1 1.9-2.3-.9-1.2-1.8-2.7-.2-.3-.1-.7.1-.4.4-.6.3-.2.7-.1.4.1.6.4l1.3 2.2q.6-1 1.2-2.1.2-.4.5-.5.4-.1.7.1.4.2.5.5.1.4-.1.8-.8 1.5-1.7 2.7.8 1.2 1.7 2.4.2.3.2.6-.1.4-.4.7-.2.2-.6.2-.4-.1-.6-.4l-1.4-1.9q-.8 1.1-1.8 2.1-.2.2-.6.2zM133.5 45v-.4q.1-.3.3-.4.3-.2.6-.2h2.9q.4 0 .6.2.3.3.3.7 0 .4-.3.7-.2.2-.6.2h-2q0 3.5.1 5.2 0 .4-.2.7-.3.3-.7.3-.3 0-.6-.2-.3-.3-.3-.7-.1-1.7-.1-6.1z"/><path fill-rule="evenodd" class="s0" d="M141.9 51.4q-.8-.4-1.2-1.1-.4-.7-.5-1.4 0-.7.1-1.4t.4-1.4q.3-.6.8-1.1.5-.5 1.1-.8.7-.3 1.4-.3.8 0 1.6.4 1 .6 1.5 1.6.2.5.3 1.2v.7q.1.3-.1.5-.1.3-.3.4-.2.2-.5.2-2.4-.2-4.5-.1.2.7.7 1.1.4.2.9.3.5.1.8 0l.4-.2.3-.3.3-.3q.3-.2.7-.1.3 0 .5.4.2.3.2.6-.1.4-.4.6l-.2.2-.3.3q-.5.4-1 .5-.8.2-1.6.1-.8-.2-1.4-.6zm3.7-4.4v-.2q-.3-.6-.8-.9-.8-.4-1.5-.1-.6.3-1.1 1.2h3.4z"/><path class="s0" d="M151.3 52q-.4 0-.7-.2-.3-.3-.3-.7-.1-.6-.1-1.2-.1-.6-.1-1.4V45q0-.4.2-.7.3-.3.7-.3.3 0 .6.3.3.2.3.6v2h2.9l-.1-2q0-.4.3-.7.2-.2.6-.2.3 0 .6.2.3.3.3.7.1 4.6.1 6.1 0 .4-.2.7-.3.3-.6.3-.4 0-.7-.3-.2-.3-.2-.7-.1-1-.1-2.3-1.6.1-2.9.1.1 1.1.2 2.1 0 .4-.2.7-.3.3-.6.4zM161.7 42.1q0 .4-.3.7-.4.2-.7.2-.4 0-.7-.2-.2-.3-.2-.7 0-.4.2-.7.3-.2.7-.2.3 0 .7.2.3.3.3.7zm-1.8 5.9q-.1-2-.1-3.1 0-.4.3-.7.3-.2.6-.2.4 0 .7.3.2.3.2.7v2.9q.2 3 .2 3.1 0 .4-.3.7-.2.3-.6.3-.4 0-.7-.3-.2-.3-.2-.7 0-.5-.1-3zM165.1 43q-.2.2-.7.2-.4-.1-.7-.4-.2-.2-.2-.5t.1-.6q.1-.3.5-.5h.6q.1 0 .3.1.3.1.4.4.1.4 0 .7 0 .3-.3.6zm1.5 8.8q-.3.3-.8.3-.4 0-.7-.3-.3-.4-.3-.8.1-3.9-.1-5.8 0-.4.3-.7.3-.4.7-.4.4 0 .7.3.3.3.4.7.1 2 .1 5.9 0 .5-.3.8zm1-8.8q-.2.2-.7.2-.4-.1-.6-.3-.3-.3-.3-.6t.1-.5q.1-.3.3-.5.2-.1.6-.1h.4l.2.2q.2.1.3.4.1.3 0 .6 0 .4-.3.6z"/><path fill-rule="evenodd" class="s0" d="M170.8 52.2q-.3-.2-.4-.6v-.2q-.1-.2-.1-.4-.3-1.7-.4-5.6-.1-.1-.1-.2v-.5q.1-.3.3-.5.2-.3.6-.3.2 0 .4.1 1.2-.1 2-.1 1 0 1.6.2 1.1.4 1.3 1.4.4 1.1-.4 2l-.1.1q.5.4.8.9.3.7.2 1.3-.1.7-.7 1.3-.8.8-2.5.9H172q-.2.2-.5.3-.4.1-.7-.1zm2.8-5.6q.6-.1.7-.4.1 0 .1-.2 0-.1-.3-.1-.3-.2-1-.2-.6 0-1.5.1.1.8.1 1.2 1.2-.1 1.9-.4zm.9 3.2q.3-.3.3-.4-.2-.3-.8-.5-.4-.2-1.2-.1-.4.1-.9.2 0 .6.1 1.2h1.2q1-.1 1.3-.4z"/><path class="s2" d="M42.2 37.1s0-1 .4-1.6c.3-.5.9-.7 1-1.3.2-.6.3-1.7.2-2.7-.2-1-.4-2.4-.4-2.8 0-.5.1-1 .3-1.3.2-.3.8-.7 1.6-.7s7.9-.1 7.9-.1 1.8 0 1.4 2.6c-.4 2.6-.3 3.2-.2 4.6 0 1.3.3 3.2-.1 4-.3.8-1.1 1.1-2.4.9-1.4-.1-1.9-.5-2-2-.1-1.5.2-5.2.1-5.6-.1-.4-.4-.6-.8-.6-.5.1-1.3.1-1.3.5 0 .5.3 3-.1 3.9-.3 1-.7 2.9-1.7 3.3-1 .5-2 .7-3 .3-1-.5-.9-1.4-.9-1.4z"/><path fill-rule="evenodd" class="s0" d="M67.3 38.5c-1 .1-2 0-2.3-.3-.3-.2-.8-.8-1.1-1-.3-.1-2.4 0-2.6.1-.3.1-.8.6-1.3 1-.4.4-1.4.7-2.4.4-1.1-.2-1.4-.5-1.5-.8-.1-.4.1-.9.7-2.1.5-1.2 1.1-4.1 1.2-4.7.1-.6.8-1.6 1-2.2.2-.6.4-1.3.7-1.8.3-.4.6-.6 2.2-.6 1.6.1 2.2-.1 2.8.6.6.7 3.8 8.9 3.8 9.9.1 1.1-.3 1.5-1.2 1.5zm-5.2-7.4c-.5.1-.6 2.1-.5 2.3.2.2 1.4.4 1.5.2.1-.2-.4-2.6-1-2.5zM117.4 38.5c-.9.1-2 0-2.2-.3-.3-.2-.8-.8-1.1-1-.3-.1-2.4 0-2.7.1-.2.1-.7.6-1.2 1s-1.5.7-2.5.4c-1-.2-1.3-.5-1.4-.8-.1-.4.1-.9.6-2.1.5-1.2 1.2-4.1 1.3-4.7.1-.6.7-1.6 1-2.2.2-.6.3-1.3.6-1.8.3-.4.7-.6 2.3-.6 1.5.1 2.2-.1 2.8.6.6.7 3.7 8.9 3.8 9.9 0 1.1-.4 1.5-1.3 1.5zm-5.1-7.4c-.5.1-.7 2.1-.5 2.3.1.2 1.3.4 1.4.2.1-.2-.4-2.6-.9-2.5z"/><path fill-rule="evenodd" class="s3" d="M80 37c-1 1.6-3.4 1.8-4.3 1.7h-3.3c-.7.1-2 .1-2.4-.3-.3-.4-.4-1.2-.4-1.7 0 0 .5-2.4.4-3.7 0-1.3.1-1.8 0-2.6-.1-.7-.6-2-.4-2.6.3-.6.9-1.3 2.1-1.1 1.1.2 5.4.2 6.1 0 .6-.2 1.9.3 2.2 1.1.3.8.3 2.5-.7 3s-2.6.1-3.2 0c-.6-.1-1.8-.3-1.9-.1 0 .2-.1.6 1.1.7 1.2.1 3.6 1.3 4.2 1.7.7.5 1.5 2.3.5 3.9zm-4.5-2.7c-.5-.3-1.3-.1-1.5.4-.1.6.2 1.1.2 1.1.4.2.7.2 1.2 0 .4-.2.6-1.2.1-1.5z"/><path fill-rule="evenodd" class="s4" d="M93.1 35.7c-.4.8-1.3 2.7-4.3 3.1-2.9.3-5.2-.1-6-1.5-.7-1.3-.3-2.5-.7-3.2-.3-.8-.6-2.1-.4-3.6 0 0 .8-2 2.9-2.9 2.2-.9 2.2-1.2 4-1 1.9.2 3.6 1.1 4.2 2.4.5 1.3.6 3.5.4 4.2-.2.6.2 1.7-.1 2.5zm-5.4-5.9c-1 .1-1.6.5-1.6 2.6 0 2.2.6 2.4.6 2.4 1.1.9 1.9.1 1.9-.2 0-.4 0-.7.1-1.3.3-2.2 0-3.6-1-3.5zM142.7 35.7c-.3.8-1.3 2.7-4.2 3.1-2.9.3-5.3-.1-6-1.5-.7-1.3-.4-2.5-.7-3.2-.4-.8-.6-2.1-.4-3.6 0 0 .7-2 2.9-2.9 2.2-.9 2.1-1.2 4-1 1.9.2 3.6 1.1 4.2 2.4.5 1.3.5 3.5.4 4.2-.2.6.2 1.7-.2 2.5zm-5.3-5.9c-1 .1-1.6.5-1.6 2.6 0 2.2.6 2.4.6 2.4 1.1.9 1.9.1 1.9-.2 0-.4 0-.7.1-1.3.2-2.2-.1-3.6-1-3.5z"/><path fill-rule="evenodd" class="s2" d="M106.1 31.9c-.2.9-1.1 2.2-2.3 2.9-1.1.7-2.5.8-3.4.7-1 0-1 .8-1 1.1 0 .3 0 1.5-.2 1.8-.3.3-2.5.4-2.5.4s-.9 0-1.2-.7c-.2-.8-.4-3.4-.3-4.2.1-.8.3-2.6.2-3.2-.1-.6-.6-2.2-.3-2.9.4-.7 1.9-1.4 3.9-1.1 2 .3 4 .4 5.3 1.5 1.3 1.1 2 2.9 1.8 3.7zm-4.6-1.6c-.3-.5-1.8-.4-2.1-.1-.2.2.2 1.9.2 1.9.4.3 1.3.3 1.8 0 .5-.2.4-1.3.1-1.8zM156.7 31.9c-.2.9-1.1 2.2-2.3 2.9-1.1.7-2.5.8-3.4.7-1 0-1 .8-1 1.1 0 .3 0 1.5-.2 1.8-.2.3-2.5.4-2.5.4s-.9 0-1.1-.7c-.3-.8-.5-3.4-.4-4.2.1-.8.3-2.6.2-3.2-.1-.6-.6-2.2-.2-2.9.3-.7 1.9-1.4 3.9-1.1 1.9.3 3.9.4 5.2 1.5 1.3 1.1 2 2.9 1.8 3.7zm-4.6-1.6c-.3-.5-1.8-.4-2-.1-.3.2.1 1.9.1 1.9.4.3 1.3.3 1.8 0 .5-.2.4-1.3.1-1.8z"/><path class="s3" d="M122.7 31.8s.7-1.2 0-1.5c-.6-.3-2.2-.1-2.5-.3-.3-.1-1.1-1.3-.6-2.6.4-1.2 5.1-.8 6.1-.9 1 0 2.4.3 3 .2.6-.1 2.1.5 1.9 1.8-.3 1.4-.5 2-1.6 1.9-1 0-1.9-.1-1.9.7 0 .8.4 2.9.3 3.4-.2.6-.4 1.2-.3 2 0 .7 0 1.9-.9 2.1-.8.2-2.1.4-2.6.2-.6-.1-1.2-1.1-1.2-2.1s-.1-3.6.3-4.9zM158.8 29.8s-.4-1.6-.3-2.1c.1-.4.6-1.3 2.8-1 2.1.4 1.9 1.3 1.9 2.2 0 1 .3 2.2 0 3.1-.2 1-.3 3-.2 3.6 0 .6.5 2.1-.2 2.7-.6.5-3.1.6-3.6.2-.6-.3-.9-2.1-.9-3.1.1-1-.1-2-.1-2.6.1-.7.6-2.8.6-3z"/><path fill-rule="evenodd" class="s4" d="M177.1 33.6c-.1.9-.1 3.6-.6 4.2-.4.6-.7 1-2.1.9-1.5-.1-1.5-.4-1.7-1.1-.2-.7 0-2.2-.4-2.5-.3-.3-.8-.4-.8-.2 0 .3 0 .5-.2.8-.3.7-.7 1.1-.9 1.4-.2.4-.6 1.3-1.3 1.5-.7.1-2.2.5-2.7.1-.4-.4-.5-1.2-.4-1.7.2-.6.7-1.8 1.6-2.6.2-.2.3-.2.3-.2s-.6-.4-1.2-.9c-.6-.6-1.1-2.1-.8-3.3.3-1.2 1-2.3 2.2-2.8 2.3-1 7.5-.8 7.8-.5.4.3.7.2.9 1.6.1 1.5.4 4.3.3 5.3zm-5.1-3.5c-.4-.2-1.5 0-1.6.6-.1.5.5.8.9.9.4.1.7-.4.7-.4s.3-.8 0-1.1z"/><path class="s1" d="M10.1 14.4q-2.1-.1-6.8 0h-.8q-.1 0-.3-.1-.3-.1-.5-.2-.1-.1-.2-.3-.1-.1-.1-.2V9.8q.1-3 0-5.4 0-.4.2-.7.3-.2.6-.2.4 0 .7.2.2.2.2.6.1 2.4 0 8.4h.2q3.7-.1 5.4-.1.1-6.4 0-7v-1q-.1-.4.1-.7.2-.2.6-.3.4-.1.6.2.3.2.4.5 0 .6.1 1.2 0 .7-.1 7.2.3.1.5.1.3 0 .5.2.4.2.4.7-.2 2.6-.4 2.8-.3.2-.7.2-.3 0-.6-.3-.2-.3-.2-.7.2-1.2.2-1.3zM14.6 14.3q-.4 0-.7-.2-.3-.3-.3-.7 0-.1.1-.3-.5-3.9-.4-8.3-.1-.1-.1-.3 0-.4.3-.6.3-.3.7-.3h6.3q.4 0 .6.3.3.2.3.6 0 .4-.3.7-.2.3-.6.3h-5.4q0 1.2.1 2.4 1.5 0 4.9-.1.3 0 .6.3.3.2.3.6 0 .4-.2.7-.3.3-.7.3-3.3.1-4.8.1.1 1.2.2 2.7h5.2q.4 0 .7.3.2.3.3.7-.1.4-.3.7-.3.2-.7.2-2.4 0-6.1-.1zM23.3 8.9q-.1-.1-.1-.2v-.3q0-2.5-.1-3.9-.1-.4.2-.6.3-.3.7-.4.3 0 .6.3.3.2.4.6 0 1.2.1 3.3h2.6q1.7.1 2.5.1.1-1.8.2-3.5 0-.4.3-.6.3-.3.7-.2.4 0 .6.3.3.3.3.7-.3 4.2-.3 9 0 .4-.3.7-.2.2-.6.2-.4 0-.7-.2-.3-.3-.3-.7 0-1.9.1-3.8-.9 0-2.5-.1h-2.5q0 2.5.1 3.8 0 .4-.2.7-.3.3-.7.3-.4.1-.7-.2-.3-.3-.3-.7 0-1.3-.1-4.6zM38.6 14.2q-.3.2-.7.2-.4 0-.6-.3-.3-.2-.3-.6.1-6 .1-8h-2.6q-.4 0-.7-.3-.3-.3-.3-.7 0-.4.3-.6.3-.3.7-.3 1.1 0 3.5.1h3.5q.4 0 .7.3.3.3.3.7 0 .4-.3.6-.3.3-.7.3H39q0 2-.1 7.9 0 .4-.3.7z"/><path fill-rule="evenodd" class="s1" d="M44 11.6v-2q0-1-.1-2.1 0-1.1-.1-2-.3-.3-.3-.6-.1-.5.3-.9.2-.4.8-.5.3 0 .6.2.6-.1 1.1-.2h1.2q.7-.1 1.3.1.6.1 1.1.4.7.3 1.3 1 .5.7.7 1.5.2.8-.1 1.6-.3.9-1.1 1.5-1 .7-2.9.7h-1.3q-.1 0-.6-.1v3.3q0 .4-.3.7-.3.2-.7.3-.4 0-.6-.3-.3-.3-.3-.7v-1.9zm5.5-3.5q.4-.3.5-.8.1-.4-.1-.9-.3-.5-.8-.7-.5-.3-1.1-.3-.6-.1-1 0-.5 0-1.3.1.1 1.3.1 2.8h.4q.3.1.5.1.7.1 1.1.1 1.2 0 1.7-.4zM57.7 11.6V7.5q-.1-1.1-.1-2-.3-.3-.3-.6-.1-.5.3-.9.2-.4.7-.5.4 0 .6.2.7-.1 1.2-.2h1.1q.7-.1 1.3.1.7.1 1.2.4.7.3 1.2 1t.8 1.5q.2.8-.1 1.6-.3.9-1.2 1.5-1 .7-2.8.7h-1.3q-.2 0-.7-.1v3.3q0 .4-.2.7-.3.2-.7.3-.4 0-.7-.3-.3-.3-.3-.7v-1.9zm5.6-3.5q.4-.3.5-.8.1-.4-.2-.9-.2-.5-.8-.7-.4-.3-1-.3-.6-.1-1.1 0-.4 0-1.2.1 0 1.3.1 2.8h.4q.3.1.5.1.6.1 1.1.1 1.2 0 1.7-.4zM72.1 3.6q.3 0 .6.1.4.1.8.5.4.3 1.1 1 .8.9 1.1 1.5.5.9.7 1.8.1.9-.1 1.9-.2 1-.7 1.8-.4.8-1.3 1.4-.9.6-2 .8-1.2.1-2.2-.1-1-.3-1.7-.9-.7-.6-1.2-1.4-.5-.8-.7-1.7-.1-.7-.1-1.4 0-.6.2-1.4.2-.8.6-1.4.3-.7.9-1.3.6-.6 1.3-1s1.2-.4 2.7-.2zm1.3 8.3q.6-.5.9-1.2.3-.7.2-1.6 0-.7-.4-1.5-.3-.5-.9-1.1-.8-.9-1.1-1-.1 0-.6-.1h-.8q-.2 0-.4.1-1.2.6-1.7 1.9-.5 1.3-.2 2.5.3 1.3 1.2 2.1.9.7 2.4.5.8-.1 1.4-.6z"/><path class="s1" d="M81.1 14.4q-.7.1-1.4-.1-.7-.3-1.2-.7-.3-.3-.5-.8l-.2-.4q-.1-.2-.1-.3-.2-.2-.1-.6.1-.3.4-.5.3-.2.6-.1t.5.4l.2.4.2.3q.1.3.2.4.3.2.9.3.6.1 1.5-.1.8-.2 1.3-.5t.6-.7q.1-.3-.1-.8-.3-.6-.7-.8-.2-.1-.8-.2H82q-.4.1-.6 0-.6-.2-.7-.7-.2-.5.1-.9.1-.1.3-.2.1 0 .2-.1h.7q.6-.1 1-.3.3-.3.4-.5.1-.2 0-.7 0-.5-.5-.8-.4-.2-1.1-.2-.8 0-1.4.3-.7.3-.8.6v.2q-.1 0-.1.1v.3q-.1.4-.4.6-.3.2-.6.1-.3 0-.5-.3t-.2-.7V6.1q.1-.4.2-.7.5-1 1.6-1.5 1-.4 2.2-.4.5 0 1 .1.6.1 1 .4.5.3.9.8.3.5.4 1.1.1 1.1-.1 1.7-.2.5-.7.9.7.5 1.1 1.3.6 1.2.3 2.1-.3 1-1.2 1.6-.9.6-2 .8-.7.1-1.4.1z"/><path fill-rule="evenodd" class="s1" d="M88.2 14.3q-.3-.1-.5-.3-.3-.3-.3-.6-.1-4.2 0-8.7 0-.4.2-.6.2-.3.5-.3h.1l.4-.1q.5-.1.6-.1.1 0 .5-.1h.6q.2 0 .6-.1.4 0 .7.1l.6.1.6.2q.3.1.6.3.9.6 1.3 1.3.4.8.2 1.6T94 8.4q.1.2.3.3.6.6.9 1.4.2.8 0 1.6-.1.7-.6 1.3-.6.6-1.3 1-.4.2-.9.3-.5.1-1.1.2h-1q-.4 0-1-.1h-.7q-.2-.1-.4-.1zm1.6-6.5H91q.3-.1.5-.1.3-.1.5-.2.5-.2.7-.5.3-.2.4-.5.1-.4-.7-.9-.5-.3-1.4-.3-.9 0-1.8.1-.1 1.2-.1 2.4h.7zm1.2 4.8q1 0 1.5-.3.8-.4 1-1.1.1-.6-.5-1.2-.2-.1-.3-.2-.2-.1-.4-.1-.2-.1-.3-.1H90.7q-.1.1-.2 0H89.2v3q.9.1 1.8 0z"/><path class="s1" d="M97.8 14.4q-.3 0-.5-.3t-.2-.7q.2-2.2.2-4.5T97 4.5q-.1-.3.1-.6t.6-.4q.4 0 .6.2.3.2.4.6.5 3.1.3 7.3.6-.6 1.2-1.3.6-.7 2.2-3l2.1-3.4q.2-.3.5-.4.4-.1.7.1.2.2.3.5.1.2 0 .5 0 1-.1 2.4t-.1 2.2q-.1.9 0 2.1 0 1.3.2 2.1.1.4-.1.7-.2.3-.6.3-.3.1-.6-.1t-.4-.5q-.3-1.3-.3-3t.1-3.1q-.6 1.1-1.2 1.8-.5.8-1.2 1.7-.7.9-1.5 1.7-.9.7-1.7 1.4-.3.2-.7.1zM112.4 14.2q-.3.2-.7.2-.4 0-.7-.3-.2-.2-.2-.6.1-6 .1-8h-2.6q-.4 0-.7-.3-.3-.3-.3-.7 0-.4.3-.6.3-.3.7-.3 1.1 0 3.4.1h3.6q.4 0 .7.3.3.3.3.7 0 .4-.3.6-.3.3-.7.3h-2.5q0 2-.1 7.9 0 .4-.3.7zM124.1 13.7l-.7-.7q-.3-.3-.5-.6-.5-.6-1.3-1.8l-.7-1-1.5 1.3q0 1.3.1 2.5 0 .4-.2.7-.3.3-.7.3-.3.1-.6-.2-.3-.3-.4-.6 0-1.2-.1-2.6-.2-.5 0-.9-.1-1.7-.1-5.6 0-.4.3-.7.3-.3.7-.3.4 0 .6.3.3.3.3.7v3.9q1.9-1.6 4.7-4.5.3-.3.6-.3.4 0 .7.2.3.3.3.7 0 .4-.2.7-1.9 1.8-3.1 3.1.3.4.8 1.2.8 1.1 1.3 1.7.2.3.5.6l.6.6.6.6q.2.2.1.5-.1.4-.3.7-.2.2-.6.2-.5 0-.8-.3l-.4-.4zM127.9 14.5l-.3-.2q-.2-.1-.3-.1-.3-.1-.5-.5-.1-.3 0-.6.1-.4.5-.5.3-.2.6 0 .2 0 .4.1l.4.2q.2.1.4.1.1 0 .1-.1h.1l.1-.1.1-.1.1-.1q.2-.2.6-.8-1.6-2.7-3.4-7-.2-.3-.1-.7.2-.3.5-.5.3-.1.6 0 .4.1.5.4 1.7 4.1 3 6.2 2.1-3.3 2.7-6 .1-.3.4-.5.3-.2.6-.1.4.1.5.4.2.3.2.6-.5 1.9-1.5 4-1.1 2.2-2.4 4-.7.9-1 1.2-.9 1-1.9.9-.4 0-1-.2z"/><path fill-rule="evenodd" class="s1" d="M148.7 14.3q-1.6.1-6.7.1l.1 1q.1.4-.1.7-.2.3-.6.4-.3.1-.6-.2-.3-.2-.4-.6l-.1-.5v-.3q0-.1-.1-.2v-1.1q0-.4.2-.6.2-.3.5-.3 1.8-3.6 1.4-8V4.4q0-.4.3-.6.2-.2.6-.2H148.1q.2 0 .4.2.7.5.7 1.8v1.1q-.1 1.3.1 3.4 0 .3.1 1.1 0 .9.1 1.4.4 0 .6.2.3.2.3.6V15.7q0 .4-.3.7-.2.2-.6.2-.4 0-.6-.2-.3-.3-.3-.7.1-1 .1-1.4zm-1-1.7q0-.5-.1-1.3v-1.1q-.2-2.1-.1-3.6V5.3H144.1q.2 4.1-1.3 7.4 3.4-.1 4.9-.1z"/><path class="s1" d="M151.8 4.5q0-.4.2-.7.3-.2.7-.3.4 0 .7.3.3.3.3.7.2 6.2.2 9 0 .4-.3.7-.3.2-.7.2-.4 0-.6-.2-.3-.3-.3-.7 0-2.7-.2-9zM160 14.2q-.3.2-.7.2-.4 0-.6-.3-.3-.2-.3-.6.1-6 .1-8h-2.6q-.4 0-.7-.3-.3-.3-.3-.7 0-.4.3-.6.3-.3.7-.3 1.1 0 3.5.1h3.5q.4 0 .7.3.3.3.3.7 0 .4-.3.6-.3.3-.7.3h-2.5q0 2-.1 7.9 0 .4-.3.7zM166.3 14.3q-.4 0-.7-.2-.2-.3-.2-.7v-.3q-.5-3.9-.4-8.3v-.3q0-.4.3-.6.2-.3.6-.3h6.3q.4 0 .7.3.3.2.3.6 0 .4-.3.7-.3.3-.7.3h-5.3v2.4q1.5 0 4.9-.1.4 0 .7.3.3.2.3.6 0 .4-.3.7-.3.3-.7.3-3.3.1-4.8.1.1 1.2.2 2.7h5.3q.4 0 .6.3.3.3.3.7 0 .4-.3.7-.2.2-.6.2-2.4 0-6.2-.1zM175.1 14.1q-.2-.4-.1-.8.4-4.8-.1-8.8-.1-.4.1-.7.2-.3.6-.3.4-.1.6.2.3.2.4.5.4 3.5.2 7.4.7-.6 1.2-1.3.6-.7 1.2-1.6l1-1.5 1-1.7 1-1.6q.2-.3.5-.4.3-.1.6 0t.5.3q.2.3.2.6-.1 1-.1 2.3l-.2 2.4v2.1q0 1.2.2 2.2.1.4-.1.7-.2.2-.6.3-.4.1-.6-.1-.3-.2-.4-.6-.2-1.4-.2-3.1 0-1.8.1-3.2l-1.2 1.9q-.6.8-1.3 1.7-.7.9-1.5 1.7-.8.8-1.6 1.5-.3.2-.7.2-.4 0-.7-.3zm3.1-11.6q-.6-.3-1.3-1-.3-.2-.3-.6 0-.3.2-.6.3-.3.6-.3.4 0 .7.2.9.8 1.3.9.3 0 1.4-.8.3-.2.7-.2.3.1.5.4.2.3.2.6-.1.4-.4.6-.5.3-.8.5-.3.2-.7.4-.5.2-.9.2-.6 0-1.2-.3z"/></svg>