<svg version="1.2" xmlns="http://www.w3.org/2000/svg" width="1870" height="80"><defs><clipPath clipPathUnits="userSpaceOnUse" id="cp1"><path d="M0 0h1920v80H0z"/></clipPath></defs><style>.s0{fill:#94bce0}.s1{fill:#f09}.s2{fill:#ffe600}.s3{fill:#ff8b00}.s4{fill:#03f}.s5{fill:#03cea4}</style><g id="Clip-Path" clip-path="url(#cp1)"><path class="s0" d="M152.3 10.6c2.8 0 5.1-2.3 5.1-5.2 0-2.9-2.3-5.2-5.1-5.2-2.9 0-5.2 2.3-5.2 5.2 0 2.9 2.3 5.2 5.2 5.2zM163.5 10.6c2.8 0 5.2-2.3 5.2-5.2 0-2.9-2.4-5.2-5.2-5.2-2.9 0-5.2 2.3-5.2 5.2 0 2.9 2.3 5.2 5.2 5.2zM152.3 21.8c2.8 0 5.1-2.3 5.1-5.1 0-2.9-2.3-5.2-5.1-5.2-2.9 0-5.2 2.3-5.2 5.2 0 2.8 2.3 5.1 5.2 5.1zM163.5 21.8c2.8 0 5.2-2.3 5.2-5.1 0-2.9-2.4-5.2-5.2-5.2-2.9 0-5.2 2.3-5.2 5.2 0 2.8 2.3 5.1 5.2 5.1z"/><path class="s1" d="m160.9 56.6 1.8-2c.8-.9 2.3-.3 2.3 1l-.1 2.6c-.1.8.6 1.4 1.4 1.4l2.6-.1c1.2-.1 1.9 1.4.9 2.3l-1.9 1.8c-.6.5-.6 1.4 0 1.9l1.9 1.8c1 .8.3 2.4-.9 2.3l-2.6-.1c-.8-.1-1.5.6-1.4 1.4l.1 2.6c0 1.3-1.5 1.9-2.3 1l-1.8-2c-.5-.6-1.4-.6-2 0l-1.7 2c-.9.9-2.4.3-2.4-1l.2-2.6c0-.8-.6-1.5-1.4-1.4l-2.7.1c-1.2.1-1.8-1.5-.9-2.3l1.9-1.8c.6-.5.6-1.4 0-1.9l-1.9-1.8c-.9-.9-.3-2.4.9-2.3l2.7.1c.8 0 1.4-.6 1.4-1.4l-.2-2.6c0-1.3 1.5-1.9 2.4-1l1.7 2c.5.6 1.5.6 2 0z"/><path class="s0" d="M17.6 39.5c2.9 0 5.2-2.3 5.2-5.2 0-2.8-2.3-5.1-5.2-5.1-2.8 0-5.2 2.3-5.2 5.1 0 2.9 2.4 5.2 5.2 5.2zM28.9 39.5c2.8 0 5.1-2.3 5.1-5.2 0-2.8-2.3-5.1-5.1-5.1-2.9 0-5.2 2.3-5.2 5.1 0 2.9 2.3 5.2 5.2 5.2zM17.6 50.8c2.9 0 5.2-2.3 5.2-5.2 0-2.9-2.3-5.2-5.2-5.2-2.8 0-5.2 2.3-5.2 5.2 0 2.9 2.4 5.2 5.2 5.2zM28.9 50.8c2.8 0 5.1-2.3 5.1-5.2 0-2.9-2.3-5.2-5.1-5.2-2.9 0-5.2 2.3-5.2 5.2 0 2.9 2.3 5.2 5.2 5.2z"/><path class="s2" d="M123.4 41.3s-8.6 1.1-10.3 10c-1.8-8.9-10.4-10-10.4-10 8.9-1.7 10.3-10 10.4-10.5v-.1.1c.1.5 1.5 8.8 10.3 10.5z"/><path fill-rule="evenodd" class="s1" d="M116.8.1c-.5 0-1-.2-1.4-.6l-1.8-2q-.2-.2-.5-.2c-.2 0-.4.1-.6.2l-1.7 2c-.6.6-1.4.8-2.2.5-.7-.3-1.2-1.1-1.2-1.9l.2-2.6q0-.3-.2-.6-.3-.2-.6-.2l-2.6.1c-.8.1-1.6-.4-1.9-1.1-.3-.8-.1-1.6.5-2.2l1.9-1.7q.3-.3.3-.6c0-.2-.1-.4-.3-.6l-1.9-1.7c-.6-.6-.8-1.4-.5-2.2.3-.7 1-1.2 1.9-1.1l2.6.1q.3 0 .6-.2.2-.3.2-.6l-.2-2.6c0-.8.5-1.5 1.2-1.9.8-.3 1.6-.1 2.2.5l1.7 2q.3.2.6.2c.2 0 .4-.1.5-.2l1.8-2c.6-.6 1.4-.8 2.2-.5.7.3 1.2 1.1 1.1 1.9l-.1 2.6q0 .3.2.6.2.2.6.2l2.6-.1c.8-.1 1.5.4 1.9 1.1.3.8.1 1.6-.5 2.2l-2 1.7q-.2.3-.2.6c0 .2.1.4.2.6l2 1.7c.6.6.8 1.4.5 2.2-.3.7-1.1 1.2-1.9 1.1l-2.6-.1q-.4 0-.6.2-.2.3-.2.6l.1 2.6c.1.8-.4 1.5-1.1 1.9q-.4.1-.8.1zm-3.7-4c.5 0 1 .3 1.4.7l1.8 1.9c.3.4.7.3.8.2.1 0 .5-.2.5-.7l-.2-2.6c0-.6.2-1.1.6-1.5.4-.4.9-.5 1.4-.5l2.6.1c.5 0 .7-.3.8-.5 0-.1.1-.5-.2-.8l-2-1.8c-.4-.3-.6-.8-.6-1.4 0-.5.2-1 .6-1.4l2-1.8c.3-.3.2-.7.2-.8-.1-.1-.3-.5-.8-.5l-2.6.2c-.5 0-1-.2-1.4-.6-.4-.4-.6-.9-.6-1.4l.2-2.7c0-.5-.4-.6-.5-.7-.1 0-.5-.2-.8.2l-1.8 2c-.4.4-.9.6-1.4.6-.6 0-1.1-.2-1.5-.6l-1.7-2c-.3-.4-.7-.2-.9-.2-.1.1-.4.3-.4.7l.1 2.7c0 .5-.2 1-.5 1.4-.4.4-.9.6-1.5.6l-2.6-.2c-.5 0-.7.4-.7.5-.1.1-.2.5.2.8l1.9 1.8c.4.4.6.9.6 1.4 0 .6-.2 1.1-.6 1.4l-1.9 1.8c-.4.3-.3.7-.2.8 0 .2.2.5.7.5l2.6-.1c.6 0 1.1.1 1.5.5.3.4.5.9.5 1.5l-.1 2.6c0 .5.3.7.4.7.2.1.6.2.9-.2l1.7-1.9c.4-.4.9-.7 1.5-.7z"/><path class="s3" d="m68.4 74.9 11.9-20.7H56.4z"/><path class="s4" d="M78.7 9.7v2.7c0 .5-.4.9-.9.9h-3.9l2.8 2.8c.3.3.3.9 0 1.3l-2 1.9c-.4.4-.9.4-1.3 0l-2.7-2.7v3.8c0 .6-.4 1-.9 1H67c-.5 0-.9-.5-.9-1v-3.8l-2.7 2.7c-.4.4-1 .4-1.4 0l-1.9-1.9c-.4-.4-.4-1 0-1.3l2.7-2.8h-3.9c-.5 0-.9-.4-.9-.9V9.7c0-.6.4-1 .9-1h3.9L60.1 6c-.4-.4-.4-.9 0-1.3l1.9-2c.4-.3 1-.3 1.4 0l2.7 2.8V1.6c0-.5.4-.9.9-.9h2.8c.5 0 .9.4.9.9v3.9l2.7-2.8c.4-.3 1-.3 1.3 0l2 2c.3.4.3.9 0 1.3l-2.8 2.7h3.9c.5 0 .9.4.9 1z"/><path class="s5" d="M203.8 51.3c5.7 0 10.4-4.7 10.4-10.4s-4.7-10.3-10.4-10.3-10.4 4.6-10.4 10.3c0 5.7 4.7 10.4 10.4 10.4z"/><path fill-rule="evenodd" class="s3" d="m249 77-12.5-21.6h24.9zm-10.5-20.4L249 74.7l10.5-18.1z"/><path class="s1" d="m246.4 20.7-1.8 1.9c-.8.9-2.4.3-2.3-.9l.1-2.7c.1-.8-.6-1.4-1.4-1.4l-2.6.2c-1.3 0-1.9-1.5-1-2.4l2-1.7c.6-.5.6-1.5 0-2l-2-1.8c-.9-.8-.3-2.3 1-2.3l2.6.2c.8 0 1.5-.7 1.4-1.4l-.1-2.7c-.1-1.2 1.5-1.8 2.3-.9l1.8 1.9c.5.6 1.4.6 1.9 0l1.8-1.9c.8-.9 2.4-.3 2.3.9l-.1 2.7c0 .7.6 1.4 1.4 1.4l2.6-.2c1.3 0 1.9 1.5 1 2.3l-2 1.8c-.6.5-.6 1.4 0 2l2 1.7c.9.9.3 2.4-1 2.4l-2.6-.2c-.8 0-1.4.6-1.4 1.4l.1 2.7c.1 1.2-1.5 1.8-2.3.9l-1.8-1.9c-.5-.6-1.4-.6-1.9 0z"/><path fill-rule="evenodd" class="s4" d="M386.8-20.5v4l2.9-2.9q.3-.3.6-.3.4 0 .7.3l2.1 2.1c.3.3.3.9 0 1.3l-2.9 2.9h4c.6 0 1 .4 1 .9v2.9c0 .6-.4 1-1 1h-4l2.9 2.8c.3.4.3 1 0 1.4l-2.1 2q-.3.3-.7.3-.3 0-.6-.3l-2.9-2.8v4c0 .5-.4 1-1 1H383c-.6 0-1-.5-1-1v-4l-2.9 2.8q-.3.3-.6.3-.4 0-.7-.3l-2.1-2c-.4-.4-.4-1 0-1.4l2.9-2.8h-4c-.6 0-1-.4-1-1v-2.9c0-.5.4-.9 1-.9h4l-2.9-2.9c-.4-.3-.4-1 0-1.3l2.1-2.1q.3-.3.7-.3.3 0 .6.3l2.9 2.9v-4c0-.6.4-1 1-1h2.8c.6 0 1 .4 1 1zm-3.6.1v6.6l-2-1.9-2.7-2.7-1.8 1.8 2.7 2.7 2 1.9h-6.6v2.5h6.5l-1.9 2-2.7 2.7 1.8 1.8 2.7-2.7 1.9-2v6.6h2.5v-6.6l2 2 2.7 2.7 1.8-1.8-2.7-2.7-2-2h6.6V-12h-6.6l2-1.9 2.7-2.7-1.8-1.8-2.7 2.7-2 1.9v-6.6z"/><path class="s5" d="M384.4 50.8c5.7 0 10.4-4.6 10.4-10.3 0-5.7-4.7-10.4-10.4-10.4S374 34.8 374 40.5s4.7 10.3 10.4 10.3z"/><path fill-rule="evenodd" class="s0" d="M304.9 45.2c0 2.8-2.3 5.1-5.2 5.1-2.8 0-5.2-2.3-5.2-5.1 0-2.9 2.4-5.2 5.2-5.2 2.9 0 5.2 2.3 5.2 5.2zm-9.2 0c0 2.2 1.8 4 4 4s4-1.8 4-4c0-2.3-1.8-4.1-4-4.1s-4 1.8-4 4.1zM293.7 45.2c0 2.8-2.4 5.1-5.2 5.1-2.9 0-5.2-2.3-5.2-5.1 0-2.9 2.3-5.2 5.2-5.2 2.8 0 5.2 2.3 5.2 5.2zm-9.2 0c0 2.2 1.8 4 4 4s4-1.8 4-4c0-2.3-1.8-4.1-4-4.1s-4 1.8-4 4.1zM304.9 33.9c0 2.9-2.3 5.2-5.2 5.2-2.8 0-5.2-2.3-5.2-5.2 0-2.9 2.4-5.2 5.2-5.2 2.9 0 5.2 2.3 5.2 5.2zm-9.2 0c0 2.2 1.8 4 4 4s4-1.8 4-4-1.8-4-4-4-4 1.8-4 4zM293.7 33.9c0 2.9-2.4 5.2-5.2 5.2-2.9 0-5.2-2.3-5.2-5.2 0-2.9 2.3-5.2 5.2-5.2 2.8 0 5.2 2.3 5.2 5.2zm-9.2 0c0 2.2 1.8 4 4 4s4-1.8 4-4-1.8-4-4-4-4 1.8-4 4z"/><path fill-rule="evenodd" class="s1" d="M337.3 19.3c-.6 0-1.2-.4-1.7-1.4-.5-1.2-.6-2.2-.4-3.1q-.8.2-1.8.9c-2.1 1.4-1.7 3.2-1.7 3.2l-1.1.3c-.1-.1-.6-2.6 2.1-4.5q1.7-1.2 3.1-1.2c.4-.7 1-1.4 1.7-2 .9-.9 2-1.2 3.2-1 .4-1.6 1.4-2.6 2.2-3.2 1.9-1.5 4.7-2 6.1-1.1q1 .6 1.2 1.7c.3 1.3-.6 2.5-.6 2.6l-1-.7s.6-.9.4-1.7q-.1-.6-.7-1c-.7-.5-3-.3-4.7 1-.7.6-1.5 1.5-1.8 2.7 1.1.5 2 1.4 2.3 2.4.4 1.3-.3 2.5-1.1 2.7-.6.2-1.5-.1-2-1.6-.4-1-.5-1.9-.4-2.7-.9-.1-1.7.1-2.3.7q-.9.8-1.4 1.4c1.1.5 1.6 1.6 1.9 2.4.6 1.3-.1 2.7-1 3.1-.1.1-.3.1-.5.1zm-.9-4.5c-.3.8-.2 1.7.2 2.6.2.5.5.9.8.8.4-.2.7-.9.4-1.7-.4-1-.8-1.5-1.4-1.7zm5.3-2.7q.1.9.4 1.9c.2.7.5.9.6.8.2 0 .5-.5.3-1.3-.2-.5-.6-1-1.3-1.4z"/><path class="s3" d="m339.3 76.6-12-20.7h23.9z"/><path class="s0" d="M423.9 10.6c2.9 0 5.2-2.3 5.2-5.2 0-2.9-2.3-5.2-5.2-5.2-2.8 0-5.2 2.3-5.2 5.2 0 2.9 2.4 5.2 5.2 5.2zM435.2 10.6c2.8 0 5.1-2.3 5.1-5.2 0-2.9-2.3-5.2-5.1-5.2-2.9 0-5.2 2.3-5.2 5.2 0 2.9 2.3 5.2 5.2 5.2zM423.9 21.8c2.9 0 5.2-2.3 5.2-5.1 0-2.9-2.3-5.2-5.2-5.2-2.8 0-5.2 2.3-5.2 5.2 0 2.8 2.4 5.1 5.2 5.1zM435.2 21.8c2.8 0 5.1-2.3 5.1-5.1 0-2.9-2.3-5.2-5.1-5.2-2.9 0-5.2 2.3-5.2 5.2 0 2.8 2.3 5.1 5.2 5.1z"/><path class="s1" d="m430.5 53.1 1.8-1.9c.8-.9 2.4-.3 2.3.9l-.1 2.7c-.1.7.6 1.4 1.4 1.4l2.6-.2c1.2 0 1.9 1.5 1 2.3l-2 1.8c-.6.5-.6 1.4 0 2l2 1.7c.9.9.2 2.4-1 2.4l-2.6-.2c-.8 0-1.5.6-1.4 1.4l.1 2.7c.1 1.2-1.5 1.8-2.3.9l-1.8-1.9c-.5-.6-1.4-.6-2 0l-1.7 1.9c-.9.9-2.4.3-2.3-.9l.1-2.7c0-.8-.6-1.4-1.4-1.4l-2.6.2c-1.3 0-1.9-1.5-1-2.4l2-1.7c.5-.5.5-1.5 0-2l-2-1.8c-.9-.8-.3-2.3 1-2.3l2.6.2c.8 0 1.4-.7 1.4-1.4l-.1-2.7c-.1-1.2 1.4-1.8 2.3-.9l1.7 1.9c.6.6 1.5.6 2 0z"/><path fill-rule="evenodd" class="s4" d="M477.1 29.3v4l2.8-2.9q.4-.3.7-.3.4 0 .7.3l2.1 2.1c.3.3.3 1 0 1.3l-2.9 2.9h4c.6 0 1 .4 1 1v2.8c0 .6-.4 1-1 1h-4l2.9 2.8c.3.4.3 1 0 1.4l-2.1 2q-.3.3-.7.3-.3 0-.7-.3l-2.8-2.8v4c0 .5-.4 1-1 1h-2.8c-.6 0-1-.5-1-1v-4l-2.9 2.8q-.3.3-.7.3-.3 0-.6-.3l-2.1-2c-.4-.4-.4-1 0-1.4l2.9-2.8h-4c-.6 0-1-.4-1-1v-2.8c0-.6.4-1 1-1h4l-2.9-2.9c-.4-.3-.4-1 0-1.3l2.1-2.1q.3-.3.6-.3.4 0 .7.3l2.9 2.9v-4c0-.6.4-1 1-1h2.8c.6 0 1 .4 1 1zm-3.7.1V36l-1.9-1.9-2.7-2.7-1.8 1.8 2.7 2.7 1.9 1.9H465v2.5h6.6l-1.9 2L467 45l1.8 1.8 2.7-2.7 1.9-2v6.6h2.5v-6.6l2 2 2.7 2.7 1.8-1.8-2.7-2.7-2-2h6.6v-2.5h-6.6l2-1.9 2.7-2.7-1.8-1.8-2.7 2.7-2 1.9v-6.6z"/><path fill-rule="evenodd" class="s3" d="m519.8 77-12.4-21.6h24.9zm-10.5-20.4 10.5 18.1 10.5-18.1z"/><path class="s1" d="m517.3 20.7-1.8 1.9c-.9.9-2.4.3-2.3-.9l.1-2.7c0-.8-.6-1.4-1.4-1.4l-2.6.2c-1.3 0-1.9-1.5-1-2.4l2-1.7c.5-.5.5-1.5 0-2l-2-1.8c-.9-.8-.3-2.3 1-2.3l2.6.2c.8 0 1.4-.7 1.4-1.4l-.1-2.7c-.1-1.2 1.4-1.8 2.3-.9l1.8 1.9c.5.6 1.4.6 1.9 0l1.8-1.9c.8-.9 2.4-.3 2.3.9l-.1 2.7c-.1.7.6 1.4 1.4 1.4l2.6-.2c1.3 0 1.9 1.5 1 2.3l-2 1.8c-.6.5-.6 1.4 0 2l2 1.7c.9.9.3 2.4-1 2.4l-2.6-.2c-.8 0-1.5.6-1.4 1.4l.1 2.7c.1 1.2-1.5 1.8-2.3.9l-1.8-1.9c-.5-.6-1.4-.6-1.9 0z"/><path fill-rule="evenodd" class="s4" d="M657.7-20.5v4l2.8-2.9q.3-.3.7-.3.4 0 .7.3l2 2.1c.4.3.4.9 0 1.3l-2.8 2.9h4c.5 0 1 .4 1 .9v2.9c0 .6-.5 1-1 1h-4l2.8 2.8c.4.4.4 1 0 1.4l-2 2q-.3.3-.7.3-.4 0-.7-.3l-2.8-2.8v4c0 .5-.5 1-1 1h-2.9c-.5 0-.9-.5-.9-1v-4L650-2.1q-.3.3-.7.3-.4 0-.7-.3l-2-2c-.4-.4-.4-1 0-1.4l2.8-2.8h-4c-.5 0-1-.4-1-1v-2.9c0-.5.5-.9 1-.9h4l-2.8-2.9c-.4-.3-.4-1 0-1.3l2-2.1q.3-.3.7-.3.4 0 .7.3l2.9 2.9v-4c0-.6.4-1 .9-1h2.9c.5 0 1 .4 1 1zm-3.7.1v6.6l-1.9-1.9-2.7-2.7-1.8 1.8 2.7 2.7 1.9 1.9h-6.6v2.5h6.6l-1.9 2-2.7 2.7 1.8 1.8 2.7-2.7 1.9-2v6.6h2.5v-6.6l2 2 2.7 2.7 1.8-1.8-2.7-2.7-2-2h6.6V-12h-6.6l2-1.9 2.7-2.7-1.8-1.8-2.7 2.7-2 1.9v-6.6z"/><path class="s5" d="M655.3 50.8c5.7 0 10.3-4.6 10.3-10.3 0-5.7-4.6-10.4-10.3-10.4-5.8 0-10.4 4.7-10.4 10.4s4.6 10.3 10.4 10.3z"/><path fill-rule="evenodd" class="s0" d="M575.8 45.2c0 2.8-2.3 5.1-5.2 5.1-2.8 0-5.2-2.3-5.2-5.1 0-2.9 2.4-5.2 5.2-5.2 2.9 0 5.2 2.3 5.2 5.2zm-9.2 0c0 2.2 1.8 4 4 4s4-1.8 4-4c0-2.3-1.8-4.1-4-4.1s-4 1.8-4 4.1zM564.5 45.2c0 2.8-2.3 5.1-5.1 5.1-2.9 0-5.2-2.3-5.2-5.1 0-2.9 2.3-5.2 5.2-5.2 2.8 0 5.1 2.3 5.1 5.2zm-9.2 0c0 2.2 1.8 4 4.1 4 2.2 0 4-1.8 4-4 0-2.3-1.8-4.1-4-4.1-2.3 0-4.1 1.8-4.1 4.1zM575.8 33.9c0 2.9-2.3 5.2-5.2 5.2-2.8 0-5.2-2.3-5.2-5.2 0-2.9 2.4-5.2 5.2-5.2 2.9 0 5.2 2.3 5.2 5.2zm-9.2 0c0 2.2 1.8 4 4 4s4-1.8 4-4-1.8-4-4-4-4 1.8-4 4zM564.5 33.9c0 2.9-2.3 5.2-5.1 5.2-2.9 0-5.2-2.3-5.2-5.2 0-2.9 2.3-5.2 5.2-5.2 2.8 0 5.1 2.3 5.1 5.2zm-9.2 0c0 2.2 1.8 4 4.1 4 2.2 0 4-1.8 4-4s-1.8-4-4-4c-2.3 0-4.1 1.8-4.1 4z"/><path fill-rule="evenodd" class="s1" d="M608.2 19.3c-.6 0-1.3-.4-1.7-1.4-.6-1.2-.6-2.2-.4-3.1q-.8.2-1.9.9c-2 1.4-1.6 3.2-1.6 3.2l-1.2.3c0-.1-.5-2.6 2.2-4.5q1.7-1.2 3-1.2c.5-.7 1.1-1.4 1.8-2 .8-.9 2-1.2 3.2-1 .4-1.6 1.4-2.6 2.2-3.2 1.9-1.5 4.6-2 6-1.1q1 .6 1.3 1.7c.2 1.3-.6 2.5-.6 2.6l-1-.7s.6-.9.4-1.7q-.1-.6-.7-1c-.8-.5-3-.3-4.7 1-.8.6-1.5 1.5-1.8 2.7 1.1.5 2 1.4 2.2 2.4.4 1.3-.2 2.5-1 2.7-.7.2-1.6-.1-2.1-1.6-.3-1-.4-1.9-.4-2.7-.9-.1-1.7.1-2.3.7q-.8.8-1.3 1.4c1 .5 1.6 1.6 1.9 2.4.6 1.3-.1 2.7-1 3.1-.1.1-.3.1-.5.1zm-.9-4.5c-.3.8-.2 1.7.2 2.6.2.5.5.9.8.8.3-.2.7-.9.4-1.7-.4-1-.8-1.5-1.4-1.7zm5.3-2.7q.1.9.4 1.9c.2.7.5.9.6.8.2 0 .5-.5.3-1.3-.2-.5-.7-1-1.3-1.4z"/><path class="s3" d="m610.1 76.6-11.9-20.7h23.9z"/><path class="s0" d="M692.2 10.6c2.9 0 5.2-2.3 5.2-5.2 0-2.9-2.3-5.2-5.2-5.2-2.9 0-5.2 2.3-5.2 5.2 0 2.9 2.3 5.2 5.2 5.2zM703.4 10.6c2.9 0 5.2-2.3 5.2-5.2 0-2.9-2.3-5.2-5.2-5.2-2.8 0-5.1 2.3-5.1 5.2 0 2.9 2.3 5.2 5.1 5.2zM692.2 21.8c2.9 0 5.2-2.3 5.2-5.1 0-2.9-2.3-5.2-5.2-5.2-2.9 0-5.2 2.3-5.2 5.2 0 2.8 2.3 5.1 5.2 5.1zM703.4 21.8c2.9 0 5.2-2.3 5.2-5.1 0-2.9-2.3-5.2-5.2-5.2-2.8 0-5.1 2.3-5.1 5.2 0 2.8 2.3 5.1 5.1 5.1z"/><path class="s1" d="m700.9 53.1 1.7-1.9c.9-.9 2.4-.3 2.4.9l-.2 2.7c0 .7.6 1.4 1.4 1.4l2.7-.2c1.2 0 1.8 1.5.9 2.3l-1.9 1.8c-.6.5-.6 1.4 0 2l1.9 1.7c.9.9.3 2.4-.9 2.4l-2.7-.2c-.8 0-1.4.6-1.4 1.4l.2 2.7c0 1.2-1.5 1.8-2.4.9l-1.7-1.9c-.5-.6-1.5-.6-2 0l-1.8 1.9c-.8.9-2.3.3-2.3-.9l.2-2.7c0-.8-.7-1.4-1.5-1.4l-2.6.2c-1.2 0-1.9-1.5-.9-2.4l1.9-1.7c.6-.5.6-1.5 0-2l-1.9-1.8c-1-.8-.3-2.3.9-2.3l2.6.2c.8 0 1.5-.7 1.5-1.4l-.2-2.7c0-1.2 1.5-1.8 2.3-.9l1.8 1.9c.5.6 1.4.6 2 0z"/><path fill-rule="evenodd" class="s4" d="M748 29.3v4l2.8-2.9q.3-.3.7-.3.4 0 .7.3l2 2.1c.4.3.4 1 0 1.3l-2.8 2.9h4c.5 0 1 .4 1 1v2.8c0 .6-.5 1-1 1h-4l2.8 2.8c.4.4.4 1 0 1.4l-2 2q-.3.3-.7.3-.4 0-.7-.3l-2.8-2.8v4c0 .5-.5 1-1 1h-2.9c-.5 0-1-.5-1-1v-4l-2.8 2.8q-.3.3-.7.3-.4 0-.7-.3l-2-2c-.4-.4-.4-1 0-1.4l2.8-2.8h-4c-.5 0-1-.4-1-1v-2.8c0-.6.5-1 1-1h4l-2.8-2.9c-.4-.3-.4-1 0-1.3l2-2.1q.3-.3.7-.3.4 0 .7.3l2.8 2.9v-4c0-.6.5-1 1-1h2.9c.5 0 1 .4 1 1zm-3.7.1V36l-1.9-1.9-2.7-2.7-1.8 1.8 2.7 2.7 1.9 1.9h-6.6v2.5h6.6l-1.9 2-2.7 2.7 1.8 1.8 2.7-2.7 1.9-2v6.6h2.5v-6.6l2 2 2.7 2.7 1.8-1.8-2.7-2.7-2-2h6.6v-2.5h-6.6l2-1.9 2.7-2.7-1.8-1.8-2.7 2.7-2 1.9v-6.6z"/><path fill-rule="evenodd" class="s3" d="m790.7 77-12.5-21.6h25zm-10.5-20.4 10.5 18.1 10.4-18.1z"/><path class="s1" d="m788.1 20.7-1.7 1.9c-.9.9-2.4.3-2.4-.9l.2-2.7c0-.8-.6-1.4-1.4-1.4l-2.7.2c-1.2 0-1.8-1.5-.9-2.4l1.9-1.7c.6-.5.6-1.5 0-2l-1.9-1.8c-.9-.8-.3-2.3.9-2.3l2.7.2c.8 0 1.4-.7 1.4-1.4l-.2-2.7c0-1.2 1.5-1.8 2.4-.9l1.7 1.9c.5.6 1.5.6 2 0l1.8-1.9c.8-.9 2.3-.3 2.3.9l-.2 2.7c0 .7.7 1.4 1.4 1.4l2.7-.2c1.2 0 1.9 1.5.9 2.3l-1.9 1.8c-.6.5-.6 1.4 0 2l1.9 1.7c1 .9.3 2.4-.9 2.4l-2.7-.2c-.7 0-1.4.6-1.4 1.4l.2 2.7c0 1.2-1.5 1.8-2.3.9l-1.8-1.9c-.5-.6-1.4-.6-2 0z"/><path fill-rule="evenodd" class="s4" d="M928.6-20.5v4l2.8-2.9q.3-.3.7-.3.4 0 .7.3l2 2.1c.4.3.4.9 0 1.3l-2.8 2.9h4c.5 0 1 .4 1 .9v2.9c0 .6-.5 1-1 1h-4l2.8 2.8c.4.4.4 1 0 1.4l-2 2q-.3.3-.7.3-.4 0-.7-.3l-2.8-2.8v4c0 .5-.5 1-1 1h-2.9c-.5 0-1-.5-1-1v-4l-2.8 2.8q-.3.3-.7.3-.4 0-.7-.3l-2-2c-.4-.4-.4-1 0-1.4l2.8-2.8h-4c-.5 0-1-.4-1-1v-2.9c0-.5.5-.9 1-.9h4l-2.8-2.9c-.4-.3-.4-1 0-1.3l2-2.1q.3-.3.7-.3.4 0 .7.3l2.8 2.9v-4c0-.6.5-1 1-1h2.9c.5 0 1 .4 1 1zm-3.7.1v6.6l-2-1.9-2.7-2.7-1.8 1.8 2.7 2.7 2 1.9h-6.6v2.5h6.6l-2 2-2.7 2.7 1.8 1.8 2.7-2.7 2-2v6.6h2.5v-6.6l2 2 2.7 2.7 1.7-1.8-2.7-2.7-1.9-2h6.6V-12h-6.6l1.9-1.9 2.7-2.7-1.7-1.8-2.7 2.7-2 1.9v-6.6z"/><path class="s5" d="M926.2 50.8c5.7 0 10.3-4.6 10.3-10.3 0-5.7-4.6-10.4-10.3-10.4-5.8 0-10.4 4.7-10.4 10.4s4.6 10.3 10.4 10.3z"/><path fill-rule="evenodd" class="s0" d="M846.7 45.2c0 2.8-2.4 5.1-5.2 5.1-2.9 0-5.2-2.3-5.2-5.1 0-2.9 2.3-5.2 5.2-5.2 2.8 0 5.2 2.3 5.2 5.2zm-9.2 0c0 2.2 1.8 4 4 4s4-1.8 4-4c0-2.3-1.8-4.1-4-4.1s-4 1.8-4 4.1zM835.4 45.2c0 2.8-2.3 5.1-5.2 5.1-2.8 0-5.1-2.3-5.1-5.1 0-2.9 2.3-5.2 5.1-5.2 2.9 0 5.2 2.3 5.2 5.2zm-9.2 0c0 2.2 1.8 4 4 4 2.3 0 4.1-1.8 4.1-4 0-2.3-1.8-4.1-4.1-4.1-2.2 0-4 1.8-4 4.1zM846.7 33.9c0 2.9-2.4 5.2-5.2 5.2-2.9 0-5.2-2.3-5.2-5.2 0-2.9 2.3-5.2 5.2-5.2 2.8 0 5.2 2.3 5.2 5.2zm-9.2 0c0 2.2 1.8 4 4 4s4-1.8 4-4-1.8-4-4-4-4 1.8-4 4zM835.4 33.9c0 2.9-2.3 5.2-5.2 5.2-2.8 0-5.1-2.3-5.1-5.2 0-2.9 2.3-5.2 5.1-5.2 2.9 0 5.2 2.3 5.2 5.2zm-9.2 0c0 2.2 1.8 4 4 4 2.3 0 4.1-1.8 4.1-4s-1.8-4-4.1-4c-2.2 0-4 1.8-4 4z"/><path fill-rule="evenodd" class="s1" d="M879.1 19.3c-.6 0-1.3-.4-1.8-1.4-.5-1.2-.6-2.2-.3-3.1q-.8.2-1.9.9c-2.1 1.4-1.6 3.2-1.6 3.2l-1.2.3c0-.1-.5-2.6 2.2-4.5q1.7-1.2 3-1.2c.5-.7 1.1-1.4 1.8-2 .8-.9 2-1.2 3.2-1 .4-1.6 1.4-2.6 2.2-3.2 1.9-1.5 4.6-2 6-1.1q1 .6 1.2 1.7c.3 1.3-.5 2.5-.6 2.6l-.9-.7s.6-.9.4-1.7q-.1-.6-.7-1c-.8-.5-3-.3-4.8 1-.7.6-1.4 1.5-1.7 2.7 1.1.5 2 1.4 2.2 2.4.4 1.3-.2 2.5-1 2.7-.7.2-1.6-.1-2.1-1.6-.3-1-.4-1.9-.4-2.7-.9-.1-1.7.1-2.3.7q-.8.8-1.3 1.4c1 .5 1.6 1.6 1.9 2.4.5 1.3-.1 2.7-1 3.1-.1.1-.3.1-.5.1zm-.9-4.5c-.3.8-.2 1.7.2 2.6.2.5.5.9.8.8.3-.2.7-.9.4-1.7-.5-1-.9-1.5-1.4-1.7zm5.3-2.7q0 .9.4 1.9c.2.7.4.9.6.8.2 0 .5-.5.2-1.3-.1-.5-.6-1-1.2-1.4z"/><path class="s3" d="m881 76.6-11.9-20.7H893z"/><path class="s0" d="M1105.8 10.6c2.9 0 5.2-2.3 5.2-5.2 0-2.9-2.3-5.2-5.2-5.2-2.8 0-5.1 2.3-5.1 5.2 0 2.9 2.3 5.2 5.1 5.2zM1117.1 10.6c2.8 0 5.1-2.3 5.1-5.2 0-2.9-2.3-5.2-5.1-5.2-2.9 0-5.2 2.3-5.2 5.2 0 2.9 2.3 5.2 5.2 5.2zM1105.8 21.8c2.9 0 5.2-2.3 5.2-5.1 0-2.9-2.3-5.2-5.2-5.2-2.8 0-5.1 2.3-5.1 5.2 0 2.8 2.3 5.1 5.1 5.1zM1117.1 21.8c2.8 0 5.1-2.3 5.1-5.1 0-2.9-2.3-5.2-5.1-5.2-2.9 0-5.2 2.3-5.2 5.2 0 2.8 2.3 5.1 5.2 5.1z"/><path class="s1" d="m1114.5 56.6 1.8-2c.8-.9 2.3-.3 2.3 1l-.2 2.6c0 .8.6 1.4 1.4 1.4l2.7-.1c1.2-.1 1.8 1.4.9 2.3l-1.9 1.8c-.6.5-.6 1.4 0 1.9l1.9 1.8c.9.8.3 2.4-.9 2.3l-2.7-.1c-.8-.1-1.4.6-1.4 1.4l.2 2.6c0 1.3-1.5 1.9-2.3 1l-1.8-2c-.5-.6-1.5-.6-2 0l-1.8 2c-.8.9-2.3.3-2.3-1l.2-2.6c0-.8-.6-1.5-1.4-1.4l-2.7.1c-1.2.1-1.8-1.5-.9-2.3l1.9-1.8c.6-.5.6-1.4 0-1.9l-1.9-1.8c-.9-.9-.3-2.4.9-2.3l2.7.1c.8 0 1.4-.6 1.4-1.4l-.2-2.6c0-1.3 1.5-1.9 2.3-1l1.8 2c.5.6 1.5.6 2 0z"/><path class="s0" d="M971.2 39.5c2.9 0 5.2-2.3 5.2-5.2 0-2.8-2.3-5.1-5.2-5.1-2.9 0-5.2 2.3-5.2 5.1 0 2.9 2.3 5.2 5.2 5.2zM982.4 39.5c2.9 0 5.2-2.3 5.2-5.2 0-2.8-2.3-5.1-5.2-5.1-2.8 0-5.1 2.3-5.1 5.1 0 2.9 2.3 5.2 5.1 5.2zM971.2 50.8c2.9 0 5.2-2.3 5.2-5.2 0-2.9-2.3-5.2-5.2-5.2-2.9 0-5.2 2.3-5.2 5.2 0 2.9 2.3 5.2 5.2 5.2zM982.4 50.8c2.9 0 5.2-2.3 5.2-5.2 0-2.9-2.3-5.2-5.2-5.2-2.8 0-5.1 2.3-5.1 5.2 0 2.9 2.3 5.2 5.1 5.2z"/><path class="s2" d="M1077 41.3s-8.6 1.1-10.3 10c-1.8-8.9-10.4-10-10.4-10 8.8-1.7 10.3-10 10.4-10.5v-.1.1c.1.5 1.5 8.8 10.3 10.5z"/><path fill-rule="evenodd" class="s1" d="M1070.4.1c-.5 0-1-.2-1.4-.6l-1.8-2q-.2-.2-.5-.2c-.2 0-.5.1-.6.2l-1.8 2c-.5.6-1.3.8-2.1.5-.7-.3-1.2-1.1-1.2-1.9l.2-2.6c0-.2-.1-.4-.2-.6-.2-.1-.4-.2-.6-.2l-2.6.1c-.9.1-1.6-.4-1.9-1.1-.3-.8-.1-1.6.5-2.2l1.9-1.7q.3-.3.3-.6c0-.2-.1-.4-.3-.6l-1.9-1.7c-.6-.6-.8-1.4-.5-2.2.3-.7 1-1.2 1.9-1.1l2.6.1c.2 0 .4-.1.6-.2.1-.2.2-.4.2-.6l-.2-2.6c0-.8.5-1.5 1.2-1.9.7-.3 1.6-.1 2.1.5l1.8 2q.2.2.6.2c.2 0 .4-.1.5-.2l1.8-2c.5-.6 1.4-.8 2.1-.5.8.3 1.2 1.1 1.2 1.9l-.1 2.6c0 .2 0 .4.2.6q.2.2.6.2l2.6-.1c.8-.1 1.5.4 1.8 1.1.4.8.2 1.6-.4 2.2l-2 1.7q-.2.3-.2.6c0 .2.1.4.2.6l2 1.7c.6.6.8 1.4.4 2.2-.3.7-1 1.2-1.8 1.1l-2.6-.1q-.4 0-.6.2c-.2.2-.2.4-.2.6l.1 2.6c0 .8-.4 1.5-1.2 1.9q-.4.1-.7.1zm-3.7-4c.5 0 1 .3 1.4.7l1.7 1.9c.4.4.8.3.9.2.1 0 .5-.2.4-.7l-.1-2.6c0-.6.2-1.1.6-1.5.3-.4.9-.5 1.4-.5l2.6.1c.5 0 .7-.3.8-.5 0-.1.1-.5-.2-.8l-2-1.8c-.4-.3-.6-.8-.6-1.4 0-.5.2-1 .6-1.4l2-1.8c.3-.3.2-.7.2-.8-.1-.1-.3-.5-.8-.5l-2.6.2c-.5 0-1.1-.2-1.4-.6-.4-.4-.6-.9-.6-1.4l.1-2.7c.1-.5-.3-.6-.4-.7-.1 0-.5-.2-.9.2l-1.7 2c-.4.4-.9.6-1.4.6-.6 0-1.1-.2-1.5-.6l-1.7-2c-.4-.4-.8-.2-.9-.2-.1.1-.5.3-.4.7l.1 2.7c0 .5-.2 1-.6 1.4-.3.4-.9.6-1.4.6l-2.6-.2c-.5 0-.7.4-.8.5 0 .1-.1.5.2.8l2 1.8c.4.4.6.9.6 1.4 0 .6-.2 1.1-.6 1.4l-2 1.8c-.3.3-.2.7-.2.8.1.2.3.5.8.5l2.6-.1c.5 0 1.1.1 1.4.5.4.4.6.9.6 1.5l-.1 2.6c-.1.5.3.7.4.7.1.1.5.2.9-.2l1.7-1.9c.4-.4.9-.7 1.5-.7z"/><path class="s3" d="m1022 74.9 11.9-20.7H1010z"/><path class="s4" d="M1032.3 9.7v2.7c0 .5-.4.9-.9.9h-3.9l2.8 2.8c.3.3.3.9 0 1.3l-2 1.9c-.4.4-1 .4-1.3 0l-2.7-2.7v3.8c0 .6-.4 1-.9 1h-2.8c-.5 0-.9-.5-.9-1v-3.8l-2.8 2.7c-.3.4-.9.4-1.3 0l-1.9-1.9c-.4-.4-.4-1 0-1.3l2.7-2.8h-3.9c-.5 0-.9-.4-.9-.9V9.7c0-.6.4-1 .9-1h3.9l-2.7-2.7c-.4-.4-.4-.9 0-1.3l1.9-2c.4-.3 1-.3 1.3 0l2.8 2.8V1.6c0-.5.4-.9.9-.9h2.8c.5 0 .9.4.9.9v3.9l2.7-2.8c.4-.3 1-.3 1.3 0l2 2c.3.4.3.9 0 1.3l-2.8 2.7h3.9c.5 0 .9.4.9 1z"/><path class="s5" d="M1157.4 51.3c5.7 0 10.3-4.7 10.3-10.4s-4.6-10.3-10.3-10.3c-5.7 0-10.4 4.6-10.4 10.3 0 5.7 4.7 10.4 10.4 10.4z"/><path fill-rule="evenodd" class="s3" d="m1202.5 77-12.4-21.6h24.9zM1192 56.6l10.5 18.1 10.5-18.1z"/><path class="s1" d="m1200 20.7-1.8 1.9c-.9.9-2.4.3-2.3-.9l.1-2.7c0-.8-.6-1.4-1.4-1.4l-2.6.2c-1.3 0-1.9-1.5-1-2.4l2-1.7c.5-.5.5-1.5 0-2l-2-1.8c-.9-.8-.3-2.3 1-2.3l2.6.2c.8 0 1.4-.7 1.4-1.4l-.1-2.7c-.1-1.2 1.4-1.8 2.3-.9l1.8 1.9c.5.6 1.4.6 1.9 0l1.8-1.9c.8-.9 2.4-.3 2.3.9l-.1 2.7c-.1.7.6 1.4 1.4 1.4l2.6-.2c1.3 0 1.9 1.5 1 2.3l-2 1.8c-.6.5-.6 1.4 0 2l2 1.7c.9.9.3 2.4-1 2.4l-2.6-.2c-.8 0-1.5.6-1.4 1.4l.1 2.7c.1 1.2-1.5 1.8-2.3.9l-1.8-1.9c-.5-.6-1.4-.6-1.9 0z"/><path fill-rule="evenodd" class="s4" d="M1340.4-20.5v4l2.8-2.9q.3-.3.7-.3.4 0 .7.3l2.1 2.1c.3.3.3.9 0 1.3l-2.9 2.9h4c.6 0 1 .4 1 .9v2.9c0 .6-.4 1-1 1h-4l2.9 2.8c.3.4.3 1 0 1.4l-2.1 2q-.3.3-.7.3-.4 0-.7-.3l-2.8-2.8v4c0 .5-.4 1-1 1h-2.9c-.5 0-.9-.5-.9-1v-4l-2.9 2.8q-.3.3-.7.3-.4 0-.7-.3l-2-2c-.4-.4-.4-1 0-1.4l2.8-2.8h-4c-.5 0-.9-.4-.9-1v-2.9c0-.5.4-.9.9-.9h4l-2.8-2.9c-.4-.3-.4-1 0-1.3l2-2.1q.3-.3.7-.3.4 0 .7.3l2.9 2.9v-4c0-.6.4-1 .9-1h2.9c.6 0 1 .4 1 1zm-3.7.1v6.6l-1.9-1.9-2.7-2.7-1.8 1.8 2.7 2.7 1.9 1.9h-6.6v2.5h6.6l-1.9 2-2.7 2.7 1.8 1.8 2.7-2.7 1.9-2v6.6h2.5v-6.6l2 2 2.7 2.7 1.8-1.8-2.7-2.7-2-2h6.6V-12h-6.6l2-1.9 2.7-2.7-1.8-1.8-2.7 2.7-2 1.9v-6.6z"/><path class="s5" d="M1338 50.8c5.7 0 10.3-4.6 10.3-10.3 0-5.7-4.6-10.4-10.3-10.4-5.7 0-10.4 4.7-10.4 10.4s4.7 10.3 10.4 10.3z"/><path fill-rule="evenodd" class="s0" d="M1258.5 45.2c0 2.8-2.3 5.1-5.2 5.1-2.8 0-5.2-2.3-5.2-5.1 0-2.9 2.4-5.2 5.2-5.2 2.9 0 5.2 2.3 5.2 5.2zm-9.2 0c0 2.2 1.8 4 4 4s4-1.8 4-4c0-2.3-1.8-4.1-4-4.1s-4 1.8-4 4.1zM1247.3 45.2c0 2.8-2.4 5.1-5.2 5.1-2.9 0-5.2-2.3-5.2-5.1 0-2.9 2.3-5.2 5.2-5.2 2.8 0 5.2 2.3 5.2 5.2zm-9.3 0c0 2.2 1.8 4 4.1 4 2.2 0 4-1.8 4-4 0-2.3-1.8-4.1-4-4.1-2.3 0-4.1 1.8-4.1 4.1zM1258.5 33.9c0 2.9-2.3 5.2-5.2 5.2-2.8 0-5.2-2.3-5.2-5.2 0-2.9 2.4-5.2 5.2-5.2 2.9 0 5.2 2.3 5.2 5.2zm-9.2 0c0 2.2 1.8 4 4 4s4-1.8 4-4-1.8-4-4-4-4 1.8-4 4zM1247.3 33.9c0 2.9-2.4 5.2-5.2 5.2-2.9 0-5.2-2.3-5.2-5.2 0-2.9 2.3-5.2 5.2-5.2 2.8 0 5.2 2.3 5.2 5.2zm-9.3 0c0 2.2 1.8 4 4.1 4 2.2 0 4-1.8 4-4s-1.8-4-4-4c-2.3 0-4.1 1.8-4.1 4z"/><path fill-rule="evenodd" class="s1" d="M1290.9 19.3c-.6 0-1.3-.4-1.7-1.4-.5-1.2-.6-2.2-.4-3.1-.5.1-1.1.4-1.8.9-2.1 1.4-1.7 3.2-1.7 3.2l-1.1.3c-.1-.1-.6-2.6 2.1-4.5q1.7-1.2 3-1.2c.5-.7 1.1-1.4 1.8-2 .8-.9 2-1.2 3.2-1 .4-1.6 1.4-2.6 2.2-3.2 1.9-1.5 4.6-2 6-1.1q1.1.6 1.3 1.7c.2 1.3-.6 2.5-.6 2.6l-1-.7s.6-.9.4-1.7q-.1-.6-.7-1c-.8-.5-3-.3-4.7 1-.8.6-1.5 1.5-1.8 2.7 1.1.5 2 1.4 2.2 2.4.4 1.3-.2 2.5-1 2.7-.6.2-1.6-.1-2-1.6q-.5-1.5-.5-2.7c-.8-.1-1.7.1-2.3.7q-.8.8-1.3 1.4c1 .5 1.6 1.6 1.9 2.4.6 1.3-.1 2.7-1 3.1q-.2.1-.5.1zm-.9-4.5c-.3.8-.2 1.7.2 2.6.2.5.5.9.8.8.4-.2.7-.9.4-1.7-.4-1-.9-1.5-1.4-1.7zm5.3-2.7q.1.9.4 1.9c.2.7.5.9.6.8.2 0 .5-.5.3-1.3-.2-.5-.7-1-1.3-1.4z"/><path class="s3" d="m1292.8 76.6-11.9-20.7h23.9z"/><path class="s0" d="M1377.5 10.6c2.9 0 5.2-2.3 5.2-5.2 0-2.9-2.3-5.2-5.2-5.2-2.8 0-5.2 2.3-5.2 5.2 0 2.9 2.4 5.2 5.2 5.2zM1388.8 10.6c2.8 0 5.1-2.3 5.1-5.2 0-2.9-2.3-5.2-5.1-5.2-2.9 0-5.2 2.3-5.2 5.2 0 2.9 2.3 5.2 5.2 5.2zM1377.5 21.8c2.9 0 5.2-2.3 5.2-5.1 0-2.9-2.3-5.2-5.2-5.2-2.8 0-5.2 2.3-5.2 5.2 0 2.8 2.4 5.1 5.2 5.1zM1388.8 21.8c2.8 0 5.1-2.3 5.1-5.1 0-2.9-2.3-5.2-5.1-5.2-2.9 0-5.2 2.3-5.2 5.2 0 2.8 2.3 5.1 5.2 5.1z"/><path class="s1" d="m1384.1 53.1 1.8-1.9c.8-.9 2.4-.3 2.3.9l-.1 2.7c-.1.7.6 1.4 1.4 1.4l2.6-.2c1.2 0 1.9 1.5 1 2.3l-2 1.8c-.6.5-.6 1.4 0 2l2 1.7c.9.9.2 2.4-1 2.4l-2.6-.2c-.8 0-1.5.6-1.4 1.4l.1 2.7c.1 1.2-1.5 1.8-2.3.9l-1.8-1.9c-.5-.6-1.4-.6-2 0l-1.7 1.9c-.9.9-2.4.3-2.3-.9l.1-2.7c0-.8-.6-1.4-1.4-1.4l-2.6.2c-1.3 0-1.9-1.5-1-2.4l2-1.7c.5-.5.5-1.5 0-2l-2-1.8c-.9-.8-.3-2.3 1-2.3l2.6.2c.8 0 1.4-.7 1.4-1.4l-.1-2.7c-.1-1.2 1.4-1.8 2.3-.9l1.7 1.9c.6.6 1.5.6 2 0z"/><path fill-rule="evenodd" class="s4" d="M1430.7 29.3v4l2.8-2.9q.3-.3.7-.3.4 0 .7.3l2.1 2.1c.3.3.3 1 0 1.3l-2.9 2.9h4c.6 0 1 .4 1 1v2.8c0 .6-.4 1-1 1h-4l2.9 2.8c.3.4.3 1 0 1.4l-2.1 2q-.3.3-.7.3-.4 0-.7-.3l-2.8-2.8v4c0 .5-.4 1-1 1h-2.9c-.5 0-.9-.5-.9-1v-4l-2.9 2.8q-.3.3-.7.3-.4 0-.6-.3l-2.1-2c-.4-.4-.4-1 0-1.4l2.8-2.8h-4c-.5 0-.9-.4-.9-1v-2.8c0-.6.4-1 .9-1h4l-2.8-2.9c-.4-.3-.4-1 0-1.3l2.1-2.1q.2-.3.6-.3.4 0 .7.3l2.9 2.9v-4c0-.6.4-1 .9-1h2.9c.6 0 1 .4 1 1zm-3.7.1V36l-1.9-1.9-2.8-2.7-1.7 1.8 2.7 2.7 1.9 1.9h-6.6v2.5h6.6l-1.9 2-2.7 2.7 1.7 1.8 2.8-2.7 1.9-2v6.6h2.5v-6.6l2 2 2.7 2.7 1.8-1.8-2.7-2.7-2-2h6.6v-2.5h-6.6l2-1.9 2.7-2.7-1.8-1.8-2.7 2.7-2 1.9v-6.6z"/><path fill-rule="evenodd" class="s3" d="M1473.4 77 1461 55.4h24.9zm-10.5-20.4 10.5 18.1 10.5-18.1z"/><path class="s1" d="m1470.8 20.7-1.7 1.9c-.9.9-2.4.3-2.3-.9l.1-2.7c0-.8-.6-1.4-1.4-1.4l-2.6.2c-1.3 0-1.9-1.5-1-2.4l2-1.7c.5-.5.5-1.5 0-2l-2-1.8c-.9-.8-.3-2.3 1-2.3l2.6.2c.8 0 1.4-.7 1.4-1.4l-.1-2.7c-.1-1.2 1.4-1.8 2.3-.9l1.7 1.9c.6.6 1.5.6 2 0l1.8-1.9c.8-.9 2.4-.3 2.3.9l-.1 2.7c-.1.7.6 1.4 1.4 1.4l2.6-.2c1.2 0 1.9 1.5 1 2.3l-2 1.8c-.6.5-.6 1.4 0 2l2 1.7c.9.9.2 2.4-1 2.4l-2.6-.2c-.8 0-1.5.6-1.4 1.4l.1 2.7c.1 1.2-1.5 1.8-2.3.9l-1.8-1.9c-.5-.6-1.4-.6-2 0z"/><path fill-rule="evenodd" class="s4" d="M1611.3-20.5v4l2.8-2.9q.3-.3.7-.3.4 0 .7.3l2 2.1c.4.3.4.9 0 1.3l-2.8 2.9h4c.5 0 1 .4 1 .9v2.9c0 .6-.5 1-1 1h-4l2.8 2.8c.4.4.4 1 0 1.4l-2 2q-.3.3-.7.3-.4 0-.7-.3l-2.8-2.8v4c0 .5-.5 1-1 1h-2.9c-.5 0-1-.5-1-1v-4l-2.8 2.8q-.3.3-.7.3-.4 0-.7-.3l-2-2c-.4-.4-.4-1 0-1.4l2.8-2.8h-4c-.5 0-1-.4-1-1v-2.9c0-.5.5-.9 1-.9h4l-2.8-2.9c-.4-.3-.4-1 0-1.3l2-2.1q.3-.3.7-.3.4 0 .7.3l2.8 2.9v-4c0-.6.5-1 1-1h2.9c.5 0 1 .4 1 1zm-3.7.1v6.6l-1.9-1.9-2.7-2.7-1.8 1.8 2.7 2.7 1.9 1.9h-6.6v2.5h6.6l-1.9 2-2.7 2.7L1603-3l2.7-2.7 1.9-2v6.6h2.5v-6.6l2 2 2.7 2.7 1.8-1.8-2.7-2.7-2-2h6.6V-12h-6.6l2-1.9 2.7-2.7-1.8-1.8-2.7 2.7-2 1.9v-6.6z"/><path class="s5" d="M1608.8 50.8c5.8 0 10.4-4.6 10.4-10.3 0-5.7-4.6-10.4-10.4-10.4-5.7 0-10.3 4.7-10.3 10.4s4.6 10.3 10.3 10.3z"/><path fill-rule="evenodd" class="s0" d="M1529.4 45.2c0 2.8-2.4 5.1-5.2 5.1-2.9 0-5.2-2.3-5.2-5.1 0-2.9 2.3-5.2 5.2-5.2 2.8 0 5.2 2.3 5.2 5.2zm-9.2 0c0 2.2 1.8 4 4 4s4-1.8 4-4c0-2.3-1.8-4.1-4-4.1s-4 1.8-4 4.1zM1518.1 45.2c0 2.8-2.3 5.1-5.1 5.1-2.9 0-5.2-2.3-5.2-5.1 0-2.9 2.3-5.2 5.2-5.2 2.8 0 5.1 2.3 5.1 5.2zm-9.2 0c0 2.2 1.8 4 4.1 4 2.2 0 4-1.8 4-4 0-2.3-1.8-4.1-4-4.1-2.3 0-4.1 1.8-4.1 4.1zM1529.4 33.9c0 2.9-2.4 5.2-5.2 5.2-2.9 0-5.2-2.3-5.2-5.2 0-2.9 2.3-5.2 5.2-5.2 2.8 0 5.2 2.3 5.2 5.2zm-9.2 0c0 2.2 1.8 4 4 4s4-1.8 4-4-1.8-4-4-4-4 1.8-4 4zM1518.1 33.9c0 2.9-2.3 5.2-5.1 5.2-2.9 0-5.2-2.3-5.2-5.2 0-2.9 2.3-5.2 5.2-5.2 2.8 0 5.1 2.3 5.1 5.2zm-9.2 0c0 2.2 1.8 4 4.1 4 2.2 0 4-1.8 4-4s-1.8-4-4-4c-2.3 0-4.1 1.8-4.1 4z"/><path fill-rule="evenodd" class="s1" d="M1561.8 19.3c-.6 0-1.3-.4-1.8-1.4-.5-1.2-.5-2.2-.3-3.1-.5.1-1.1.4-1.9.9-2 1.4-1.6 3.2-1.6 3.2l-1.2.3c0-.1-.5-2.6 2.2-4.5q1.7-1.2 3-1.2c.5-.7 1.1-1.4 1.8-2 .8-.9 2-1.2 3.2-1 .4-1.6 1.4-2.6 2.1-3.2 2-1.5 4.7-2 6.1-1.1q1 .6 1.2 1.7c.3 1.3-.5 2.5-.6 2.6l-.9-.7s.6-.9.4-1.7q-.1-.6-.7-1c-.8-.5-3-.3-4.8 1-.7.6-1.4 1.5-1.7 2.7 1.1.5 2 1.4 2.2 2.4.4 1.3-.2 2.5-1 2.7-.7.2-1.6-.1-2.1-1.6q-.4-1.5-.4-2.7c-.9-.1-1.7.1-2.3.7q-.8.8-1.3 1.4c1 .5 1.6 1.6 1.9 2.4.5 1.3-.1 2.7-1 3.1q-.2.1-.5.1zm-.9-4.5c-.3.8-.2 1.7.2 2.6.2.5.5.9.8.8.3-.2.7-.9.4-1.7-.4-1-.9-1.5-1.4-1.7zm5.3-2.7q0 .9.4 1.9c.2.7.5.9.6.8.2 0 .5-.5.3-1.3-.2-.5-.7-1-1.3-1.4z"/><path class="s3" d="m1563.7 76.6-11.9-20.7h23.9z"/><path class="s0" d="M1645.8 10.6c2.9 0 5.2-2.3 5.2-5.2 0-2.9-2.3-5.2-5.2-5.2-2.9 0-5.2 2.3-5.2 5.2 0 2.9 2.3 5.2 5.2 5.2zM1657 10.6c2.9 0 5.2-2.3 5.2-5.2 0-2.9-2.3-5.2-5.2-5.2-2.8 0-5.2 2.3-5.2 5.2 0 2.9 2.4 5.2 5.2 5.2zM1645.8 21.8c2.9 0 5.2-2.3 5.2-5.1 0-2.9-2.3-5.2-5.2-5.2-2.9 0-5.2 2.3-5.2 5.2 0 2.8 2.3 5.1 5.2 5.1zM1657 21.8c2.9 0 5.2-2.3 5.2-5.1 0-2.9-2.3-5.2-5.2-5.2-2.8 0-5.2 2.3-5.2 5.2 0 2.8 2.4 5.1 5.2 5.1z"/><path class="s1" d="m1654.5 53.1 1.7-1.9c.9-.9 2.4-.3 2.3.9l-.1 2.7c0 .7.6 1.4 1.4 1.4l2.6-.2c1.3 0 1.9 1.5 1 2.3l-2 1.8c-.5.5-.5 1.4 0 2l2 1.7c.9.9.3 2.4-1 2.4l-2.6-.2c-.8 0-1.4.6-1.4 1.4l.1 2.7c.1 1.2-1.4 1.8-2.3.9l-1.7-1.9c-.5-.6-1.5-.6-2 0l-1.8 1.9c-.8.9-2.4.3-2.3-.9l.1-2.7c.1-.8-.6-1.4-1.4-1.4l-2.6.2c-1.2 0-1.9-1.5-1-2.4l2-1.7c.6-.5.6-1.5 0-2l-2-1.8c-.9-.8-.2-2.3 1-2.3l2.6.2c.8 0 1.5-.7 1.4-1.4l-.1-2.7c-.1-1.2 1.5-1.8 2.3-.9l1.8 1.9c.5.6 1.4.6 2 0z"/><path fill-rule="evenodd" class="s4" d="M1701.6 29.3v4l2.8-2.9q.3-.3.7-.3.4 0 .7.3l2 2.1c.4.3.4 1 0 1.3l-2.8 2.9h4c.5 0 1 .4 1 1v2.8c0 .6-.5 1-1 1h-4l2.8 2.8c.4.4.4 1 0 1.4l-2 2q-.3.3-.7.3-.4 0-.7-.3l-2.8-2.8v4c0 .5-.5 1-1 1h-2.9c-.5 0-1-.5-1-1v-4l-2.8 2.8q-.3.3-.7.3-.4 0-.7-.3l-2-2c-.4-.4-.4-1 0-1.4l2.8-2.8h-4c-.5 0-1-.4-1-1v-2.8c0-.6.5-1 1-1h4l-2.8-2.9c-.4-.3-.4-1 0-1.3l2-2.1q.3-.3.7-.3.4 0 .7.3l2.8 2.9v-4c0-.6.5-1 1-1h2.9c.5 0 1 .4 1 1zm-3.7.1V36l-1.9-1.9-2.8-2.7-1.7 1.8 2.7 2.7 1.9 1.9h-6.6v2.5h6.6l-1.9 2-2.7 2.7 1.7 1.8 2.8-2.7 1.9-2v6.6h2.5v-6.6l2 2 2.7 2.7 1.8-1.8-2.7-2.7-2-2h6.6v-2.5h-6.6l2-1.9 2.7-2.7-1.8-1.8-2.7 2.7-2 1.9v-6.6z"/><path fill-rule="evenodd" class="s3" d="m1744.3 77-12.5-21.6h25zm-10.5-20.4 10.5 18.1 10.4-18.1z"/><path class="s1" d="m1741.7 20.7-1.8 1.9c-.8.9-2.3.3-2.3-.9l.2-2.7c0-.8-.6-1.4-1.4-1.4l-2.7.2c-1.2 0-1.9-1.5-.9-2.4l1.9-1.7c.6-.5.6-1.5 0-2l-1.9-1.8c-1-.8-.3-2.3.9-2.3l2.7.2c.8 0 1.4-.7 1.4-1.4l-.2-2.7c0-1.2 1.5-1.8 2.3-.9l1.8 1.9c.5.6 1.5.6 2 0l1.8-1.9c.8-.9 2.3-.3 2.3.9l-.2 2.7c0 .7.6 1.4 1.4 1.4l2.7-.2c1.2 0 1.8 1.5.9 2.3l-1.9 1.8c-.6.5-.6 1.4 0 2l1.9 1.7c.9.9.3 2.4-.9 2.4l-2.7-.2c-.8 0-1.4.6-1.4 1.4l.2 2.7c0 1.2-1.5 1.8-2.3.9l-1.8-1.9c-.5-.6-1.5-.6-2 0z"/><path fill-rule="evenodd" class="s4" d="M1882.2-20.5v4l2.8-2.9q.3-.3.7-.3.4 0 .7.3l2 2.1c.4.3.4.9 0 1.3l-2.8 2.9h4c.5 0 1 .4 1 .9v2.9c0 .6-.5 1-1 1h-4l2.8 2.8c.4.4.4 1 0 1.4l-2 2q-.3.3-.7.3-.4 0-.7-.3l-2.8-2.8v4c0 .5-.5 1-1 1h-2.9c-.5 0-1-.5-1-1v-4l-2.8 2.8q-.3.3-.7.3-.4 0-.7-.3l-2-2c-.4-.4-.4-1 0-1.4l2.8-2.8h-4c-.5 0-1-.4-1-1v-2.9c0-.5.5-.9 1-.9h4l-2.8-2.9c-.4-.3-.4-1 0-1.3l2-2.1q.3-.3.7-.3.4 0 .7.3l2.8 2.9v-4c0-.6.5-1 1-1h2.9c.5 0 .9.4 1 1zm-3.7.1v6.6l-2-1.9-2.7-2.7-1.8 1.8 2.7 2.7 2 1.9h-6.6v2.5h6.6l-2 2-2.7 2.7 1.8 1.8 2.7-2.7 2-2v6.6h2.5v-6.6l2 2 2.7 2.7 1.7-1.8-2.7-2.7-1.9-2h6.6V-12h-6.6l1.9-1.9 2.7-2.7-1.7-1.8-2.8 2.7-1.9 1.9v-6.6z"/><path class="s5" d="M1879.7 50.8c5.8 0 10.4-4.6 10.4-10.3 0-5.7-4.6-10.4-10.4-10.4-5.7 0-10.3 4.7-10.3 10.4s4.6 10.3 10.3 10.3z"/><path fill-rule="evenodd" class="s0" d="M1800.3 45.2c0 2.8-2.4 5.1-5.2 5.1-2.9 0-5.2-2.3-5.2-5.1 0-2.9 2.3-5.2 5.2-5.2 2.8 0 5.2 2.3 5.2 5.2zm-9.3 0c0 2.2 1.8 4 4.1 4 2.2 0 4-1.8 4-4 0-2.3-1.8-4.1-4-4.1-2.3 0-4.1 1.8-4.1 4.1zM1789 45.2c0 2.8-2.3 5.1-5.2 5.1-2.8 0-5.1-2.3-5.1-5.1 0-2.9 2.3-5.2 5.1-5.2 2.9 0 5.2 2.3 5.2 5.2zm-9.2 0c0 2.2 1.8 4 4 4s4.1-1.8 4.1-4c0-2.3-1.9-4.1-4.1-4.1-2.2 0-4 1.8-4 4.1zM1800.3 33.9c0 2.9-2.4 5.2-5.2 5.2-2.9 0-5.2-2.3-5.2-5.2 0-2.9 2.3-5.2 5.2-5.2 2.8 0 5.2 2.3 5.2 5.2zm-9.3 0c0 2.2 1.8 4 4.1 4 2.2 0 4-1.8 4-4s-1.8-4-4-4c-2.3 0-4.1 1.8-4.1 4zM1789 33.9c0 2.9-2.3 5.2-5.2 5.2-2.8 0-5.1-2.3-5.1-5.2 0-2.9 2.3-5.2 5.1-5.2 2.9 0 5.2 2.3 5.2 5.2zm-9.2 0c0 2.2 1.8 4 4 4s4.1-1.8 4.1-4-1.9-4-4.1-4c-2.2 0-4 1.8-4 4z"/><path fill-rule="evenodd" class="s1" d="M1832.7 19.3c-.6 0-1.3-.4-1.8-1.4-.5-1.2-.6-2.2-.3-3.1-.6.1-1.2.4-1.9.9-2.1 1.4-1.7 3.2-1.7 3.2l-1.1.3c0-.1-.6-2.6 2.2-4.5q1.7-1.2 3-1.2c.4-.7 1.1-1.4 1.7-2 .9-.9 2.1-1.2 3.3-1 .4-1.6 1.4-2.6 2.1-3.2 1.9-1.5 4.7-2 6.1-1.1q1 .6 1.2 1.7c.3 1.3-.5 2.5-.6 2.6l-.9-.7s.6-.9.4-1.7q-.1-.6-.7-1c-.8-.5-3-.3-4.8 1-.7.6-1.4 1.5-1.7 2.7 1.1.5 1.9 1.4 2.2 2.4.4 1.3-.2 2.5-1.1 2.7-.6.2-1.5-.1-2-1.6q-.4-1.5-.4-2.7c-.9-.1-1.7.1-2.3.7q-.8.8-1.3 1.4c1 .5 1.5 1.6 1.9 2.4.5 1.3-.1 2.7-1 3.1q-.2.1-.5.1zm-.9-4.5c-.3.8-.2 1.7.2 2.6.2.5.5.9.7.8.4-.2.7-.9.4-1.7-.4-1-.8-1.5-1.3-1.7zm5.3-2.7q0 .9.4 1.9c.1.7.4.9.5.8.3 0 .5-.5.3-1.3-.1-.5-.6-1-1.2-1.4z"/><path class="s3" d="m1834.6 76.6-11.9-20.7h23.8z"/></g></svg>