<svg version="1.2" xmlns="http://www.w3.org/2000/svg" width="25" height="25"><defs><linearGradient id="b" x2="1" gradientUnits="userSpaceOnUse" gradientTransform="matrix(31.012 -26.406 26.407 31.012 2.4 21.1)"><stop offset=".001" stop-color="#ffe185"/><stop offset=".209" stop-color="#ffbb36"/><stop offset=".376" stop-color="#ff5176"/><stop offset=".524" stop-color="#f63395"/><stop offset=".74" stop-color="#a436d2"/><stop offset="1" stop-color="#5f4eed"/></linearGradient><clipPath clipPathUnits="userSpaceOnUse" id="a"><path d="M0 0h25v25H0z"/></clipPath></defs><g clip-path="url(#a)"><path d="M12.5 23.4c6.1 0 11-4.9 11-11s-4.9-11-11-11-11 4.9-11 11 4.9 11 11 11z" style="fill:#fff"/><path fill-rule="evenodd" d="M12.5 25C5.6 25 0 19.4 0 12.5S5.6 0 12.5 0 25 5.6 25 12.5 19.4 25 12.5 25zm8-15.8c0-2.6-2.1-4.7-4.8-4.7H9.5c-2.6 0-4.8 2.1-4.8 4.8v6.2c0 2.6 2.2 4.8 4.8 4.8h6.3c2.6 0 4.7-2.2 4.7-4.8zM19 15.5c0 1.7-1.5 3.2-3.3 3.2H9.5c-1.9 0-3.3-1.4-3.3-3.2V9.2C6.2 7.5 7.6 6 9.5 6h6.3C17.5 6 19 7.5 19 9.2zm-6.4-6.9c-2.1 0-3.8 1.8-3.8 3.9 0 2.1 1.7 3.9 3.8 3.9 2.2 0 3.9-1.8 3.9-3.9 0-2.1-1.7-3.9-3.9-3.9zm4.2-1.2c-.5 0-.9.4-.9.9s.4.8.9.8.8-.3.8-.8-.3-.9-.8-.9zM12.6 15c-1.3 0-2.5-1.1-2.5-2.5s1.2-2.5 2.5-2.5c1.4 0 2.5 1.1 2.5 2.5S14 15 12.6 15z" style="fill:url(#b)"/></g></svg>