<svg version="1.2" xmlns="http://www.w3.org/2000/svg" width="30" height="30"><path fill-rule="evenodd" d="M18.3 1.3v5.6l4-4c.2-.2.6-.4.9-.4.4 0 .7.2 1 .4L27 5.7c.5.6.5 1.4 0 2l-3.9 3.9h5.5c.8 0 1.4.6 1.4 1.4v4c0 .7-.6 1.3-1.4 1.3h-5.5l4 4c.5.5.5 1.4 0 1.9L24.2 27c-.2.3-.6.4-.9.4-.4 0-.7-.1-1-.4l-3.9-3.9v5.5c0 .8-.6 1.4-1.4 1.4h-4c-.7 0-1.3-.6-1.3-1.4v-5.5l-4 3.9c-.2.3-.6.4-.9.4-.4 0-.7-.1-1-.4L3 24.2c-.5-.5-.5-1.4 0-1.9l3.9-3.9H1.4C.6 18.4 0 17.8 0 17v-4c0-.7.6-1.3 1.4-1.3h5.5L3 7.7c-.6-.5-.6-1.4 0-1.9L5.8 3c.2-.3.6-.4.9-.4.4 0 .7.1 1 .4l3.9 3.9V1.4c0-.8.7-1.4 1.4-1.4h4c.7 0 1.4.6 1.3 1.3zm-1.5.2h-3.5v9.2L10.6 8 6.8 4.3 4.3 6.7l3.8 3.8 2.7 2.7H1.6v3.5h9.2l-2.7 2.7-3.8 3.8 2.5 2.5 3.8-3.8 2.7-2.7v9.2h3.5v-9.2l2.7 2.7 3.7 3.8 2.5-2.5-3.7-3.8-2.8-2.7h9.2v-3.5h-9.2l2.8-2.7 3.7-3.7-2.5-2.5-3.7 3.8-2.7 2.7z" style="fill:#f09"/></svg>