<svg version="1.2" xmlns="http://www.w3.org/2000/svg" width="70" height="70"><path fill-rule="evenodd" d="M46.9 70c-1.6 0-3.3-.7-4.5-2l-5.6-6.3c-.5-.5-1.1-.8-1.8-.8s-1.3.3-1.8.8L27.6 68c-1.8 1.9-4.4 2.5-6.9 1.5-2.4-1-3.9-3.3-3.7-5.9l.4-8.5c0-.6-.2-1.3-.7-1.8-.5-.5-1.2-.7-1.8-.7l-8.5.4c-2.5.2-4.9-1.3-5.9-3.7-1.1-2.4-.4-5.1 1.5-6.9l6.3-5.6c.5-.5.8-1.1.8-1.8s-.3-1.4-.8-1.8L2 27.6C.1 25.8-.5 23.1.5 20.7c1-2.4 3.3-3.9 5.9-3.8l8.5.5c.6 0 1.3-.2 1.8-.7.5-.5.7-1.2.7-1.9L17 6.4c-.2-2.5 1.3-4.9 3.7-5.9 2.4-1 5.1-.4 6.9 1.5l5.6 6.3c.5.5 1.1.8 1.8.8s1.4-.3 1.8-.8L42.4 2c1.8-2 4.5-2.5 6.9-1.5 2.4 1 3.9 3.3 3.8 5.9l-.5 8.4c0 .7.2 1.4.7 1.9.5.5 1.2.7 1.9.7l8.4-.5c2.5-.1 4.9 1.4 5.9 3.8s.4 5.1-1.5 6.9l-6.3 5.6c-.5.5-.8 1.1-.8 1.8s.3 1.3.8 1.8l6.3 5.6c2 1.8 2.5 4.4 1.5 6.9s-3.3 3.9-5.9 3.7l-8.4-.4c-.7 0-1.4.2-1.9.7-.5.5-.7 1.2-.7 1.8l.5 8.5c.1 2.5-1.4 4.9-3.8 5.9-.8.4-1.6.5-2.4.5zm-12-12.8c1.8 0 3.4.8 4.6 2.1l5.6 6.2c1.1 1.2 2.4.8 2.7.6.4-.1 1.6-.8 1.5-2.3l-.4-8.4c-.1-1.7.5-3.4 1.8-4.6 1.2-1.3 2.9-1.9 4.6-1.8l8.4.4c1.6.1 2.2-1.1 2.3-1.4.1-.4.6-1.7-.6-2.8l-6.3-5.6c-1.2-1.2-2-2.8-2-4.5 0-1.8.8-3.4 2-4.6l6.3-5.6c1.2-1.1.7-2.4.6-2.7-.1-.4-.8-1.6-2.3-1.5l-8.4.4c-1.7.1-3.4-.5-4.6-1.8-1.3-1.2-1.9-2.9-1.8-4.6l.4-8.4c.1-1.6-1.1-2.2-1.5-2.3-.3-.1-1.6-.6-2.7.6l-5.6 6.3c-1.2 1.2-2.8 2-4.6 2-1.7 0-3.3-.8-4.5-2l-5.6-6.3c-1.1-1.2-2.4-.7-2.8-.6-.3.1-1.5.8-1.4 2.3l.4 8.4c.1 1.7-.5 3.4-1.8 4.6-1.2 1.3-2.9 1.9-4.6 1.8l-8.4-.4c-1.6-.1-2.2 1.1-2.3 1.5-.2.3-.6 1.6.6 2.7l6.2 5.6c1.3 1.2 2.1 2.8 2.1 4.6 0 1.7-.8 3.3-2.1 4.5l-6.2 5.6c-1.2 1.1-.8 2.4-.6 2.8.1.3.7 1.5 2.3 1.4l8.4-.4c1.7-.1 3.4.5 4.6 1.8 1.3 1.2 1.9 2.9 1.8 4.6l-.4 8.4c-.1 1.6 1.1 2.2 1.4 2.3.4.2 1.7.6 2.8-.6l5.6-6.2c1.2-1.3 2.8-2.1 4.5-2.1z" style="fill:#f09"/></svg>