<svg version="1.2" xmlns="http://www.w3.org/2000/svg" width="93" height="64"><path fill-rule="evenodd" d="M32.1 64c-2.8 0-5.9-1.8-8.2-6.8-2.4-5.6-2.8-10.4-1.6-14.8-2.5.7-5.4 2.2-8.7 4.4-9.9 6.7-8 15.4-8 15.4L.3 63.4c-.1-.6-2.7-12.5 10.2-21.1 5.4-3.7 10.1-5.6 14.3-5.7 2-3.5 5-6.7 8.2-9.7 4.1-3.7 9.5-5.3 15.2-4.3C50 14.9 54.8 10 58.4 7.2 67.3.3 80.4-2.1 87 2.1c3.1 1.9 5.1 4.6 5.8 7.9 1.2 6.2-2.8 12.1-2.9 12.3l-4.5-3s2.9-4.4 2-8.3c-.3-1.8-1.5-3.3-3.4-4.5-3.6-2.3-14.1-1.6-22.4 4.8-3.4 2.7-6.9 6.8-8.3 12.8 5.3 2.2 9.3 6.3 10.6 10.9 1.9 6.5-1.2 11.7-5 12.9-2.9.9-7.3-.5-9.5-7.3-1.6-4.8-2.1-9.1-2-12.8-4.2-.7-8 .4-10.9 3-2.6 2.5-4.6 4.7-6.1 6.8 4.8 2.2 7.3 7.3 8.8 11.1 2.6 6.4-.4 12.8-4.7 14.6-.6.5-1.5.7-2.4.7zM28 42.5c-1.4 4-1.1 8 .9 12.6.9 2 2.4 3.9 3.7 3.4 1.7-.7 3.3-4.1 1.8-7.7-2-4.7-3.9-7.3-6.4-8.3zM53 30c.1 2.7.6 5.8 1.7 9.1.9 2.9 2.2 4 2.8 3.8 1-.3 2.3-2.7 1.3-6.2-.7-2.6-2.9-5.1-5.8-6.7z" style="fill:#f09"/></svg>