<svg version="1.2" xmlns="http://www.w3.org/2000/svg" width="55" height="65"><style>.s1{fill:#03f}</style><path fill-rule="evenodd" d="M27.8 56.1v.1q0 1.3-.4 2.7c.3.2.8.8.6 1.4q-.1 1.1-1.9 1.6H26q0 .1-.1.1-.6.1-1 .2-1 .1-1.5-.5c-.4-.5-.3-1.2-.2-1.6-3.3-3.1-4.6-8.4-5.2-12.3q-.1-1.3-.2-2.5c-.2-2.2-.2-3.9-.1-4.8v-.2l-.3.1h-.1q-.1 0-.1-.1l-.2-.2-1-3.8c-.1-.2 0-.3.2-.4l.3-.1C5.2 25.4.1 16.6 1.4 9.9 2.6 3.6 9 1.3 9.3 1.3c0-.1 6.8-1.8 11.1 3 4.5 5.1 4.6 15.3.3 30.3l.4-.1h.2q.1.1.1.2l1.1 3.8q0 .1-.1.3 0 .1-.2.1l-.2.1c.4.6 1.3 2 2.2 3.9.4.8.9 1.7 1.3 2.7.4 1 .9 2.2 1.2 3.5q.1 0 .1.1c.6 2.1 1.1 4.5 1 6.9zm-8.4-4.4c.6.5 4 3.3 7.8 4 0-2.1-.4-4.2-1-6.2-3.2-.8-6.5-2.8-7.8-3.6.2 1.7.5 3.8 1 5.8zm4.3-8.4c-2.6-.5-4.6-1.7-5.5-2.3 0 1 0 2.4.2 4 .7.5 4.2 2.8 7.6 3.7-.7-2-1.5-3.8-2.3-5.4zm-2.4-4.1-3 .9v.2c.5.4 2.4 1.6 5 2.2-.9-1.7-1.7-2.9-2-3.3zM12.4 1.6c1.3.4 2.9 1.2 4.3 2.9C21.2 9.6 22 19.9 19.1 35l.8-.2c4.4-15 4.4-25.1 0-30.1-2.3-2.5-5.3-3.1-7.5-3.1zm-2.4 1 8.5 31c1-19.1-6.1-28.4-8.5-31zm-.7.2c-.7 3.5-2 15.3 8.6 31zm9.8 28.1C21.6 15.2 19 8.1 16.2 5c-2.2-2.6-4.9-3.1-6.1-3.1 2.1 2.2 9.2 10.8 9 29zM5.1 8.2c-.7 4.3.6 11.7 10.7 23.6-5.4-8.7-7-15.9-7.5-20.7-.4-4.4.1-7.4.4-8.8-1 .7-3.1 2.5-3.6 5.9zm12.1 27.4.8-.2C7.8 24.1 3.3 14.9 4.4 8.1c.4-2.2 1.3-3.8 2.3-4.8C4.8 4.5 2.5 6.6 1.9 10 .7 16.6 5.8 25.2 17.2 35.6zm.2 4 .4-.1 1.8-.5 2.1-.6-.9-3.2-2.1.7-2.1.6zm9.5 19.8c-.9.7-1.8 1-2.5 1h-.8c0 .3-.1.6.1.9.2.2.6.4 1.9 0 1.4-.4 1.6-.9 1.7-1.1 0-.3-.2-.6-.4-.8zm.1-3c-3.2-.6-6-2.6-7.4-3.6.8 2.6 2.1 5.2 4 6.9.3 0 1.6.3 3-.9q.4-1.2.4-2.4z" style="fill:#ff8b00"/><path fill-rule="evenodd" class="s1" d="m43.2 35.1-5.8 25.6c-.3 1.5-1.3 2.7-2.6 3.2-.4.2-.9.4-1.4.4-.9 0-1.8-.2-2.5-.7-.9-.5-1.5-1.5-1.7-2.5-.2-1.1 0-2.2.6-3.1 2.6-3.9 4.4-8.3 5.5-13l2.5-11.1-4.4-1.1q-.6-.1-1-.7c-.2-.4-.3-.8-.2-1.2l3.9-17.1C38.2 4.3 45 2.5 48.9 2.2c1 0 2.2.6 2.9 1.5.5.6.7 1.2.5 1.8L45.9 34q-.1.7-.7 1-.3.3-.7.3H44zm-9.5-2.9 9.4 2.1 1.2.3c.5.1 1-.2 1.1-.8l6.4-28.5c.1-.5-.2-1-.4-1.2-.6-.7-1.7-1.3-2.4-1.2-3.7.2-10.2 1.9-12.2 11L32.9 31c0 .2 0 .5.2.7.1.2.3.4.6.5zm8.9 2.7-4.1-1L36 45.1c-1.1 4.8-3 9.2-5.6 13.2-.5.8-.7 1.7-.5 2.6.2.9.7 1.6 1.4 2.1 1 .7 2.2.8 3.4.3 1.1-.5 1.9-1.5 2.2-2.7z"/><path class="s1" d="M43.8 23.9c.1 0 .2.1.2.3l-1 7.9c0 .2.1.4.2.4h.1c.2 0 .3-.1.3-.3l1-7.9c.1-.5-.2-1-.7-1.2l-3.5-.6q-.4-.1-.7.1-.3.3-.3.7l-1 7.9c-.1.2 0 .4.2.4s.3-.1.4-.3l1-7.9q0-.1.1-.2h.2z"/></svg>