<svg version="1.2" xmlns="http://www.w3.org/2000/svg" width="150" height="150"><style>.s1{fill:#ff8b00}.s2{fill:#03cea4}.s3{fill:#f09}.s5{fill:#ffe600}</style><path d="M75 150c41.4 0 75-33.6 75-75S116.4 0 75 0 0 33.6 0 75s33.6 75 75 75z" style="fill:#0035f7"/><path class="s1" d="m40.6 131.4-11.1-3.9 8.9-7.6z"/><path class="s2" d="M139.7 71.8c2.6 0 4.8-2.2 4.8-4.8 0-2.6-2.2-4.8-4.8-4.8-2.7 0-4.8 2.2-4.8 4.8 0 2.6 2.1 4.8 4.8 4.8z"/><path fill-rule="evenodd" class="s3" d="M76.2 143.5c-.3 0-.5-.2-.7-.3l-.8-.9c-.1-.1-.2-.1-.3-.1-.1 0-.2 0-.3.1l-.8.9c-.3.3-.7.4-1 .2-.4-.2-.6-.5-.6-.9l.1-1.2c0-.1-.1-.2-.1-.3-.1 0-.2-.1-.3-.1l-1.2.1c-.4 0-.7-.2-.9-.6-.2-.3-.1-.7.2-1l.9-.8c.1-.1.1-.2.1-.3 0-.1 0-.2-.1-.3l-.9-.8c-.3-.3-.4-.7-.2-1 .2-.3.5-.6.9-.6l1.2.1c.1 0 .2-.1.3-.1 0-.1.1-.2.1-.3l-.1-1.2c0-.4.2-.7.6-.9.3-.2.7-.1 1 .2l.8.9c.1.1.2.1.3.1.1 0 .2 0 .3-.1l.8-.9c.3-.3.7-.4 1-.2.3.2.6.5.6.9l-.1 1.2c0 .1.1.2.1.3.1 0 .2.1.3.1l1.2-.1c.4 0 .7.3.9.6.2.3 0 .7-.2 1l-.9.8c-.1.1-.1.2-.1.3 0 .1 0 .2.1.3l.9.8c.2.3.4.7.2 1-.2.3-.5.6-.9.6l-1.2-.1c-.1 0-.2.1-.3.1 0 .1-.1.2-.1.3l.1 1.2c0 .4-.2.7-.6.9-.1 0-.2.1-.3.1zm-1.8-1.9c.2 0 .5.1.7.3l.8.9c.2.2.3.1.4.1 0 0 .2-.1.2-.3l-.1-1.3c0-.2.1-.5.3-.6.2-.2.5-.3.7-.3l1.2.1c.2 0 .3-.2.3-.3 0 0 .1-.2-.1-.4l-.9-.8q-.2-.2-.2-.6c0-.3.1-.5.2-.7l.9-.8c.2-.2.1-.4.1-.4 0-.1-.1-.3-.3-.3l-1.2.1c-.2 0-.5-.1-.7-.3-.1-.1-.3-.4-.3-.6l.1-1.3c0-.2-.2-.3-.2-.3-.1 0-.2-.1-.4.1l-.8.9q-.3.3-.7.3c-.2 0-.5-.1-.7-.3l-.8-.9c-.2-.2-.3-.1-.4-.1-.1 0-.2.1-.2.3v1.3c0 .2 0 .5-.2.6-.2.2-.5.3-.7.3l-1.2-.1c-.2 0-.4.2-.4.3 0 0 0 .2.2.4l.8.8q.3.2.3.7c0 .2-.1.4-.3.6l-.8.8c-.2.2-.2.4-.2.4 0 .1.2.3.4.3l1.2-.1c.2 0 .5.1.7.3.1.1.2.4.2.6v1.3c0 .2.1.3.2.3s.2.1.4-.1l.8-.9c.2-.2.5-.3.7-.3z"/><path fill-rule="evenodd" d="M97.8 17c0 1.5-1.3 2.7-2.8 2.7-1.5 0-2.7-1.2-2.7-2.7 0-1.6 1.2-2.8 2.7-2.8 1.5 0 2.7 1.3 2.8 2.8zm-4.9 0c0 1.2.9 2.1 2.1 2.1 1.2 0 2.2-1 2.2-2.1 0-1.2-1-2.2-2.2-2.2-1.2 0-2.1 1-2.1 2.2zm-1.1 0c0 1.5-1.3 2.7-2.8 2.7-1.5 0-2.7-1.2-2.7-2.7 0-1.6 1.2-2.8 2.7-2.8 1.5 0 2.8 1.3 2.8 2.8zm-4.9 0c0 1.2 1 2.1 2.1 2.1 1.3 0 2.2-1 2.2-2.1 0-1.2-1-2.2-2.2-2.2-1.1 0-2.1 1-2.1 2.2zm10.9-6c0 1.5-1.3 2.8-2.8 2.8-1.5 0-2.7-1.3-2.7-2.8 0-1.6 1.2-2.8 2.7-2.8 1.5 0 2.7 1.2 2.8 2.8zm-4.9 0c0 1.2.9 2.1 2.1 2.1 1.2 0 2.2-1 2.2-2.1 0-1.2-1-2.2-2.2-2.2-1.2 0-2.1 1-2.1 2.2zm-1.1 0c0 1.5-1.3 2.8-2.8 2.8-1.5 0-2.7-1.3-2.7-2.8 0-1.6 1.2-2.8 2.7-2.8 1.5 0 2.8 1.2 2.8 2.8zm-4.9 0c0 1.2 1 2.1 2.1 2.1 1.3 0 2.2-1 2.2-2.1 0-1.2-1-2.2-2.2-2.2-1.1 0-2.1 1-2.1 2.2z" style="fill:#94bce0"/><path class="s5" d="M105 126.5s5.9-.7 7.1-6.8c1.2 6.1 7.1 6.8 7.1 6.8-6.1 1.2-7 7-7.1 7.3 0-.3-1-6.1-7.1-7.3z"/><path fill-rule="evenodd" class="s3" d="M133.3 104.4c-.4.2-1 .1-1.7-.5-.7-.7-1.1-1.4-1.2-2.1-.3.3-.6.7-1 1.2-1.1 1.6-.3 2.8-.3 2.8l-.7.5s-1.2-1.7.2-3.8c.6-.9 1.2-1.5 1.8-1.8q.1-1 .6-2c.4-.8 1.1-1.3 2-1.6-.3-1.3.1-2.4.5-3 .9-1.6 2.7-2.8 4-2.6q.9.1 1.4.8c.6.8.4 2 .4 2.1l-.9-.2s.2-.8-.2-1.4c-.2-.2-.5-.4-.8-.4-.7-.1-2.2.6-3 2.1-.4.6-.7 1.5-.5 2.5 1 0 1.8.4 2.3 1 .8.9.6 1.8.1 2.2-.4.4-1.1.4-1.9-.5-.5-.6-.9-1.2-1.1-1.7q-1 .2-1.4 1.1c-.3.6-.4 1-.5 1.5.8 0 1.5.6 2 1.1.8.8.8 2 .2 2.5 0 0-.1.1-.3.2zm-2-3c.1.7.3 1.3.9 1.8.3.3.7.5.8.3.2-.2.2-.8-.2-1.3q-.8-.8-1.5-.8zm3-3.5q.3.6.8 1.3c.4.4.6.4.7.4.1-.1.2-.6-.2-1.1-.3-.3-.7-.5-1.3-.6zM13 71.9c-.3.4-.7.7-1.6.7-1-.1-1.8-.4-2.3-.9-.1.4-.1 1-.1 1.6.3 1.9 1.7 2.4 1.7 2.4l-.3.8s-2-.6-2.3-3.1c-.1-1 0-1.9.3-2.5q-.5-.8-.8-1.9c-.3-.9-.1-1.8.5-2.5-1-.9-1.4-1.9-1.5-2.7-.4-1.8.3-3.9 1.4-4.6q.8-.4 1.6-.2c1 .3 1.6 1.3 1.6 1.3l-.8.5s-.4-.8-1-1c-.3 0-.6 0-.9.2-.6.3-1.3 1.9-1 3.6.1.7.5 1.6 1.2 2.2.7-.6 1.7-.9 2.4-.7 1.2.2 1.6 1 1.5 1.7-.1.5-.6 1-1.7.8-.9-.1-1.5-.4-2-.7q-.6.9-.4 1.8c.2.6.3 1.1.5 1.5.8-.5 1.6-.5 2.3-.5 1.1.1 1.9 1.1 1.8 1.8 0 .1 0 .2-.1.4zm-3.5-1c.5.5 1.1.7 1.9.8.4 0 .8-.1.8-.3 0-.3-.4-.8-1-.9q-1.2-.1-1.7.4zm.1-4.6q.6.3 1.5.4c.5.1.7 0 .7-.1 0-.2-.2-.5-.8-.7-.4-.1-.9 0-1.4.4z"/><path fill-rule="evenodd" class="s2" d="M15.7 108c-3 0-5.5-2.5-5.5-5.5s2.4-5.5 5.5-5.5 5.5 2.4 5.5 5.5c-.1 3-2.5 5.5-5.5 5.5zm0-10.4c-2.7 0-4.9 2.3-4.9 4.9 0 2.7 2.2 4.9 4.9 4.9s4.9-2.2 4.9-4.9-2.2-4.9-4.9-4.9z"/><path fill-rule="evenodd" class="s5" d="M53.4 100.1q-.2-.4-.3-.8 0-.5.2-.8l.1-.1-.1-1.8c0-.3.1-.6.3-.9.2-.2.4-.3.7-.3.4 0 .7.2 1 .6q1.7-1.5 3.4-.9.9.4 1.5 1.3c.4.5.7 1.2.9 1.9.5 1.4.6 2.8.2 4q-.3 1.1-1 2-.7.8-1.8 1.2c-.8.2-1.6.1-2.4-.3-.1-.1-.3-.2-.5-.4v3.1c0 .3 0 .6-.2.9-.2.2-.5.4-.8.4-.2 0-.5-.1-.7-.4q-.3-.3-.3-.8c0-1.7-.1-4.3-.2-7.9zm5.9 1.9c.2-.9.2-1.9-.1-2.9q-.4-1.4-1.2-1.7-.8-.3-2 1-.3.2-.5.7v2.6l.5.5.5.5c.1.1.3.3.5.3.2.2.6.2 1 .1.7-.2 1.1-.6 1.3-1.1zm6.2 1c-.3-.9-.5-1.8-.5-2.7 0-.9.1-1.9.5-2.7.3-.9.8-1.6 1.5-2 .3-.2.8-.4 1.3-.4.2-.2.4-.3.6-.3q.3-.1.7.1.4.4 1.1.9c.5.2.8.5 1 .7.4.3.6.8.7 1.2.2.5.4 1.1.4 1.8q.2 1.4-.2 2.7-.3 1.3-1.2 2.2c-.6.6-1.2 1-2 1.1-.8.1-1.6-.1-2.4-.6-.6-.5-1.2-1.2-1.5-2zm4.7-.3q.4-.4.6-1.2c.2-.5.2-1 .2-1.5q-.2-1.4-.5-1.6c-.2-.2-.3-.3-.7-.5l-.6-.4h-.7c-.2 0-.3.1-.4.1-.3.2-.5.5-.8 1-.1.5-.2 1-.2 1.6 0 .7.1 1.2.2 1.6q.3.7.8 1c.8.6 1.5.5 2.1-.1z"/><path class="s5" d="m80 101.2-1.2 1.3q.1.8.2 1.7c0 .3-.1.6-.2.9q-.3.4-.7.4c-.3.1-.5 0-.8-.2-.2-.2-.4-.5-.4-.8q-.4-3.4-.2-8.1 0-.5.4-.9.3-.3.7-.3c.3 0 .5.2.7.4.2.2.3.5.3.9-.1 1-.1 2-.1 2.9l3.6-3.9q.4-.4.8-.4c.3 0 .5.2.7.4.2.3.3.6.3.9q0 .5-.3.8l-2.2 2.4q1.1 1.8 2.8 3.9c.2.2.3.5.3.8q0 .5-.3.9-.3.3-.7.3c-.3 0-.5-.2-.8-.4-1.2-1.4-2.1-2.6-2.9-3.9zm8.6 3v-.1c-.1-2.7-.1-5.3.1-7.8 0-.3.2-.6.3-.8.3-.3.5-.4.8-.3.3 0 .5.2.7.4.2.3.3.5.3.9q-.2 2.2-.2 4.3l.8-1.2c1-1.6 1.8-2.9 2.3-3.9.2-.3.4-.6.7-.6h.4c.3 0 .6.1.7.3q.4.3.4.8v8c0 .4 0 .6-.3.9-.1.2-.4.4-.7.4-.3 0-.5-.1-.7-.3q-.3-.4-.3-.9c-.1-.9-.1-2.5-.1-4.5l-.8 1.3c-1.6 2.4-2.4 3.7-2.5 3.9q-.3.4-.7.5c-.3 0-.5 0-.8-.3-.2-.1-.4-.5-.4-1zM102 63.5s.5-3.6 1.7-4.2c1.1-.7 6.9-.8 9.8-.8 2.9-.1 8.2-1.7 9.3-1.5 1.1.2 5.4 2.4 3.9 6.3-1.6 3.9-4.6 5-4.5 5.8.2.7 4.4 3.3 4.4 6.3-.1 3-1.5 8.5-5.5 9.4-4 1-13.1 2.3-16.3-.5-3.2-2.8-3.7-5.2-1.4-6.6 2.3-1.5 7.8-.7 8.9.2 1.2.8 3.4.6 3.9-.1.5-.8 1.1-2.7-1.1-2.7-2.1-.1-7.4.1-7.5-2.2 0-2.3 5.2-5.8 5.2-6.2-.1-.4-6.4.4-8.2-.5-1.7-.8-2.5-1.6-2.6-2.7zm-19.8 10s-.4-1.3 0-2.6c.4-1.4 8.6-.7 9.8-.5 1.1.2 6.3-.5 6.8-.4.6.2 2.1 3.7.5 4.6-1.6.9-7.6 0-8.3-.1-.7-.1-4.7.3-6 .4-1.4.1-2.3-.2-2.8-1.4z"/><path fill-rule="evenodd" class="s1" d="m122.8 43.7-7.1-12.4h14.2zm-6-11.6 6 10.4 6-10.4z"/><path fill-rule="evenodd" class="s5" d="M22.6 44.2c-.2 0-.4-.1-.4-.3-1-5.2-6-5.9-6.2-6-.2 0-.4-.1-.4-.3 0-.2.2-.3.3-.4 5.3-1 6.2-6.1 6.3-6.4 0-.1.2-.3.3-.3.2 0 .4.1.4.3.1.3 1 5.4 6.3 6.4.1 0 .3.1.3.4 0 .1-.2.3-.4.3s-5.1.7-6.2 6c0 .2-.2.3-.3.3zm-5.1-6.6c.5.1 1 .3 1.6.7 1.2.7 2.7 2 3.5 4.2.8-2.2 2.3-3.5 3.5-4.2.5-.4 1.1-.6 1.6-.7-1.8-.7-3.2-1.8-4.2-3.5-.4-.6-.8-1.3-.9-1.8q-.3.8-.9 1.8c-1 1.7-2.5 2.8-4.2 3.5zm4.7-6.8q0 .1 0 0z"/><path class="s3" d="m53.6 19.9-1.1 1.2c-.5.6-1.5.2-1.5-.6l.1-1.6c0-.5-.3-.9-.8-.9l-1.7.1c-.8 0-1.2-1-.6-1.5l1.2-1.1c.4-.4.4-1 0-1.3L48 13.1c-.6-.6-.2-1.5.6-1.5l1.7.1c.5 0 .8-.4.8-.9L51 9.2c0-.8 1-1.3 1.5-.7l1.1 1.3c.4.4 1 .4 1.3 0L56 8.5c.6-.6 1.5-.1 1.5.7l-.1 1.6c0 .5.4.9.9.9l1.7-.1c.7-.1 1.2.9.6 1.5l-1.2 1.1c-.4.3-.4.9 0 1.3l1.2 1.1c.6.5.1 1.5-.6 1.5l-1.7-.1c-.5 0-.9.4-.9.9l.1 1.6c.1.8-.9 1.2-1.5.6l-1.1-1.2c-.3-.4-.9-.4-1.3 0z"/><path fill-rule="evenodd" class="s5" d="m59.9 85.2.1-.7-.4.5.1-.6-.4.5.1-.7-.4.5.1-.6-.4.4.1-.5-.4.4.1-.5-.4.4.1-.6-.5.5.2-.6-.5.5.2-.6-.5.5.2-.7-.7.5.4-.8-.8.5.4-.6-.6.4.3-.6-.6.3.4-.5-.6.3.4-.5-.6.3.4-.5-.6.2.4-.5-.7.3.5-.5-.7.3.5-.5-.7.2.4-.5-.6.3.4-.5-.6.2.5-.5-.6.3.4-.5-.7.2.5-.4-.6.2.4-.5-.6.2.4-.4-.6.1.5-.4-.7.2.5-.5-.7.2.5-.5-.6.1.5-.4h-.8l.7-.4-.8-.1.6-.2-.7-.1.6-.2-.6-.2.6-.2-.7-.2.7-.1-.7-.3.6-.1-.6-.2.6-.1-.6-.3.7-.1-.7-.3h.7l-.6-.3.6-.1-.5-.3h.5l-.5-.3h.6l-.5-.4h.6l-.5-.4.6.1-.4-.4.5.1-.4-.4h.6l-.4-.4.5.1-.3-.4.5.2-.4-.5.5.2-.3-.4.5.2-.3-.5.5.2-.2-.4.4.2-.2-.5.4.2-.2-.4.4.2-.1-.5.3.3-.1-.5.4.2-.2-.4.4.2-.2-.5.3.2-.1-.3.3.1-.3-.4h.1l.3-.1-.5-.2.3-.2h-.4l.3-.2h-.4l.2-.3-.4.1.3-.3-.4.1.3-.4-.5.1.3-.3h-.6l.4-.3h-.5l.4-.3H54l.3-.3h-.5l.4-.3h-.5l.4-.2-.6-.1.5-.3-.6-.1.5-.2-.6-.1.5-.2-.6-.1.5-.2-.6-.2.6-.1-.6-.2.6-.2-.6-.2.5-.1-.5-.2.6-.1-.6-.3h.6l-.6-.3.6-.1-.5-.3h.6l-.5-.3h.6l-.5-.3h.6l-.4-.4.5.1-.4-.4.5.1-.3-.4.5.1-.3-.4.5.1-.3-.4h.5l-.2-.4.4.2-.2-.5.5.1v-.4l.2.2.1-.4.2.2.1-.3.2.1.1-.2.2.1.1-.3.2.2v-.3l.2.2.1-.3.2.1.1-.2.2.1v-.3l.2.2.1-.3.2.1.1-.3.1.2.2-.3.1.2.1-.3.2.2.1-.4.2.2v-.3l.2.2.1-.4.2.3.1-.4.2.3.1-.4.1.2.1-.3.2.2.1-.4.2.3.1-.4.2.3.1-.4.2.3v-.3l.2.2.1-.4.2.3.1-.4.2.3.1-.3.2.2.1-.4.2.3.1-.3.2.2.1-.4.1.3.1-.4.2.3.1-.4.2.3.1-.4.2.3.1-.5.2.4.1-.5.2.4.1-.5.2.5.2-.6.2.5.2-.6.1.5.3-.5.1.5.2-.6.1.6.3-.6v.6l.3-.6v.6l.3-.6.1.6.3-.6v.6l.3-.6v.7l.3-.6.1.6.3-.5v.5l.2-.5v.6l.4-.5v.6l.3-.5v.6l.3-.5v.5l.3-.4v.5l.4-.4-.1.5.4-.4-.1.5.4-.4-.1.5.4-.4-.1.5.4-.3-.1.4.4-.4-.1.5.3-.3v.4l.3-.3-.1.4.5-.3-.2.5.5-.4-.2.5.4-.4-.1.5.5-.4-.2.5.5-.3-.2.5.5-.4-.3.6.6-.4-.3.6.7-.4-.5.7.9-.4-.5.6.8-.2-.5.5.7-.2-.5.4.8-.2-.6.5.8-.2-.7.4.8-.1-.6.4.8-.1-.7.4.9-.1-.7.4.8-.1-.7.4.8-.1-.7.4.9-.1-.7.3h.8l-.7.4.9-.1-.8.4.8-.1-.7.4.9-.1-.8.3h.9l-.8.4h.9l-.9.3h1l-.9.3h.9l-.8.3.9.1-.9.3.9.1-.9.2.9.2-.9.1.9.3-1 .1.9.4h-1l.9.5-.9-.1.7.5-.7-.2.5.5-.7-.2.5.5-.7-.2.5.6-.7-.2.5.5-.7-.2.4.4-.5-.2.3.5-.6-.2.3.5-.5-.3.3.5-.5-.2.2.4-.5-.2.2.5-.2-.1.1.1h-.4l.3.3h-.1l-.2.1.3.1-.2.2h.4l-.2.2h.3l-.1.3.3-.1-.1.3.3-.1-.1.3.4-.1-.1.3h.3l-.1.2h.4l-.2.3h.4l-.1.3h.4l-.3.2h.5l-.3.2.5.1-.3.2h.4l-.3.3h.5l-.3.3h.5l-.4.2.5.1-.4.2.5.1-.4.2.5.1-.4.2.5.2-.4.1.5.2-.4.2.5.1-.5.1.5.3-.4.1.5.2-.5.1.5.3h-.5l.5.3-.5.1.5.3h-.5l.5.4h-.6l.5.3h-.5l.4.4-.5-.1.5.4h-.6l.5.4-.6-.1.4.4H78l.4.4-.6-.1.5.5-.7-.3.4.8-.7-.4.2.8-.4-.4.1.6-.4-.4.1.6-.3-.4v.6l-.3-.4.1.5-.4-.4.1.6-.3-.4v.5l-.3-.4.1.6-.4-.5.1.6-.4-.4.1.6-.3-.5v.6l-.3-.4.1.5-.3-.4v.6l-.3-.4v.5l-.3-.4.1.6-.3-.5v.6l-.3-.4v.5l-.3-.4v.6l-.3-.5.1.6-.3-.5v.7L72 83l.1.6-.3-.5v.6l-.3-.4v.6l-.3-.5.1.6-.4-.5.1.7-.3-.5v.7l-.3-.6.1.7-.4-.5.1.7-.3-.6v.7l-.3-.6.1.7-.4-.6.1.8-.3-.6.1.8-.4-.7.1.8-.4-.7.1.9-.4-.7.1.8-.3-.8v1l-.3-.8v.9l-.4-.8.1.9-.4-.9v1.1l-.4-1.1-.1 1.2-.3-1.1-.2 1.1-.1-.9-.2.9-.1-.9-.2.9-.1-.9-.3 1-.1-1-.2 1-.1-1-.2.9v-.9l-.3.9-.1-.9-.3.9v-1l-.3.9v-.9l-.4.9v-1l-.3.9v-1l-.4.9.1-.9-.4.8v-.9l-.3.8V85l-.4.8.1-.9-.4.8.1-.8-.4.7.1-.9-.5.7.1-.5-.2.5.1-.8zm6.9-19.8.6.3-.3-.4.6.4-.3-.4.5.2-.1-.2.4.1-.1-.2h.2l-.2-.2h.3l-.3-.2h.3l-.3-.2.2-.1-.2-.1.2-.1-.3-.1.3-.1-.5-.1.3-.2h-.4l.3-.2-.4.1.2-.2h-.4l.2-.2-.3.2.2-.3-.4.1.2-.3-.3.3.1-.4-.3.3.1-.4-.3.3.1-.3-.3.3.1-.4-.3.3.1-.4-.3.4.1-.5-.3.5v-.5l-.2.4v-.4l-.2.4-.1-.4-.1.4-.1-.4-.1.4-.1-.4-.1.4-.2-.4v.5l-.2-.4v.4l-.2-.3v.4l-.2-.3.1.4-.3-.2.2.3-.3-.3.1.4-.3-.1.3.2-.3-.1.2.3-.4-.1.3.3-.3-.1.3.2h-.3l.3.2h-.3l.3.2-.3.1.4.1-.4.1.5.1-.4.1.4.1-.3.1.4.1-.4.1h.5l-.3.2.5-.1-.4.3.4-.1-.2.2.4-.1-.3.2.4-.2v.1-.1l-.1.3.2-.3-.1.4.3-.3-.1.4.3-.4-.1.5.2-.5-.1.5.3-.5-.1.5.2-.5.1.5.1-.6.1.6.1-.6.1.5v-.5l.2.5v-.6l.2.5-.1-.6.2.5v-.6l.2.5-.1-.4v-.1l.1.1v.1-.3l.1.2-.1-.3.3.3zm-1.1 8.3h-.1.3zm-.3 0-.1.1h.3zm.6 0h-.1l.2.1.1-.1zm-.9.1h-.6l-.2.1h.1l.3-.1-.4.1-.3.2h-.4l-.2.2h-.1l-.1.1h-.1l-.2.2h-.1l-.1.1h-.1v.2h-.1v.2l-.1.1.1.2-.2.1.1.2-.1.1.1.2h-.1l.1.2v.1l.1.2-.1.1.2.2-.1.1.1.1v.2l.1.1v.1l.1.2v.1l.2.1v.1l.2.1v.1l.2.1.1.1.2.1.2.1.1.1h.2l.1.1h.2v.1h.6l.1.1.2-.1.1.1.2-.2v.1l.2-.1.1.1.2-.2.1.1.2-.2.1.1.1-.2.2.1.1-.3.1.2v-.3l.2.1.1-.3.2.1v-.3l.2.1-.1-.3.2.2-.1-.4.3.1-.1-.2h.2l-.1-.3v.1-.1l.4.1-.2-.4h.3l-.1-.3h.2l-.1-.2.2-.1-.1-.1.2-.1-.2-.2.2-.1-.2-.2.1-.1-.1-.2.1-.1-.1-.1v-.1l-.2-.1v-.1l-.2-.1v-.1h-.2l-.1-.1-.2-.1h-.3l-.1-.1-.2-.1h-.1l-.3-.1h-1.6.1zm1.3 0h-.1.3zm-1.7.1.3-.1-.1.1zm2.2 0h.1zm.2 0H67zm-.5-.1h-.1l.3.1h.1zm.3.1h.4-.3zm.4 0z"/><path class="s5" d="M45 84.9h.2l-.1-.2h.1l-.1-.2h.1l-.1-.2h.1l-.1-.1.2-.1-.2-.2h.2l-.2-.1.2-.1-.2-.1h.2l-.2-.2h.2l-.1-.2h.1l-.1-.2h.1l-.1-.2h.2l-.2-.2h.2l-.2-.3.2.1-.2-.2h.2l-.1-.3.2.1-.2-.3h.2l-.1-.3.2.1-.2-.3.2.1-.1-.4.2.2-.1-.4.2.2v-.4l.1.3v-.5l.2.3v-.4l.1.4v-.4l.1.3v-.4l.1.3v-.3l.1.3.1-.3v.3l.1-.3v.3l.1-.4v.4l.1-.4.1.3V80l.1.3.1-.3v.3l.1-.3v.3l.1-.3v.3l.1-.3v.3l.1-.3v.3l.1-.3v.3l.1-.3v.4l.1-.4.1.4.1-.3v.5l.2-.5-.1.6.3-.3-.1.3.1-.1.1-.2v.1l-.1.4.3-.1-.3.3.3.1.1-.1-.1.1h.1l-.2.1.3.1-.4.2.4.2-.4.1.4.4h-.3l.3.3-.3-.1.2.3-.3-.1.3.4-.3-.2.3.4-.3-.1.2.3-.2-.1.2.3-.3-.1.3.3-.3-.2.2.4-.2-.1.2.3-.3-.2.2.3-.2-.1.2.3-.3-.1.3.3-.3-.2.2.3-.2-.1.2.3-.3-.1.2.3-.2-.1.2.2-.3-.1.3.3-.3-.1.2.3-.3-.1.3.3-.3-.1.2.3-.3-.1.3.3-.3-.2.2.4-.2-.2.2.3-.3-.1.2.3-.2-.1.2.3-.3-.2.2.4-.2-.1.2.3-.3-.2.2.4-.3-.2.2.5-.3-.3.2.5-.2-.3.1.5-.2-.3.1.5-.3-.4.1.6-.2-.5v.6l-.1-.5v.6l-.1-.5-.1.5-.1-.4v.4l-.1-.4v.4l-.1-.4-.1.4v-.4l-.1.3v-.3l-.1.3-.1-.3v.3l-.1-.4-.1.3v-.3l-.1.2v-.3l-.1.2v-.3l-.2.2.1-.3-.2.1V88l-.1.1v-.2.1-.1h-.1l.1-.1h-.1l.1-.2-.2-.1.2-.1-.2-.2h.1L45 87l.1-.1-.1-.2h.1l-.1-.2h.1l-.1-.2h.1l-.1-.2h.1l-.1-.2h.1l-.1-.2h.1l-.1-.1.2-.1-.2-.1.2-.1-.2-.1h.1l-.1-.1h.2z"/><path fill-rule="evenodd" class="s5" d="m28.8 79.9.6-.1-.7-.3h.6l-.8-.3.7-.1-.8-.2.7-.1-.9-.2.9-.1-.9-.2.9-.1-.9-.2.9-.1-.9-.2.8-.1-.9-.3h.9l-.9-.3h.9l-.9-.3.9-.1-1-.2 1-.1-1-.2 1-.1-1-.2 1-.1-1-.2 1-.1-1.1-.2 1-.1-1-.2 1-.1-1-.2 1-.1-1-.2 1-.2-1-.2 1-.1-1-.2 1-.1-1.1-.2 1.1-.1-1.1-.2 1.1-.1-1.1-.2 1-.1-1-.2 1-.1-1-.2 1-.1-1.1-.2 1.1-.1-1.1-.2 1.1-.1-1.1-.3h1.1l-1.1-.3 1.1-.1-1.1-.2 1.1-.1-1.1-.2 1.2-.1-1.2-.2 1.1-.1-1.1-.3.1.1-.7-.7.3.9-.6-.7.3.8-.6-.7.3.9-.6-.7.2.8-.6-.7.2.9-.6-.8.1.9-.5-.9-.2 1.1-.3-.9-.4.8-.1-1-.7.9.1-1-1 .6.3-.7-.6.4.3-.6-.6.2.3-.5-.6.2.4-.5-.6.2.4-.4-.6.1.4-.4-.5.1.3-.3h-.4l.2-.3h-.4l.3-.3h-.4l.2-.3h-.3l.2-.3h-.4l.2-.3-.3-.1.2-.2-.4-.1.3-.2-.3-.2.2-.2-.2-.2.2-.1-.2-.2.3-.2-.1-.2.2-.1-.1-.2.2-.1v-.2l.2-.1v-.2h.2l.1-.2h.1l.1-.2h.2l.1-.2h.1l.2-.2h.1l.2-.1.1-.1.2-.2.1-.1-.1.1h-.1l-.1.1.2-.1.4-.3.1-.1.1-.1-.1.1.1-.1v.1l.2-.2h.1l.3-.3.2-.2h.1l.2-.2.2-.3h.1l.2-.1v-.1l.2-.1.1-.1.1-.2h.1l.1-.2h.2l.1-.2h.1l.1-.2h.2l.1-.1h.1l.1-.3h.2v-.1h.2l.1-.2h.1l.1-.2h.2l.1-.2h.1l.1-.2h.1l.2-.2h.1l.1-.2h.2l.1-.2h.1l.1-.2.2.1.1-.3h.1l.2-.2.1.1.1-.3.2.1.1-.3.1.1.1-.2h.2l.1-.3.2.2.1-.3.2.1.1-.3.2.2.1-.3.2.1.2-.3.1.2.2-.3.2.2.2-.3.1.3.2-.4.1.3.2-.4.1.3.3-.3.1.3.2-.4.1.4.2-.4.1.4.2-.5.1.4.2-.4.1.4.3-.4v.4l.3-.5.1.5.2-.5.1.5.3-.5.1.5.2-.5.1.5.3-.5.1.5.3-.5v.6l.4-.6v.6l.4-.5v.5l.3-.5.1.5.3-.4v.6l.5-.5-.1.6.5-.4-.2.5.6-.3-.3.6.7-.2-.4.5h.8l-.5.4.8.1-.6.4.7.1-.6.3.7.1-.6.2.7.2-.6.2.6.2-.6.1.7.2-.6.1.6.3h-.6l.6.3-.6.1.6.2-.6.1.6.2-.6.1.6.3h-.6l.6.3h-.6l.6.3-.6.1.6.2-.6.1.5.2-.5.1.5.2-.6.1.6.2-.6.1.6.2-.6.1.6.2-.6.1.5.2-.5.1.5.2-.5.1.5.3-.5.1.5.2-.5.1.5.2-.5.1.5.2-.5.1.5.2-.5.1.5.2-.5.1.5.2-.5.1.5.2-.5.1.5.2-.5.1.5.2-.5.1.5.3h-.5l.5.3h-.5l.5.3h-.5l.5.3h-.5l.5.3-.5.1.5.2-.5.1.5.2-.5.1.5.2-.5.1.5.2-.5.1.5.2-.5.1.5.2-.6.1.5.2-.5.1.5.2-.4.1.5.2-.5.1.5.2-.5.1.5.2-.5.1.5.2-.5.1.5.3-.5.1.5.2-.5.1.6.2-.6.1.6.2-.6.1.6.2-.5.1.5.2-.5.1.6.2-.6.1.6.2-.6.1.6.2-.6.1.6.3h-.6l.6.3-.6.1.6.2-.6.1.6.2-.6.1.6.2-.6.1.6.2-.6.1.5.2-.6.1.6.2-.6.1.6.2-.6.2.6.2-.6.1.6.2-.6.1.6.2-.6.1.6.2-.6.1.6.2-.6.1.6.2-.6.1.6.3-.6.1.6.2-.6.1.6.2-.5.1.6.2-.6.1.6.2-.7.1.7.3-.7.1.7.3-.7.1.7.3h-.7l.7.4h-.7l.7.4h-1l.8.6-.9-.1.6.7-.7-.3.4.7-.8-.4.3 1-.6-.7v1l-.4-.7v.8l-.4-.7-.1.8-.3-.7-.2.8-.2-.6-.2.6-.1-.6-.2.6-.2-.6-.2.6-.1-.6-.2.6-.1-.6-.2.6-.2-.6-.2.6-.1-.6-.2.5-.1-.5-.2.5-.1-.5-.2.5-.1-.5-.3.5-.1-.5-.2.5-.1-.5-.2.5-.1-.5-.2.4-.1-.4-.2.4-.1-.4-.3.4v-.5l-.4.5v-.6l-.4.6v-.6l-.4.5V85l-.7.5.3-.8-.9.4.4-.7-1 .1.7-.6-1-.2.6-.3-.8-.2.6-.2-.7-.2.7-.2-.7-.2.6-.2-.6-.2.6-.1-.6-.3.6-.1-.6-.2.6-.1-.6-.3.5-.1-.5-.2.5-.1-.5-.2.2-.1H29l.5-.1zm-6.3-17.5.2-.2-.1.1zm-.3.2zm.9-.7-.1.1.2-.1zm-1.1.7zm6.4 5.7v-.1zm-.2.4h.1l-.1-.2zm-.7.1.1.3h.2zm.4.2h.2l-.1-.1-.1-.1zm.3 0h.2l-.2-.1zm-.8.4h.1l-.4-.4.3.7h1.1l-.8-.2v.2l-.1-.3zm.1-.2.1.2h.3l-.2-.2zm.5.2h.3l-.1-.1h-.3zm.3 0h.2l-.2-.1zm.1-.6h.1zm-.6.1-.1-.1z"/></svg>