<svg version="1.2" xmlns="http://www.w3.org/2000/svg" width="62" height="70"><style>.s1{fill:#03f}</style><path d="M16.5 46.6c-5-8.6-2-19.6 6.6-24.6s19.6-2 24.6 6.6L61.2 52 30 70z" style="fill:#fdf5e3"/><path fill-rule="evenodd" class="s1" d="m60.6 52.3-30 17.3c-.4.2-.7.1-.9-.2L16.7 47c-5.1-8.8-2.2-20 6.4-25 8.6-5 19.7-1.8 24.8 7l12.9 22.4c.2.3.1.7-.2.9zM30.4 68.2l28.9-16.7-12.6-21.9c-4.7-8.2-15-11.1-23-6.5-8 4.7-10.6 15-5.9 23.2z"/><path class="s1" d="M31.6 36.8c-2.5 1.4-5.7.5-7.1-2-1.5-2.6-.7-5.8 1.8-7.2q.9-.5 2-.6c.3-.1.6.2.7.6.1.3-.2.6-.6.7-.5.1-.9.2-1.4.5-1.8 1.1-2.5 3.5-1.4 5.3 1.1 1.9 3.5 2.6 5.3 1.5 1.9-1 2.5-3.4 1.4-5.3q-.4-.6-.9-1.1c-.3-.2-.4-.6-.1-.9.2-.3.6-.3.9-.1q.7.6 1.2 1.5c1.5 2.4.7 5.6-1.8 7.1z"/><path class="s1" d="M29.5 33.1c-1.1.6-2.6.2-3.2-.9l-.7-1.1c-.1-.3 0-.7.3-.9.3-.2.7 0 .9.3l.6 1c.3.5.9.7 1.4.4.5-.3.7-.9.4-1.4L18 11c-.5-.7-1.4-1-2.2-.6-.6.4-.7 2.3-.8 3.4v.9c-.1.8-.8 7.7-4.7 10.5-1.4 1-3.1 1.3-4.9.9-.4-.1-.6-.4-.5-.8.1-.4.4-.6.8-.5 1.5.3 2.7.1 3.9-.7 2.7-2 3.8-7 4.1-9.5v-.9c.1-1.7.2-3.7 1.4-4.4 1.4-.8 3.2-.3 4 1.1l11.2 19.4c.7 1.1.4 2.6-.8 3.3z"/><path d="M40.8 49.1c-1.4-1.1-3.1-1.5-4.8-2-1.6-.6-3.3-1.4-4.1-2.9-.5-.8-.7-2-.2-2.8.5-.7 1.6-1 2.5-.9.9.1 1.7.5 2.8 1 0-1.4 0-2.8.5-4.1.5-1.3 1.7-2.3 3.1-2.3 1 .1 1.9.8 2.4 1.7.6.8.8 1.9.9 2.9.4 3.3-.7 6.8-3.1 9.4z" style="fill:#f09"/></svg>