<svg version="1.2" xmlns="http://www.w3.org/2000/svg" viewBox="0 0 70 70" width="70" height="70">
	<title>image</title>
	<style>
		.s0 { fill: #ff0099 } 
	</style>
	<path fill-rule="evenodd" class="s0" d="m46.9 70c-1.6 0-3.3-0.7-4.5-2l-5.6-6.3c-0.5-0.5-1.1-0.8-1.8-0.8-0.7 0-1.3 0.3-1.8 0.8l-5.6 6.3c-1.8 1.9-4.4 2.5-6.9 1.5-2.4-1-3.9-3.3-3.7-5.9l0.4-8.5c0-0.6-0.2-1.3-0.7-1.8-0.5-0.5-1.2-0.7-1.8-0.7l-8.5 0.4c-2.5 0.2-4.9-1.3-5.9-3.7-1.1-2.4-0.4-5.1 1.5-6.9l6.3-5.6c0.5-0.5 0.8-1.1 0.8-1.8 0-0.7-0.3-1.4-0.8-1.8l-6.3-5.6c-1.9-1.8-2.5-4.5-1.5-6.9 1-2.4 3.3-3.9 5.9-3.8l8.5 0.5c0.6 0 1.3-0.2 1.8-0.7 0.5-0.5 0.7-1.2 0.7-1.9l-0.4-8.4c-0.2-2.5 1.3-4.9 3.7-5.9 2.4-1 5.1-0.4 6.9 1.5l5.6 6.3c0.5 0.5 1.1 0.8 1.8 0.8 0.7 0 1.4-0.3 1.8-0.8l5.6-6.3c1.8-2 4.5-2.5 6.9-1.5 2.4 1 3.9 3.3 3.8 5.9l-0.5 8.4c0 0.7 0.2 1.4 0.7 1.9 0.5 0.5 1.2 0.7 1.9 0.7l8.4-0.5c2.5-0.1 4.9 1.4 5.9 3.8 1 2.4 0.4 5.1-1.5 6.9l-6.3 5.6c-0.5 0.5-0.8 1.1-0.8 1.8 0 0.7 0.3 1.3 0.8 1.8l6.3 5.6c2 1.8 2.5 4.4 1.5 6.9-1 2.5-3.3 3.9-5.9 3.7l-8.4-0.4c-0.7 0-1.4 0.2-1.9 0.7-0.5 0.5-0.7 1.2-0.7 1.8l0.5 8.5c0.1 2.5-1.4 4.9-3.8 5.9-0.8 0.4-1.6 0.5-2.4 0.5zm-12-12.8c1.8 0 3.4 0.8 4.6 2.1l5.6 6.2c1.1 1.2 2.4 0.8 2.7 0.6 0.4-0.1 1.6-0.8 1.5-2.3l-0.4-8.4c-0.1-1.7 0.5-3.4 1.8-4.6 1.2-1.3 2.9-1.9 4.6-1.8l8.4 0.4c1.6 0.1 2.2-1.1 2.3-1.4 0.1-0.4 0.6-1.7-0.6-2.8l-6.3-5.6c-1.2-1.2-2-2.8-2-4.5 0-1.8 0.8-3.4 2-4.6l6.3-5.6c1.2-1.1 0.7-2.4 0.6-2.7-0.1-0.4-0.8-1.6-2.3-1.5l-8.4 0.4c-1.7 0.1-3.4-0.5-4.6-1.8-1.3-1.2-1.9-2.9-1.8-4.6l0.4-8.4c0.1-1.6-1.1-2.2-1.5-2.3-0.3-0.1-1.6-0.6-2.7 0.6l-5.6 6.3c-1.2 1.2-2.8 2-4.6 2-1.7 0-3.3-0.8-4.5-2l-5.6-6.3c-1.1-1.2-2.4-0.7-2.8-0.6-0.3 0.1-1.5 0.8-1.4 2.3l0.4 8.4c0.1 1.7-0.5 3.4-1.8 4.6-1.2 1.3-2.9 1.9-4.6 1.8l-8.4-0.4c-1.6-0.1-2.2 1.1-2.3 1.5-0.2 0.3-0.6 1.6 0.6 2.7l6.2 5.6c1.3 1.2 2.1 2.8 2.1 4.6 0 1.7-0.8 3.3-2.1 4.5l-6.2 5.6c-1.2 1.1-0.8 2.4-0.6 2.8 0.1 0.3 0.7 1.5 2.3 1.4l8.4-0.4c1.7-0.1 3.4 0.5 4.6 1.8 1.3 1.2 1.9 2.9 1.8 4.6l-0.4 8.4c-0.1 1.6 1.1 2.2 1.4 2.3 0.4 0.2 1.7 0.6 2.8-0.6l5.6-6.2c1.2-1.3 2.8-2.1 4.5-2.1z"/>
</svg>