<svg version="1.2" xmlns="http://www.w3.org/2000/svg" width="77" height="77"><path d="m42.2 8.9 6.5-7.3c3.2-3.4 8.9-1 8.6 3.6l-.5 9.8c-.1 2.9 2.3 5.3 5.2 5.2l9.8-.5c4.6-.3 7 5.4 3.6 8.6l-7.3 6.5c-2.1 2-2.1 5.4 0 7.4l7.3 6.5c3.4 3.2 1 8.9-3.6 8.6l-9.8-.5c-2.9-.1-5.3 2.3-5.2 5.2l.5 9.8c.3 4.6-5.4 7-8.6 3.6l-6.5-7.3c-2-2.1-5.4-2.1-7.4 0l-6.5 7.3c-3.2 3.4-8.9 1-8.6-3.6l.5-9.8c.1-2.9-2.3-5.3-5.2-5.2l-9.8.5c-4.6.3-7-5.4-3.6-8.6l7.3-6.5c2.1-2 2.1-5.4 0-7.4l-7.3-6.5c-3.4-3.2-1-8.9 3.6-8.6l9.8.5c2.9.1 5.3-2.3 5.2-5.2l-.5-9.8c-.3-4.6 5.4-7 8.6-3.6l6.5 7.3c2 2.1 5.4 2.1 7.4 0z" style="fill:#ea18aa"/></svg>