<svg version="1.2" xmlns="http://www.w3.org/2000/svg" width="53" height="76"><style>.s1{fill:#03cea4}</style><path d="M26.5 50.7c-.7-1.7-2.1-3-3.4-4.3-1.2-1.4-2.4-3-2.4-4.9 0-1 .5-2.2 1.5-2.6.8-.5 2-.2 2.7.4.8.6 1.4 1.4 2.2 2.4.7-1.3 1.5-2.6 2.7-3.5 1.2-.9 2.9-1.2 4.1-.4 1 .6 1.4 1.7 1.5 2.8 0 1.1-.3 2.2-.8 3.2-1.5 3.3-4.4 5.9-8.1 6.9z" style="fill:#ea18aa"/><path class="s1" d="M20.9 14.2c.6-.3.9-1.1.6-1.8-.4-.6-1.2-.9-1.8-.6-.8.4-1 1.4-.6 1.9.3.6 1.2.9 1.8.5zM33.9 14.5c.7 0 1.4-.5 1.6-1.2.1-.7-.3-1.5-.9-1.8-.6-.2-1.2-.1-.9 0-.7.1-1.2.9-1.2 1.6.1.7.7 1.3 1.4 1.4zM29 19.3c.2-.3.4-.6.4-.9 0-.4-.3-.8-.7-1-.9-.6-2.3-.1-2.8.9-.4.9 0 2.2.9 2.7 0 0-.1.1-.1.2v2.6c-.6 0-1.2-.2-1.7-.5-.2-.1-.4-.1-.4.1-.1.1-.1.3 0 .4.7.5 1.6.7 2.4.7.7 0 1.4-.2 2-.5.2-.1.2-.3.1-.5s-.3-.2-.4-.1c-.4.2-.9.3-1.4.4v-2.6q0-.1-.1-.2c.8-.4 1.4-1 1.8-1.7z"/><path fill-rule="evenodd" class="s1" d="M39.5 5.9q-.1-.3.2-.5c.4-.3 2.6-1.6 3.3-1.1.5.5.1 1.5-.5 2.7-.1.2-.2.4-.2.5-.1.2-.3.3-.5.3-.7 0-2.2-1.2-2.3-1.9zm.7 0c.2.4 1.2 1.1 1.5 1.3.1-.2.2-.3.2-.5.2-.4.8-1.6.7-1.8-.3-.1-1.4.4-2.4 1zM14.1 7.9H14q-.3 0-.4-.2c-.3-.5-1.5-2.7-.9-3.4.5-.5 1.4-.1 2.6.6.2.1.4.2.5.2.2.1.4.3.3.6 0 .6-1.3 2.1-2 2.2zm1.3-2.1c-.1-.1-.3-.2-.5-.3-.3-.2-1.3-.7-1.7-.7-.1.2.3 1.4.9 2.4.4-.2 1.2-1.1 1.3-1.4z"/><path fill-rule="evenodd" class="s1" d="M52.1 62c-.6 5.1-3 13.6-11.3 13.8-4 0-6.8-.6-9.3-1.1-2-.5-3.9-.9-6.1-.8-1.6 0-2.9.4-4.3.9-1.3.5-2.7.9-4.3 1q-1 .1-1.9.1c-3.1 0-5.7-.6-7.7-1.7-2.5-1.4-4.5-3.8-5.6-6.8-1-3-1.1-6.1-1.1-8.5 0-4.8.7-9.2 1.9-13.2-.6-1-.7-2.3-.4-3.4.4-1.4.9-2.7 1.4-4 .9-2.1 2.7-3.5 4.9-3.9 1.7-2.2 3.7-4.2 6-5.7-4.7-5-5.9-13-2.5-18.9-1.7-1-2.6-3.2-2.1-5.1.4-2 2.4-3.5 4.4-3.5h.1c2 0 3.9 1.5 4.4 3.5 2.5-1.8 5.6-2.8 8.7-2.8 3 .1 6 1.3 8.3 3.2.8-1 1.9-2.2 3.3-3.1 1.5-1 3.2-1.3 4.7-1 1.8.4 3.2 1.9 3.5 3.5.2 1.4-.4 2.9-1.5 4-.8.8-1.8 1.4-3.1 1.8 1.5 5.8.1 12.1-3.5 16.6.1.1.1.1.2.1 2.7 1.9 5.2 4.6 7.2 7.8 2.8.6 5 2.5 5.8 5.3v.2c.4 1.4.1 2.9-.7 4.1l-.6.6c1.5 5.7 2 11.7 1.2 17zm-1.9-16.4c-.7.5-1.6.8-2.6.9h-2.4c-2.3 0-4.1-.3-5.6-.9-1.5-.6-2.6-1.6-3.2-2.7l-1 .2c-.3.1-.5.1-.7.1H34.4c-.1 0-.3-.1-.3-.3 0-.1.1-.3.3-.3l.4-.1q.6-.3 1.2-.3c0-.1-.1-.3-.1-.4-.1.1-.1.1-.2.1 0 0-.1 0-.1-.1h-.1q-.5 0-.9-.2c-.1 0-.2-.1-.2-.3 0-.1.1-.3.2-.3.4-.1.6-.1 1-.1q0-.1.1-.1c0-.1.1-.1.1-.1.1-.1.1-.3.1-.4-.3 0-.6.1-.9.1h-.6s-.1 0-.1-.1c-.1 0-.3-.1-.4-.1-.2-.1-.3-.2-.2-.4 0-.1.1-.3.3-.3h.7c.5-.2 1-.3 1.5-.3.8-1.6 2.4-2.8 4-3.4 1.1-.5 2.4-.8 3.9-.9q.7-.1 1.4-.1-2.9-4.4-6.7-7.1l-.2-.2c-.8 1-1.7 1.9-2.8 2.6-2.9 2.3-6.5 3.4-10.1 3.4-3.7 0-7.4-1.2-10.3-3.6q-.3-.3-.7-.6-3 2.2-5.5 5.2c.9-.1 1.8 0 2.5.1 2 .2 5.5 1.1 7.2 4.4.4.8.7 1.7.7 2.5l1.9-1.2c.2-.1.4-.1.5 0 .1.2.1.3 0 .5q-.5.7-1.4 1.1c-.2.2-.6.3-.9.3h-.1c0 .2-.1.5-.1.8l.5-.1.6-.2h.1l.7-.2c.1-.1.3 0 .4.2 0 .1 0 .3-.2.4q-1.2.5-2.5.8-.1.3-.3.5c.8 0 1.2 0 1.5-.1.1 0 .2.1.3.1h.6c.2 0 .4.2.4.4 0 .1-.2.3-.4.3h-1.4c-.3 0-.5.1-.8.1-.2 0-.4 0-.6-.1-1 1.3-2.8 2.6-6.2 3.1q-1.6.2-3.3.2c-1.1 0-2.3-.1-3.4-.2-1-.2-1.9-.7-2.6-1.5-1.1 3.7-1.7 7.9-1.7 12.4-.1 2.3.1 5.4 1.1 8.2.7 1.9 1.7 3.5 3 4.8 0-3.1 1.5-7.3 3.5-9.3 1.2-1.3 2.8-2 4.5-2.2l.1-2.8c0-.2.1-.3.3-.3.2 0 .3.1.4.2.2 1.1.2 2-.1 2.9q1.1 0 2.2.3c0-1.4.4-2.7 1.2-3.9 0-.1.2-.2.3-.1.2 0 .3.1.3.3.1 1.5-.3 2.9-1.3 3.9l.8.4c.1.1.3.2.4.3.6-1.1 1.6-2.1 2.6-2.9q.2-.2.4 0c.1.1.2.2.1.4-.5 1.3-1.4 2.4-2.6 3 1.5 1.6 2.2 4.1 2 6.6-.3 2.5-1.4 4.1-2.5 6q-.1.1-.1.2c1.1-.2 2.1-.5 3-.9 1.4-.4 2.8-.9 4.6-1 2.2 0 4.2.4 6.2.9 1 .2 2.1.4 3.3.6-1.3-2.1-1.9-3.9-2.2-5.6-.4-2.5.2-4.8 1.5-6.4q.6-.7 1.4-1.2c-.1-.1-.1-.1-.1-.2l-.8-2.4q-.1-.3.1-.4c.2-.1.3-.1.4 0 .8.7 1.2 1.7 1 2.6.5-.3 1.1-.5 1.8-.6l-.4-2.8c0-.2.1-.3.3-.4.1 0 .3 0 .4.2.5.8.7 1.8.5 2.8h1q-.1-.1 0-.3l.8-1.9c0-.2.2-.3.3-.2q.2 0 .2.1l.1-.4q.1-.2.4-.2c.1 0 .3.1.3.3.1.9-.2 1.9-.6 2.7.9.2 1.9.5 2.8 1.1 2.7 1.7 5 5.6 4.5 9.2 1.8-2.8 2.6-6.2 2.9-8.7.7-5.2.3-11-1.3-16.4zM15.9 29.3c5.4 4.5 13.8 4.6 19.6.3 5.6-4.2 8.2-12 6.4-19h-.1c-.1 0-.3-.1-.3-.3-.1-.1.1-.3.2-.4 1.5-.4 2.6-1 3.5-1.8.9-.9 1.4-2.2 1.2-3.4-.2-1.3-1.4-2.5-2.9-2.9-1.3-.3-2.9 0-4.3.9S36.7 5 35.9 5.9c0 .1-.1.2-.2.2q-.1 0-.3-.1c-2.2-2-5.2-3.2-8.2-3.3-3-.1-6.1 1-8.4 2.8-.2.1-.4.1-.5 0v-.2c-.2 0-.3-.1-.3-.2-.4-1.8-2.1-3.2-3.9-3.2-1.7 0-3.4 1.4-3.8 3.1-.4 1.7.5 3.7 2 4.5q.2 0 .2.2v.2c-3.7 6.1-2.2 14.8 3.4 19.4zM3.2 45.6c.5.9 1.4 1.4 2.4 1.6q3.3.5 6.5 0c1.9-.3 6.4-1.4 6.7-5.4q.1-1.3-.6-2.5c-1.5-3-4.8-3.8-6.6-4q-1.1-.2-2.5-.1c-2.2 0-4.1 1.4-5 3.5q-.7 1.9-1.3 3.9c-.3 1-.2 2.1.4 3zm13.7 29.6h.1c.1-.2.3-.4.4-.6 1.2-2 2.1-3.5 2.4-5.8.3-2.8-.7-5.4-2.6-6.7-2.3-1.6-5.7-1.1-7.9 1.1-2 2-3.5 6.4-3.3 9.4q.7.6 1.5 1c2.4 1.3 5.4 1.8 9.4 1.6zm31-3.5q-.1-.2-.1-.3c1-3.5-1.3-7.6-4.1-9.3-2.9-1.9-6.9-1.4-8.9 1-1.2 1.4-1.7 3.6-1.4 5.8.3 1.8 1 3.6 2.4 5.9 1.4.2 3.1.3 5.1.3 3.1 0 5.4-1.4 7-3.4zm-7.3-11.5c-.1 0-.1.1-.2.1h.1zm4.5-24.7q-.4-.1-.8 0c-1.5.2-2.7.5-3.8.9-1.4.5-2.7 1.5-3.4 2.8h.1c.1-.1.3.1.3.3 0 .1-.1.3-.3.3-.1.1-.3.1-.4.1-.1.2-.1.5-.2.7.1.1.2.1.3.2q.1.1.1.3c0 .2-.1.3-.2.4h-.1q0 .3.2.6h.1c.1 0 .3.2.3.3 0 .1-.1.2-.1.3.5.9 1.5 1.7 2.8 2.2 1.5.7 3.3.9 5.7.9q1 0 2-.1c1.3 0 2.4-.7 3.2-1.7.8-1 1-2.3.7-3.5v-.2c-.9-2.9-3.5-4.8-6.5-4.8z"/><path class="s1" d="M10 65.3c-.1-.1-.3-.1-.4.1-1 1.5-1.5 3.3-1.4 5.2 0 .1.1.3.3.3.2 0 .3-.2.3-.4 0-1.7.4-3.4 1.3-4.8.1-.1.1-.3-.1-.4zM12.2 63.1l-1.2.7c-.2.1-.3.3-.2.4q.1.2.3.2h.2l1.2-.6c.2-.1.3-.3.2-.5-.1-.2-.3-.2-.5-.2zM39.5 62.2c-1.6 0-3.1.9-3.8 2.3-.1.2-.1.4.1.5h.2q.2 0 .3-.2c.6-1.2 1.9-2 3.2-1.9.2 0 .3-.2.3-.4 0-.1-.2-.3-.3-.3zM23.3 8c.3.1.6.1.9-.1.3-.1.5-.4.7-.7q0 .3.1.6c.1.4.4.8.7.9.2.1.4.2.5.2.1 0 .3-.1.4-.1q.4-.1.7-.7.2-.2.3-.6c.2.3.5.4.8.5.4 0 .7-.1 1.1-.3.3-.3.5-.7.6-1 .1-1-.8-1.8-1.3-2.2-.1-.1-.3-.1-.4 0-.1.2-.1.4 0 .5.6.5 1.1 1 1 1.6 0 .2-.2.4-.3.5-.2.1-.4.2-.6.2-.2-.1-.4-.2-.6-.4-.1-.1-.1-.3-.1-.4v-.3c0-.1-.2-.3-.3-.3-.2 0-.4.1-.4.2v.4c-.1.4-.2.8-.4 1.2q-.2.4-.4.5c-.2 0-.3 0-.4-.1-.2-.1-.3-.3-.4-.5-.1-.4 0-.9.1-1.3.1-.2 0-.3-.1-.3-.1-.1-.2-.1-.3-.1-.4.2-.7.5-.9.8-.1.3-.3.5-.5.7h-.4s-.1 0-.1-.1 0-.2.1-.3c.2-.7.6-1.3 1.2-1.8.1-.1.1-.3 0-.5-.1-.1-.3-.1-.4 0-.7.6-1.2 1.3-1.5 2.1 0 .2-.1.5 0 .8.2.1.4.3.6.4zM34 19.4c-.3 0-.3.5 0 .5s.3-.5 0-.5zM33.7 21.1c-.7 0-.7 1 0 1 .6 0 .6-1 0-1zM36 21c.3 0 .3-.5 0-.5s-.3.5 0 .5zM35.5 23.4c.6 0 .7-1 0-1-.6 0-.6 1 0 1zM19.2 21.6c.3 0 .3-.5 0-.5-.4 0-.4.5 0 .5zM20.9 20v-.1q.1-.1 0-.1v-.2q.1-.1 0-.1 0-.1-.1-.1c-.1 0-.1-.1-.1-.1h-.1l-.1.1v.1q-.1 0-.1.1v.2l.1.1.1.1H20.9zM21.2 21.9c-.1 0-.1 0-.1-.1h-.2l-.1.1v.4q0 .1.1.1v.1h.2q.1 0 .1-.1.1-.1.1-.2v-.1q0-.1-.1-.1v-.1zM19.2 23.5c.6 0 .6-1 0-1-.7 0-.7 1 0 1zM17.1 20.9l.1.1q.1 0 .3.1h.2q.1 0 .2-.1.1 0 .1-.1c.1 0 .1-.1.1-.1q.1-.1.1-.2l-.1-.2q0-.1-.1-.2l-.1-.1h-.4q-.1-.1-.2 0c-.1 0-.1.1-.2.1 0 0-.1.1-.1.2V20.7q0 .1.1.2zM14.7 31.5c-.6.4-1.2 1-1.6 1.6-.1.2-.1.4.1.5h.2c.1 0 .2 0 .3-.1.3-.6.8-1.1 1.4-1.4.1-.1.2-.3.1-.5-.1-.1-.3-.2-.5-.1zM4.4 45h.1c.1 0 .3-.1.3-.3.3-2.2 1.2-4.4 2.6-6.2.1-.1.1-.4-.1-.5-.1-.1-.3-.1-.4.1-1.5 1.9-2.5 4.2-2.8 6.5 0 .2.2.4.3.4zM48.1 39.4c.3.6.5 1.3.4 1.8-.1.2.1.4.2.4h.1c.2 0 .3-.1.3-.3.2-.7 0-1.5-.5-2.2-.3-.7-.9-1.2-1.3-1.7-.2-.2-.4-.2-.5 0-.1.1-.1.3 0 .4.5.5.9 1 1.3 1.6zM47.6 48.6c-.1 0-.2.2-.2.4 1 4 1.4 8.1 1.3 12.2 0 .2.1.3.3.4.2 0 .3-.2.3-.4.2-4.1-.3-8.3-1.3-12.4 0-.2-.2-.3-.4-.2z"/></svg>