<svg version="1.2" xmlns="http://www.w3.org/2000/svg" width="53" height="41"><style>.s0{fill:#ff8b00}.s1{fill:#ea18aa}</style><path fill-rule="evenodd" class="s0" d="M38.8 37.6q-.2-.1-.3-.2c-2 1.5-4.7 2.6-7.9 3.2-4.4.8-8.9 0-12.6-2.1-4.3 1.9-9.8 2.6-13.8-.4-4.6-3.4-3.9-10-3.2-15C2.7 10 10.9 2.5 24 1.1 37-.2 47.5 4.5 51.5 17.6c2.9 9.5-.1 22.4-12.7 20zM37.1 3.4c2 4.2 2.4 8.8 1.1 13.2q1.1-1.4 1-4.1c-.5-.8.7-1.5 1.2-.7 2.5 3.5 3.9 7.4 4.2 11.1q.9.1 1.6.6c-.8-6.7-3.2-14.6-7.9-19.6-.4-.1-.9-.3-1.2-.5zm5.4 2.9q-1.4-1.1-2.9-1.8c4.6 5.1 7.3 13.1 7.6 19.7 0 .1-.1.1-.1.2.3.4.6.9.6 1.4.1 1-.4 2.1-1.2 2.7-.8 3-2.3 5.7-4.4 8.1 2.7-.1 4.6-1 6-2.5V34c2.7-9.9-1.3-18.9-5.6-27.7zM35.4 3c1.7 5.3.9 10.8-1.9 15.4q.6-.5 1.1-1c.4-.3 1-.1 1 .4.6 0 1.1-.2 1.6-.4 1.5-4.7 1.1-9.6-1.2-14v-.2c-.2-.1-.4-.2-.6-.2zm-2-.4c1.2 7.4-1.3 14.6-6.9 19.6.2-.1.4-.1.5-.2 1.9-.5 3.5-1.4 5-2.5 3.4-4.8 4.3-10.7 2.5-16.4q-.1-.2 0-.3-.6-.1-1.1-.2zm-2.5-.2c-.5 7.6-2.2 16-9.2 20.2.9.1 2.4-.1 3.7-.2 5.7-4.9 8.4-12.3 7.1-19.7v-.2q-.7-.1-1.6-.1zm-.9-.1c-1 7.4-4.6 14.1-10 19.2q.2-.1.5-.2c.5-.1 1 .5.7.9q-.1.2 0 .3c6.9-4.6 8.6-12.4 9.3-20.2H30zM15 22.1c1.3.1 2.7 0 3.9-.3 5.6-5.3 9-11.9 10.4-19.5-3.4 7.5-8.2 14.2-14.3 19.8zM26.7 2.4c-2.3 2.8-4.8 5.6-7.1 8.4-2.8 3.4-6.1 6.8-7.9 10.9.8.1 1.7.3 2.5.3 5.9-5.7 10.7-12.2 14.1-19.7-.5 0-1.1 0-1.6.1zM8.8 26.6c.4-.1.8-.2 1.3-.1q-.1-2.3.5-4.9.1-.2.2-.2c1.3-3.4 3.9-6.1 6.1-8.9 2.8-3.5 5.7-6.9 8.7-10.1H25q-.5.1-.9.1C16.5 7.9 7.9 16.7 8.8 26.6zM7.6 37.7C-.1 26.3 3.7 11.5 14.8 5 9.5 7.4 5.3 11.6 3.4 18c-1.1 3.5-1.6 7.6-1.5 11.3.1 4.5 2.5 7.1 5.7 8.4zm5.6.9c-.6-.7-1.2-1.4-1.5-1.8q-1.4-1.9-2.1-4.1c-1.3 0-2.5-.9-2.9-2.2-.5-1.4.2-3 1.4-3.7-2.3-9 6.6-19.2 14.2-24q-.5.1-1.1.2l-.1.1C5.8 8.2.2 24.5 9 37.9q.1.1.1.2c1.3.3 2.7.5 4.1.5zM10 28c.1 0 .2 0 .3.1l-.2-1c-1.6.1-2.9 1.5-2.4 3.1.6 1.7 2.2 1.7 3.5 1-.4-.8-.6-1.7-.8-2.6-.1 0-.1.1-.2.1-.7.2-1.1.8-1 1.5 0 .3-.3.3-.4.1-.4-1 .2-2 1.2-2.3zm30-14.2c-.6 2.7-2.1 4.7-4.7 6.2-.4.2-.8 0-.8-.5 0 .6-4.9 2.9-5.6 3.1-3 1.2-6 1.5-9.3 1.3-.4 0-.8-.5-.5-.9-1.1 1.5-6.1.1-7.8-.5-1.6 12.1 10 19.4 21 16.4 12.5-3.4 13.4-15.7 7.7-25.1zM19.1 23zm-1.9 15c-2.4-1.5-4.3-3.5-5.5-5.9q-.7.5-1.4.6.7 1.6 1.7 3.1.6.9 1.4 1.7c.2.2.7.8 1 1q1.4-.2 2.8-.5zm23.7-1.4c2.1-2.3 3.7-4.9 4.8-7.7-.4.2-.9.2-1.4 0 0 0 0-.1-.1-.1-.6 3-2.2 5.6-4.5 7.7q.6.1 1.2.1zM47 11.2c-.9-1.5-2-2.8-3.3-3.9 4.2 7.7 7.5 15.8 5.9 24.6 2.9-5.7.8-15.3-2.6-20.7zm-.7 15.4c0 .5-.8.4-.7-.1.1-.6-.3-1.1-.9-1.2v-.1c0 .9-.1 1.8-.2 2.7h.1c1.3.2 2.4-1 2.1-2.3-.3-.9-1.1-1.6-2-1.9v1.1h.1c.9 0 1.6.8 1.5 1.8z"/><path class="s0" d="M27.9 31.5c0-2-.2-4-.6-5.9-.1-.4-.6-.3-.6 0 0 2.1.2 4.1.3 6.2 0 .2.1.3.2.4q.1.1.3 0h.2c.5-.1 1.1.3 1.1.9 0 .6-.7.7-1.2.6-.6-.1-.9.6-.4 1 1.1.7 2.6-.4 2.6-1.6 0-1.1-1-1.7-1.9-1.6zM17.5 27.1c-1.1.2-2 1-2.2 2.1 0 .4.6.5.7.2.3-.7.8-1.3 1.6-1.4.9 0 1.4.6 1.8 1.3.3.4.8.1.8-.3-.2-1.2-1.6-1.9-2.7-1.9zM39.6 27.5c-.8-2.3-3.9-2.1-4.7 0-.1.4.5.6.6.2.8-1.5 2.5-1.3 3.3.1.2.4.9.1.8-.3zM31.5 36c-2.2 1.8-5 1.8-7.6.7-.2 0-.3.2-.1.3 2.5 1.9 5.9 1.6 8.4-.1.6-.5-.1-1.3-.7-.9z"/><path class="s1" d="M19 31.9c-.8 0-1.7.2-2.5.4-.7.2-.6 1.4.2 1.4s1.7-.1 2.5-.3c.8-.2.7-1.5-.2-1.5zM38.6 30.5c-.7-.1-1.5 0-2.3.1-.7.2-.7 1.3 0 1.4.7.1 1.6.2 2.3.1 1-.1 1-1.5 0-1.6z"/></svg>