<?xml version="1.0" encoding="utf-8"?>
<!-- Generator: Adobe Illustrator 27.0.0, SVG Export Plug-In . SVG Version: 6.00 Build 0)  -->
<svg version="1.1" id="Шар_1" xmlns="http://www.w3.org/2000/svg" xmlns:xlink="http://www.w3.org/1999/xlink" x="0px" y="0px"
	 viewBox="0 0 1000 1000" style="enable-background:new 0 0 1000 1000;" xml:space="preserve">
<style type="text/css">
	.st0{fill:#FFFFFF;}
</style>
<g>
	<path class="st0" d="M126.1,3.1H2.4c-0.9,0-1.6-0.7-1.6-1.5S1.5,0,2.4,0h123.8c0.9,0,1.6,0.7,1.6,1.5S127,3.1,126.1,3.1z"/>
	<path class="st0" d="M103.3,26.7H2.8c-0.9,0-1.6-0.7-1.6-1.5s0.7-1.5,1.6-1.5h100.5c0.9,0,1.6,0.7,1.6,1.5S104.2,26.7,103.3,26.7z"
		/>
	<path class="st0" d="M31.5,50.4H2.8c-0.9,0-1.6-0.7-1.6-1.5c0-0.9,0.7-1.5,1.6-1.5h28.7c0.9,0,1.6,0.7,1.6,1.5
		C33.1,49.7,32.4,50.4,31.5,50.4z"/>
	<path class="st0" d="M51.6,71.8H2.8c-0.9,0-1.6-0.7-1.6-1.5c0-0.9,0.7-1.5,1.6-1.5h48.8c0.9,0,1.6,0.7,1.6,1.5
		C53.2,71.1,52.5,71.8,51.6,71.8z"/>
	<path class="st0" d="M71.6,95.4H2.8c-0.9,0-1.6-0.7-1.6-1.5c0-0.9,0.7-1.5,1.6-1.5h68.8c0.9,0,1.6,0.7,1.6,1.5
		C73.2,94.7,72.5,95.4,71.6,95.4z"/>
	<path class="st0" d="M48.4,119H2.8c-0.9,0-1.6-0.7-1.6-1.5c0-0.9,0.7-1.5,1.6-1.5h45.6c0.9,0,1.6,0.7,1.6,1.5
		C50,118.3,49.3,119,48.4,119z"/>
	<path class="st0" d="M299,139.9H2.8c-0.9,0-1.6-0.7-1.6-1.5c0-0.9,0.7-1.5,1.6-1.5H299c0.9,0,1.6,0.7,1.6,1.5
		C300.6,139.2,299.9,139.9,299,139.9z"/>
	<path class="st0" d="M128.5,160.9H2.8c-0.9,0-1.6-0.7-1.6-1.5c0-0.9,0.7-1.5,1.6-1.5h125.6c0.9,0,1.6,0.7,1.6,1.5
		C130,160.2,129.3,160.9,128.5,160.9z"/>
	<path class="st0" d="M35.6,185.9H2.8c-0.9,0-1.6-0.7-1.6-1.5s0.7-1.5,1.6-1.5h32.7c0.9,0,1.6,0.7,1.6,1.5S36.4,185.9,35.6,185.9z"
		/>
	<path class="st0" d="M83.6,208H2.8c-0.9,0-1.6-0.7-1.6-1.5s0.7-1.5,1.6-1.5h80.8c0.9,0,1.6,0.7,1.6,1.5S84.5,208,83.6,208z"/>
	<path class="st0" d="M43.2,230.1H2.8c-0.9,0-1.6-0.7-1.6-1.5c0-0.9,0.7-1.5,1.6-1.5h40.4c0.9,0,1.6,0.7,1.6,1.5
		C44.8,229.4,44.1,230.1,43.2,230.1z"/>
	<path class="st0" d="M281.2,253.9H2.8c-0.9,0-1.6-0.7-1.6-1.5c0-0.9,0.7-1.5,1.6-1.5h278.4c0.9,0,1.6,0.7,1.6,1.5
		C282.8,253.2,282.1,253.9,281.2,253.9z"/>
	<path class="st0" d="M99,275.3H2.8c-0.9,0-1.6-0.7-1.6-1.5c0-0.9,0.7-1.5,1.6-1.5H99c0.9,0,1.6,0.7,1.6,1.5
		C100.6,274.6,99.9,275.3,99,275.3z"/>
	<path class="st0" d="M15.1,298.5H2.8c-0.9,0-1.6-0.7-1.6-1.5s0.7-1.5,1.6-1.5h12.3c0.9,0,1.6,0.7,1.6,1.5S16,298.5,15.1,298.5z"/>
	<path class="st0" d="M57.8,321.7H2.8c-0.9,0-1.6-0.7-1.6-1.5c0-0.9,0.7-1.5,1.6-1.5h54.9c0.9,0,1.6,0.7,1.6,1.5
		C59.3,321,58.6,321.7,57.8,321.7z"/>
	<path class="st0" d="M33.4,343.4H2.8c-0.9,0-1.6-0.7-1.6-1.5c0-0.9,0.7-1.5,1.6-1.5h30.6c0.9,0,1.6,0.7,1.6,1.5
		C35,342.7,34.3,343.4,33.4,343.4z"/>
	<path class="st0" d="M10.6,389.8H2.8c-0.9,0-1.6-0.7-1.6-1.5c0-0.9,0.7-1.5,1.6-1.5h7.8c0.9,0,1.6,0.7,1.6,1.5
		C12.1,389.1,11.4,389.8,10.6,389.8z"/>
	<path class="st0" d="M99,410H2.8c-0.9,0-1.6-0.7-1.6-1.5s0.7-1.5,1.6-1.5H99c0.9,0,1.6,0.7,1.6,1.5S99.9,410,99,410z"/>
	<path class="st0" d="M54.5,434.2H2.8c-0.9,0-1.6-0.7-1.6-1.5s0.7-1.5,1.6-1.5h51.7c0.9,0,1.6,0.7,1.6,1.5S55.4,434.2,54.5,434.2z"
		/>
	<path class="st0" d="M113.6,458.4H2.8c-0.9,0-1.6-0.7-1.6-1.5c0-0.9,0.7-1.5,1.6-1.5h110.8c0.9,0,1.6,0.7,1.6,1.5
		C115.1,457.7,114.4,458.4,113.6,458.4z"/>
	<path class="st0" d="M36.8,480.5h-34c-0.9,0-1.6-0.7-1.6-1.5s0.7-1.5,1.6-1.5h34c0.9,0,1.6,0.7,1.6,1.5S37.7,480.5,36.8,480.5z"/>
	<path class="st0" d="M137.9,502.7H2.8c-0.9,0-1.6-0.7-1.6-1.5s0.7-1.5,1.6-1.5h135.1c0.9,0,1.6,0.7,1.6,1.5
		S138.8,502.7,137.9,502.7z"/>
	<path class="st0" d="M180,524.9H2.8c-0.9,0-1.6-0.7-1.6-1.5c0-0.9,0.7-1.5,1.6-1.5H180c0.9,0,1.6,0.7,1.6,1.5
		C181.5,524.2,180.8,524.9,180,524.9z"/>
	<path class="st0" d="M132.1,547H2.8c-0.9,0-1.6-0.7-1.6-1.5s0.7-1.5,1.6-1.5h129.3c0.9,0,1.6,0.7,1.6,1.5S133,547,132.1,547z"/>
	<path class="st0" d="M95.5,571.5H2.8c-0.9,0-1.6-0.7-1.6-1.5s0.7-1.5,1.6-1.5h92.7c0.9,0,1.6,0.7,1.6,1.5S96.4,571.5,95.5,571.5z"
		/>
	<path class="st0" d="M95.5,593.2H2.8c-0.9,0-1.6-0.7-1.6-1.5s0.7-1.5,1.6-1.5h92.7c0.9,0,1.6,0.7,1.6,1.5S96.4,593.2,95.5,593.2z"
		/>
	<path class="st0" d="M240.6,593.2H104c-0.9,0-1.6-0.7-1.6-1.5s0.7-1.5,1.6-1.5h136.6c0.9,0,1.6,0.7,1.6,1.5
		S241.5,593.2,240.6,593.2z"/>
	<path class="st0" d="M378.8,593.2h-126c-0.9,0-1.6-0.7-1.6-1.5s0.7-1.5,1.6-1.5h126c0.9,0,1.6,0.7,1.6,1.5S379.6,593.2,378.8,593.2
		z"/>
	<path class="st0" d="M432.2,593.2h-43.6c-0.9,0-1.6-0.7-1.6-1.5s0.7-1.5,1.6-1.5h43.6c0.9,0,1.6,0.7,1.6,1.5
		S433.1,593.2,432.2,593.2z"/>
	<path class="st0" d="M529.8,593.2h-88.3c-0.9,0-1.6-0.7-1.6-1.5s0.7-1.5,1.6-1.5h88.3c0.9,0,1.6,0.7,1.6,1.5
		S530.7,593.2,529.8,593.2z"/>
	<path class="st0" d="M606.9,593.2h-70.5c-0.9,0-1.6-0.7-1.6-1.5s0.7-1.5,1.6-1.5h70.5c0.9,0,1.6,0.7,1.6,1.5
		S607.7,593.2,606.9,593.2z"/>
	<path class="st0" d="M731.9,593.2H617.9c-0.9,0-1.6-0.7-1.6-1.5s0.7-1.5,1.6-1.5h113.9c0.9,0,1.6,0.7,1.6,1.5
		S732.7,593.2,731.9,593.2z"/>
	<path class="st0" d="M835.9,593.2h-97.7c-0.9,0-1.6-0.7-1.6-1.5s0.7-1.5,1.6-1.5h97.7c0.9,0,1.6,0.7,1.6,1.5
		S836.8,593.2,835.9,593.2z"/>
	<path class="st0" d="M884.5,593.2h-38.6c-0.9,0-1.6-0.7-1.6-1.5s0.7-1.5,1.6-1.5h38.6c0.9,0,1.6,0.7,1.6,1.5
		S885.4,593.2,884.5,593.2z"/>
	<path class="st0" d="M947,593.2h-50.7c-0.9,0-1.6-0.7-1.6-1.5s0.7-1.5,1.6-1.5H947c0.9,0,1.6,0.7,1.6,1.5S947.9,593.2,947,593.2z"
		/>
	<path class="st0" d="M997.7,593.2H955c-0.9,0-1.6-0.7-1.6-1.5s0.7-1.5,1.6-1.5h42.7c0.9,0,1.6,0.7,1.6,1.5S998.6,593.2,997.7,593.2
		z"/>
	<path class="st0" d="M997.7,614.9H955c-0.9,0-1.6-0.7-1.6-1.5s0.7-1.5,1.6-1.5h42.7c0.9,0,1.6,0.7,1.6,1.5S998.6,614.9,997.7,614.9
		z"/>
	<path class="st0" d="M941.7,614.9H828.1c-0.9,0-1.6-0.7-1.6-1.5s0.7-1.5,1.6-1.5h113.7c0.9,0,1.6,0.7,1.6,1.5
		S942.6,614.9,941.7,614.9z"/>
	<path class="st0" d="M816,614.9h-40.6c-0.9,0-1.6-0.7-1.6-1.5s0.7-1.5,1.6-1.5H816c0.9,0,1.6,0.7,1.6,1.5S816.9,614.9,816,614.9z"
		/>
	<path class="st0" d="M766.4,614.9H573.7c-0.9,0-1.6-0.7-1.6-1.5s0.7-1.5,1.6-1.5h192.7c0.9,0,1.6,0.7,1.6,1.5
		S767.3,614.9,766.4,614.9z"/>
	<path class="st0" d="M563.7,614.9h-16.4c-0.9,0-1.6-0.7-1.6-1.5s0.7-1.5,1.6-1.5h16.4c0.9,0,1.6,0.7,1.6,1.5
		S564.5,614.9,563.7,614.9z"/>
	<path class="st0" d="M544.4,614.9h-24.7c-0.9,0-1.6-0.7-1.6-1.5s0.7-1.5,1.6-1.5h24.7c0.9,0,1.6,0.7,1.6,1.5
		S545.2,614.9,544.4,614.9z"/>
	<path class="st0" d="M510.4,614.9H395.2c-0.9,0-1.6-0.7-1.6-1.5s0.7-1.5,1.6-1.5h115.2c0.9,0,1.6,0.7,1.6,1.5
		S511.2,614.9,510.4,614.9z"/>
	<path class="st0" d="M388.6,614.9H142.4c-0.9,0-1.6-0.7-1.6-1.5s0.7-1.5,1.6-1.5h246.2c0.9,0,1.6,0.7,1.6,1.5
		S389.5,614.9,388.6,614.9z"/>
	<path class="st0" d="M136.7,614.9H111c-0.9,0-1.6-0.7-1.6-1.5s0.7-1.5,1.6-1.5h25.7c0.9,0,1.6,0.7,1.6,1.5S137.5,614.9,136.7,614.9
		z"/>
	<path class="st0" d="M96.9,614.9H21c-0.9,0-1.6-0.7-1.6-1.5s0.7-1.5,1.6-1.5h75.9c0.9,0,1.6,0.7,1.6,1.5S97.8,614.9,96.9,614.9z"/>
	<path class="st0" d="M13.9,614.9H2.4c-0.9,0-1.6-0.7-1.6-1.5s0.7-1.5,1.6-1.5h11.6c0.9,0,1.6,0.7,1.6,1.5S14.8,614.9,13.9,614.9z"
		/>
	<path class="st0" d="M43.3,638.1H2.4c-0.9,0-1.6-0.7-1.6-1.5c0-0.9,0.7-1.5,1.6-1.5h40.9c0.9,0,1.6,0.7,1.6,1.5
		C44.8,637.4,44.1,638.1,43.3,638.1z"/>
	<path class="st0" d="M43.3,661.4H2.4c-0.9,0-1.6-0.7-1.6-1.5s0.7-1.5,1.6-1.5h40.9c0.9,0,1.6,0.7,1.6,1.5S44.1,661.4,43.3,661.4z"
		/>
	<path class="st0" d="M182.3,661.4H51.1c-0.9,0-1.6-0.7-1.6-1.5s0.7-1.5,1.6-1.5h131.1c0.9,0,1.6,0.7,1.6,1.5
		S183.1,661.4,182.3,661.4z"/>
	<path class="st0" d="M265.5,661.4h-77.7c-0.9,0-1.6-0.7-1.6-1.5s0.7-1.5,1.6-1.5h77.7c0.9,0,1.6,0.7,1.6,1.5
		S266.4,661.4,265.5,661.4z"/>
	<path class="st0" d="M303.5,661.4H273c-0.9,0-1.6-0.7-1.6-1.5s0.7-1.5,1.6-1.5h30.5c0.9,0,1.6,0.7,1.6,1.5S304.4,661.4,303.5,661.4
		z"/>
	<path class="st0" d="M532,661.4H308.5c-0.9,0-1.6-0.7-1.6-1.5s0.7-1.5,1.6-1.5H532c0.9,0,1.6,0.7,1.6,1.5S532.9,661.4,532,661.4z"
		/>
	<path class="st0" d="M576,661.4H543c-0.9,0-1.6-0.7-1.6-1.5s0.7-1.5,1.6-1.5H576c0.9,0,1.6,0.7,1.6,1.5S576.9,661.4,576,661.4z"/>
	<path class="st0" d="M610,661.4h-19.7c-0.9,0-1.6-0.7-1.6-1.5s0.7-1.5,1.6-1.5H610c0.9,0,1.6,0.7,1.6,1.5S610.8,661.4,610,661.4z"
		/>
	<path class="st0" d="M598.9,684.6h-19.7c-0.9,0-1.6-0.7-1.6-1.5s0.7-1.5,1.6-1.5h19.7c0.9,0,1.6,0.7,1.6,1.5
		S599.7,684.6,598.9,684.6z"/>
	<path class="st0" d="M567.9,684.6H328.2c-0.9,0-1.6-0.7-1.6-1.5s0.7-1.5,1.6-1.5h239.7c0.9,0,1.6,0.7,1.6,1.5
		S568.8,684.6,567.9,684.6z"/>
	<path class="st0" d="M321.2,684.6h-38.7c-0.9,0-1.6-0.7-1.6-1.5s0.7-1.5,1.6-1.5h38.7c0.9,0,1.6,0.7,1.6,1.5
		S322.1,684.6,321.2,684.6z"/>
	<path class="st0" d="M278,684.6H67.5c-0.9,0-1.6-0.7-1.6-1.5s0.7-1.5,1.6-1.5H278c0.9,0,1.6,0.7,1.6,1.5S278.9,684.6,278,684.6z"/>
	<path class="st0" d="M59,684.6H2.8c-0.9,0-1.6-0.7-1.6-1.5s0.7-1.5,1.6-1.5H59c0.9,0,1.6,0.7,1.6,1.5S59.8,684.6,59,684.6z"/>
	<path class="st0" d="M142.4,707.9H2.8c-0.9,0-1.6-0.7-1.6-1.5c0-0.9,0.7-1.5,1.6-1.5h139.6c0.9,0,1.6,0.7,1.6,1.5
		C144,707.2,143.3,707.9,142.4,707.9z"/>
	<path class="st0" d="M235.2,707.9h-86.6c-0.9,0-1.6-0.7-1.6-1.5c0-0.9,0.7-1.5,1.6-1.5h86.6c0.9,0,1.6,0.7,1.6,1.5
		C236.8,707.2,236.1,707.9,235.2,707.9z"/>
	<path class="st0" d="M525,707.9H245c-0.9,0-1.6-0.7-1.6-1.5c0-0.9,0.7-1.5,1.6-1.5H525c0.9,0,1.6,0.7,1.6,1.5
		C526.6,707.2,525.9,707.9,525,707.9z"/>
	<path class="st0" d="M617.9,707.9h-81.5c-0.9,0-1.6-0.7-1.6-1.5c0-0.9,0.7-1.5,1.6-1.5h81.5c0.9,0,1.6,0.7,1.6,1.5
		C619.5,707.2,618.8,707.9,617.9,707.9z"/>
	<path class="st0" d="M648.5,707.9h-17c-0.9,0-1.6-0.7-1.6-1.5c0-0.9,0.7-1.5,1.6-1.5h17c0.9,0,1.6,0.7,1.6,1.5
		C650,707.2,649.3,707.9,648.5,707.9z"/>
	<path class="st0" d="M877.4,707.9H657.9c-0.9,0-1.6-0.7-1.6-1.5c0-0.9,0.7-1.5,1.6-1.5h219.4c0.9,0,1.6,0.7,1.6,1.5
		C878.9,707.2,878.2,707.9,877.4,707.9z"/>
	<path class="st0" d="M930.1,707.9h-41.4c-0.9,0-1.6-0.7-1.6-1.5c0-0.9,0.7-1.5,1.6-1.5h41.4c0.9,0,1.6,0.7,1.6,1.5
		C931.7,707.2,931,707.9,930.1,707.9z"/>
	<path class="st0" d="M989.3,707.9h-41.4c-0.9,0-1.6-0.7-1.6-1.5c0-0.9,0.7-1.5,1.6-1.5h41.4c0.9,0,1.6,0.7,1.6,1.5
		C990.8,707.2,990.1,707.9,989.3,707.9z"/>
	<path class="st0" d="M997.4,727.4H889.6c-0.9,0-1.6-0.7-1.6-1.5c0-0.9,0.7-1.5,1.6-1.5h107.8c0.9,0,1.6,0.7,1.6,1.5
		C999,726.8,998.3,727.4,997.4,727.4z"/>
	<path class="st0" d="M880.8,727.4h-64c-0.9,0-1.6-0.7-1.6-1.5c0-0.9,0.7-1.5,1.6-1.5h64c0.9,0,1.6,0.7,1.6,1.5
		C882.4,726.8,881.7,727.4,880.8,727.4z"/>
	<path class="st0" d="M808,727.4h-89.8c-0.9,0-1.6-0.7-1.6-1.5c0-0.9,0.7-1.5,1.6-1.5H808c0.9,0,1.6,0.7,1.6,1.5
		C809.6,726.8,808.9,727.4,808,727.4z"/>
	<path class="st0" d="M706,727.4h-16.1c-0.9,0-1.6-0.7-1.6-1.5c0-0.9,0.7-1.5,1.6-1.5H706c0.9,0,1.6,0.7,1.6,1.5
		C707.5,726.8,706.8,727.4,706,727.4z"/>
	<path class="st0" d="M679.3,727.4h-16.1c-0.9,0-1.6-0.7-1.6-1.5c0-0.9,0.7-1.5,1.6-1.5h16.1c0.9,0,1.6,0.7,1.6,1.5
		C680.8,726.8,680.2,727.4,679.3,727.4z"/>
	<path class="st0" d="M653.5,727.4h-177c-0.9,0-1.6-0.7-1.6-1.5c0-0.9,0.7-1.5,1.6-1.5h177c0.9,0,1.6,0.7,1.6,1.5
		C655,726.8,654.3,727.4,653.5,727.4z"/>
	<path class="st0" d="M467.2,727.4h-45.3c-0.9,0-1.6-0.7-1.6-1.5c0-0.9,0.7-1.5,1.6-1.5h45.3c0.9,0,1.6,0.7,1.6,1.5
		C468.7,726.8,468,727.4,467.2,727.4z"/>
	<path class="st0" d="M417.9,727.4H78.4c-0.9,0-1.6-0.7-1.6-1.5c0-0.9,0.7-1.5,1.6-1.5h339.4c0.9,0,1.6,0.7,1.6,1.5
		C419.4,726.8,418.7,727.4,417.9,727.4z"/>
	<path class="st0" d="M72.6,727.4H13.9c-0.9,0-1.6-0.7-1.6-1.5c0-0.9,0.7-1.5,1.6-1.5h58.7c0.9,0,1.6,0.7,1.6,1.5
		C74.2,726.8,73.5,727.4,72.6,727.4z"/>
	<path class="st0" d="M177.1,751H2.8c-0.9,0-1.6-0.7-1.6-1.5s0.7-1.5,1.6-1.5h174.3c0.9,0,1.6,0.7,1.6,1.5S178,751,177.1,751z"/>
	<path class="st0" d="M252.7,751h-66.9c-0.9,0-1.6-0.7-1.6-1.5s0.7-1.5,1.6-1.5h66.9c0.9,0,1.6,0.7,1.6,1.5S253.6,751,252.7,751z"/>
	<path class="st0" d="M303.5,751h-42.1c-0.9,0-1.6-0.7-1.6-1.5s0.7-1.5,1.6-1.5h42.1c0.9,0,1.6,0.7,1.6,1.5S304.4,751,303.5,751z"/>
	<path class="st0" d="M378.1,751h-64.2c-0.9,0-1.6-0.7-1.6-1.5s0.7-1.5,1.6-1.5h64.2c0.9,0,1.6,0.7,1.6,1.5S378.9,751,378.1,751z"/>
	<path class="st0" d="M532,751H385.8c-0.9,0-1.6-0.7-1.6-1.5s0.7-1.5,1.6-1.5H532c0.9,0,1.6,0.7,1.6,1.5S532.9,751,532,751z"/>
	<path class="st0" d="M573.7,751h-33.4c-0.9,0-1.6-0.7-1.6-1.5s0.7-1.5,1.6-1.5h33.4c0.9,0,1.6,0.7,1.6,1.5S574.5,751,573.7,751z"/>
	<path class="st0" d="M697.9,751H584.4c-0.9,0-1.6-0.7-1.6-1.5s0.7-1.5,1.6-1.5h113.5c0.9,0,1.6,0.7,1.6,1.5S698.8,751,697.9,751z"
		/>
	<path class="st0" d="M777.5,751h-75c-0.9,0-1.6-0.7-1.6-1.5s0.7-1.5,1.6-1.5h75c0.9,0,1.6,0.7,1.6,1.5S778.4,751,777.5,751z"/>
	<path class="st0" d="M804.6,751h-18.9c-0.9,0-1.6-0.7-1.6-1.5s0.7-1.5,1.6-1.5h18.9c0.9,0,1.6,0.7,1.6,1.5S805.5,751,804.6,751z"/>
	<path class="st0" d="M845.9,751h-35.4c-0.9,0-1.6-0.7-1.6-1.5s0.7-1.5,1.6-1.5h35.4c0.9,0,1.6,0.7,1.6,1.5S846.8,751,845.9,751z"/>
	<path class="st0" d="M888.5,751H853c-0.9,0-1.6-0.7-1.6-1.5s0.7-1.5,1.6-1.5h35.4c0.9,0,1.6,0.7,1.6,1.5S889.3,751,888.5,751z"/>
	<path class="st0" d="M997.4,751h-101c-0.9,0-1.6-0.7-1.6-1.5s0.7-1.5,1.6-1.5h101c0.9,0,1.6,0.7,1.6,1.5S998.3,751,997.4,751z"/>
	<path class="st0" d="M997.4,772.5H830c-0.9,0-1.6-0.7-1.6-1.5s0.7-1.5,1.6-1.5h167.4c0.9,0,1.6,0.7,1.6,1.5
		S998.3,772.5,997.4,772.5z"/>
	<path class="st0" d="M816.9,772.5H679.4c-0.9,0-1.6-0.7-1.6-1.5s0.7-1.5,1.6-1.5h137.4c0.9,0,1.6,0.7,1.6,1.5
		S817.7,772.5,816.9,772.5z"/>
	<path class="st0" d="M671.2,772.5h-71.3c-0.9,0-1.6-0.7-1.6-1.5s0.7-1.5,1.6-1.5h71.3c0.9,0,1.6,0.7,1.6,1.5
		S672.1,772.5,671.2,772.5z"/>
	<path class="st0" d="M589,772.5h-59.7c-0.9,0-1.6-0.7-1.6-1.5s0.7-1.5,1.6-1.5H589c0.9,0,1.6,0.7,1.6,1.5S589.9,772.5,589,772.5z"
		/>
	<path class="st0" d="M512.5,772.5H388.6c-0.9,0-1.6-0.7-1.6-1.5s0.7-1.5,1.6-1.5h123.9c0.9,0,1.6,0.7,1.6,1.5
		S513.4,772.5,512.5,772.5z"/>
	<path class="st0" d="M381.2,772.5h-67.3c-0.9,0-1.6-0.7-1.6-1.5s0.7-1.5,1.6-1.5h67.3c0.9,0,1.6,0.7,1.6,1.5
		S382.1,772.5,381.2,772.5z"/>
	<path class="st0" d="M306.7,772.5h-12.1c-0.9,0-1.6-0.7-1.6-1.5s0.7-1.5,1.6-1.5h12.1c0.9,0,1.6,0.7,1.6,1.5
		S307.5,772.5,306.7,772.5z"/>
	<path class="st0" d="M285.1,772.5H2.4c-0.9,0-1.6-0.7-1.6-1.5s0.7-1.5,1.6-1.5h282.7c0.9,0,1.6,0.7,1.6,1.5S286,772.5,285.1,772.5z
		"/>
	<path class="st0" d="M55.6,796H2.4c-0.9,0-1.6-0.7-1.6-1.5c0-0.9,0.7-1.5,1.6-1.5h53.2c0.9,0,1.6,0.7,1.6,1.5
		C57.1,795.4,56.4,796,55.6,796z"/>
	<path class="st0" d="M191.9,796H61.2c-0.9,0-1.6-0.7-1.6-1.5c0-0.9,0.7-1.5,1.6-1.5h130.7c0.9,0,1.6,0.7,1.6,1.5
		C193.5,795.4,192.8,796,191.9,796z"/>
	<path class="st0" d="M238.1,796h-37.9c-0.9,0-1.6-0.7-1.6-1.5c0-0.9,0.7-1.5,1.6-1.5h37.9c0.9,0,1.6,0.7,1.6,1.5
		C239.6,795.4,238.9,796,238.1,796z"/>
	<path class="st0" d="M259.3,796h-12.7c-0.9,0-1.6-0.7-1.6-1.5c0-0.9,0.7-1.5,1.6-1.5h12.7c0.9,0,1.6,0.7,1.6,1.5
		C260.8,795.4,260.1,796,259.3,796z"/>
	<path class="st0" d="M465.5,796H266.7c-0.9,0-1.6-0.7-1.6-1.5c0-0.9,0.7-1.5,1.6-1.5h198.8c0.9,0,1.6,0.7,1.6,1.5
		C467,795.4,466.3,796,465.5,796z"/>
	<path class="st0" d="M507.4,796h-33.1c-0.9,0-1.6-0.7-1.6-1.5c0-0.9,0.7-1.5,1.6-1.5h33.1c0.9,0,1.6,0.7,1.6,1.5
		C508.9,795.4,508.2,796,507.4,796z"/>
	<path class="st0" d="M685.2,796H519.8c-0.9,0-1.6-0.7-1.6-1.5c0-0.9,0.7-1.5,1.6-1.5h165.4c0.9,0,1.6,0.7,1.6,1.5
		C686.8,795.4,686.1,796,685.2,796z"/>
	<path class="st0" d="M971.5,796H689.8c-0.9,0-1.6-0.7-1.6-1.5c0-0.9,0.7-1.5,1.6-1.5h281.6c0.9,0,1.6,0.7,1.6,1.5
		C973,795.4,972.3,796,971.5,796z"/>
	<path class="st0" d="M997.4,796h-21.1c-0.9,0-1.6-0.7-1.6-1.5c0-0.9,0.7-1.5,1.6-1.5h21.1c0.9,0,1.6,0.7,1.6,1.5
		C999,795.4,998.3,796,997.4,796z"/>
	<path class="st0" d="M997.4,819.6h-10.5c-0.9,0-1.6-0.7-1.6-1.5c0-0.9,0.7-1.5,1.6-1.5h10.5c0.9,0,1.6,0.7,1.6,1.5
		C999,818.9,998.3,819.6,997.4,819.6z"/>
	<path class="st0" d="M973.8,819.6H936c-0.9,0-1.6-0.7-1.6-1.5c0-0.9,0.7-1.5,1.6-1.5h37.9c0.9,0,1.6,0.7,1.6,1.5
		C975.4,818.9,974.7,819.6,973.8,819.6z"/>
	<path class="st0" d="M930.1,819.6H866c-0.9,0-1.6-0.7-1.6-1.5c0-0.9,0.7-1.5,1.6-1.5h64.1c0.9,0,1.6,0.7,1.6,1.5
		C931.7,818.9,931,819.6,930.1,819.6z"/>
	<path class="st0" d="M859.2,819.6H834c-0.9,0-1.6-0.7-1.6-1.5c0-0.9,0.7-1.5,1.6-1.5h25.2c0.9,0,1.6,0.7,1.6,1.5
		C860.7,818.9,860,819.6,859.2,819.6z"/>
	<path class="st0" d="M825.4,819.6H682.2c-0.9,0-1.6-0.7-1.6-1.5c0-0.9,0.7-1.5,1.6-1.5h143.2c0.9,0,1.6,0.7,1.6,1.5
		C826.9,818.9,826.2,819.6,825.4,819.6z"/>
	<path class="st0" d="M673,819.6H567.2c-0.9,0-1.6-0.7-1.6-1.5c0-0.9,0.7-1.5,1.6-1.5H673c0.9,0,1.6,0.7,1.6,1.5
		C674.6,818.9,673.9,819.6,673,819.6z"/>
	<path class="st0" d="M559.2,819.6h-62.5c-0.9,0-1.6-0.7-1.6-1.5c0-0.9,0.7-1.5,1.6-1.5h62.5c0.9,0,1.6,0.7,1.6,1.5
		C560.7,818.9,560,819.6,559.2,819.6z"/>
	<path class="st0" d="M490.8,819.6H386.6c-0.9,0-1.6-0.7-1.6-1.5c0-0.9,0.7-1.5,1.6-1.5h104.2c0.9,0,1.6,0.7,1.6,1.5
		C492.4,818.9,491.7,819.6,490.8,819.6z"/>
	<path class="st0" d="M378.1,819.6h-30.5c-0.9,0-1.6-0.7-1.6-1.5c0-0.9,0.7-1.5,1.6-1.5h30.5c0.9,0,1.6,0.7,1.6,1.5
		C379.6,818.9,378.9,819.6,378.1,819.6z"/>
	<path class="st0" d="M339.2,819.6H290c-0.9,0-1.6-0.7-1.6-1.5c0-0.9,0.7-1.5,1.6-1.5h49.2c0.9,0,1.6,0.7,1.6,1.5
		C340.8,818.9,340.1,819.6,339.2,819.6z"/>
	<path class="st0" d="M283.9,819.6h-95.5c-0.9,0-1.6-0.7-1.6-1.5c0-0.9,0.7-1.5,1.6-1.5h95.5c0.9,0,1.6,0.7,1.6,1.5
		C285.4,818.9,284.7,819.6,283.9,819.6z"/>
	<path class="st0" d="M179.4,819.6h-38.9c-0.9,0-1.6-0.7-1.6-1.5c0-0.9,0.7-1.5,1.6-1.5h38.9c0.9,0,1.6,0.7,1.6,1.5
		C181,818.9,180.3,819.6,179.4,819.6z"/>
	<path class="st0" d="M133.5,819.6H90c-0.9,0-1.6-0.7-1.6-1.5c0-0.9,0.7-1.5,1.6-1.5h43.5c0.9,0,1.6,0.7,1.6,1.5
		C135,818.9,134.3,819.6,133.5,819.6z"/>
	<path class="st0" d="M83,819.6H1.6c-0.9,0-1.6-0.7-1.6-1.5c0-0.9,0.7-1.5,1.6-1.5H83c0.9,0,1.6,0.7,1.6,1.5
		C84.5,818.9,83.8,819.6,83,819.6z"/>
	<path class="st0" d="M11.3,840.1H1.6c-0.9,0-1.6-0.7-1.6-1.5s0.7-1.5,1.6-1.5h9.8c0.9,0,1.6,0.7,1.6,1.5S12.2,840.1,11.3,840.1z"/>
	<path class="st0" d="M40.1,840.1H17c-0.9,0-1.6-0.7-1.6-1.5s0.7-1.5,1.6-1.5h23.1c0.9,0,1.6,0.7,1.6,1.5S40.9,840.1,40.1,840.1z"/>
	<path class="st0" d="M90,840.1H44c-0.9,0-1.6-0.7-1.6-1.5s0.7-1.5,1.6-1.5H90c0.9,0,1.6,0.7,1.6,1.5S90.8,840.1,90,840.1z"/>
	<path class="st0" d="M110.3,840.1H96.5c-0.9,0-1.6-0.7-1.6-1.5s0.7-1.5,1.6-1.5h13.9c0.9,0,1.6,0.7,1.6,1.5
		S111.2,840.1,110.3,840.1z"/>
	<path class="st0" d="M207.6,840.1H117c-0.9,0-1.6-0.7-1.6-1.5s0.7-1.5,1.6-1.5h90.6c0.9,0,1.6,0.7,1.6,1.5S208.4,840.1,207.6,840.1
		z"/>
	<path class="st0" d="M248.2,840.1h-34.2c-0.9,0-1.6-0.7-1.6-1.5s0.7-1.5,1.6-1.5h34.2c0.9,0,1.6,0.7,1.6,1.5S249,840.1,248.2,840.1
		z"/>
	<path class="st0" d="M297.7,840.1h-41.9c-0.9,0-1.6-0.7-1.6-1.5s0.7-1.5,1.6-1.5h41.9c0.9,0,1.6,0.7,1.6,1.5
		S298.6,840.1,297.7,840.1z"/>
	<path class="st0" d="M323.2,840.1h-16.5c-0.9,0-1.6-0.7-1.6-1.5s0.7-1.5,1.6-1.5h16.5c0.9,0,1.6,0.7,1.6,1.5
		S324.1,840.1,323.2,840.1z"/>
	<path class="st0" d="M341.9,840.1H331c-0.9,0-1.6-0.7-1.6-1.5s0.7-1.5,1.6-1.5h10.9c0.9,0,1.6,0.7,1.6,1.5S342.7,840.1,341.9,840.1
		z"/>
	<path class="st0" d="M483.9,840.1H348.8c-0.9,0-1.6-0.7-1.6-1.5s0.7-1.5,1.6-1.5h135.1c0.9,0,1.6,0.7,1.6,1.5
		S484.7,840.1,483.9,840.1z"/>
	<path class="st0" d="M540.3,840.1h-48.7c-0.9,0-1.6-0.7-1.6-1.5s0.7-1.5,1.6-1.5h48.7c0.9,0,1.6,0.7,1.6,1.5
		S541.2,840.1,540.3,840.1z"/>
	<path class="st0" d="M650.8,840.1H547.1c-0.9,0-1.6-0.7-1.6-1.5s0.7-1.5,1.6-1.5h103.7c0.9,0,1.6,0.7,1.6,1.5
		S651.6,840.1,650.8,840.1z"/>
	<path class="st0" d="M732.6,840.1h-72c-0.9,0-1.6-0.7-1.6-1.5s0.7-1.5,1.6-1.5h72c0.9,0,1.6,0.7,1.6,1.5S733.5,840.1,732.6,840.1z"
		/>
	<path class="st0" d="M997.4,840.1H741.5c-0.9,0-1.6-0.7-1.6-1.5s0.7-1.5,1.6-1.5h255.9c0.9,0,1.6,0.7,1.6,1.5
		S998.3,840.1,997.4,840.1z"/>
	<path class="st0" d="M991.1,863.9h-80.6c-0.9,0-1.6-0.7-1.6-1.5s0.7-1.5,1.6-1.5h80.6c0.9,0,1.6,0.7,1.6,1.5S992,863.9,991.1,863.9
		z"/>
	<path class="st0" d="M906.2,863.9h-16.3c-0.9,0-1.6-0.7-1.6-1.5s0.7-1.5,1.6-1.5h16.3c0.9,0,1.6,0.7,1.6,1.5
		S907.1,863.9,906.2,863.9z"/>
	<path class="st0" d="M882.3,863.9H767c-0.9,0-1.6-0.7-1.6-1.5s0.7-1.5,1.6-1.5h115.3c0.9,0,1.6,0.7,1.6,1.5
		S883.2,863.9,882.3,863.9z"/>
	<path class="st0" d="M750.7,863.9h-87.5c-0.9,0-1.6-0.7-1.6-1.5s0.7-1.5,1.6-1.5h87.5c0.9,0,1.6,0.7,1.6,1.5
		S751.5,863.9,750.7,863.9z"/>
	<path class="st0" d="M653.4,863.9H458.9c-0.9,0-1.6-0.7-1.6-1.5s0.7-1.5,1.6-1.5h194.6c0.9,0,1.6,0.7,1.6,1.5
		S654.3,863.9,653.4,863.9z"/>
	<path class="st0" d="M444.5,863.9h-32.7c-0.9,0-1.6-0.7-1.6-1.5s0.7-1.5,1.6-1.5h32.7c0.9,0,1.6,0.7,1.6,1.5
		S445.4,863.9,444.5,863.9z"/>
	<path class="st0" d="M401.8,863.9h-20.6c-0.9,0-1.6-0.7-1.6-1.5s0.7-1.5,1.6-1.5h20.6c0.9,0,1.6,0.7,1.6,1.5
		S402.6,863.9,401.8,863.9z"/>
	<path class="st0" d="M374.8,863.9h-59.8c-0.9,0-1.6-0.7-1.6-1.5s0.7-1.5,1.6-1.5h59.8c0.9,0,1.6,0.7,1.6,1.5
		S375.6,863.9,374.8,863.9z"/>
	<path class="st0" d="M309.6,863.9h-27.1c-0.9,0-1.6-0.7-1.6-1.5s0.7-1.5,1.6-1.5h27.1c0.9,0,1.6,0.7,1.6,1.5
		S310.4,863.9,309.6,863.9z"/>
	<path class="st0" d="M276.7,863.9h-7.9c-0.9,0-1.6-0.7-1.6-1.5s0.7-1.5,1.6-1.5h7.9c0.9,0,1.6,0.7,1.6,1.5S277.6,863.9,276.7,863.9
		z"/>
	<path class="st0" d="M265.3,863.9H196c-0.9,0-1.6-0.7-1.6-1.5s0.7-1.5,1.6-1.5h69.3c0.9,0,1.6,0.7,1.6,1.5S266.2,863.9,265.3,863.9
		z"/>
	<path class="st0" d="M188.3,863.9h-38.5c-0.9,0-1.6-0.7-1.6-1.5s0.7-1.5,1.6-1.5h38.5c0.9,0,1.6,0.7,1.6,1.5
		S189.2,863.9,188.3,863.9z"/>
	<path class="st0" d="M137.9,863.9H73.6c-0.9,0-1.6-0.7-1.6-1.5s0.7-1.5,1.6-1.5h64.3c0.9,0,1.6,0.7,1.6,1.5
		S138.8,863.9,137.9,863.9z"/>
	<path class="st0" d="M66.7,863.9H2.4c-0.9,0-1.6-0.7-1.6-1.5s0.7-1.5,1.6-1.5h64.3c0.9,0,1.6,0.7,1.6,1.5S67.5,863.9,66.7,863.9z"
		/>
	<path class="st0" d="M33,887.8H2.4c-0.9,0-1.6-0.7-1.6-1.5s0.7-1.5,1.6-1.5H33c0.9,0,1.6,0.7,1.6,1.5S33.8,887.8,33,887.8z"/>
	<path class="st0" d="M109.2,887.8H38.5c-0.9,0-1.6-0.7-1.6-1.5s0.7-1.5,1.6-1.5h70.6c0.9,0,1.6,0.7,1.6,1.5S110,887.8,109.2,887.8z
		"/>
	<path class="st0" d="M408.6,887.8H113.2c-0.9,0-1.6-0.7-1.6-1.5s0.7-1.5,1.6-1.5h295.4c0.9,0,1.6,0.7,1.6,1.5
		S409.4,887.8,408.6,887.8z"/>
	<path class="st0" d="M519.8,887.8H416.3c-0.9,0-1.6-0.7-1.6-1.5s0.7-1.5,1.6-1.5h103.5c0.9,0,1.6,0.7,1.6,1.5
		S520.7,887.8,519.8,887.8z"/>
	<path class="st0" d="M584.4,887.8h-55.1c-0.9,0-1.6-0.7-1.6-1.5s0.7-1.5,1.6-1.5h55.1c0.9,0,1.6,0.7,1.6,1.5
		S585.3,887.8,584.4,887.8z"/>
	<path class="st0" d="M758.1,887.8H592.6c-0.9,0-1.6-0.7-1.6-1.5s0.7-1.5,1.6-1.5h165.5c0.9,0,1.6,0.7,1.6,1.5
		S759,887.8,758.1,887.8z"/>
	<path class="st0" d="M923.8,887.8H767c-0.9,0-1.6-0.7-1.6-1.5s0.7-1.5,1.6-1.5h156.8c0.9,0,1.6,0.7,1.6,1.5
		S924.7,887.8,923.8,887.8z"/>
	<path class="st0" d="M997.4,887.8h-65.3c-0.9,0-1.6-0.7-1.6-1.5s0.7-1.5,1.6-1.5h65.3c0.9,0,1.6,0.7,1.6,1.5
		S998.3,887.8,997.4,887.8z"/>
	<path class="st0" d="M997.4,908.7h-99.4c-0.9,0-1.6-0.7-1.6-1.5c0-0.9,0.7-1.5,1.6-1.5h99.4c0.9,0,1.6,0.7,1.6,1.5
		C999,908,998.3,908.7,997.4,908.7z"/>
	<path class="st0" d="M893.7,908.7H584.4c-0.9,0-1.6-0.7-1.6-1.5c0-0.9,0.7-1.5,1.6-1.5h309.3c0.9,0,1.6,0.7,1.6,1.5
		C895.2,908,894.5,908.7,893.7,908.7z"/>
	<path class="st0" d="M573.1,908.7H486c-0.9,0-1.6-0.7-1.6-1.5c0-0.9,0.7-1.5,1.6-1.5h87.2c0.9,0,1.6,0.7,1.6,1.5
		C574.7,908,574,908.7,573.1,908.7z"/>
	<path class="st0" d="M478.2,908.7h-12.8c-0.9,0-1.6-0.7-1.6-1.5c0-0.9,0.7-1.5,1.6-1.5h12.8c0.9,0,1.6,0.7,1.6,1.5
		C479.8,908,479.1,908.7,478.2,908.7z"/>
	<path class="st0" d="M455.7,908.7H242.6c-0.9,0-1.6-0.7-1.6-1.5c0-0.9,0.7-1.5,1.6-1.5h213.1c0.9,0,1.6,0.7,1.6,1.5
		C457.3,908,456.6,908.7,455.7,908.7z"/>
	<path class="st0" d="M236.1,908.7H55.7c-0.9,0-1.6-0.7-1.6-1.5c0-0.9,0.7-1.5,1.6-1.5h180.4c0.9,0,1.6,0.7,1.6,1.5
		C237.6,908,236.9,908.7,236.1,908.7z"/>
	<path class="st0" d="M46,908.7H2.4c-0.9,0-1.6-0.7-1.6-1.5c0-0.9,0.7-1.5,1.6-1.5H46c0.9,0,1.6,0.7,1.6,1.5
		C47.6,908,46.9,908.7,46,908.7z"/>
	<path class="st0" d="M85.4,932.9H2.4c-0.9,0-1.6-0.7-1.6-1.5c0-0.9,0.7-1.5,1.6-1.5h83.1c0.9,0,1.6,0.7,1.6,1.5
		C87,932.2,86.3,932.9,85.4,932.9z"/>
	<path class="st0" d="M176.8,932.9H93.7c-0.9,0-1.6-0.7-1.6-1.5c0-0.9,0.7-1.5,1.6-1.5h83.1c0.9,0,1.6,0.7,1.6,1.5
		C178.3,932.2,177.6,932.9,176.8,932.9z"/>
	<path class="st0" d="M200.8,932.9h-18.6c-0.9,0-1.6-0.7-1.6-1.5c0-0.9,0.7-1.5,1.6-1.5h18.6c0.9,0,1.6,0.7,1.6,1.5
		C202.3,932.2,201.6,932.9,200.8,932.9z"/>
	<path class="st0" d="M262.1,932.9h-54.5c-0.9,0-1.6-0.7-1.6-1.5c0-0.9,0.7-1.5,1.6-1.5h54.5c0.9,0,1.6,0.7,1.6,1.5
		C263.7,932.2,263,932.9,262.1,932.9z"/>
	<path class="st0" d="M300.4,932.9h-29.9c-0.9,0-1.6-0.7-1.6-1.5c0-0.9,0.7-1.5,1.6-1.5h29.9c0.9,0,1.6,0.7,1.6,1.5
		C301.9,932.2,301.2,932.9,300.4,932.9z"/>
	<path class="st0" d="M336.6,954.7h-29.9c-0.9,0-1.6-0.7-1.6-1.5s0.7-1.5,1.6-1.5h29.9c0.9,0,1.6,0.7,1.6,1.5
		S337.5,954.7,336.6,954.7z"/>
	<path class="st0" d="M365,1000h-17.2c-0.9,0-1.6-0.7-1.6-1.5c0-0.9,0.7-1.5,1.6-1.5H365c0.9,0,1.6,0.7,1.6,1.5
		C366.6,999.3,365.9,1000,365,1000z"/>
	<path class="st0" d="M343.3,1000h-98c-0.9,0-1.6-0.7-1.6-1.5c0-0.9,0.7-1.5,1.6-1.5h98c0.9,0,1.6,0.7,1.6,1.5
		C344.9,999.3,344.2,1000,343.3,1000z"/>
	<path class="st0" d="M239.4,1000h-75.3c-0.9,0-1.6-0.7-1.6-1.5c0-0.9,0.7-1.5,1.6-1.5h75.3c0.9,0,1.6,0.7,1.6,1.5
		C241,999.3,240.3,1000,239.4,1000z"/>
	<path class="st0" d="M152.9,1000H99.1c-0.9,0-1.6-0.7-1.6-1.5c0-0.9,0.7-1.5,1.6-1.5h53.7c0.9,0,1.6,0.7,1.6,1.5
		C154.4,999.3,153.8,1000,152.9,1000z"/>
	<path class="st0" d="M93.8,1000H79.4c-0.9,0-1.6-0.7-1.6-1.5c0-0.9,0.7-1.5,1.6-1.5h14.4c0.9,0,1.6,0.7,1.6,1.5
		C95.3,999.3,94.6,1000,93.8,1000z"/>
	<path class="st0" d="M73.3,1000H45.2c-0.9,0-1.6-0.7-1.6-1.5c0-0.9,0.7-1.5,1.6-1.5h28.1c0.9,0,1.6,0.7,1.6,1.5
		C74.9,999.3,74.2,1000,73.3,1000z"/>
	<path class="st0" d="M40.1,1000H2.4c-0.9,0-1.6-0.7-1.6-1.5c0-0.9,0.7-1.5,1.6-1.5h37.7c0.9,0,1.6,0.7,1.6,1.5
		C41.6,999.3,40.9,1000,40.1,1000z"/>
	<path class="st0" d="M297.4,954.7H179c-0.9,0-1.6-0.7-1.6-1.5s0.7-1.5,1.6-1.5h118.4c0.9,0,1.6,0.7,1.6,1.5
		S298.3,954.7,297.4,954.7z"/>
	<path class="st0" d="M174.4,954.7h-17.7c-0.9,0-1.6-0.7-1.6-1.5s0.7-1.5,1.6-1.5h17.7c0.9,0,1.6,0.7,1.6,1.5
		S175.3,954.7,174.4,954.7z"/>
	<path class="st0" d="M151.2,954.7H2.4c-0.9,0-1.6-0.7-1.6-1.5s0.7-1.5,1.6-1.5h148.8c0.9,0,1.6,0.7,1.6,1.5S152,954.7,151.2,954.7z
		"/>
	<path class="st0" d="M113.2,977.7H2.4c-0.9,0-1.6-0.7-1.6-1.5s0.7-1.5,1.6-1.5h110.9c0.9,0,1.6,0.7,1.6,1.5
		S114.1,977.7,113.2,977.7z"/>
	<path class="st0" d="M196,977.7h-74.7c-0.9,0-1.6-0.7-1.6-1.5s0.7-1.5,1.6-1.5H196c0.9,0,1.6,0.7,1.6,1.5S196.9,977.7,196,977.7z"
		/>
	<path class="st0" d="M230.7,977.7h-25.4c-0.9,0-1.6-0.7-1.6-1.5s0.7-1.5,1.6-1.5h25.4c0.9,0,1.6,0.7,1.6,1.5
		S231.5,977.7,230.7,977.7z"/>
	<path class="st0" d="M367.9,977.7H238.2c-0.9,0-1.6-0.7-1.6-1.5s0.7-1.5,1.6-1.5h129.7c0.9,0,1.6,0.7,1.6,1.5
		S368.7,977.7,367.9,977.7z"/>
	<path class="st0" d="M469.9,977.7h-92.2c-0.9,0-1.6-0.7-1.6-1.5s0.7-1.5,1.6-1.5h92.2c0.9,0,1.6,0.7,1.6,1.5
		S470.7,977.7,469.9,977.7z"/>
	<path class="st0" d="M516,977.7h-38.3c-0.9,0-1.6-0.7-1.6-1.5s0.7-1.5,1.6-1.5H516c0.9,0,1.6,0.7,1.6,1.5S516.8,977.7,516,977.7z"
		/>
	<path class="st0" d="M531.6,977.7h-10.4c-0.9,0-1.6-0.7-1.6-1.5s0.7-1.5,1.6-1.5h10.4c0.9,0,1.6,0.7,1.6,1.5
		S532.5,977.7,531.6,977.7z"/>
	<path class="st0" d="M575.1,977.7h-37.2c-0.9,0-1.6-0.7-1.6-1.5s0.7-1.5,1.6-1.5h37.2c0.9,0,1.6,0.7,1.6,1.5S576,977.7,575.1,977.7
		z"/>
	<path class="st0" d="M706.9,977.7H584.4c-0.9,0-1.6-0.7-1.6-1.5s0.7-1.5,1.6-1.5h122.5c0.9,0,1.6,0.7,1.6,1.5
		S707.8,977.7,706.9,977.7z"/>
	<path class="st0" d="M790.5,977.7h-78.2c-0.9,0-1.6-0.7-1.6-1.5s0.7-1.5,1.6-1.5h78.2c0.9,0,1.6,0.7,1.6,1.5
		S791.4,977.7,790.5,977.7z"/>
	<path class="st0" d="M862.7,977.7h-68.1c-0.9,0-1.6-0.7-1.6-1.5s0.7-1.5,1.6-1.5h68.1c0.9,0,1.6,0.7,1.6,1.5
		S863.5,977.7,862.7,977.7z"/>
	<path class="st0" d="M997.4,977.7H872.2c-0.9,0-1.6-0.7-1.6-1.5s0.7-1.5,1.6-1.5h125.3c0.9,0,1.6,0.7,1.6,1.5
		S998.3,977.7,997.4,977.7z"/>
	<path class="st0" d="M997.4,1000h-19.9c-0.9,0-1.6-0.7-1.6-1.5c0-0.9,0.7-1.5,1.6-1.5h19.9c0.9,0,1.6,0.7,1.6,1.5
		C999,999.3,998.3,1000,997.4,1000z"/>
	<path class="st0" d="M967.1,1000h-52.2c-0.9,0-1.6-0.7-1.6-1.5c0-0.9,0.7-1.5,1.6-1.5h52.2c0.9,0,1.6,0.7,1.6,1.5
		C968.6,999.3,968,1000,967.1,1000z"/>
	<path class="st0" d="M908.8,1000h-19.2c-0.9,0-1.6-0.7-1.6-1.5c0-0.9,0.7-1.5,1.6-1.5h19.2c0.9,0,1.6,0.7,1.6,1.5
		C910.4,999.3,909.7,1000,908.8,1000z"/>
	<path class="st0" d="M884.7,1000H759.3c-0.9,0-1.6-0.7-1.6-1.5c0-0.9,0.7-1.5,1.6-1.5h125.4c0.9,0,1.6,0.7,1.6,1.5
		C886.3,999.3,885.6,1000,884.7,1000z"/>
	<path class="st0" d="M753.9,1000h-115c-0.9,0-1.6-0.7-1.6-1.5c0-0.9,0.7-1.5,1.6-1.5h115c0.9,0,1.6,0.7,1.6,1.5
		C755.4,999.3,754.7,1000,753.9,1000z"/>
	<path class="st0" d="M630,1000h-41.8c-0.9,0-1.6-0.7-1.6-1.5c0-0.9,0.7-1.5,1.6-1.5H630c0.9,0,1.6,0.7,1.6,1.5
		C631.5,999.3,630.8,1000,630,1000z"/>
	<path class="st0" d="M579.7,1000H373.1c-0.9,0-1.6-0.7-1.6-1.5c0-0.9,0.7-1.5,1.6-1.5h206.6c0.9,0,1.6,0.7,1.6,1.5
		C581.3,999.3,580.6,1000,579.7,1000z"/>
	<path class="st0" d="M401.8,932.9h-93.5c-0.9,0-1.6-0.7-1.6-1.5c0-0.9,0.7-1.5,1.6-1.5h93.5c0.9,0,1.6,0.7,1.6,1.5
		C403.3,932.2,402.6,932.9,401.8,932.9z"/>
	<path class="st0" d="M430.2,932.9h-18.1c-0.9,0-1.6-0.7-1.6-1.5c0-0.9,0.7-1.5,1.6-1.5h18.1c0.9,0,1.6,0.7,1.6,1.5
		C431.8,932.2,431.1,932.9,430.2,932.9z"/>
	<path class="st0" d="M507.3,932.9h-66.5c-0.9,0-1.6-0.7-1.6-1.5c0-0.9,0.7-1.5,1.6-1.5h66.5c0.9,0,1.6,0.7,1.6,1.5
		C508.8,932.2,508.2,932.9,507.3,932.9z"/>
	<path class="st0" d="M531.6,932.9H516c-0.9,0-1.6-0.7-1.6-1.5c0-0.9,0.7-1.5,1.6-1.5h15.6c0.9,0,1.6,0.7,1.6,1.5
		C533.2,932.2,532.5,932.9,531.6,932.9z"/>
	<path class="st0" d="M553.5,932.9h-15.6c-0.9,0-1.6-0.7-1.6-1.5c0-0.9,0.7-1.5,1.6-1.5h15.6c0.9,0,1.6,0.7,1.6,1.5
		C555.1,932.2,554.4,932.9,553.5,932.9z"/>
	<path class="st0" d="M593.3,932.9h-32.6c-0.9,0-1.6-0.7-1.6-1.5c0-0.9,0.7-1.5,1.6-1.5h32.6c0.9,0,1.6,0.7,1.6,1.5
		C594.8,932.2,594.1,932.9,593.3,932.9z"/>
	<path class="st0" d="M631.5,932.9h-32.6c-0.9,0-1.6-0.7-1.6-1.5c0-0.9,0.7-1.5,1.6-1.5h32.6c0.9,0,1.6,0.7,1.6,1.5
		C633.1,932.2,632.4,932.9,631.5,932.9z"/>
	<path class="st0" d="M641.9,954.7h-53.3c-0.9,0-1.6-0.7-1.6-1.5s0.7-1.5,1.6-1.5h53.3c0.9,0,1.6,0.7,1.6,1.5
		S642.7,954.7,641.9,954.7z"/>
	<path class="st0" d="M582.8,954.7H343.3c-0.9,0-1.6-0.7-1.6-1.5s0.7-1.5,1.6-1.5h239.5c0.9,0,1.6,0.7,1.6,1.5
		S583.7,954.7,582.8,954.7z"/>
	<path class="st0" d="M850,932.9H637.1c-0.9,0-1.6-0.7-1.6-1.5c0-0.9,0.7-1.5,1.6-1.5H850c0.9,0,1.6,0.7,1.6,1.5
		C851.5,932.2,850.9,932.9,850,932.9z"/>
	<path class="st0" d="M951.8,932.9h-92.9c-0.9,0-1.6-0.7-1.6-1.5c0-0.9,0.7-1.5,1.6-1.5h92.9c0.9,0,1.6,0.7,1.6,1.5
		C953.4,932.2,952.7,932.9,951.8,932.9z"/>
	<path class="st0" d="M997.4,932.9h-39.8c-0.9,0-1.6-0.7-1.6-1.5c0-0.9,0.7-1.5,1.6-1.5h39.8c0.9,0,1.6,0.7,1.6,1.5
		C999,932.2,998.3,932.9,997.4,932.9z"/>
	<path class="st0" d="M997.4,954.7H650.8c-0.9,0-1.6-0.7-1.6-1.5s0.7-1.5,1.6-1.5h346.6c0.9,0,1.6,0.7,1.6,1.5
		S998.3,954.7,997.4,954.7z"/>
	<path class="st0" d="M8.1,727.4H1.6c-0.9,0-1.6-0.7-1.6-1.5c0-0.9,0.7-1.5,1.6-1.5h6.6c0.9,0,1.6,0.7,1.6,1.5
		C9.7,726.8,9,727.4,8.1,727.4z"/>
	<path class="st0" d="M651.5,661.4h-33.6c-0.9,0-1.6-0.7-1.6-1.5s0.7-1.5,1.6-1.5h33.6c0.9,0,1.6,0.7,1.6,1.5
		S652.4,661.4,651.5,661.4z"/>
	<path class="st0" d="M865.2,661.4H658.1c-0.9,0-1.6-0.7-1.6-1.5s0.7-1.5,1.6-1.5h207.2c0.9,0,1.6,0.7,1.6,1.5
		S866.1,661.4,865.2,661.4z"/>
	<path class="st0" d="M997.7,661.4h-127c-0.9,0-1.6-0.7-1.6-1.5s0.7-1.5,1.6-1.5h127c0.9,0,1.6,0.7,1.6,1.5S998.6,661.4,997.7,661.4
		z"/>
	<path class="st0" d="M997.7,683.9h-20.1c-0.9,0-1.6-0.7-1.6-1.5s0.7-1.5,1.6-1.5h20.1c0.9,0,1.6,0.7,1.6,1.5
		S998.6,683.9,997.7,683.9z"/>
	<path class="st0" d="M968.6,683.9h-72.2c-0.9,0-1.6-0.7-1.6-1.5s0.7-1.5,1.6-1.5h72.2c0.9,0,1.6,0.7,1.6,1.5
		S969.4,683.9,968.6,683.9z"/>
	<path class="st0" d="M889.6,683.9H607c-0.9,0-1.6-0.7-1.6-1.5s0.7-1.5,1.6-1.5h282.6c0.9,0,1.6,0.7,1.6,1.5
		S890.5,683.9,889.6,683.9z"/>
	<path class="st0" d="M197.8,638.1H49.2c-0.9,0-1.6-0.7-1.6-1.5c0-0.9,0.7-1.5,1.6-1.5h148.6c0.9,0,1.6,0.7,1.6,1.5
		C199.4,637.4,198.7,638.1,197.8,638.1z"/>
	<path class="st0" d="M276.7,638.1H208c-0.9,0-1.6-0.7-1.6-1.5c0-0.9,0.7-1.5,1.6-1.5h68.7c0.9,0,1.6,0.7,1.6,1.5
		C278.2,637.4,277.5,638.1,276.7,638.1z"/>
	<path class="st0" d="M353.3,638.1h-68.7c-0.9,0-1.6-0.7-1.6-1.5c0-0.9,0.7-1.5,1.6-1.5h68.7c0.9,0,1.6,0.7,1.6,1.5
		C354.9,637.4,354.2,638.1,353.3,638.1z"/>
	<path class="st0" d="M395.2,638.1h-34.3c-0.9,0-1.6-0.7-1.6-1.5c0-0.9,0.7-1.5,1.6-1.5h34.3c0.9,0,1.6,0.7,1.6,1.5
		C396.8,637.4,396.1,638.1,395.2,638.1z"/>
	<path class="st0" d="M430,638.1h-29.7c-0.9,0-1.6-0.7-1.6-1.5c0-0.9,0.7-1.5,1.6-1.5H430c0.9,0,1.6,0.7,1.6,1.5
		C431.6,637.4,430.9,638.1,430,638.1z"/>
	<path class="st0" d="M589,638.1H446.7c-0.9,0-1.6-0.7-1.6-1.5c0-0.9,0.7-1.5,1.6-1.5H589c0.9,0,1.6,0.7,1.6,1.5
		C590.6,637.4,589.9,638.1,589,638.1z"/>
	<path class="st0" d="M997.4,638.1H601.1c-0.9,0-1.6-0.7-1.6-1.5c0-0.9,0.7-1.5,1.6-1.5h396.3c0.9,0,1.6,0.7,1.6,1.5
		C999,637.4,998.3,638.1,997.4,638.1z"/>
	<path class="st0" d="M284.7,571.5H111c-0.9,0-1.6-0.7-1.6-1.5s0.7-1.5,1.6-1.5h173.7c0.9,0,1.6,0.7,1.6,1.5
		S285.5,571.5,284.7,571.5z"/>
	<path class="st0" d="M414.5,571.5H294.3c-0.9,0-1.6-0.7-1.6-1.5s0.7-1.5,1.6-1.5h120.2c0.9,0,1.6,0.7,1.6,1.5
		S415.4,571.5,414.5,571.5z"/>
	<path class="st0" d="M461.5,571.5h-40c-0.9,0-1.6-0.7-1.6-1.5s0.7-1.5,1.6-1.5h40c0.9,0,1.6,0.7,1.6,1.5S462.4,571.5,461.5,571.5z"
		/>
	<path class="st0" d="M651.5,571.5H468.3c-0.9,0-1.6-0.7-1.6-1.5s0.7-1.5,1.6-1.5h183.3c0.9,0,1.6,0.7,1.6,1.5
		S652.4,571.5,651.5,571.5z"/>
	<path class="st0" d="M672.3,571.5h-11.6c-0.9,0-1.6-0.7-1.6-1.5s0.7-1.5,1.6-1.5h11.6c0.9,0,1.6,0.7,1.6,1.5
		S673.1,571.5,672.3,571.5z"/>
	<path class="st0" d="M807,571.5H688.4c-0.9,0-1.6-0.7-1.6-1.5s0.7-1.5,1.6-1.5H807c0.9,0,1.6,0.7,1.6,1.5S807.8,571.5,807,571.5z"
		/>
	<path class="st0" d="M835.9,571.5h-25.4c-0.9,0-1.6-0.7-1.6-1.5s0.7-1.5,1.6-1.5h25.4c0.9,0,1.6,0.7,1.6,1.5
		S836.8,571.5,835.9,571.5z"/>
	<path class="st0" d="M997.4,571.5H845.9c-0.9,0-1.6-0.7-1.6-1.5s0.7-1.5,1.6-1.5h151.5c0.9,0,1.6,0.7,1.6,1.5
		S998.3,571.5,997.4,571.5z"/>
	<path class="st0" d="M235.2,547h-97.3c-0.9,0-1.6-0.7-1.6-1.5s0.7-1.5,1.6-1.5h97.3c0.9,0,1.6,0.7,1.6,1.5S236.1,547,235.2,547z"/>
	<path class="st0" d="M412.8,547H244.6c-0.9,0-1.6-0.7-1.6-1.5s0.7-1.5,1.6-1.5h168.3c0.9,0,1.6,0.7,1.6,1.5S413.7,547,412.8,547z"
		/>
	<path class="st0" d="M536.4,547H420.2c-0.9,0-1.6-0.7-1.6-1.5s0.7-1.5,1.6-1.5h116.1c0.9,0,1.6,0.7,1.6,1.5S537.2,547,536.4,547z"
		/>
	<path class="st0" d="M566.1,547H550c-0.9,0-1.6-0.7-1.6-1.5s0.7-1.5,1.6-1.5h16.1c0.9,0,1.6,0.7,1.6,1.5S567,547,566.1,547z"/>
	<path class="st0" d="M598.9,547H576c-0.9,0-1.6-0.7-1.6-1.5s0.7-1.5,1.6-1.5h22.8c0.9,0,1.6,0.7,1.6,1.5S599.7,547,598.9,547z"/>
	<path class="st0" d="M626.2,547h-18.1c-0.9,0-1.6-0.7-1.6-1.5s0.7-1.5,1.6-1.5h18.1c0.9,0,1.6,0.7,1.6,1.5S627.1,547,626.2,547z"/>
	<path class="st0" d="M753.2,547H635.2c-0.9,0-1.6-0.7-1.6-1.5s0.7-1.5,1.6-1.5h117.9c0.9,0,1.6,0.7,1.6,1.5S754,547,753.2,547z"/>
	<path class="st0" d="M772.5,547h-15.8c-0.9,0-1.6-0.7-1.6-1.5s0.7-1.5,1.6-1.5h15.8c0.9,0,1.6,0.7,1.6,1.5S773.4,547,772.5,547z"/>
	<path class="st0" d="M998.4,547H779.6c-0.9,0-1.6-0.7-1.6-1.5s0.7-1.5,1.6-1.5h218.8c0.9,0,1.6,0.7,1.6,1.5S999.3,547,998.4,547z"
		/>
	<path class="st0" d="M229.2,524.9h-42.4c-0.9,0-1.6-0.7-1.6-1.5c0-0.9,0.7-1.5,1.6-1.5h42.4c0.9,0,1.6,0.7,1.6,1.5
		C230.7,524.2,230.1,524.9,229.2,524.9z"/>
	<path class="st0" d="M266.7,524.9h-27.8c-0.9,0-1.6-0.7-1.6-1.5c0-0.9,0.7-1.5,1.6-1.5h27.8c0.9,0,1.6,0.7,1.6,1.5
		C268.2,524.2,267.5,524.9,266.7,524.9z"/>
	<path class="st0" d="M464.7,524.9H273.6c-0.9,0-1.6-0.7-1.6-1.5c0-0.9,0.7-1.5,1.6-1.5h191.1c0.9,0,1.6,0.7,1.6,1.5
		C466.2,524.2,465.5,524.9,464.7,524.9z"/>
	<path class="st0" d="M511.3,524.9h-40.7c-0.9,0-1.6-0.7-1.6-1.5c0-0.9,0.7-1.5,1.6-1.5h40.7c0.9,0,1.6,0.7,1.6,1.5
		C512.9,524.2,512.2,524.9,511.3,524.9z"/>
	<path class="st0" d="M536.4,524.9h-17c-0.9,0-1.6-0.7-1.6-1.5c0-0.9,0.7-1.5,1.6-1.5h17c0.9,0,1.6,0.7,1.6,1.5
		C537.9,524.2,537.2,524.9,536.4,524.9z"/>
	<path class="st0" d="M682.3,524.9h-138c-0.9,0-1.6-0.7-1.6-1.5c0-0.9,0.7-1.5,1.6-1.5h138c0.9,0,1.6,0.7,1.6,1.5
		C683.9,524.2,683.2,524.9,682.3,524.9z"/>
	<path class="st0" d="M703.3,524.9h-17.6c-0.9,0-1.6-0.7-1.6-1.5c0-0.9,0.7-1.5,1.6-1.5h17.6c0.9,0,1.6,0.7,1.6,1.5
		C704.8,524.2,704.1,524.9,703.3,524.9z"/>
	<path class="st0" d="M772.5,524.9h-62.1c-0.9,0-1.6-0.7-1.6-1.5c0-0.9,0.7-1.5,1.6-1.5h62.1c0.9,0,1.6,0.7,1.6,1.5
		C774.1,524.2,773.4,524.9,772.5,524.9z"/>
	<path class="st0" d="M834.3,524.9h-54.7c-0.9,0-1.6-0.7-1.6-1.5c0-0.9,0.7-1.5,1.6-1.5h54.7c0.9,0,1.6,0.7,1.6,1.5
		C835.9,524.2,835.2,524.9,834.3,524.9z"/>
	<path class="st0" d="M997.4,524.9H843.3c-0.9,0-1.6-0.7-1.6-1.5c0-0.9,0.7-1.5,1.6-1.5h154.1c0.9,0,1.6,0.7,1.6,1.5
		C999,524.2,998.3,524.9,997.4,524.9z"/>
	<path class="st0" d="M154.4,502.7h-12c-0.9,0-1.6-0.7-1.6-1.5s0.7-1.5,1.6-1.5h12c0.9,0,1.6,0.7,1.6,1.5S155.3,502.7,154.4,502.7z"
		/>
	<path class="st0" d="M244.6,502.7h-81.8c-0.9,0-1.6-0.7-1.6-1.5s0.7-1.5,1.6-1.5h81.8c0.9,0,1.6,0.7,1.6,1.5
		S245.4,502.7,244.6,502.7z"/>
	<path class="st0" d="M514.7,502.7h-261c-0.9,0-1.6-0.7-1.6-1.5s0.7-1.5,1.6-1.5h261c0.9,0,1.6,0.7,1.6,1.5S515.5,502.7,514.7,502.7
		z"/>
	<path class="st0" d="M644.3,502.7H523.9c-0.9,0-1.6-0.7-1.6-1.5s0.7-1.5,1.6-1.5h120.4c0.9,0,1.6,0.7,1.6,1.5
		S645.2,502.7,644.3,502.7z"/>
	<path class="st0" d="M686.1,502.7h-34.6c-0.9,0-1.6-0.7-1.6-1.5s0.7-1.5,1.6-1.5h34.6c0.9,0,1.6,0.7,1.6,1.5S687,502.7,686.1,502.7
		z"/>
	<path class="st0" d="M864.7,502.7H694.5c-0.9,0-1.6-0.7-1.6-1.5s0.7-1.5,1.6-1.5h170.3c0.9,0,1.6,0.7,1.6,1.5
		S865.6,502.7,864.7,502.7z"/>
	<path class="st0" d="M968.5,502.7h-93.3c-0.9,0-1.6-0.7-1.6-1.5s0.7-1.5,1.6-1.5h93.3c0.9,0,1.6,0.7,1.6,1.5
		S969.4,502.7,968.5,502.7z"/>
	<path class="st0" d="M998.4,502.7h-10.4c-0.9,0-1.6-0.7-1.6-1.5s0.7-1.5,1.6-1.5h10.4c0.9,0,1.6,0.7,1.6,1.5
		S999.3,502.7,998.4,502.7z"/>
	<path class="st0" d="M75.4,480.5H46c-0.9,0-1.6-0.7-1.6-1.5s0.7-1.5,1.6-1.5h29.4c0.9,0,1.6,0.7,1.6,1.5S76.2,480.5,75.4,480.5z"/>
	<path class="st0" d="M198.2,480.5h-114c-0.9,0-1.6-0.7-1.6-1.5s0.7-1.5,1.6-1.5h114c0.9,0,1.6,0.7,1.6,1.5S199,480.5,198.2,480.5z"
		/>
	<path class="st0" d="M237,480.5h-30.8c-0.9,0-1.6-0.7-1.6-1.5s0.7-1.5,1.6-1.5H237c0.9,0,1.6,0.7,1.6,1.5S237.9,480.5,237,480.5z"
		/>
	<path class="st0" d="M275.4,480.5h-30.8c-0.9,0-1.6-0.7-1.6-1.5s0.7-1.5,1.6-1.5h30.8c0.9,0,1.6,0.7,1.6,1.5
		S276.3,480.5,275.4,480.5z"/>
	<path class="st0" d="M489.9,480.5h-211c-0.9,0-1.6-0.7-1.6-1.5s0.7-1.5,1.6-1.5h211c0.9,0,1.6,0.7,1.6,1.5S490.8,480.5,489.9,480.5
		z"/>
	<path class="st0" d="M560.1,480.5h-63.1c-0.9,0-1.6-0.7-1.6-1.5s0.7-1.5,1.6-1.5h63.1c0.9,0,1.6,0.7,1.6,1.5S561,480.5,560.1,480.5
		z"/>
	<path class="st0" d="M706.5,480.5H566.1c-0.9,0-1.6-0.7-1.6-1.5s0.7-1.5,1.6-1.5h140.3c0.9,0,1.6,0.7,1.6,1.5
		S707.3,480.5,706.5,480.5z"/>
	<path class="st0" d="M768.7,480.5h-56.9c-0.9,0-1.6-0.7-1.6-1.5s0.7-1.5,1.6-1.5h56.9c0.9,0,1.6,0.7,1.6,1.5
		S769.5,480.5,768.7,480.5z"/>
	<path class="st0" d="M883,480.5H778c-0.9,0-1.6-0.7-1.6-1.5s0.7-1.5,1.6-1.5h105c0.9,0,1.6,0.7,1.6,1.5S883.9,480.5,883,480.5z"/>
	<path class="st0" d="M927,480.5h-36.8c-0.9,0-1.6-0.7-1.6-1.5s0.7-1.5,1.6-1.5H927c0.9,0,1.6,0.7,1.6,1.5S927.9,480.5,927,480.5z"
		/>
	<path class="st0" d="M997.4,480.5h-57.7c-0.9,0-1.6-0.7-1.6-1.5s0.7-1.5,1.6-1.5h57.7c0.9,0,1.6,0.7,1.6,1.5
		S998.3,480.5,997.4,480.5z"/>
	<path class="st0" d="M256.4,458.4h-137c-0.9,0-1.6-0.7-1.6-1.5c0-0.9,0.7-1.5,1.6-1.5h137c0.9,0,1.6,0.7,1.6,1.5
		C258,457.7,257.3,458.4,256.4,458.4z"/>
	<path class="st0" d="M291.2,458.4h-24.5c-0.9,0-1.6-0.7-1.6-1.5c0-0.9,0.7-1.5,1.6-1.5h24.5c0.9,0,1.6,0.7,1.6,1.5
		C292.7,457.7,292,458.4,291.2,458.4z"/>
	<path class="st0" d="M421.6,458.4H297.4c-0.9,0-1.6-0.7-1.6-1.5c0-0.9,0.7-1.5,1.6-1.5h124.2c0.9,0,1.6,0.7,1.6,1.5
		C423.1,457.7,422.4,458.4,421.6,458.4z"/>
	<path class="st0" d="M524,458.4h-92.6c-0.9,0-1.6-0.7-1.6-1.5c0-0.9,0.7-1.5,1.6-1.5H524c0.9,0,1.6,0.7,1.6,1.5
		C525.6,457.7,524.9,458.4,524,458.4z"/>
	<path class="st0" d="M552.8,458.4h-21.7c-0.9,0-1.6-0.7-1.6-1.5c0-0.9,0.7-1.5,1.6-1.5h21.7c0.9,0,1.6,0.7,1.6,1.5
		C554.4,457.7,553.7,458.4,552.8,458.4z"/>
	<path class="st0" d="M566.1,458.4h-6c-0.9,0-1.6-0.7-1.6-1.5c0-0.9,0.7-1.5,1.6-1.5h6c0.9,0,1.6,0.7,1.6,1.5
		C567.7,457.7,567,458.4,566.1,458.4z"/>
	<path class="st0" d="M578,458.4h-6c-0.9,0-1.6-0.7-1.6-1.5c0-0.9,0.7-1.5,1.6-1.5h6c0.9,0,1.6,0.7,1.6,1.5
		C579.6,457.7,578.9,458.4,578,458.4z"/>
	<path class="st0" d="M633.4,458.4H584c-0.9,0-1.6-0.7-1.6-1.5c0-0.9,0.7-1.5,1.6-1.5h49.5c0.9,0,1.6,0.7,1.6,1.5
		C635,457.7,634.3,458.4,633.4,458.4z"/>
	<path class="st0" d="M655.6,458.4h-16.3c-0.9,0-1.6-0.7-1.6-1.5c0-0.9,0.7-1.5,1.6-1.5h16.3c0.9,0,1.6,0.7,1.6,1.5
		C657.2,457.7,656.5,458.4,655.6,458.4z"/>
	<path class="st0" d="M815.7,458.4H660.6c-0.9,0-1.6-0.7-1.6-1.5c0-0.9,0.7-1.5,1.6-1.5h155.1c0.9,0,1.6,0.7,1.6,1.5
		C817.2,457.7,816.5,458.4,815.7,458.4z"/>
	<path class="st0" d="M997.4,458.4H824.7c-0.9,0-1.6-0.7-1.6-1.5c0-0.9,0.7-1.5,1.6-1.5h172.8c0.9,0,1.6,0.7,1.6,1.5
		C999,457.7,998.3,458.4,997.4,458.4z"/>
	<path class="st0" d="M256.4,434.2H57.8c-0.9,0-1.6-0.7-1.6-1.5s0.7-1.5,1.6-1.5h198.6c0.9,0,1.6,0.7,1.6,1.5
		S257.3,434.2,256.4,434.2z"/>
	<path class="st0" d="M286.2,434.2h-21.6c-0.9,0-1.6-0.7-1.6-1.5s0.7-1.5,1.6-1.5h21.6c0.9,0,1.6,0.7,1.6,1.5
		S287.1,434.2,286.2,434.2z"/>
	<path class="st0" d="M363.4,434.2h-72.2c-0.9,0-1.6-0.7-1.6-1.5s0.7-1.5,1.6-1.5h72.2c0.9,0,1.6,0.7,1.6,1.5
		S364.3,434.2,363.4,434.2z"/>
	<path class="st0" d="M682.3,434.2H374.8c-0.9,0-1.6-0.7-1.6-1.5s0.7-1.5,1.6-1.5h307.6c0.9,0,1.6,0.7,1.6,1.5
		S683.2,434.2,682.3,434.2z"/>
	<path class="st0" d="M261.5,410H110.2c-0.9,0-1.6-0.7-1.6-1.5s0.7-1.5,1.6-1.5h151.2c0.9,0,1.6,0.7,1.6,1.5S262.3,410,261.5,410z"
		/>
	<path class="st0" d="M278.1,410h-12.2c-0.9,0-1.6-0.7-1.6-1.5s0.7-1.5,1.6-1.5h12.2c0.9,0,1.6,0.7,1.6,1.5S278.9,410,278.1,410z"/>
	<path class="st0" d="M403.6,410H286.2c-0.9,0-1.6-0.7-1.6-1.5s0.7-1.5,1.6-1.5h117.4c0.9,0,1.6,0.7,1.6,1.5S404.5,410,403.6,410z"
		/>
	<path class="st0" d="M415.8,410H406c-0.9,0-1.6-0.7-1.6-1.5s0.7-1.5,1.6-1.5h9.8c0.9,0,1.6,0.7,1.6,1.5S416.6,410,415.8,410z"/>
	<path class="st0" d="M460.4,410h-40.2c-0.9,0-1.6-0.7-1.6-1.5s0.7-1.5,1.6-1.5h40.2c0.9,0,1.6,0.7,1.6,1.5S461.2,410,460.4,410z"/>
	<path class="st0" d="M581.8,410H469.4c-0.9,0-1.6-0.7-1.6-1.5s0.7-1.5,1.6-1.5h112.5c0.9,0,1.6,0.7,1.6,1.5S582.7,410,581.8,410z"
		/>
	<path class="st0" d="M626.2,410H590c-0.9,0-1.6-0.7-1.6-1.5s0.7-1.5,1.6-1.5h36.2c0.9,0,1.6,0.7,1.6,1.5S627.1,410,626.2,410z"/>
	<path class="st0" d="M715.5,434.2h-26.8c-0.9,0-1.6-0.7-1.6-1.5s0.7-1.5,1.6-1.5h26.8c0.9,0,1.6,0.7,1.6,1.5
		S716.4,434.2,715.5,434.2z"/>
	<path class="st0" d="M855.4,434.2H727.9c-0.9,0-1.6-0.7-1.6-1.5s0.7-1.5,1.6-1.5h127.5c0.9,0,1.6,0.7,1.6,1.5
		S856.3,434.2,855.4,434.2z"/>
	<path class="st0" d="M951.8,434.2h-89.1c-0.9,0-1.6-0.7-1.6-1.5s0.7-1.5,1.6-1.5h89.1c0.9,0,1.6,0.7,1.6,1.5
		S952.7,434.2,951.8,434.2z"/>
	<path class="st0" d="M997.4,434.2h-37c-0.9,0-1.6-0.7-1.6-1.5s0.7-1.5,1.6-1.5h37c0.9,0,1.6,0.7,1.6,1.5S998.3,434.2,997.4,434.2z"
		/>
	<path class="st0" d="M688.8,410h-57.2c-0.9,0-1.6-0.7-1.6-1.5s0.7-1.5,1.6-1.5h57.2c0.9,0,1.6,0.7,1.6,1.5S689.6,410,688.8,410z"/>
	<path class="st0" d="M951.8,410H697.5c-0.9,0-1.6-0.7-1.6-1.5s0.7-1.5,1.6-1.5h254.3c0.9,0,1.6,0.7,1.6,1.5S952.7,410,951.8,410z"
		/>
	<path class="st0" d="M135.2,389.8h-121c-0.9,0-1.6-0.7-1.6-1.5c0-0.9,0.7-1.5,1.6-1.5h121c0.9,0,1.6,0.7,1.6,1.5
		C136.8,389.1,136.1,389.8,135.2,389.8z"/>
	<path class="st0" d="M196.4,389.8h-55.6c-0.9,0-1.6-0.7-1.6-1.5c0-0.9,0.7-1.5,1.6-1.5h55.6c0.9,0,1.6,0.7,1.6,1.5
		C198,389.1,197.3,389.8,196.4,389.8z"/>
	<path class="st0" d="M261.5,389.8h-59.2c-0.9,0-1.6-0.7-1.6-1.5c0-0.9,0.7-1.5,1.6-1.5h59.2c0.9,0,1.6,0.7,1.6,1.5
		C263,389.1,262.3,389.8,261.5,389.8z"/>
	<path class="st0" d="M319.8,389.8h-50.9c-0.9,0-1.6-0.7-1.6-1.5c0-0.9,0.7-1.5,1.6-1.5h50.9c0.9,0,1.6,0.7,1.6,1.5
		C321.4,389.1,320.7,389.8,319.8,389.8z"/>
	<path class="st0" d="M435.6,389.8H326.9c-0.9,0-1.6-0.7-1.6-1.5c0-0.9,0.7-1.5,1.6-1.5h108.7c0.9,0,1.6,0.7,1.6,1.5
		C437.1,389.1,436.4,389.8,435.6,389.8z"/>
	<path class="st0" d="M499.1,389.8h-54.3c-0.9,0-1.6-0.7-1.6-1.5c0-0.9,0.7-1.5,1.6-1.5h54.3c0.9,0,1.6,0.7,1.6,1.5
		C500.7,389.1,500,389.8,499.1,389.8z"/>
	<path class="st0" d="M621.4,389.8h-115c-0.9,0-1.6-0.7-1.6-1.5c0-0.9,0.7-1.5,1.6-1.5h115c0.9,0,1.6,0.7,1.6,1.5
		C622.9,389.1,622.2,389.8,621.4,389.8z"/>
	<path class="st0" d="M711.9,389.8h-85.7c-0.9,0-1.6-0.7-1.6-1.5c0-0.9,0.7-1.5,1.6-1.5h85.7c0.9,0,1.6,0.7,1.6,1.5
		C713.5,389.1,712.8,389.8,711.9,389.8z"/>
	<path class="st0" d="M772.5,389.8h-52c-0.9,0-1.6-0.7-1.6-1.5c0-0.9,0.7-1.5,1.6-1.5h52c0.9,0,1.6,0.7,1.6,1.5
		C774.1,389.1,773.4,389.8,772.5,389.8z"/>
	<path class="st0" d="M820.6,389.8h-42.8c-0.9,0-1.6-0.7-1.6-1.5c0-0.9,0.7-1.5,1.6-1.5h42.8c0.9,0,1.6,0.7,1.6,1.5
		C822.2,389.1,821.5,389.8,820.6,389.8z"/>
	<path class="st0" d="M903.6,389.8h-74.4c-0.9,0-1.6-0.7-1.6-1.5c0-0.9,0.7-1.5,1.6-1.5h74.4c0.9,0,1.6,0.7,1.6,1.5
		C905.1,389.1,904.4,389.8,903.6,389.8z"/>
	<path class="st0" d="M926.5,389.8h-18.2c-0.9,0-1.6-0.7-1.6-1.5c0-0.9,0.7-1.5,1.6-1.5h18.2c0.9,0,1.6,0.7,1.6,1.5
		C928,389.1,927.3,389.8,926.5,389.8z"/>
	<path class="st0" d="M965,410h-9.1c-0.9,0-1.6-0.7-1.6-1.5s0.7-1.5,1.6-1.5h9.1c0.9,0,1.6,0.7,1.6,1.5S965.8,410,965,410z"/>
	<path class="st0" d="M997.4,410h-26.1c-0.9,0-1.6-0.7-1.6-1.5s0.7-1.5,1.6-1.5h26.1c0.9,0,1.6,0.7,1.6,1.5S998.3,410,997.4,410z"/>
	<path class="st0" d="M997.4,389.8h-64.9c-0.9,0-1.6-0.7-1.6-1.5c0-0.9,0.7-1.5,1.6-1.5h64.9c0.9,0,1.6,0.7,1.6,1.5
		C999,389.1,998.3,389.8,997.4,389.8z"/>
	<path class="st0" d="M997.4,366.6h-85.6c-0.9,0-1.6-0.7-1.6-1.5c0-0.9,0.7-1.5,1.6-1.5h85.6c0.9,0,1.6,0.7,1.6,1.5
		C999,365.9,998.3,366.6,997.4,366.6z"/>
	<path class="st0" d="M906.2,366.6H621.4c-0.9,0-1.6-0.7-1.6-1.5c0-0.9,0.7-1.5,1.6-1.5h284.9c0.9,0,1.6,0.7,1.6,1.5
		C907.8,365.9,907.1,366.6,906.2,366.6z"/>
	<path class="st0" d="M45.4,343.4h-6.2c-0.9,0-1.6-0.7-1.6-1.5c0-0.9,0.7-1.5,1.6-1.5h6.2c0.9,0,1.6,0.7,1.6,1.5
		C47,342.7,46.3,343.4,45.4,343.4z"/>
	<path class="st0" d="M99,343.4H49.5c-0.9,0-1.6-0.7-1.6-1.5c0-0.9,0.7-1.5,1.6-1.5H99c0.9,0,1.6,0.7,1.6,1.5
		C100.6,342.7,99.9,343.4,99,343.4z"/>
	<path class="st0" d="M235.6,343.4H105c-0.9,0-1.6-0.7-1.6-1.5c0-0.9,0.7-1.5,1.6-1.5h130.6c0.9,0,1.6,0.7,1.6,1.5
		C237.1,342.7,236.5,343.4,235.6,343.4z"/>
	<path class="st0" d="M250.8,343.4h-8.3c-0.9,0-1.6-0.7-1.6-1.5c0-0.9,0.7-1.5,1.6-1.5h8.3c0.9,0,1.6,0.7,1.6,1.5
		C252.3,342.7,251.6,343.4,250.8,343.4z"/>
	<path class="st0" d="M231.9,366.6h-29.6c-0.9,0-1.6-0.7-1.6-1.5c0-0.9,0.7-1.5,1.6-1.5h29.6c0.9,0,1.6,0.7,1.6,1.5
		C233.4,365.9,232.7,366.6,231.9,366.6z"/>
	<path class="st0" d="M196.4,366.6H2.8c-0.9,0-1.6-0.7-1.6-1.5c0-0.9,0.7-1.5,1.6-1.5h193.6c0.9,0,1.6,0.7,1.6,1.5
		C198,365.9,197.3,366.6,196.4,366.6z"/>
	<path class="st0" d="M401.4,343.4H257.9c-0.9,0-1.6-0.7-1.6-1.5c0-0.9,0.7-1.5,1.6-1.5h143.5c0.9,0,1.6,0.7,1.6,1.5
		C402.9,342.7,402.2,343.4,401.4,343.4z"/>
	<path class="st0" d="M460.4,343.4H406c-0.9,0-1.6-0.7-1.6-1.5c0-0.9,0.7-1.5,1.6-1.5h54.4c0.9,0,1.6,0.7,1.6,1.5
		C461.9,342.7,461.2,343.4,460.4,343.4z"/>
	<path class="st0" d="M479.1,343.4H468c-0.9,0-1.6-0.7-1.6-1.5c0-0.9,0.7-1.5,1.6-1.5h11.2c0.9,0,1.6,0.7,1.6,1.5
		C480.7,342.7,480,343.4,479.1,343.4z"/>
	<path class="st0" d="M617.9,366.6h-11.2c-0.9,0-1.6-0.7-1.6-1.5c0-0.9,0.7-1.5,1.6-1.5h11.2c0.9,0,1.6,0.7,1.6,1.5
		C619.4,365.9,618.7,366.6,617.9,366.6z"/>
	<path class="st0" d="M598.6,366.6H460.4c-0.9,0-1.6-0.7-1.6-1.5c0-0.9,0.7-1.5,1.6-1.5h138.2c0.9,0,1.6,0.7,1.6,1.5
		C600.2,365.9,599.5,366.6,598.6,366.6z"/>
	<path class="st0" d="M450.4,366.6H239c-0.9,0-1.6-0.7-1.6-1.5c0-0.9,0.7-1.5,1.6-1.5h211.4c0.9,0,1.6,0.7,1.6,1.5
		C451.9,365.9,451.2,366.6,450.4,366.6z"/>
	<path class="st0" d="M801.9,343.4H488.1c-0.9,0-1.6-0.7-1.6-1.5c0-0.9,0.7-1.5,1.6-1.5h313.8c0.9,0,1.6,0.7,1.6,1.5
		C803.5,342.7,802.8,343.4,801.9,343.4z"/>
	<path class="st0" d="M847.1,343.4h-40.8c-0.9,0-1.6-0.7-1.6-1.5c0-0.9,0.7-1.5,1.6-1.5h40.8c0.9,0,1.6,0.7,1.6,1.5
		C848.6,342.7,847.9,343.4,847.1,343.4z"/>
	<path class="st0" d="M885.3,343.4h-33.1c-0.9,0-1.6-0.7-1.6-1.5c0-0.9,0.7-1.5,1.6-1.5h33.1c0.9,0,1.6,0.7,1.6,1.5
		C886.9,342.7,886.2,343.4,885.3,343.4z"/>
	<path class="st0" d="M997.4,343.4H893.5c-0.9,0-1.6-0.7-1.6-1.5c0-0.9,0.7-1.5,1.6-1.5h103.9c0.9,0,1.6,0.7,1.6,1.5
		C999,342.7,998.3,343.4,997.4,343.4z"/>
	<path class="st0" d="M93.1,321.7H63.6c-0.9,0-1.6-0.7-1.6-1.5c0-0.9,0.7-1.5,1.6-1.5h29.5c0.9,0,1.6,0.7,1.6,1.5
		C94.6,321,94,321.7,93.1,321.7z"/>
	<path class="st0" d="M246.4,321.7H101.1c-0.9,0-1.6-0.7-1.6-1.5c0-0.9,0.7-1.5,1.6-1.5h145.3c0.9,0,1.6,0.7,1.6,1.5
		C247.9,321,247.2,321.7,246.4,321.7z"/>
	<path class="st0" d="M257.9,321.7h-7.1c-0.9,0-1.6-0.7-1.6-1.5c0-0.9,0.7-1.5,1.6-1.5h7.1c0.9,0,1.6,0.7,1.6,1.5
		C259.4,321,258.8,321.7,257.9,321.7z"/>
	<path class="st0" d="M307.8,321.7h-43.2c-0.9,0-1.6-0.7-1.6-1.5c0-0.9,0.7-1.5,1.6-1.5h43.2c0.9,0,1.6,0.7,1.6,1.5
		C309.3,321,308.6,321.7,307.8,321.7z"/>
	<path class="st0" d="M365.6,321.7h-48.2c-0.9,0-1.6-0.7-1.6-1.5c0-0.9,0.7-1.5,1.6-1.5h48.2c0.9,0,1.6,0.7,1.6,1.5
		C367.1,321,366.4,321.7,365.6,321.7z"/>
	<path class="st0" d="M415.8,321.7h-43.3c-0.9,0-1.6-0.7-1.6-1.5c0-0.9,0.7-1.5,1.6-1.5h43.3c0.9,0,1.6,0.7,1.6,1.5
		C417.3,321,416.6,321.7,415.8,321.7z"/>
	<path class="st0" d="M447.7,321.7h-24.3c-0.9,0-1.6-0.7-1.6-1.5c0-0.9,0.7-1.5,1.6-1.5h24.3c0.9,0,1.6,0.7,1.6,1.5
		C449.3,321,448.6,321.7,447.7,321.7z"/>
	<path class="st0" d="M801.9,321.7H455.8c-0.9,0-1.6-0.7-1.6-1.5c0-0.9,0.7-1.5,1.6-1.5h346.1c0.9,0,1.6,0.7,1.6,1.5
		C803.5,321,802.8,321.7,801.9,321.7z"/>
	<path class="st0" d="M903.6,321.7h-92.2c-0.9,0-1.6-0.7-1.6-1.5c0-0.9,0.7-1.5,1.6-1.5h92.2c0.9,0,1.6,0.7,1.6,1.5
		C905.1,321,904.4,321.7,903.6,321.7z"/>
	<path class="st0" d="M997.4,321.7h-87.3c-0.9,0-1.6-0.7-1.6-1.5c0-0.9,0.7-1.5,1.6-1.5h87.3c0.9,0,1.6,0.7,1.6,1.5
		C999,321,998.3,321.7,997.4,321.7z"/>
	<path class="st0" d="M158.3,298.5H27.9c-0.9,0-1.6-0.7-1.6-1.5s0.7-1.5,1.6-1.5h130.5c0.9,0,1.6,0.7,1.6,1.5
		S159.2,298.5,158.3,298.5z"/>
	<path class="st0" d="M264.6,298.5h-95c-0.9,0-1.6-0.7-1.6-1.5s0.7-1.5,1.6-1.5h95c0.9,0,1.6,0.7,1.6,1.5S265.5,298.5,264.6,298.5z"
		/>
	<path class="st0" d="M417.3,298.5H273.6c-0.9,0-1.6-0.7-1.6-1.5s0.7-1.5,1.6-1.5h143.6c0.9,0,1.6,0.7,1.6,1.5
		S418.1,298.5,417.3,298.5z"/>
	<path class="st0" d="M512.5,298.5h-89.1c-0.9,0-1.6-0.7-1.6-1.5s0.7-1.5,1.6-1.5h89.1c0.9,0,1.6,0.7,1.6,1.5
		S513.4,298.5,512.5,298.5z"/>
	<path class="st0" d="M586.3,298.5h-65.5c-0.9,0-1.6-0.7-1.6-1.5s0.7-1.5,1.6-1.5h65.5c0.9,0,1.6,0.7,1.6,1.5
		S587.1,298.5,586.3,298.5z"/>
	<path class="st0" d="M738.2,298.5H599.9c-0.9,0-1.6-0.7-1.6-1.5s0.7-1.5,1.6-1.5h138.3c0.9,0,1.6,0.7,1.6,1.5
		S739.1,298.5,738.2,298.5z"/>
	<path class="st0" d="M868.7,298.5H748.1c-0.9,0-1.6-0.7-1.6-1.5s0.7-1.5,1.6-1.5h120.7c0.9,0,1.6,0.7,1.6,1.5
		S869.6,298.5,868.7,298.5z"/>
	<path class="st0" d="M895.4,298.5h-20.1c-0.9,0-1.6-0.7-1.6-1.5s0.7-1.5,1.6-1.5h20.1c0.9,0,1.6,0.7,1.6,1.5
		S896.3,298.5,895.4,298.5z"/>
	<path class="st0" d="M973.5,298.5h-69.9c-0.9,0-1.6-0.7-1.6-1.5s0.7-1.5,1.6-1.5h69.9c0.9,0,1.6,0.7,1.6,1.5
		S974.3,298.5,973.5,298.5z"/>
	<path class="st0" d="M997.4,298.5h-12c-0.9,0-1.6-0.7-1.6-1.5s0.7-1.5,1.6-1.5h12c0.9,0,1.6,0.7,1.6,1.5S998.3,298.5,997.4,298.5z"
		/>
	<path class="st0" d="M565.1,275.3H107.6c-0.9,0-1.6-0.7-1.6-1.5c0-0.9,0.7-1.5,1.6-1.5h457.5c0.9,0,1.6,0.7,1.6,1.5
		C566.6,274.6,565.9,275.3,565.1,275.3z"/>
	<path class="st0" d="M169.6,230.1H54.9c-0.9,0-1.6-0.7-1.6-1.5c0-0.9,0.7-1.5,1.6-1.5h114.7c0.9,0,1.6,0.7,1.6,1.5
		C171.1,229.4,170.4,230.1,169.6,230.1z"/>
	<path class="st0" d="M312.2,230.1H180.5c-0.9,0-1.6-0.7-1.6-1.5c0-0.9,0.7-1.5,1.6-1.5h131.7c0.9,0,1.6,0.7,1.6,1.5
		C313.8,229.4,313.1,230.1,312.2,230.1z"/>
	<path class="st0" d="M338.9,230.1h-22.4c-0.9,0-1.6-0.7-1.6-1.5c0-0.9,0.7-1.5,1.6-1.5h22.4c0.9,0,1.6,0.7,1.6,1.5
		C340.5,229.4,339.8,230.1,338.9,230.1z"/>
	<path class="st0" d="M496.4,253.9H287.8c-0.9,0-1.6-0.7-1.6-1.5c0-0.9,0.7-1.5,1.6-1.5h208.6c0.9,0,1.6,0.7,1.6,1.5
		C498,253.2,497.3,253.9,496.4,253.9z"/>
	<path class="st0" d="M534.8,253.9h-31.3c-0.9,0-1.6-0.7-1.6-1.5c0-0.9,0.7-1.5,1.6-1.5h31.3c0.9,0,1.6,0.7,1.6,1.5
		C536.4,253.2,535.7,253.9,534.8,253.9z"/>
	<path class="st0" d="M586.3,253.9h-42.4c-0.9,0-1.6-0.7-1.6-1.5c0-0.9,0.7-1.5,1.6-1.5h42.4c0.9,0,1.6,0.7,1.6,1.5
		C587.8,253.2,587.1,253.9,586.3,253.9z"/>
	<path class="st0" d="M642.1,277.6h-67.8c-0.9,0-1.6-0.7-1.6-1.5c0-0.9,0.7-1.5,1.6-1.5h67.8c0.9,0,1.6,0.7,1.6,1.5
		C643.7,276.9,643,277.6,642.1,277.6z"/>
	<path class="st0" d="M704.9,277.6h-53.7c-0.9,0-1.6-0.7-1.6-1.5c0-0.9,0.7-1.5,1.6-1.5h53.7c0.9,0,1.6,0.7,1.6,1.5
		C706.5,276.9,705.8,277.6,704.9,277.6z"/>
	<path class="st0" d="M878.7,277.6H717.9c-0.9,0-1.6-0.7-1.6-1.5c0-0.9,0.7-1.5,1.6-1.5h160.9c0.9,0,1.6,0.7,1.6,1.5
		C880.3,276.9,879.6,277.6,878.7,277.6z"/>
	<path class="st0" d="M967.1,277.6h-74c-0.9,0-1.6-0.7-1.6-1.5c0-0.9,0.7-1.5,1.6-1.5h74c0.9,0,1.6,0.7,1.6,1.5
		C968.6,276.9,967.9,277.6,967.1,277.6z"/>
	<path class="st0" d="M997.4,277.6h-23.9c-0.9,0-1.6-0.7-1.6-1.5c0-0.9,0.7-1.5,1.6-1.5h23.9c0.9,0,1.6,0.7,1.6,1.5
		C999,276.9,998.3,277.6,997.4,277.6z"/>
	<path class="st0" d="M751.1,253.9H593.1c-0.9,0-1.6-0.7-1.6-1.5c0-0.9,0.7-1.5,1.6-1.5h158.1c0.9,0,1.6,0.7,1.6,1.5
		C752.7,253.2,752,253.9,751.1,253.9z"/>
	<path class="st0" d="M935.6,253.9H759c-0.9,0-1.6-0.7-1.6-1.5c0-0.9,0.7-1.5,1.6-1.5h176.6c0.9,0,1.6,0.7,1.6,1.5
		C937.1,253.2,936.5,253.9,935.6,253.9z"/>
	<path class="st0" d="M997.4,253.9h-53.4c-0.9,0-1.6-0.7-1.6-1.5c0-0.9,0.7-1.5,1.6-1.5h53.4c0.9,0,1.6,0.7,1.6,1.5
		C999,253.2,998.3,253.9,997.4,253.9z"/>
	<path class="st0" d="M423.4,230.1h-73.6c-0.9,0-1.6-0.7-1.6-1.5c0-0.9,0.7-1.5,1.6-1.5h73.6c0.9,0,1.6,0.7,1.6,1.5
		C425,229.4,424.3,230.1,423.4,230.1z"/>
	<path class="st0" d="M565.3,230.1h-130c-0.9,0-1.6-0.7-1.6-1.5c0-0.9,0.7-1.5,1.6-1.5h130c0.9,0,1.6,0.7,1.6,1.5
		C566.8,229.4,566.1,230.1,565.3,230.1z"/>
	<path class="st0" d="M674.2,230.1h-98.9c-0.9,0-1.6-0.7-1.6-1.5c0-0.9,0.7-1.5,1.6-1.5h98.9c0.9,0,1.6,0.7,1.6,1.5
		C675.7,229.4,675,230.1,674.2,230.1z"/>
	<path class="st0" d="M717.1,230.1h-33.5c-0.9,0-1.6-0.7-1.6-1.5c0-0.9,0.7-1.5,1.6-1.5h33.5c0.9,0,1.6,0.7,1.6,1.5
		C718.6,229.4,717.9,230.1,717.1,230.1z"/>
	<path class="st0" d="M997.4,230.1H732.1c-0.9,0-1.6-0.7-1.6-1.5c0-0.9,0.7-1.5,1.6-1.5h265.3c0.9,0,1.6,0.7,1.6,1.5
		C999,229.4,998.3,230.1,997.4,230.1z"/>
	<path class="st0" d="M118,208H92.1c-0.9,0-1.6-0.7-1.6-1.5s0.7-1.5,1.6-1.5H118c0.9,0,1.6,0.7,1.6,1.5S118.8,208,118,208z"/>
	<path class="st0" d="M150.9,208H125c-0.9,0-1.6-0.7-1.6-1.5s0.7-1.5,1.6-1.5h25.9c0.9,0,1.6,0.7,1.6,1.5S151.8,208,150.9,208z"/>
	<path class="st0" d="M260.7,208h-105c-0.9,0-1.6-0.7-1.6-1.5s0.7-1.5,1.6-1.5h105c0.9,0,1.6,0.7,1.6,1.5S261.6,208,260.7,208z"/>
	<path class="st0" d="M391.7,208H273.6c-0.9,0-1.6-0.7-1.6-1.5s0.7-1.5,1.6-1.5h118.1c0.9,0,1.6,0.7,1.6,1.5S392.6,208,391.7,208z"
		/>
	<path class="st0" d="M447.6,208h-48.4c-0.9,0-1.6-0.7-1.6-1.5s0.7-1.5,1.6-1.5h48.4c0.9,0,1.6,0.7,1.6,1.5S448.5,208,447.6,208z"/>
	<path class="st0" d="M611.1,208H458.8c-0.9,0-1.6-0.7-1.6-1.5s0.7-1.5,1.6-1.5h152.3c0.9,0,1.6,0.7,1.6,1.5S611.9,208,611.1,208z"
		/>
	<path class="st0" d="M683.6,208h-64.7c-0.9,0-1.6-0.7-1.6-1.5s0.7-1.5,1.6-1.5h64.7c0.9,0,1.6,0.7,1.6,1.5S684.4,208,683.6,208z"/>
	<path class="st0" d="M713,208h-16.1c-0.9,0-1.6-0.7-1.6-1.5s0.7-1.5,1.6-1.5H713c0.9,0,1.6,0.7,1.6,1.5S713.9,208,713,208z"/>
	<path class="st0" d="M973.5,208h-249c-0.9,0-1.6-0.7-1.6-1.5s0.7-1.5,1.6-1.5h249c0.9,0,1.6,0.7,1.6,1.5S974.3,208,973.5,208z"/>
	<path class="st0" d="M997.4,208h-18.5c-0.9,0-1.6-0.7-1.6-1.5s0.7-1.5,1.6-1.5h18.5c0.9,0,1.6,0.7,1.6,1.5S998.3,208,997.4,208z"/>
	<path class="st0" d="M54.9,185.9h-8.4c-0.9,0-1.6-0.7-1.6-1.5s0.7-1.5,1.6-1.5h8.4c0.9,0,1.6,0.7,1.6,1.5S55.8,185.9,54.9,185.9z"
		/>
	<path class="st0" d="M248,185.9H63.4c-0.9,0-1.6-0.7-1.6-1.5s0.7-1.5,1.6-1.5H248c0.9,0,1.6,0.7,1.6,1.5S248.8,185.9,248,185.9z"/>
	<path class="st0" d="M358.4,185.9H252.1c-0.9,0-1.6-0.7-1.6-1.5s0.7-1.5,1.6-1.5h106.4c0.9,0,1.6,0.7,1.6,1.5
		S359.3,185.9,358.4,185.9z"/>
	<path class="st0" d="M442.1,185.9h-73.4c-0.9,0-1.6-0.7-1.6-1.5s0.7-1.5,1.6-1.5h73.4c0.9,0,1.6,0.7,1.6,1.5
		S442.9,185.9,442.1,185.9z"/>
	<path class="st0" d="M498.8,185.9h-48.8c-0.9,0-1.6-0.7-1.6-1.5s0.7-1.5,1.6-1.5h48.8c0.9,0,1.6,0.7,1.6,1.5
		S499.6,185.9,498.8,185.9z"/>
	<path class="st0" d="M771.6,185.9H508.8c-0.9,0-1.6-0.7-1.6-1.5s0.7-1.5,1.6-1.5h262.7c0.9,0,1.6,0.7,1.6,1.5
		S772.4,185.9,771.6,185.9z"/>
	<path class="st0" d="M907.9,185.9h-130c-0.9,0-1.6-0.7-1.6-1.5s0.7-1.5,1.6-1.5h130c0.9,0,1.6,0.7,1.6,1.5S908.8,185.9,907.9,185.9
		z"/>
	<path class="st0" d="M997.4,185.9h-78.1c-0.9,0-1.6-0.7-1.6-1.5s0.7-1.5,1.6-1.5h78.1c0.9,0,1.6,0.7,1.6,1.5
		S998.3,185.9,997.4,185.9z"/>
	<path class="st0" d="M229.1,160.9h-94c-0.9,0-1.6-0.7-1.6-1.5c0-0.9,0.7-1.5,1.6-1.5h94c0.9,0,1.6,0.7,1.6,1.5
		C230.7,160.2,230,160.9,229.1,160.9z"/>
	<path class="st0" d="M364.1,160.9h-121c-0.9,0-1.6-0.7-1.6-1.5c0-0.9,0.7-1.5,1.6-1.5h121c0.9,0,1.6,0.7,1.6,1.5
		C365.7,160.2,365,160.9,364.1,160.9z"/>
	<path class="st0" d="M505.4,160.9H372.9c-0.9,0-1.6-0.7-1.6-1.5c0-0.9,0.7-1.5,1.6-1.5h132.5c0.9,0,1.6,0.7,1.6,1.5
		C506.9,160.2,506.2,160.9,505.4,160.9z"/>
	<path class="st0" d="M558.5,160.9h-47.3c-0.9,0-1.6-0.7-1.6-1.5c0-0.9,0.7-1.5,1.6-1.5h47.3c0.9,0,1.6,0.7,1.6,1.5
		C560,160.2,559.3,160.9,558.5,160.9z"/>
	<path class="st0" d="M765.6,160.9H568.1c-0.9,0-1.6-0.7-1.6-1.5c0-0.9,0.7-1.5,1.6-1.5h197.5c0.9,0,1.6,0.7,1.6,1.5
		C767.2,160.2,766.5,160.9,765.6,160.9z"/>
	<path class="st0" d="M803.9,160.9h-32.3c-0.9,0-1.6-0.7-1.6-1.5c0-0.9,0.7-1.5,1.6-1.5h32.3c0.9,0,1.6,0.7,1.6,1.5
		C805.4,160.2,804.7,160.9,803.9,160.9z"/>
	<path class="st0" d="M997.4,160.9h-186c-0.9,0-1.6-0.7-1.6-1.5c0-0.9,0.7-1.5,1.6-1.5h186c0.9,0,1.6,0.7,1.6,1.5
		C999,160.2,998.3,160.9,997.4,160.9z"/>
	<path class="st0" d="M112.1,119H54.9c-0.9,0-1.6-0.7-1.6-1.5c0-0.9,0.7-1.5,1.6-1.5h57.2c0.9,0,1.6,0.7,1.6,1.5
		C113.7,118.3,113,119,112.1,119z"/>
	<path class="st0" d="M131.3,119h-11.1c-0.9,0-1.6-0.7-1.6-1.5c0-0.9,0.7-1.5,1.6-1.5h11.1c0.9,0,1.6,0.7,1.6,1.5
		C132.8,118.3,132.1,119,131.3,119z"/>
	<path class="st0" d="M191.7,119h-52.2c-0.9,0-1.6-0.7-1.6-1.5c0-0.9,0.7-1.5,1.6-1.5h52.2c0.9,0,1.6,0.7,1.6,1.5
		C193.2,118.3,192.5,119,191.7,119z"/>
	<path class="st0" d="M222.2,119H198c-0.9,0-1.6-0.7-1.6-1.5c0-0.9,0.7-1.5,1.6-1.5h24.2c0.9,0,1.6,0.7,1.6,1.5
		C223.7,118.3,223,119,222.2,119z"/>
	<path class="st0" d="M326.2,139.9h-18.6c-0.9,0-1.6-0.7-1.6-1.5c0-0.9,0.7-1.5,1.6-1.5h18.6c0.9,0,1.6,0.7,1.6,1.5
		C327.7,139.2,327,139.9,326.2,139.9z"/>
	<path class="st0" d="M483,139.9H334.1c-0.9,0-1.6-0.7-1.6-1.5c0-0.9,0.7-1.5,1.6-1.5H483c0.9,0,1.6,0.7,1.6,1.5
		C484.6,139.2,483.9,139.9,483,139.9z"/>
	<path class="st0" d="M577.4,139.9h-88.3c-0.9,0-1.6-0.7-1.6-1.5c0-0.9,0.7-1.5,1.6-1.5h88.3c0.9,0,1.6,0.7,1.6,1.5
		C579,139.2,578.3,139.9,577.4,139.9z"/>
	<path class="st0" d="M611.1,139.9h-23.3c-0.9,0-1.6-0.7-1.6-1.5c0-0.9,0.7-1.5,1.6-1.5h23.3c0.9,0,1.6,0.7,1.6,1.5
		C612.6,139.2,611.9,139.9,611.1,139.9z"/>
	<path class="st0" d="M717.1,139.9h-98.2c-0.9,0-1.6-0.7-1.6-1.5c0-0.9,0.7-1.5,1.6-1.5h98.2c0.9,0,1.6,0.7,1.6,1.5
		C718.6,139.2,717.9,139.9,717.1,139.9z"/>
	<path class="st0" d="M793.6,139.9h-69c-0.9,0-1.6-0.7-1.6-1.5c0-0.9,0.7-1.5,1.6-1.5h69c0.9,0,1.6,0.7,1.6,1.5
		C795.1,139.2,794.4,139.9,793.6,139.9z"/>
	<path class="st0" d="M862.6,139.9h-58.7c-0.9,0-1.6-0.7-1.6-1.5c0-0.9,0.7-1.5,1.6-1.5h58.7c0.9,0,1.6,0.7,1.6,1.5
		C864.2,139.2,863.5,139.9,862.6,139.9z"/>
	<path class="st0" d="M997.4,139.9H873.8c-0.9,0-1.6-0.7-1.6-1.5c0-0.9,0.7-1.5,1.6-1.5h123.6c0.9,0,1.6,0.7,1.6,1.5
		C999,139.2,998.3,139.9,997.4,139.9z"/>
	<path class="st0" d="M361.3,119H229.1c-0.9,0-1.6-0.7-1.6-1.5c0-0.9,0.7-1.5,1.6-1.5h132.1c0.9,0,1.6,0.7,1.6,1.5
		C362.8,118.3,362.1,119,361.3,119z"/>
	<path class="st0" d="M430.3,119h-61.7c-0.9,0-1.6-0.7-1.6-1.5c0-0.9,0.7-1.5,1.6-1.5h61.7c0.9,0,1.6,0.7,1.6,1.5
		C431.9,118.3,431.2,119,430.3,119z"/>
	<path class="st0" d="M568.6,119H442.1c-0.9,0-1.6-0.7-1.6-1.5c0-0.9,0.7-1.5,1.6-1.5h126.6c0.9,0,1.6,0.7,1.6,1.5
		C570.2,118.3,569.5,119,568.6,119z"/>
	<path class="st0" d="M927.6,119H574.7c-0.9,0-1.6-0.7-1.6-1.5c0-0.9,0.7-1.5,1.6-1.5h352.9c0.9,0,1.6,0.7,1.6,1.5
		C929.1,118.3,928.4,119,927.6,119z"/>
	<path class="st0" d="M212.4,95.4H77.7c-0.9,0-1.6-0.7-1.6-1.5c0-0.9,0.7-1.5,1.6-1.5h134.7c0.9,0,1.6,0.7,1.6,1.5
		C214,94.7,213.3,95.4,212.4,95.4z"/>
	<path class="st0" d="M299,95.4h-81c-0.9,0-1.6-0.7-1.6-1.5c0-0.9,0.7-1.5,1.6-1.5h81c0.9,0,1.6,0.7,1.6,1.5
		C300.6,94.7,299.9,95.4,299,95.4z"/>
	<path class="st0" d="M433.3,95.4H312.2c-0.9,0-1.6-0.7-1.6-1.5c0-0.9,0.7-1.5,1.6-1.5h121.1c0.9,0,1.6,0.7,1.6,1.5
		C434.9,94.7,434.2,95.4,433.3,95.4z"/>
	<path class="st0" d="M512.6,95.4h-72.4c-0.9,0-1.6-0.7-1.6-1.5c0-0.9,0.7-1.5,1.6-1.5h72.4c0.9,0,1.6,0.7,1.6,1.5
		C514.2,94.7,513.5,95.4,512.6,95.4z"/>
	<path class="st0" d="M574.8,95.4h-49.6c-0.9,0-1.6-0.7-1.6-1.5c0-0.9,0.7-1.5,1.6-1.5h49.6c0.9,0,1.6,0.7,1.6,1.5
		C576.4,94.7,575.7,95.4,574.8,95.4z"/>
	<path class="st0" d="M600.3,95.4h-15.6c-0.9,0-1.6-0.7-1.6-1.5c0-0.9,0.7-1.5,1.6-1.5h15.6c0.9,0,1.6,0.7,1.6,1.5
		C601.8,94.7,601.1,95.4,600.3,95.4z"/>
	<path class="st0" d="M626.7,95.4h-15.6c-0.9,0-1.6-0.7-1.6-1.5c0-0.9,0.7-1.5,1.6-1.5h15.6c0.9,0,1.6,0.7,1.6,1.5
		C628.2,94.7,627.5,95.4,626.7,95.4z"/>
	<path class="st0" d="M687.2,95.4H638c-0.9,0-1.6-0.7-1.6-1.5c0-0.9,0.7-1.5,1.6-1.5h49.2c0.9,0,1.6,0.7,1.6,1.5
		C688.7,94.7,688,95.4,687.2,95.4z"/>
	<path class="st0" d="M814.7,95.4H694.9c-0.9,0-1.6-0.7-1.6-1.5c0-0.9,0.7-1.5,1.6-1.5h119.8c0.9,0,1.6,0.7,1.6,1.5
		C816.2,94.7,815.5,95.4,814.7,95.4z"/>
	<path class="st0" d="M897.5,95.4h-74.7c-0.9,0-1.6-0.7-1.6-1.5c0-0.9,0.7-1.5,1.6-1.5h74.7c0.9,0,1.6,0.7,1.6,1.5
		C899,94.7,898.3,95.4,897.5,95.4z"/>
	<path class="st0" d="M958.6,95.4h-55.4c-0.9,0-1.6-0.7-1.6-1.5c0-0.9,0.7-1.5,1.6-1.5h55.4c0.9,0,1.6,0.7,1.6,1.5
		C960.1,94.7,959.5,95.4,958.6,95.4z"/>
	<path class="st0" d="M994.9,95.4h-25.2c-0.9,0-1.6-0.7-1.6-1.5c0-0.9,0.7-1.5,1.6-1.5h25.2c0.9,0,1.6,0.7,1.6,1.5
		C996.5,94.7,995.8,95.4,994.9,95.4z"/>
	<path class="st0" d="M997.4,119h-64.1c-0.9,0-1.6-0.7-1.6-1.5c0-0.9,0.7-1.5,1.6-1.5h64.1c0.9,0,1.6,0.7,1.6,1.5
		C999,118.3,998.3,119,997.4,119z"/>
	<path class="st0" d="M73.8,71.8H59.7c-0.9,0-1.6-0.7-1.6-1.5c0-0.9,0.7-1.5,1.6-1.5h14.1c0.9,0,1.6,0.7,1.6,1.5
		C75.4,71.1,74.7,71.8,73.8,71.8z"/>
	<path class="st0" d="M112.1,71.8H80.6c-0.9,0-1.6-0.7-1.6-1.5c0-0.9,0.7-1.5,1.6-1.5h31.5c0.9,0,1.6,0.7,1.6,1.5
		C113.7,71.1,113,71.8,112.1,71.8z"/>
	<path class="st0" d="M170.2,71.8h-50.1c-0.9,0-1.6-0.7-1.6-1.5c0-0.9,0.7-1.5,1.6-1.5h50.1c0.9,0,1.6,0.7,1.6,1.5
		C171.8,71.1,171.1,71.8,170.2,71.8z"/>
	<path class="st0" d="M187.9,71.8h-10c-0.9,0-1.6-0.7-1.6-1.5c0-0.9,0.7-1.5,1.6-1.5h10c0.9,0,1.6,0.7,1.6,1.5
		C189.5,71.1,188.8,71.8,187.9,71.8z"/>
	<path class="st0" d="M293.2,71.8H198c-0.9,0-1.6-0.7-1.6-1.5c0-0.9,0.7-1.5,1.6-1.5h95.2c0.9,0,1.6,0.7,1.6,1.5
		C294.7,71.1,294,71.8,293.2,71.8z"/>
	<path class="st0" d="M536.3,71.8H302.9c-0.9,0-1.6-0.7-1.6-1.5c0-0.9,0.7-1.5,1.6-1.5h233.4c0.9,0,1.6,0.7,1.6,1.5
		C537.9,71.1,537.2,71.8,536.3,71.8z"/>
	<path class="st0" d="M561.4,71.8h-15.9c-0.9,0-1.6-0.7-1.6-1.5c0-0.9,0.7-1.5,1.6-1.5h15.9c0.9,0,1.6,0.7,1.6,1.5
		C562.9,71.1,562.3,71.8,561.4,71.8z"/>
	<path class="st0" d="M631.9,71.8h-63.3c-0.9,0-1.6-0.7-1.6-1.5c0-0.9,0.7-1.5,1.6-1.5h63.3c0.9,0,1.6,0.7,1.6,1.5
		C633.5,71.1,632.8,71.8,631.9,71.8z"/>
	<path class="st0" d="M841.1,71.8H638c-0.9,0-1.6-0.7-1.6-1.5c0-0.9,0.7-1.5,1.6-1.5h203.1c0.9,0,1.6,0.7,1.6,1.5
		C842.7,71.1,842,71.8,841.1,71.8z"/>
	<path class="st0" d="M878.2,71.8H847c-0.9,0-1.6-0.7-1.6-1.5c0-0.9,0.7-1.5,1.6-1.5h31.2c0.9,0,1.6,0.7,1.6,1.5
		C879.8,71.1,879.1,71.8,878.2,71.8z"/>
	<path class="st0" d="M997.4,71.8H887.5c-0.9,0-1.6-0.7-1.6-1.5c0-0.9,0.7-1.5,1.6-1.5h109.9c0.9,0,1.6,0.7,1.6,1.5
		C999,71.1,998.3,71.8,997.4,71.8z"/>
	<path class="st0" d="M381.1,50.4H38.7c-0.9,0-1.6-0.7-1.6-1.5c0-0.9,0.7-1.5,1.6-1.5h342.3c0.9,0,1.6,0.7,1.6,1.5
		C382.6,49.7,381.9,50.4,381.1,50.4z"/>
	<path class="st0" d="M520.4,50.4H390.5c-0.9,0-1.6-0.7-1.6-1.5c0-0.9,0.7-1.5,1.6-1.5h129.9c0.9,0,1.6,0.7,1.6,1.5
		C521.9,49.7,521.2,50.4,520.4,50.4z"/>
	<path class="st0" d="M555.3,50.4h-25.5c-0.9,0-1.6-0.7-1.6-1.5c0-0.9,0.7-1.5,1.6-1.5h25.5c0.9,0,1.6,0.7,1.6,1.5
		C556.8,49.7,556.1,50.4,555.3,50.4z"/>
	<path class="st0" d="M591.8,50.4h-30.4c-0.9,0-1.6-0.7-1.6-1.5c0-0.9,0.7-1.5,1.6-1.5h30.4c0.9,0,1.6,0.7,1.6,1.5
		C593.3,49.7,592.6,50.4,591.8,50.4z"/>
	<path class="st0" d="M614.2,50.4H599c-0.9,0-1.6-0.7-1.6-1.5c0-0.9,0.7-1.5,1.6-1.5h15.2c0.9,0,1.6,0.7,1.6,1.5
		C615.7,49.7,615,50.4,614.2,50.4z"/>
	<path class="st0" d="M814.7,50.4H624.3c-0.9,0-1.6-0.7-1.6-1.5c0-0.9,0.7-1.5,1.6-1.5h190.3c0.9,0,1.6,0.7,1.6,1.5
		C816.2,49.7,815.5,50.4,814.7,50.4z"/>
	<path class="st0" d="M948.6,50.4H825.4c-0.9,0-1.6-0.7-1.6-1.5c0-0.9,0.7-1.5,1.6-1.5h123.2c0.9,0,1.6,0.7,1.6,1.5
		C950.1,49.7,949.4,50.4,948.6,50.4z"/>
	<path class="st0" d="M997.4,50.4h-43.1c-0.9,0-1.6-0.7-1.6-1.5c0-0.9,0.7-1.5,1.6-1.5h43.1c0.9,0,1.6,0.7,1.6,1.5
		C999,49.7,998.3,50.4,997.4,50.4z"/>
	<path class="st0" d="M170.2,26.7h-56c-0.9,0-1.6-0.7-1.6-1.5s0.7-1.5,1.6-1.5h56c0.9,0,1.6,0.7,1.6,1.5S171.1,26.7,170.2,26.7z"/>
	<path class="st0" d="M203,26.7h-20.1c-0.9,0-1.6-0.7-1.6-1.5s0.7-1.5,1.6-1.5H203c0.9,0,1.6,0.7,1.6,1.5S203.8,26.7,203,26.7z"/>
	<path class="st0" d="M352.7,26.7H212.4c-0.9,0-1.6-0.7-1.6-1.5s0.7-1.5,1.6-1.5h140.3c0.9,0,1.6,0.7,1.6,1.5S353.6,26.7,352.7,26.7
		z"/>
	<path class="st0" d="M390.5,26.7h-26.3c-0.9,0-1.6-0.7-1.6-1.5s0.7-1.5,1.6-1.5h26.3c0.9,0,1.6,0.7,1.6,1.5S391.3,26.7,390.5,26.7z
		"/>
	<path class="st0" d="M567.9,26.7H398.1c-0.9,0-1.6-0.7-1.6-1.5s0.7-1.5,1.6-1.5h169.8c0.9,0,1.6,0.7,1.6,1.5S568.8,26.7,567.9,26.7
		z"/>
	<path class="st0" d="M725.2,26.7H577.4c-0.9,0-1.6-0.7-1.6-1.5s0.7-1.5,1.6-1.5h147.8c0.9,0,1.6,0.7,1.6,1.5S726.1,26.7,725.2,26.7
		z"/>
	<path class="st0" d="M772.3,26.7h-37.9c-0.9,0-1.6-0.7-1.6-1.5s0.7-1.5,1.6-1.5h37.9c0.9,0,1.6,0.7,1.6,1.5S773.2,26.7,772.3,26.7z
		"/>
	<path class="st0" d="M903.2,26.7H773.6c-0.9,0-1.6-0.7-1.6-1.5s0.7-1.5,1.6-1.5h129.5c0.9,0,1.6,0.7,1.6,1.5S904,26.7,903.2,26.7z"
		/>
	<path class="st0" d="M997.4,26.7h-86.3c-0.9,0-1.6-0.7-1.6-1.5s0.7-1.5,1.6-1.5h86.3c0.9,0,1.6,0.7,1.6,1.5S998.3,26.7,997.4,26.7z
		"/>
	<path class="st0" d="M622.8,3.1H133.2c-0.9,0-1.6-0.7-1.6-1.5s0.7-1.5,1.6-1.5h489.7c0.9,0,1.6,0.7,1.6,1.5S623.7,3.1,622.8,3.1z"
		/>
	<path class="st0" d="M997.4,3.1H631.9c-0.9,0-1.6-0.7-1.6-1.5s0.7-1.5,1.6-1.5h365.5c0.9,0,1.6,0.7,1.6,1.5S998.3,3.1,997.4,3.1z"
		/>
</g>
</svg>
