<svg version="1.1" id="Шар_1" xmlns="http://www.w3.org/2000/svg" x="0" y="0" viewBox="0 0 1000 1000" style="enable-background:new 0 0 1000 1000" xml:space="preserve"><style>.st0{fill:#fff}</style><path class="st0" d="M126.1 3.1H2.4C1.5 3.1.8 2.4.8 1.6S1.5 0 2.4 0h123.8c.9 0 1.6.7 1.6 1.5s-.8 1.6-1.7 1.6zm-22.8 23.6H2.8c-.9 0-1.6-.7-1.6-1.5s.7-1.5 1.6-1.5h100.5c.9 0 1.6.7 1.6 1.5s-.7 1.5-1.6 1.5zM31.5 50.4H2.8c-.9 0-1.6-.7-1.6-1.5 0-.9.7-1.5 1.6-1.5h28.7c.9 0 1.6.7 1.6 1.5s-.7 1.5-1.6 1.5zm20.1 21.4H2.8c-.9 0-1.6-.7-1.6-1.5 0-.9.7-1.5 1.6-1.5h48.8c.9 0 1.6.7 1.6 1.5s-.7 1.5-1.6 1.5zm20 23.6H2.8c-.9 0-1.6-.7-1.6-1.5 0-.9.7-1.5 1.6-1.5h68.8c.9 0 1.6.7 1.6 1.5s-.7 1.5-1.6 1.5zM48.4 119H2.8c-.9 0-1.6-.7-1.6-1.5 0-.9.7-1.5 1.6-1.5h45.6c.9 0 1.6.7 1.6 1.5s-.7 1.5-1.6 1.5zM299 139.9H2.8c-.9 0-1.6-.7-1.6-1.5 0-.9.7-1.5 1.6-1.5H299c.9 0 1.6.7 1.6 1.5s-.7 1.5-1.6 1.5zm-170.5 21H2.8c-.9 0-1.6-.7-1.6-1.5 0-.9.7-1.5 1.6-1.5h125.6c.9 0 1.6.7 1.6 1.5s-.7 1.5-1.5 1.5zm-92.9 25H2.8c-.9 0-1.6-.7-1.6-1.5s.7-1.5 1.6-1.5h32.7c.9 0 1.6.7 1.6 1.5s-.7 1.5-1.5 1.5zm48 22.1H2.8c-.9 0-1.6-.7-1.6-1.5s.7-1.5 1.6-1.5h80.8c.9 0 1.6.7 1.6 1.5s-.7 1.5-1.6 1.5zm-40.4 22.1H2.8c-.9 0-1.6-.7-1.6-1.5 0-.9.7-1.5 1.6-1.5h40.4c.9 0 1.6.7 1.6 1.5s-.7 1.5-1.6 1.5zm238 23.8H2.8c-.9 0-1.6-.7-1.6-1.5 0-.9.7-1.5 1.6-1.5h278.4c.9 0 1.6.7 1.6 1.5s-.7 1.5-1.6 1.5zM99 275.3H2.8c-.9 0-1.6-.7-1.6-1.5 0-.9.7-1.5 1.6-1.5H99c.9 0 1.6.7 1.6 1.5s-.7 1.5-1.6 1.5zm-83.9 23.2H2.8c-.9 0-1.6-.7-1.6-1.5s.7-1.5 1.6-1.5h12.3c.9 0 1.6.7 1.6 1.5s-.7 1.5-1.6 1.5zm42.7 23.2h-55c-.9 0-1.6-.7-1.6-1.5 0-.9.7-1.5 1.6-1.5h54.9c.9 0 1.6.7 1.6 1.5s-.7 1.5-1.5 1.5zm-24.4 21.7H2.8c-.9 0-1.6-.7-1.6-1.5 0-.9.7-1.5 1.6-1.5h30.6c.9 0 1.6.7 1.6 1.5s-.7 1.5-1.6 1.5zm-22.8 46.4H2.8c-.9 0-1.6-.7-1.6-1.5 0-.9.7-1.5 1.6-1.5h7.8c.9 0 1.6.7 1.6 1.5-.1.8-.8 1.5-1.6 1.5zM99 410H2.8c-.9 0-1.6-.7-1.6-1.5s.7-1.5 1.6-1.5H99c.9 0 1.6.7 1.6 1.5s-.7 1.5-1.6 1.5zm-44.5 24.2H2.8c-.9 0-1.6-.7-1.6-1.5s.7-1.5 1.6-1.5h51.7c.9 0 1.6.7 1.6 1.5s-.7 1.5-1.6 1.5zm59.1 24.2H2.8c-.9 0-1.6-.7-1.6-1.5 0-.9.7-1.5 1.6-1.5h110.8c.9 0 1.6.7 1.6 1.5-.1.8-.8 1.5-1.6 1.5zm-76.8 22.1h-34c-.9 0-1.6-.7-1.6-1.5s.7-1.5 1.6-1.5h34c.9 0 1.6.7 1.6 1.5s-.7 1.5-1.6 1.5zm101.1 22.2H2.8c-.9 0-1.6-.7-1.6-1.5s.7-1.5 1.6-1.5h135.1c.9 0 1.6.7 1.6 1.5s-.7 1.5-1.6 1.5zm42.1 22.2H2.8c-.9 0-1.6-.7-1.6-1.5 0-.9.7-1.5 1.6-1.5H180c.9 0 1.6.7 1.6 1.5-.1.8-.8 1.5-1.6 1.5zM132.1 547H2.8c-.9 0-1.6-.7-1.6-1.5s.7-1.5 1.6-1.5h129.3c.9 0 1.6.7 1.6 1.5s-.7 1.5-1.6 1.5zm-36.6 24.5H2.8c-.9 0-1.6-.7-1.6-1.5s.7-1.5 1.6-1.5h92.7c.9 0 1.6.7 1.6 1.5s-.7 1.5-1.6 1.5zm0 21.7H2.8c-.9 0-1.6-.7-1.6-1.5s.7-1.5 1.6-1.5h92.7c.9 0 1.6.7 1.6 1.5s-.7 1.5-1.6 1.5zm145.1 0H104c-.9 0-1.6-.7-1.6-1.5s.7-1.5 1.6-1.5h136.6c.9 0 1.6.7 1.6 1.5s-.7 1.5-1.6 1.5zm138.2 0h-126c-.9 0-1.6-.7-1.6-1.5s.7-1.5 1.6-1.5h126c.9 0 1.6.7 1.6 1.5s-.8 1.5-1.6 1.5zm53.4 0h-43.6c-.9 0-1.6-.7-1.6-1.5s.7-1.5 1.6-1.5h43.6c.9 0 1.6.7 1.6 1.5s-.7 1.5-1.6 1.5zm97.6 0h-88.3c-.9 0-1.6-.7-1.6-1.5s.7-1.5 1.6-1.5h88.3c.9 0 1.6.7 1.6 1.5s-.7 1.5-1.6 1.5zm77.1 0h-70.5c-.9 0-1.6-.7-1.6-1.5s.7-1.5 1.6-1.5h70.5c.9 0 1.6.7 1.6 1.5s-.8 1.5-1.6 1.5zm125 0h-114c-.9 0-1.6-.7-1.6-1.5s.7-1.5 1.6-1.5h113.9c.9 0 1.6.7 1.6 1.5s-.7 1.5-1.5 1.5zm104 0h-97.7c-.9 0-1.6-.7-1.6-1.5s.7-1.5 1.6-1.5h97.7c.9 0 1.6.7 1.6 1.5s-.7 1.5-1.6 1.5zm48.6 0h-38.6c-.9 0-1.6-.7-1.6-1.5s.7-1.5 1.6-1.5h38.6c.9 0 1.6.7 1.6 1.5s-.7 1.5-1.6 1.5zm62.5 0h-50.7c-.9 0-1.6-.7-1.6-1.5s.7-1.5 1.6-1.5H947c.9 0 1.6.7 1.6 1.5s-.7 1.5-1.6 1.5zm50.7 0H955c-.9 0-1.6-.7-1.6-1.5s.7-1.5 1.6-1.5h42.7c.9 0 1.6.7 1.6 1.5s-.7 1.5-1.6 1.5zm0 21.7H955c-.9 0-1.6-.7-1.6-1.5s.7-1.5 1.6-1.5h42.7c.9 0 1.6.7 1.6 1.5s-.7 1.5-1.6 1.5zm-56 0H828.1c-.9 0-1.6-.7-1.6-1.5s.7-1.5 1.6-1.5h113.7c.9 0 1.6.7 1.6 1.5s-.8 1.5-1.7 1.5zm-125.7 0h-40.6c-.9 0-1.6-.7-1.6-1.5s.7-1.5 1.6-1.5H816c.9 0 1.6.7 1.6 1.5s-.7 1.5-1.6 1.5zm-49.6 0H573.7c-.9 0-1.6-.7-1.6-1.5s.7-1.5 1.6-1.5h192.7c.9 0 1.6.7 1.6 1.5s-.7 1.5-1.6 1.5zm-202.7 0h-16.4c-.9 0-1.6-.7-1.6-1.5s.7-1.5 1.6-1.5h16.4c.9 0 1.6.7 1.6 1.5s-.8 1.5-1.6 1.5z"/><path class="st0" d="M544.4 614.9h-24.7c-.9 0-1.6-.7-1.6-1.5s.7-1.5 1.6-1.5h24.7c.9 0 1.6.7 1.6 1.5s-.8 1.5-1.6 1.5zm-34 0H395.2c-.9 0-1.6-.7-1.6-1.5s.7-1.5 1.6-1.5h115.2c.9 0 1.6.7 1.6 1.5s-.8 1.5-1.6 1.5zm-121.8 0H142.4c-.9 0-1.6-.7-1.6-1.5s.7-1.5 1.6-1.5h246.2c.9 0 1.6.7 1.6 1.5s-.7 1.5-1.6 1.5zm-251.9 0H111c-.9 0-1.6-.7-1.6-1.5s.7-1.5 1.6-1.5h25.7c.9 0 1.6.7 1.6 1.5s-.8 1.5-1.6 1.5zm-39.8 0H21c-.9 0-1.6-.7-1.6-1.5s.7-1.5 1.6-1.5h75.9c.9 0 1.6.7 1.6 1.5s-.7 1.5-1.6 1.5zm-83 0H2.4c-.9 0-1.6-.7-1.6-1.5s.7-1.5 1.6-1.5H14c.9 0 1.6.7 1.6 1.5s-.8 1.5-1.7 1.5zm29.4 23.2H2.4c-.9 0-1.6-.7-1.6-1.5 0-.9.7-1.5 1.6-1.5h40.9c.9 0 1.6.7 1.6 1.5-.1.8-.8 1.5-1.6 1.5zm0 23.3H2.4c-.9 0-1.6-.7-1.6-1.5s.7-1.5 1.6-1.5h40.9c.9 0 1.6.7 1.6 1.5s-.8 1.5-1.6 1.5zm139 0H51.1c-.9 0-1.6-.7-1.6-1.5s.7-1.5 1.6-1.5h131.1c.9 0 1.6.7 1.6 1.5s-.7 1.5-1.5 1.5zm83.2 0h-77.7c-.9 0-1.6-.7-1.6-1.5s.7-1.5 1.6-1.5h77.7c.9 0 1.6.7 1.6 1.5s-.7 1.5-1.6 1.5zm38 0H273c-.9 0-1.6-.7-1.6-1.5s.7-1.5 1.6-1.5h30.5c.9 0 1.6.7 1.6 1.5s-.7 1.5-1.6 1.5zm228.5 0H308.5c-.9 0-1.6-.7-1.6-1.5s.7-1.5 1.6-1.5H532c.9 0 1.6.7 1.6 1.5s-.7 1.5-1.6 1.5zm44 0h-33c-.9 0-1.6-.7-1.6-1.5s.7-1.5 1.6-1.5h33c.9 0 1.6.7 1.6 1.5s-.7 1.5-1.6 1.5zm34 0h-19.7c-.9 0-1.6-.7-1.6-1.5s.7-1.5 1.6-1.5H610c.9 0 1.6.7 1.6 1.5s-.8 1.5-1.6 1.5zm-11.1 23.2h-19.7c-.9 0-1.6-.7-1.6-1.5s.7-1.5 1.6-1.5h19.7c.9 0 1.6.7 1.6 1.5s-.8 1.5-1.6 1.5zm-31 0H328.2c-.9 0-1.6-.7-1.6-1.5s.7-1.5 1.6-1.5h239.7c.9 0 1.6.7 1.6 1.5s-.7 1.5-1.6 1.5zm-246.7 0h-38.7c-.9 0-1.6-.7-1.6-1.5s.7-1.5 1.6-1.5h38.7c.9 0 1.6.7 1.6 1.5s-.7 1.5-1.6 1.5zm-43.2 0H67.5c-.9 0-1.6-.7-1.6-1.5s.7-1.5 1.6-1.5H278c.9 0 1.6.7 1.6 1.5s-.7 1.5-1.6 1.5zm-219 0H2.8c-.9 0-1.6-.7-1.6-1.5s.7-1.5 1.6-1.5H59c.9 0 1.6.7 1.6 1.5s-.8 1.5-1.6 1.5zm83.4 23.3H2.8c-.9 0-1.6-.7-1.6-1.5 0-.9.7-1.5 1.6-1.5h139.6c.9 0 1.6.7 1.6 1.5s-.7 1.5-1.6 1.5zm92.8 0h-86.6c-.9 0-1.6-.7-1.6-1.5 0-.9.7-1.5 1.6-1.5h86.6c.9 0 1.6.7 1.6 1.5s-.7 1.5-1.6 1.5zm289.8 0H245c-.9 0-1.6-.7-1.6-1.5 0-.9.7-1.5 1.6-1.5h280c.9 0 1.6.7 1.6 1.5s-.7 1.5-1.6 1.5zm92.9 0h-81.5c-.9 0-1.6-.7-1.6-1.5 0-.9.7-1.5 1.6-1.5h81.5c.9 0 1.6.7 1.6 1.5s-.7 1.5-1.6 1.5zm30.6 0h-17c-.9 0-1.6-.7-1.6-1.5 0-.9.7-1.5 1.6-1.5h17c.9 0 1.6.7 1.6 1.5-.1.8-.8 1.5-1.6 1.5zm228.9 0H657.9c-.9 0-1.6-.7-1.6-1.5 0-.9.7-1.5 1.6-1.5h219.4c.9 0 1.6.7 1.6 1.5s-.7 1.5-1.5 1.5zm52.7 0h-41.4c-.9 0-1.6-.7-1.6-1.5 0-.9.7-1.5 1.6-1.5h41.4c.9 0 1.6.7 1.6 1.5s-.7 1.5-1.6 1.5zm59.2 0h-41.4c-.9 0-1.6-.7-1.6-1.5 0-.9.7-1.5 1.6-1.5h41.4c.9 0 1.6.7 1.6 1.5-.1.8-.8 1.5-1.6 1.5zm8.1 19.5H889.6c-.9 0-1.6-.7-1.6-1.5 0-.9.7-1.5 1.6-1.5h107.8c.9 0 1.6.7 1.6 1.5 0 .9-.7 1.5-1.6 1.5zm-116.6 0h-64c-.9 0-1.6-.7-1.6-1.5 0-.9.7-1.5 1.6-1.5h64c.9 0 1.6.7 1.6 1.5 0 .9-.7 1.5-1.6 1.5zm-72.8 0h-89.8c-.9 0-1.6-.7-1.6-1.5 0-.9.7-1.5 1.6-1.5H808c.9 0 1.6.7 1.6 1.5 0 .9-.7 1.5-1.6 1.5zm-102 0h-16.1c-.9 0-1.6-.7-1.6-1.5 0-.9.7-1.5 1.6-1.5H706c.9 0 1.6.7 1.6 1.5-.1.9-.8 1.5-1.6 1.5zm-26.7 0h-16.1c-.9 0-1.6-.7-1.6-1.5 0-.9.7-1.5 1.6-1.5h16.1c.9 0 1.6.7 1.6 1.5-.1.9-.7 1.5-1.6 1.5zm-25.8 0h-177c-.9 0-1.6-.7-1.6-1.5 0-.9.7-1.5 1.6-1.5h177c.9 0 1.6.7 1.6 1.5-.1.9-.8 1.5-1.6 1.5zm-186.3 0h-45.3c-.9 0-1.6-.7-1.6-1.5 0-.9.7-1.5 1.6-1.5h45.3c.9 0 1.6.7 1.6 1.5-.1.9-.8 1.5-1.6 1.5zm-49.3 0H78.4c-.9 0-1.6-.7-1.6-1.5 0-.9.7-1.5 1.6-1.5h339.4c.9 0 1.6.7 1.6 1.5 0 .9-.7 1.5-1.5 1.5zm-345.3 0H13.9c-.9 0-1.6-.7-1.6-1.5 0-.9.7-1.5 1.6-1.5h58.7c.9 0 1.6.7 1.6 1.5 0 .9-.7 1.5-1.6 1.5zM177.1 751H2.8c-.9 0-1.6-.7-1.6-1.5s.7-1.5 1.6-1.5h174.3c.9 0 1.6.7 1.6 1.5s-.7 1.5-1.6 1.5zm75.6 0h-66.9c-.9 0-1.6-.7-1.6-1.5s.7-1.5 1.6-1.5h66.9c.9 0 1.6.7 1.6 1.5s-.7 1.5-1.6 1.5zm50.8 0h-42.1c-.9 0-1.6-.7-1.6-1.5s.7-1.5 1.6-1.5h42.1c.9 0 1.6.7 1.6 1.5s-.7 1.5-1.6 1.5zm74.6 0h-64.2c-.9 0-1.6-.7-1.6-1.5s.7-1.5 1.6-1.5h64.2c.9 0 1.6.7 1.6 1.5s-.8 1.5-1.6 1.5zm153.9 0H385.8c-.9 0-1.6-.7-1.6-1.5s.7-1.5 1.6-1.5H532c.9 0 1.6.7 1.6 1.5s-.7 1.5-1.6 1.5zm41.7 0h-33.4c-.9 0-1.6-.7-1.6-1.5s.7-1.5 1.6-1.5h33.4c.9 0 1.6.7 1.6 1.5s-.8 1.5-1.6 1.5zm124.2 0H584.4c-.9 0-1.6-.7-1.6-1.5s.7-1.5 1.6-1.5h113.5c.9 0 1.6.7 1.6 1.5s-.7 1.5-1.6 1.5zm79.6 0h-75c-.9 0-1.6-.7-1.6-1.5s.7-1.5 1.6-1.5h75c.9 0 1.6.7 1.6 1.5s-.7 1.5-1.6 1.5zm27.1 0h-18.9c-.9 0-1.6-.7-1.6-1.5s.7-1.5 1.6-1.5h18.9c.9 0 1.6.7 1.6 1.5s-.7 1.5-1.6 1.5zm41.3 0h-35.4c-.9 0-1.6-.7-1.6-1.5s.7-1.5 1.6-1.5h35.4c.9 0 1.6.7 1.6 1.5s-.7 1.5-1.6 1.5zm42.6 0H853c-.9 0-1.6-.7-1.6-1.5s.7-1.5 1.6-1.5h35.4c.9 0 1.6.7 1.6 1.5s-.7 1.5-1.5 1.5zm108.9 0h-101c-.9 0-1.6-.7-1.6-1.5s.7-1.5 1.6-1.5h101c.9 0 1.6.7 1.6 1.5s-.7 1.5-1.6 1.5zm0 21.5H830c-.9 0-1.6-.7-1.6-1.5s.7-1.5 1.6-1.5h167.4c.9 0 1.6.7 1.6 1.5s-.7 1.5-1.6 1.5zm-180.5 0H679.4c-.9 0-1.6-.7-1.6-1.5s.7-1.5 1.6-1.5h137.4c.9 0 1.6.7 1.6 1.5s-.7 1.5-1.5 1.5zm-145.7 0h-71.3c-.9 0-1.6-.7-1.6-1.5s.7-1.5 1.6-1.5h71.3c.9 0 1.6.7 1.6 1.5s-.7 1.5-1.6 1.5zm-82.2 0h-59.7c-.9 0-1.6-.7-1.6-1.5s.7-1.5 1.6-1.5H589c.9 0 1.6.7 1.6 1.5s-.7 1.5-1.6 1.5zm-76.5 0H388.6c-.9 0-1.6-.7-1.6-1.5s.7-1.5 1.6-1.5h123.9c.9 0 1.6.7 1.6 1.5s-.7 1.5-1.6 1.5zm-131.3 0h-67.3c-.9 0-1.6-.7-1.6-1.5s.7-1.5 1.6-1.5h67.3c.9 0 1.6.7 1.6 1.5s-.7 1.5-1.6 1.5zm-74.5 0h-12.1c-.9 0-1.6-.7-1.6-1.5s.7-1.5 1.6-1.5h12.1c.9 0 1.6.7 1.6 1.5s-.8 1.5-1.6 1.5zm-21.6 0H2.4c-.9 0-1.6-.7-1.6-1.5s.7-1.5 1.6-1.5h282.7c.9 0 1.6.7 1.6 1.5s-.7 1.5-1.6 1.5zM55.6 796H2.4c-.9 0-1.6-.7-1.6-1.5 0-.9.7-1.5 1.6-1.5h53.2c.9 0 1.6.7 1.6 1.5-.1.9-.8 1.5-1.6 1.5zm136.3 0H61.2c-.9 0-1.6-.7-1.6-1.5 0-.9.7-1.5 1.6-1.5h130.7c.9 0 1.6.7 1.6 1.5 0 .9-.7 1.5-1.6 1.5zm46.2 0h-37.9c-.9 0-1.6-.7-1.6-1.5 0-.9.7-1.5 1.6-1.5h37.9c.9 0 1.6.7 1.6 1.5-.1.9-.8 1.5-1.6 1.5zm21.2 0h-12.7c-.9 0-1.6-.7-1.6-1.5 0-.9.7-1.5 1.6-1.5h12.7c.9 0 1.6.7 1.6 1.5-.1.9-.8 1.5-1.6 1.5zm206.2 0H266.7c-.9 0-1.6-.7-1.6-1.5 0-.9.7-1.5 1.6-1.5h198.8c.9 0 1.6.7 1.6 1.5-.1.9-.8 1.5-1.6 1.5zm41.9 0h-33.1c-.9 0-1.6-.7-1.6-1.5 0-.9.7-1.5 1.6-1.5h33.1c.9 0 1.6.7 1.6 1.5-.1.9-.8 1.5-1.6 1.5zm177.8 0H519.8c-.9 0-1.6-.7-1.6-1.5 0-.9.7-1.5 1.6-1.5h165.4c.9 0 1.6.7 1.6 1.5 0 .9-.7 1.5-1.6 1.5zm286.3 0H689.8c-.9 0-1.6-.7-1.6-1.5 0-.9.7-1.5 1.6-1.5h281.6c.9 0 1.6.7 1.6 1.5 0 .9-.7 1.5-1.5 1.5zm25.9 0h-21.1c-.9 0-1.6-.7-1.6-1.5 0-.9.7-1.5 1.6-1.5h21.1c.9 0 1.6.7 1.6 1.5 0 .9-.7 1.5-1.6 1.5zm0 23.6h-10.5c-.9 0-1.6-.7-1.6-1.5 0-.9.7-1.5 1.6-1.5h10.5c.9 0 1.6.7 1.6 1.5s-.7 1.5-1.6 1.5zm-23.6 0H936c-.9 0-1.6-.7-1.6-1.5 0-.9.7-1.5 1.6-1.5h37.9c.9 0 1.6.7 1.6 1.5-.1.8-.8 1.5-1.7 1.5zm-43.7 0H866c-.9 0-1.6-.7-1.6-1.5 0-.9.7-1.5 1.6-1.5h64.1c.9 0 1.6.7 1.6 1.5s-.7 1.5-1.6 1.5zm-70.9 0H834c-.9 0-1.6-.7-1.6-1.5 0-.9.7-1.5 1.6-1.5h25.2c.9 0 1.6.7 1.6 1.5-.1.8-.8 1.5-1.6 1.5zm-33.8 0H682.2c-.9 0-1.6-.7-1.6-1.5 0-.9.7-1.5 1.6-1.5h143.2c.9 0 1.6.7 1.6 1.5-.1.8-.8 1.5-1.6 1.5zm-152.4 0H567.2c-.9 0-1.6-.7-1.6-1.5 0-.9.7-1.5 1.6-1.5H673c.9 0 1.6.7 1.6 1.5s-.7 1.5-1.6 1.5zm-113.8 0h-62.5c-.9 0-1.6-.7-1.6-1.5 0-.9.7-1.5 1.6-1.5h62.5c.9 0 1.6.7 1.6 1.5-.1.8-.8 1.5-1.6 1.5zm-68.4 0H386.6c-.9 0-1.6-.7-1.6-1.5 0-.9.7-1.5 1.6-1.5h104.2c.9 0 1.6.7 1.6 1.5s-.7 1.5-1.6 1.5zm-112.7 0h-30.5c-.9 0-1.6-.7-1.6-1.5 0-.9.7-1.5 1.6-1.5h30.5c.9 0 1.6.7 1.6 1.5-.1.8-.8 1.5-1.6 1.5zm-38.9 0H290c-.9 0-1.6-.7-1.6-1.5 0-.9.7-1.5 1.6-1.5h49.2c.9 0 1.6.7 1.6 1.5s-.7 1.5-1.6 1.5zm-55.3 0h-95.5c-.9 0-1.6-.7-1.6-1.5 0-.9.7-1.5 1.6-1.5h95.5c.9 0 1.6.7 1.6 1.5-.1.8-.8 1.5-1.6 1.5zm-104.5 0h-38.9c-.9 0-1.6-.7-1.6-1.5 0-.9.7-1.5 1.6-1.5h38.9c.9 0 1.6.7 1.6 1.5s-.7 1.5-1.6 1.5zm-45.9 0H90c-.9 0-1.6-.7-1.6-1.5 0-.9.7-1.5 1.6-1.5h43.5c.9 0 1.6.7 1.6 1.5-.1.8-.8 1.5-1.6 1.5zm-50.5 0H1.6c-.9 0-1.6-.7-1.6-1.5 0-.9.7-1.5 1.6-1.5H83c.9 0 1.6.7 1.6 1.5-.1.8-.8 1.5-1.6 1.5zm-71.7 20.5H1.6c-.9 0-1.6-.7-1.6-1.5s.7-1.5 1.6-1.5h9.8c.9 0 1.6.7 1.6 1.5s-.8 1.5-1.7 1.5zm28.8 0H17c-.9 0-1.6-.7-1.6-1.5s.7-1.5 1.6-1.5h23.1c.9 0 1.6.7 1.6 1.5s-.8 1.5-1.6 1.5zm49.9 0H44c-.9 0-1.6-.7-1.6-1.5s.7-1.5 1.6-1.5h46c.9 0 1.6.7 1.6 1.5s-.8 1.5-1.6 1.5zm20.3 0H96.5c-.9 0-1.6-.7-1.6-1.5s.7-1.5 1.6-1.5h13.9c.9 0 1.6.7 1.6 1.5s-.8 1.5-1.7 1.5zm97.3 0H117c-.9 0-1.6-.7-1.6-1.5s.7-1.5 1.6-1.5h90.6c.9 0 1.6.7 1.6 1.5s-.8 1.5-1.6 1.5zm40.6 0H214c-.9 0-1.6-.7-1.6-1.5s.7-1.5 1.6-1.5h34.2c.9 0 1.6.7 1.6 1.5s-.8 1.5-1.6 1.5zm49.5 0h-41.9c-.9 0-1.6-.7-1.6-1.5s.7-1.5 1.6-1.5h41.9c.9 0 1.6.7 1.6 1.5s-.7 1.5-1.6 1.5zm25.5 0h-16.5c-.9 0-1.6-.7-1.6-1.5s.7-1.5 1.6-1.5h16.5c.9 0 1.6.7 1.6 1.5s-.7 1.5-1.6 1.5zm18.7 0H331c-.9 0-1.6-.7-1.6-1.5s.7-1.5 1.6-1.5h10.9c.9 0 1.6.7 1.6 1.5s-.8 1.5-1.6 1.5zm142 0H348.8c-.9 0-1.6-.7-1.6-1.5s.7-1.5 1.6-1.5h135.1c.9 0 1.6.7 1.6 1.5s-.8 1.5-1.6 1.5zm56.4 0h-48.7c-.9 0-1.6-.7-1.6-1.5s.7-1.5 1.6-1.5h48.7c.9 0 1.6.7 1.6 1.5s-.7 1.5-1.6 1.5zm110.5 0H547.1c-.9 0-1.6-.7-1.6-1.5s.7-1.5 1.6-1.5h103.7c.9 0 1.6.7 1.6 1.5s-.8 1.5-1.6 1.5zm81.8 0h-72c-.9 0-1.6-.7-1.6-1.5s.7-1.5 1.6-1.5h72c.9 0 1.6.7 1.6 1.5s-.7 1.5-1.6 1.5zm264.8 0H741.5c-.9 0-1.6-.7-1.6-1.5s.7-1.5 1.6-1.5h255.9c.9 0 1.6.7 1.6 1.5s-.7 1.5-1.6 1.5zm-6.3 23.8h-80.6c-.9 0-1.6-.7-1.6-1.5s.7-1.5 1.6-1.5h80.6c.9 0 1.6.7 1.6 1.5s-.7 1.5-1.6 1.5zm-84.9 0h-16.3c-.9 0-1.6-.7-1.6-1.5s.7-1.5 1.6-1.5h16.3c.9 0 1.6.7 1.6 1.5s-.7 1.5-1.6 1.5zm-23.9 0H767c-.9 0-1.6-.7-1.6-1.5s.7-1.5 1.6-1.5h115.3c.9 0 1.6.7 1.6 1.5s-.7 1.5-1.6 1.5zm-131.6 0h-87.5c-.9 0-1.6-.7-1.6-1.5s.7-1.5 1.6-1.5h87.5c.9 0 1.6.7 1.6 1.5s-.8 1.5-1.6 1.5zm-97.3 0H458.9c-.9 0-1.6-.7-1.6-1.5s.7-1.5 1.6-1.5h194.6c.9 0 1.6.7 1.6 1.5s-.8 1.5-1.7 1.5zm-208.9 0h-32.7c-.9 0-1.6-.7-1.6-1.5s.7-1.5 1.6-1.5h32.7c.9 0 1.6.7 1.6 1.5s-.7 1.5-1.6 1.5zm-42.7 0h-20.6c-.9 0-1.6-.7-1.6-1.5s.7-1.5 1.6-1.5h20.6c.9 0 1.6.7 1.6 1.5s-.8 1.5-1.6 1.5zm-27 0H315c-.9 0-1.6-.7-1.6-1.5s.7-1.5 1.6-1.5h59.8c.9 0 1.6.7 1.6 1.5s-.8 1.5-1.6 1.5zm-65.2 0h-27.1c-.9 0-1.6-.7-1.6-1.5s.7-1.5 1.6-1.5h27.1c.9 0 1.6.7 1.6 1.5s-.8 1.5-1.6 1.5zm-32.9 0h-7.9c-.9 0-1.6-.7-1.6-1.5s.7-1.5 1.6-1.5h7.9c.9 0 1.6.7 1.6 1.5s-.7 1.5-1.6 1.5zm-11.4 0H196c-.9 0-1.6-.7-1.6-1.5s.7-1.5 1.6-1.5h69.3c.9 0 1.6.7 1.6 1.5s-.7 1.5-1.6 1.5zm-77 0h-38.5c-.9 0-1.6-.7-1.6-1.5s.7-1.5 1.6-1.5h38.5c.9 0 1.6.7 1.6 1.5s-.7 1.5-1.6 1.5zm-50.4 0H73.6c-.9 0-1.6-.7-1.6-1.5s.7-1.5 1.6-1.5h64.3c.9 0 1.6.7 1.6 1.5s-.7 1.5-1.6 1.5zm-71.2 0H2.4c-.9 0-1.6-.7-1.6-1.5s.7-1.5 1.6-1.5h64.3c.9 0 1.6.7 1.6 1.5s-.8 1.5-1.6 1.5zM33 887.8H2.4c-.9 0-1.6-.7-1.6-1.5s.7-1.5 1.6-1.5H33c.9 0 1.6.7 1.6 1.5s-.8 1.5-1.6 1.5zm76.2 0H38.5c-.9 0-1.6-.7-1.6-1.5s.7-1.5 1.6-1.5h70.6c.9 0 1.6.7 1.6 1.5s-.7 1.5-1.5 1.5zm299.4 0H113.2c-.9 0-1.6-.7-1.6-1.5s.7-1.5 1.6-1.5h295.4c.9 0 1.6.7 1.6 1.5s-.8 1.5-1.6 1.5zm111.2 0H416.3c-.9 0-1.6-.7-1.6-1.5s.7-1.5 1.6-1.5h103.5c.9 0 1.6.7 1.6 1.5s-.7 1.5-1.6 1.5zm64.6 0h-55.1c-.9 0-1.6-.7-1.6-1.5s.7-1.5 1.6-1.5h55.1c.9 0 1.6.7 1.6 1.5s-.7 1.5-1.6 1.5zm173.7 0H592.6c-.9 0-1.6-.7-1.6-1.5s.7-1.5 1.6-1.5h165.5c.9 0 1.6.7 1.6 1.5s-.7 1.5-1.6 1.5zm165.7 0H767c-.9 0-1.6-.7-1.6-1.5s.7-1.5 1.6-1.5h156.8c.9 0 1.6.7 1.6 1.5s-.7 1.5-1.6 1.5zm73.6 0h-65.3c-.9 0-1.6-.7-1.6-1.5s.7-1.5 1.6-1.5h65.3c.9 0 1.6.7 1.6 1.5s-.7 1.5-1.6 1.5zm0 20.9H898c-.9 0-1.6-.7-1.6-1.5 0-.9.7-1.5 1.6-1.5h99.4c.9 0 1.6.7 1.6 1.5s-.7 1.5-1.6 1.5zm-103.7 0H584.4c-.9 0-1.6-.7-1.6-1.5 0-.9.7-1.5 1.6-1.5h309.3c.9 0 1.6.7 1.6 1.5-.1.8-.8 1.5-1.6 1.5zm-320.6 0H486c-.9 0-1.6-.7-1.6-1.5 0-.9.7-1.5 1.6-1.5h87.2c.9 0 1.6.7 1.6 1.5-.1.8-.8 1.5-1.7 1.5zm-94.9 0h-12.8c-.9 0-1.6-.7-1.6-1.5 0-.9.7-1.5 1.6-1.5h12.8c.9 0 1.6.7 1.6 1.5s-.7 1.5-1.6 1.5zm-22.5 0H242.6c-.9 0-1.6-.7-1.6-1.5 0-.9.7-1.5 1.6-1.5h213.1c.9 0 1.6.7 1.6 1.5s-.7 1.5-1.6 1.5zm-219.6 0H55.7c-.9 0-1.6-.7-1.6-1.5 0-.9.7-1.5 1.6-1.5h180.4c.9 0 1.6.7 1.6 1.5-.1.8-.8 1.5-1.6 1.5zm-190.1 0H2.4c-.9 0-1.6-.7-1.6-1.5 0-.9.7-1.5 1.6-1.5H46c.9 0 1.6.7 1.6 1.5s-.7 1.5-1.6 1.5zm39.4 24.2h-83c-.9 0-1.6-.7-1.6-1.5 0-.9.7-1.5 1.6-1.5h83.1c.9 0 1.6.7 1.6 1.5-.1.8-.8 1.5-1.7 1.5zm91.4 0H93.7c-.9 0-1.6-.7-1.6-1.5 0-.9.7-1.5 1.6-1.5h83.1c.9 0 1.6.7 1.6 1.5-.1.8-.8 1.5-1.6 1.5zm24 0h-18.6c-.9 0-1.6-.7-1.6-1.5 0-.9.7-1.5 1.6-1.5h18.6c.9 0 1.6.7 1.6 1.5-.1.8-.8 1.5-1.6 1.5zm61.3 0h-54.5c-.9 0-1.6-.7-1.6-1.5 0-.9.7-1.5 1.6-1.5h54.5c.9 0 1.6.7 1.6 1.5s-.7 1.5-1.6 1.5zm38.3 0h-29.9c-.9 0-1.6-.7-1.6-1.5 0-.9.7-1.5 1.6-1.5h29.9c.9 0 1.6.7 1.6 1.5-.1.8-.8 1.5-1.6 1.5zm36.2 21.8h-29.9c-.9 0-1.6-.7-1.6-1.5s.7-1.5 1.6-1.5h29.9c.9 0 1.6.7 1.6 1.5s-.7 1.5-1.6 1.5zM365 1000h-17.2c-.9 0-1.6-.7-1.6-1.5 0-.9.7-1.5 1.6-1.5H365c.9 0 1.6.7 1.6 1.5s-.7 1.5-1.6 1.5zm-21.7 0h-98c-.9 0-1.6-.7-1.6-1.5 0-.9.7-1.5 1.6-1.5h98c.9 0 1.6.7 1.6 1.5s-.7 1.5-1.6 1.5zm-103.9 0h-75.3c-.9 0-1.6-.7-1.6-1.5 0-.9.7-1.5 1.6-1.5h75.3c.9 0 1.6.7 1.6 1.5s-.7 1.5-1.6 1.5zm-86.5 0H99.1c-.9 0-1.6-.7-1.6-1.5 0-.9.7-1.5 1.6-1.5h53.7c.9 0 1.6.7 1.6 1.5s-.6 1.5-1.5 1.5zm-59.1 0H79.4c-.9 0-1.6-.7-1.6-1.5 0-.9.7-1.5 1.6-1.5h14.4c.9 0 1.6.7 1.6 1.5-.1.8-.8 1.5-1.6 1.5zm-20.5 0H45.2c-.9 0-1.6-.7-1.6-1.5 0-.9.7-1.5 1.6-1.5h28.1c.9 0 1.6.7 1.6 1.5s-.7 1.5-1.6 1.5zm-33.2 0H2.4c-.9 0-1.6-.7-1.6-1.5 0-.9.7-1.5 1.6-1.5h37.7c.9 0 1.6.7 1.6 1.5-.1.8-.8 1.5-1.6 1.5zm257.3-45.3H179c-.9 0-1.6-.7-1.6-1.5s.7-1.5 1.6-1.5h118.4c.9 0 1.6.7 1.6 1.5s-.7 1.5-1.6 1.5zm-123 0h-17.7c-.9 0-1.6-.7-1.6-1.5s.7-1.5 1.6-1.5h17.7c.9 0 1.6.7 1.6 1.5s-.7 1.5-1.6 1.5zm-23.2 0H2.4c-.9 0-1.6-.7-1.6-1.5s.7-1.5 1.6-1.5h148.8c.9 0 1.6.7 1.6 1.5s-.8 1.5-1.6 1.5zm-38 23H2.4c-.9 0-1.6-.7-1.6-1.5s.7-1.5 1.6-1.5h110.9c.9 0 1.6.7 1.6 1.5s-.8 1.5-1.7 1.5zm82.8 0h-74.7c-.9 0-1.6-.7-1.6-1.5s.7-1.5 1.6-1.5H196c.9 0 1.6.7 1.6 1.5s-.7 1.5-1.6 1.5zm34.7 0h-25.4c-.9 0-1.6-.7-1.6-1.5s.7-1.5 1.6-1.5h25.4c.9 0 1.6.7 1.6 1.5s-.8 1.5-1.6 1.5zm137.2 0H238.2c-.9 0-1.6-.7-1.6-1.5s.7-1.5 1.6-1.5h129.7c.9 0 1.6.7 1.6 1.5s-.8 1.5-1.6 1.5zm102 0h-92.2c-.9 0-1.6-.7-1.6-1.5s.7-1.5 1.6-1.5h92.2c.9 0 1.6.7 1.6 1.5s-.8 1.5-1.6 1.5zm46.1 0h-38.3c-.9 0-1.6-.7-1.6-1.5s.7-1.5 1.6-1.5H516c.9 0 1.6.7 1.6 1.5s-.8 1.5-1.6 1.5zm15.6 0h-10.4c-.9 0-1.6-.7-1.6-1.5s.7-1.5 1.6-1.5h10.4c.9 0 1.6.7 1.6 1.5s-.7 1.5-1.6 1.5zm43.5 0h-37.2c-.9 0-1.6-.7-1.6-1.5s.7-1.5 1.6-1.5h37.2c.9 0 1.6.7 1.6 1.5s-.7 1.5-1.6 1.5zm131.8 0H584.4c-.9 0-1.6-.7-1.6-1.5s.7-1.5 1.6-1.5h122.5c.9 0 1.6.7 1.6 1.5s-.7 1.5-1.6 1.5zm83.6 0h-78.2c-.9 0-1.6-.7-1.6-1.5s.7-1.5 1.6-1.5h78.2c.9 0 1.6.7 1.6 1.5s-.7 1.5-1.6 1.5zm72.2 0h-68.1c-.9 0-1.6-.7-1.6-1.5s.7-1.5 1.6-1.5h68.1c.9 0 1.6.7 1.6 1.5s-.8 1.5-1.6 1.5zm134.7 0H872.2c-.9 0-1.6-.7-1.6-1.5s.7-1.5 1.6-1.5h125.3c.9 0 1.6.7 1.6 1.5s-.8 1.5-1.7 1.5zm0 22.3h-19.9c-.9 0-1.6-.7-1.6-1.5 0-.9.7-1.5 1.6-1.5h19.9c.9 0 1.6.7 1.6 1.5s-.7 1.5-1.6 1.5zm-30.3 0h-52.2c-.9 0-1.6-.7-1.6-1.5 0-.9.7-1.5 1.6-1.5h52.2c.9 0 1.6.7 1.6 1.5-.1.8-.7 1.5-1.6 1.5zm-58.3 0h-19.2c-.9 0-1.6-.7-1.6-1.5 0-.9.7-1.5 1.6-1.5h19.2c.9 0 1.6.7 1.6 1.5s-.7 1.5-1.6 1.5zm-24.1 0H759.3c-.9 0-1.6-.7-1.6-1.5 0-.9.7-1.5 1.6-1.5h125.4c.9 0 1.6.7 1.6 1.5s-.7 1.5-1.6 1.5zm-130.8 0h-115c-.9 0-1.6-.7-1.6-1.5 0-.9.7-1.5 1.6-1.5h115c.9 0 1.6.7 1.6 1.5-.1.8-.8 1.5-1.6 1.5zm-123.9 0h-41.8c-.9 0-1.6-.7-1.6-1.5 0-.9.7-1.5 1.6-1.5H630c.9 0 1.6.7 1.6 1.5-.1.8-.8 1.5-1.6 1.5zm-50.3 0H373.1c-.9 0-1.6-.7-1.6-1.5 0-.9.7-1.5 1.6-1.5h206.6c.9 0 1.6.7 1.6 1.5s-.7 1.5-1.6 1.5zm-177.9-67.1h-93.5c-.9 0-1.6-.7-1.6-1.5 0-.9.7-1.5 1.6-1.5h93.5c.9 0 1.6.7 1.6 1.5-.1.8-.8 1.5-1.6 1.5zm28.4 0h-18.1c-.9 0-1.6-.7-1.6-1.5 0-.9.7-1.5 1.6-1.5h18.1c.9 0 1.6.7 1.6 1.5s-.7 1.5-1.6 1.5zm77.1 0h-66.5c-.9 0-1.6-.7-1.6-1.5 0-.9.7-1.5 1.6-1.5h66.5c.9 0 1.6.7 1.6 1.5-.1.8-.7 1.5-1.6 1.5zm24.3 0H516c-.9 0-1.6-.7-1.6-1.5 0-.9.7-1.5 1.6-1.5h15.6c.9 0 1.6.7 1.6 1.5s-.7 1.5-1.6 1.5zm21.9 0h-15.6c-.9 0-1.6-.7-1.6-1.5 0-.9.7-1.5 1.6-1.5h15.6c.9 0 1.6.7 1.6 1.5s-.7 1.5-1.6 1.5zm39.8 0h-32.6c-.9 0-1.6-.7-1.6-1.5 0-.9.7-1.5 1.6-1.5h32.6c.9 0 1.6.7 1.6 1.5-.1.8-.8 1.5-1.6 1.5zm38.2 0h-32.6c-.9 0-1.6-.7-1.6-1.5 0-.9.7-1.5 1.6-1.5h32.6c.9 0 1.6.7 1.6 1.5s-.7 1.5-1.6 1.5zm10.4 21.8h-53.3c-.9 0-1.6-.7-1.6-1.5s.7-1.5 1.6-1.5h53.3c.9 0 1.6.7 1.6 1.5s-.8 1.5-1.6 1.5zm-59.1 0H343.3c-.9 0-1.6-.7-1.6-1.5s.7-1.5 1.6-1.5h239.5c.9 0 1.6.7 1.6 1.5s-.7 1.5-1.6 1.5zM850 932.9H637.1c-.9 0-1.6-.7-1.6-1.5 0-.9.7-1.5 1.6-1.5H850c.9 0 1.6.7 1.6 1.5-.1.8-.7 1.5-1.6 1.5zm101.8 0h-92.9c-.9 0-1.6-.7-1.6-1.5 0-.9.7-1.5 1.6-1.5h92.9c.9 0 1.6.7 1.6 1.5s-.7 1.5-1.6 1.5zm45.6 0h-39.8c-.9 0-1.6-.7-1.6-1.5 0-.9.7-1.5 1.6-1.5h39.8c.9 0 1.6.7 1.6 1.5s-.7 1.5-1.6 1.5zm0 21.8H650.8c-.9 0-1.6-.7-1.6-1.5s.7-1.5 1.6-1.5h346.6c.9 0 1.6.7 1.6 1.5s-.7 1.5-1.6 1.5zM8.1 727.4H1.6c-.9 0-1.6-.7-1.6-1.5 0-.9.7-1.5 1.6-1.5h6.6c.9 0 1.6.7 1.6 1.5-.1.9-.8 1.5-1.7 1.5zm643.4-66h-33.6c-.9 0-1.6-.7-1.6-1.5s.7-1.5 1.6-1.5h33.6c.9 0 1.6.7 1.6 1.5s-.7 1.5-1.6 1.5zm213.7 0H658.1c-.9 0-1.6-.7-1.6-1.5s.7-1.5 1.6-1.5h207.2c.9 0 1.6.7 1.6 1.5s-.8 1.5-1.7 1.5zm132.5 0h-127c-.9 0-1.6-.7-1.6-1.5s.7-1.5 1.6-1.5h127c.9 0 1.6.7 1.6 1.5s-.7 1.5-1.6 1.5zm0 22.5h-20.1c-.9 0-1.6-.7-1.6-1.5s.7-1.5 1.6-1.5h20.1c.9 0 1.6.7 1.6 1.5s-.7 1.5-1.6 1.5zm-29.1 0h-72.2c-.9 0-1.6-.7-1.6-1.5s.7-1.5 1.6-1.5h72.2c.9 0 1.6.7 1.6 1.5s-.8 1.5-1.6 1.5zm-79 0H607c-.9 0-1.6-.7-1.6-1.5s.7-1.5 1.6-1.5h282.6c.9 0 1.6.7 1.6 1.5s-.7 1.5-1.6 1.5zm-691.8-45.8H49.2c-.9 0-1.6-.7-1.6-1.5 0-.9.7-1.5 1.6-1.5h148.6c.9 0 1.6.7 1.6 1.5s-.7 1.5-1.6 1.5zm78.9 0H208c-.9 0-1.6-.7-1.6-1.5 0-.9.7-1.5 1.6-1.5h68.7c.9 0 1.6.7 1.6 1.5-.1.8-.8 1.5-1.6 1.5zm76.6 0h-68.7c-.9 0-1.6-.7-1.6-1.5 0-.9.7-1.5 1.6-1.5h68.7c.9 0 1.6.7 1.6 1.5s-.7 1.5-1.6 1.5zm41.9 0h-34.3c-.9 0-1.6-.7-1.6-1.5 0-.9.7-1.5 1.6-1.5h34.3c.9 0 1.6.7 1.6 1.5s-.7 1.5-1.6 1.5zm34.8 0h-29.7c-.9 0-1.6-.7-1.6-1.5 0-.9.7-1.5 1.6-1.5H430c.9 0 1.6.7 1.6 1.5s-.7 1.5-1.6 1.5zm159 0H446.7c-.9 0-1.6-.7-1.6-1.5 0-.9.7-1.5 1.6-1.5H589c.9 0 1.6.7 1.6 1.5s-.7 1.5-1.6 1.5zm408.4 0H601.1c-.9 0-1.6-.7-1.6-1.5 0-.9.7-1.5 1.6-1.5h396.3c.9 0 1.6.7 1.6 1.5s-.7 1.5-1.6 1.5zm-712.7-66.6H111c-.9 0-1.6-.7-1.6-1.5s.7-1.5 1.6-1.5h173.7c.9 0 1.6.7 1.6 1.5s-.8 1.5-1.6 1.5zm129.8 0H294.3c-.9 0-1.6-.7-1.6-1.5s.7-1.5 1.6-1.5h120.2c.9 0 1.6.7 1.6 1.5s-.7 1.5-1.6 1.5zm47 0h-40c-.9 0-1.6-.7-1.6-1.5s.7-1.5 1.6-1.5h40c.9 0 1.6.7 1.6 1.5s-.7 1.5-1.6 1.5zm190 0H468.3c-.9 0-1.6-.7-1.6-1.5s.7-1.5 1.6-1.5h183.3c.9 0 1.6.7 1.6 1.5s-.8 1.5-1.7 1.5zm20.8 0h-11.6c-.9 0-1.6-.7-1.6-1.5s.7-1.5 1.6-1.5h11.6c.9 0 1.6.7 1.6 1.5s-.8 1.5-1.6 1.5zm134.7 0H688.4c-.9 0-1.6-.7-1.6-1.5s.7-1.5 1.6-1.5H807c.9 0 1.6.7 1.6 1.5s-.8 1.5-1.6 1.5zm28.9 0h-25.4c-.9 0-1.6-.7-1.6-1.5s.7-1.5 1.6-1.5h25.4c.9 0 1.6.7 1.6 1.5s-.7 1.5-1.6 1.5zm161.5 0H845.9c-.9 0-1.6-.7-1.6-1.5s.7-1.5 1.6-1.5h151.5c.9 0 1.6.7 1.6 1.5s-.7 1.5-1.6 1.5zM235.2 547h-97.3c-.9 0-1.6-.7-1.6-1.5s.7-1.5 1.6-1.5h97.3c.9 0 1.6.7 1.6 1.5s-.7 1.5-1.6 1.5zm177.6 0H244.6c-.9 0-1.6-.7-1.6-1.5s.7-1.5 1.6-1.5h168.3c.9 0 1.6.7 1.6 1.5s-.8 1.5-1.7 1.5zm123.6 0H420.2c-.9 0-1.6-.7-1.6-1.5s.7-1.5 1.6-1.5h116.1c.9 0 1.6.7 1.6 1.5s-.7 1.5-1.5 1.5zm29.7 0H550c-.9 0-1.6-.7-1.6-1.5s.7-1.5 1.6-1.5h16.1c.9 0 1.6.7 1.6 1.5s-.7 1.5-1.6 1.5zm32.8 0H576c-.9 0-1.6-.7-1.6-1.5s.7-1.5 1.6-1.5h22.8c.9 0 1.6.7 1.6 1.5s-.7 1.5-1.5 1.5zm27.3 0h-18.1c-.9 0-1.6-.7-1.6-1.5s.7-1.5 1.6-1.5h18.1c.9 0 1.6.7 1.6 1.5s-.7 1.5-1.6 1.5zm127 0h-118c-.9 0-1.6-.7-1.6-1.5s.7-1.5 1.6-1.5h117.9c.9 0 1.6.7 1.6 1.5s-.7 1.5-1.5 1.5zm19.3 0h-15.8c-.9 0-1.6-.7-1.6-1.5s.7-1.5 1.6-1.5h15.8c.9 0 1.6.7 1.6 1.5s-.7 1.5-1.6 1.5zm225.9 0H779.6c-.9 0-1.6-.7-1.6-1.5s.7-1.5 1.6-1.5h218.8c.9 0 1.6.7 1.6 1.5s-.7 1.5-1.6 1.5zm-769.2-22.1h-42.4c-.9 0-1.6-.7-1.6-1.5 0-.9.7-1.5 1.6-1.5h42.4c.9 0 1.6.7 1.6 1.5-.1.8-.7 1.5-1.6 1.5zm37.5 0h-27.8c-.9 0-1.6-.7-1.6-1.5 0-.9.7-1.5 1.6-1.5h27.8c.9 0 1.6.7 1.6 1.5-.1.8-.8 1.5-1.6 1.5zm198 0H273.6c-.9 0-1.6-.7-1.6-1.5 0-.9.7-1.5 1.6-1.5h191.1c.9 0 1.6.7 1.6 1.5-.1.8-.8 1.5-1.6 1.5zm46.6 0h-40.7c-.9 0-1.6-.7-1.6-1.5 0-.9.7-1.5 1.6-1.5h40.7c.9 0 1.6.7 1.6 1.5s-.7 1.5-1.6 1.5zm25.1 0h-17c-.9 0-1.6-.7-1.6-1.5 0-.9.7-1.5 1.6-1.5h17c.9 0 1.6.7 1.6 1.5-.1.8-.8 1.5-1.6 1.5zm145.9 0h-138c-.9 0-1.6-.7-1.6-1.5 0-.9.7-1.5 1.6-1.5h138c.9 0 1.6.7 1.6 1.5s-.7 1.5-1.6 1.5zm21 0h-17.6c-.9 0-1.6-.7-1.6-1.5 0-.9.7-1.5 1.6-1.5h17.6c.9 0 1.6.7 1.6 1.5-.1.8-.8 1.5-1.6 1.5zm69.2 0h-62.1c-.9 0-1.6-.7-1.6-1.5 0-.9.7-1.5 1.6-1.5h62.1c.9 0 1.6.7 1.6 1.5s-.7 1.5-1.6 1.5zm61.8 0h-54.7c-.9 0-1.6-.7-1.6-1.5 0-.9.7-1.5 1.6-1.5h54.7c.9 0 1.6.7 1.6 1.5s-.7 1.5-1.6 1.5zm163.1 0H843.3c-.9 0-1.6-.7-1.6-1.5 0-.9.7-1.5 1.6-1.5h154.1c.9 0 1.6.7 1.6 1.5s-.7 1.5-1.6 1.5zm-843-22.2h-12c-.9 0-1.6-.7-1.6-1.5s.7-1.5 1.6-1.5h12c.9 0 1.6.7 1.6 1.5s-.7 1.5-1.6 1.5zm90.2 0h-81.8c-.9 0-1.6-.7-1.6-1.5s.7-1.5 1.6-1.5h81.8c.9 0 1.6.7 1.6 1.5s-.8 1.5-1.6 1.5zm270.1 0h-261c-.9 0-1.6-.7-1.6-1.5s.7-1.5 1.6-1.5h261c.9 0 1.6.7 1.6 1.5s-.8 1.5-1.6 1.5zm129.6 0H523.9c-.9 0-1.6-.7-1.6-1.5s.7-1.5 1.6-1.5h120.4c.9 0 1.6.7 1.6 1.5s-.7 1.5-1.6 1.5zm41.8 0h-34.6c-.9 0-1.6-.7-1.6-1.5s.7-1.5 1.6-1.5h34.6c.9 0 1.6.7 1.6 1.5s-.7 1.5-1.6 1.5zm178.6 0H694.5c-.9 0-1.6-.7-1.6-1.5s.7-1.5 1.6-1.5h170.3c.9 0 1.6.7 1.6 1.5s-.8 1.5-1.7 1.5zm103.8 0h-93.3c-.9 0-1.6-.7-1.6-1.5s.7-1.5 1.6-1.5h93.3c.9 0 1.6.7 1.6 1.5s-.7 1.5-1.6 1.5zm29.9 0H988c-.9 0-1.6-.7-1.6-1.5s.7-1.5 1.6-1.5h10.4c.9 0 1.6.7 1.6 1.5s-.7 1.5-1.6 1.5zm-923-22.2H46c-.9 0-1.6-.7-1.6-1.5s.7-1.5 1.6-1.5h29.4c.9 0 1.6.7 1.6 1.5s-.8 1.5-1.6 1.5zm122.8 0h-114c-.9 0-1.6-.7-1.6-1.5s.7-1.5 1.6-1.5h114c.9 0 1.6.7 1.6 1.5s-.8 1.5-1.6 1.5zm38.8 0h-30.8c-.9 0-1.6-.7-1.6-1.5s.7-1.5 1.6-1.5H237c.9 0 1.6.7 1.6 1.5s-.7 1.5-1.6 1.5zm38.4 0h-30.8c-.9 0-1.6-.7-1.6-1.5s.7-1.5 1.6-1.5h30.8c.9 0 1.6.7 1.6 1.5s-.7 1.5-1.6 1.5zm214.5 0h-211c-.9 0-1.6-.7-1.6-1.5s.7-1.5 1.6-1.5h211c.9 0 1.6.7 1.6 1.5s-.7 1.5-1.6 1.5zm70.2 0H497c-.9 0-1.6-.7-1.6-1.5s.7-1.5 1.6-1.5h63.1c.9 0 1.6.7 1.6 1.5s-.7 1.5-1.6 1.5zm146.4 0H566.1c-.9 0-1.6-.7-1.6-1.5s.7-1.5 1.6-1.5h140.3c.9 0 1.6.7 1.6 1.5s-.7 1.5-1.5 1.5zm62.2 0h-56.9c-.9 0-1.6-.7-1.6-1.5s.7-1.5 1.6-1.5h56.9c.9 0 1.6.7 1.6 1.5s-.8 1.5-1.6 1.5zm114.3 0H778c-.9 0-1.6-.7-1.6-1.5s.7-1.5 1.6-1.5h105c.9 0 1.6.7 1.6 1.5s-.7 1.5-1.6 1.5zm44 0h-36.8c-.9 0-1.6-.7-1.6-1.5s.7-1.5 1.6-1.5H927c.9 0 1.6.7 1.6 1.5s-.7 1.5-1.6 1.5zm70.4 0h-57.7c-.9 0-1.6-.7-1.6-1.5s.7-1.5 1.6-1.5h57.7c.9 0 1.6.7 1.6 1.5s-.7 1.5-1.6 1.5zm-741-22.1h-137c-.9 0-1.6-.7-1.6-1.5 0-.9.7-1.5 1.6-1.5h137c.9 0 1.6.7 1.6 1.5s-.7 1.5-1.6 1.5zm34.8 0h-24.5c-.9 0-1.6-.7-1.6-1.5 0-.9.7-1.5 1.6-1.5h24.5c.9 0 1.6.7 1.6 1.5-.1.8-.8 1.5-1.6 1.5zm130.4 0H297.4c-.9 0-1.6-.7-1.6-1.5 0-.9.7-1.5 1.6-1.5h124.2c.9 0 1.6.7 1.6 1.5-.1.8-.8 1.5-1.6 1.5zm102.4 0h-92.6c-.9 0-1.6-.7-1.6-1.5 0-.9.7-1.5 1.6-1.5H524c.9 0 1.6.7 1.6 1.5s-.7 1.5-1.6 1.5zm28.8 0h-21.7c-.9 0-1.6-.7-1.6-1.5 0-.9.7-1.5 1.6-1.5h21.7c.9 0 1.6.7 1.6 1.5s-.7 1.5-1.6 1.5zm13.3 0h-6c-.9 0-1.6-.7-1.6-1.5 0-.9.7-1.5 1.6-1.5h6c.9 0 1.6.7 1.6 1.5s-.7 1.5-1.6 1.5zm11.9 0h-6c-.9 0-1.6-.7-1.6-1.5 0-.9.7-1.5 1.6-1.5h6c.9 0 1.6.7 1.6 1.5s-.7 1.5-1.6 1.5zm55.4 0H584c-.9 0-1.6-.7-1.6-1.5 0-.9.7-1.5 1.6-1.5h49.5c.9 0 1.6.7 1.6 1.5-.1.8-.8 1.5-1.7 1.5zm22.2 0h-16.3c-.9 0-1.6-.7-1.6-1.5 0-.9.7-1.5 1.6-1.5h16.3c.9 0 1.6.7 1.6 1.5s-.7 1.5-1.6 1.5zm160.1 0H660.6c-.9 0-1.6-.7-1.6-1.5 0-.9.7-1.5 1.6-1.5h155.1c.9 0 1.6.7 1.6 1.5-.1.8-.8 1.5-1.6 1.5zm181.7 0H824.7c-.9 0-1.6-.7-1.6-1.5 0-.9.7-1.5 1.6-1.5h172.8c.9 0 1.6.7 1.6 1.5-.1.8-.8 1.5-1.7 1.5zm-741-24.2H57.8c-.9 0-1.6-.7-1.6-1.5s.7-1.5 1.6-1.5h198.6c.9 0 1.6.7 1.6 1.5s-.7 1.5-1.6 1.5zm29.8 0h-21.6c-.9 0-1.6-.7-1.6-1.5s.7-1.5 1.6-1.5h21.6c.9 0 1.6.7 1.6 1.5s-.7 1.5-1.6 1.5zm77.2 0h-72.2c-.9 0-1.6-.7-1.6-1.5s.7-1.5 1.6-1.5h72.2c.9 0 1.6.7 1.6 1.5s-.7 1.5-1.6 1.5zm318.9 0H374.8c-.9 0-1.6-.7-1.6-1.5s.7-1.5 1.6-1.5h307.6c.9 0 1.6.7 1.6 1.5s-.8 1.5-1.7 1.5zM261.5 410H110.2c-.9 0-1.6-.7-1.6-1.5s.7-1.5 1.6-1.5h151.2c.9 0 1.6.7 1.6 1.5s-.7 1.5-1.5 1.5zm16.6 0h-12.2c-.9 0-1.6-.7-1.6-1.5s.7-1.5 1.6-1.5h12.2c.9 0 1.6.7 1.6 1.5s-.8 1.5-1.6 1.5zm125.5 0H286.2c-.9 0-1.6-.7-1.6-1.5s.7-1.5 1.6-1.5h117.4c.9 0 1.6.7 1.6 1.5s-.7 1.5-1.6 1.5z"/><path class="st0" d="M415.8 410H406c-.9 0-1.6-.7-1.6-1.5s.7-1.5 1.6-1.5h9.8c.9 0 1.6.7 1.6 1.5s-.8 1.5-1.6 1.5zm44.6 0h-40.2c-.9 0-1.6-.7-1.6-1.5s.7-1.5 1.6-1.5h40.2c.9 0 1.6.7 1.6 1.5s-.8 1.5-1.6 1.5zm121.4 0H469.4c-.9 0-1.6-.7-1.6-1.5s.7-1.5 1.6-1.5h112.5c.9 0 1.6.7 1.6 1.5s-.8 1.5-1.7 1.5zm44.4 0H590c-.9 0-1.6-.7-1.6-1.5s.7-1.5 1.6-1.5h36.2c.9 0 1.6.7 1.6 1.5s-.7 1.5-1.6 1.5zm89.3 24.2h-26.8c-.9 0-1.6-.7-1.6-1.5s.7-1.5 1.6-1.5h26.8c.9 0 1.6.7 1.6 1.5s-.7 1.5-1.6 1.5zm139.9 0H727.9c-.9 0-1.6-.7-1.6-1.5s.7-1.5 1.6-1.5h127.5c.9 0 1.6.7 1.6 1.5s-.7 1.5-1.6 1.5zm96.4 0h-89.1c-.9 0-1.6-.7-1.6-1.5s.7-1.5 1.6-1.5h89.1c.9 0 1.6.7 1.6 1.5s-.7 1.5-1.6 1.5zm45.6 0h-37c-.9 0-1.6-.7-1.6-1.5s.7-1.5 1.6-1.5h37c.9 0 1.6.7 1.6 1.5s-.7 1.5-1.6 1.5zM688.8 410h-57.2c-.9 0-1.6-.7-1.6-1.5s.7-1.5 1.6-1.5h57.2c.9 0 1.6.7 1.6 1.5s-.8 1.5-1.6 1.5zm263 0H697.5c-.9 0-1.6-.7-1.6-1.5s.7-1.5 1.6-1.5h254.3c.9 0 1.6.7 1.6 1.5s-.7 1.5-1.6 1.5zm-816.6-20.2h-121c-.9 0-1.6-.7-1.6-1.5 0-.9.7-1.5 1.6-1.5h121c.9 0 1.6.7 1.6 1.5s-.7 1.5-1.6 1.5zm61.2 0h-55.6c-.9 0-1.6-.7-1.6-1.5 0-.9.7-1.5 1.6-1.5h55.6c.9 0 1.6.7 1.6 1.5s-.7 1.5-1.6 1.5zm65.1 0h-59.2c-.9 0-1.6-.7-1.6-1.5 0-.9.7-1.5 1.6-1.5h59.2c.9 0 1.6.7 1.6 1.5-.1.8-.8 1.5-1.6 1.5zm58.3 0h-50.9c-.9 0-1.6-.7-1.6-1.5 0-.9.7-1.5 1.6-1.5h50.9c.9 0 1.6.7 1.6 1.5s-.7 1.5-1.6 1.5zm115.8 0H326.9c-.9 0-1.6-.7-1.6-1.5 0-.9.7-1.5 1.6-1.5h108.7c.9 0 1.6.7 1.6 1.5-.1.8-.8 1.5-1.6 1.5zm63.5 0h-54.3c-.9 0-1.6-.7-1.6-1.5 0-.9.7-1.5 1.6-1.5h54.3c.9 0 1.6.7 1.6 1.5s-.7 1.5-1.6 1.5zm122.3 0h-115c-.9 0-1.6-.7-1.6-1.5 0-.9.7-1.5 1.6-1.5h115c.9 0 1.6.7 1.6 1.5-.1.8-.8 1.5-1.6 1.5zm90.5 0h-85.7c-.9 0-1.6-.7-1.6-1.5 0-.9.7-1.5 1.6-1.5h85.7c.9 0 1.6.7 1.6 1.5s-.7 1.5-1.6 1.5zm60.6 0h-52c-.9 0-1.6-.7-1.6-1.5 0-.9.7-1.5 1.6-1.5h52c.9 0 1.6.7 1.6 1.5s-.7 1.5-1.6 1.5zm48.1 0h-42.8c-.9 0-1.6-.7-1.6-1.5 0-.9.7-1.5 1.6-1.5h42.8c.9 0 1.6.7 1.6 1.5s-.7 1.5-1.6 1.5zm83 0h-74.4c-.9 0-1.6-.7-1.6-1.5 0-.9.7-1.5 1.6-1.5h74.4c.9 0 1.6.7 1.6 1.5-.1.8-.8 1.5-1.6 1.5zm22.9 0h-18.2c-.9 0-1.6-.7-1.6-1.5 0-.9.7-1.5 1.6-1.5h18.2c.9 0 1.6.7 1.6 1.5-.1.8-.8 1.5-1.6 1.5zM965 410h-9.1c-.9 0-1.6-.7-1.6-1.5s.7-1.5 1.6-1.5h9.1c.9 0 1.6.7 1.6 1.5s-.8 1.5-1.6 1.5zm32.4 0h-26.1c-.9 0-1.6-.7-1.6-1.5s.7-1.5 1.6-1.5h26.1c.9 0 1.6.7 1.6 1.5s-.7 1.5-1.6 1.5zm0-20.2h-64.9c-.9 0-1.6-.7-1.6-1.5 0-.9.7-1.5 1.6-1.5h64.9c.9 0 1.6.7 1.6 1.5s-.7 1.5-1.6 1.5zm0-23.2h-85.6c-.9 0-1.6-.7-1.6-1.5 0-.9.7-1.5 1.6-1.5h85.6c.9 0 1.6.7 1.6 1.5s-.7 1.5-1.6 1.5zm-91.2 0H621.4c-.9 0-1.6-.7-1.6-1.5 0-.9.7-1.5 1.6-1.5h284.9c.9 0 1.6.7 1.6 1.5-.1.8-.8 1.5-1.7 1.5zM45.4 343.4h-6.2c-.9 0-1.6-.7-1.6-1.5 0-.9.7-1.5 1.6-1.5h6.2c.9 0 1.6.7 1.6 1.5s-.7 1.5-1.6 1.5zm53.6 0H49.5c-.9 0-1.6-.7-1.6-1.5 0-.9.7-1.5 1.6-1.5H99c.9 0 1.6.7 1.6 1.5s-.7 1.5-1.6 1.5zm136.6 0H105c-.9 0-1.6-.7-1.6-1.5 0-.9.7-1.5 1.6-1.5h130.6c.9 0 1.6.7 1.6 1.5-.1.8-.7 1.5-1.6 1.5zm15.2 0h-8.3c-.9 0-1.6-.7-1.6-1.5 0-.9.7-1.5 1.6-1.5h8.3c.9 0 1.6.7 1.6 1.5-.1.8-.8 1.5-1.6 1.5zm-18.9 23.2h-29.6c-.9 0-1.6-.7-1.6-1.5 0-.9.7-1.5 1.6-1.5h29.6c.9 0 1.6.7 1.6 1.5-.1.8-.8 1.5-1.6 1.5zm-35.5 0H2.8c-.9 0-1.6-.7-1.6-1.5 0-.9.7-1.5 1.6-1.5h193.6c.9 0 1.6.7 1.6 1.5s-.7 1.5-1.6 1.5zm205-23.2H257.9c-.9 0-1.6-.7-1.6-1.5 0-.9.7-1.5 1.6-1.5h143.5c.9 0 1.6.7 1.6 1.5-.1.8-.8 1.5-1.6 1.5zm59 0H406c-.9 0-1.6-.7-1.6-1.5 0-.9.7-1.5 1.6-1.5h54.4c.9 0 1.6.7 1.6 1.5-.1.8-.8 1.5-1.6 1.5zm18.7 0H468c-.9 0-1.6-.7-1.6-1.5 0-.9.7-1.5 1.6-1.5h11.2c.9 0 1.6.7 1.6 1.5-.1.8-.8 1.5-1.7 1.5zm138.8 23.2h-11.2c-.9 0-1.6-.7-1.6-1.5 0-.9.7-1.5 1.6-1.5h11.2c.9 0 1.6.7 1.6 1.5-.1.8-.8 1.5-1.6 1.5zm-19.3 0H460.4c-.9 0-1.6-.7-1.6-1.5 0-.9.7-1.5 1.6-1.5h138.2c.9 0 1.6.7 1.6 1.5s-.7 1.5-1.6 1.5zm-148.2 0H239c-.9 0-1.6-.7-1.6-1.5 0-.9.7-1.5 1.6-1.5h211.4c.9 0 1.6.7 1.6 1.5-.1.8-.8 1.5-1.6 1.5zm351.5-23.2H488.1c-.9 0-1.6-.7-1.6-1.5 0-.9.7-1.5 1.6-1.5h313.8c.9 0 1.6.7 1.6 1.5s-.7 1.5-1.6 1.5zm45.2 0h-40.8c-.9 0-1.6-.7-1.6-1.5 0-.9.7-1.5 1.6-1.5h40.8c.9 0 1.6.7 1.6 1.5-.1.8-.8 1.5-1.6 1.5zm38.2 0h-33.1c-.9 0-1.6-.7-1.6-1.5 0-.9.7-1.5 1.6-1.5h33.1c.9 0 1.6.7 1.6 1.5s-.7 1.5-1.6 1.5zm112.1 0H893.5c-.9 0-1.6-.7-1.6-1.5 0-.9.7-1.5 1.6-1.5h103.9c.9 0 1.6.7 1.6 1.5s-.7 1.5-1.6 1.5zM93.1 321.7H63.6c-.9 0-1.6-.7-1.6-1.5 0-.9.7-1.5 1.6-1.5h29.5c.9 0 1.6.7 1.6 1.5-.1.8-.7 1.5-1.6 1.5zm153.3 0H101.1c-.9 0-1.6-.7-1.6-1.5 0-.9.7-1.5 1.6-1.5h145.3c.9 0 1.6.7 1.6 1.5-.1.8-.8 1.5-1.6 1.5zm11.5 0h-7.1c-.9 0-1.6-.7-1.6-1.5 0-.9.7-1.5 1.6-1.5h7.1c.9 0 1.6.7 1.6 1.5-.1.8-.7 1.5-1.6 1.5zm49.9 0h-43.2c-.9 0-1.6-.7-1.6-1.5 0-.9.7-1.5 1.6-1.5h43.2c.9 0 1.6.7 1.6 1.5-.1.8-.8 1.5-1.6 1.5zm57.8 0h-48.2c-.9 0-1.6-.7-1.6-1.5 0-.9.7-1.5 1.6-1.5h48.2c.9 0 1.6.7 1.6 1.5-.1.8-.8 1.5-1.6 1.5zm50.2 0h-43.3c-.9 0-1.6-.7-1.6-1.5 0-.9.7-1.5 1.6-1.5h43.3c.9 0 1.6.7 1.6 1.5-.1.8-.8 1.5-1.6 1.5zm31.9 0h-24.3c-.9 0-1.6-.7-1.6-1.5 0-.9.7-1.5 1.6-1.5h24.3c.9 0 1.6.7 1.6 1.5s-.7 1.5-1.6 1.5zm354.2 0H455.8c-.9 0-1.6-.7-1.6-1.5 0-.9.7-1.5 1.6-1.5h346.1c.9 0 1.6.7 1.6 1.5s-.7 1.5-1.6 1.5zm101.7 0h-92.2c-.9 0-1.6-.7-1.6-1.5 0-.9.7-1.5 1.6-1.5h92.2c.9 0 1.6.7 1.6 1.5-.1.8-.8 1.5-1.6 1.5zm93.8 0h-87.3c-.9 0-1.6-.7-1.6-1.5 0-.9.7-1.5 1.6-1.5h87.3c.9 0 1.6.7 1.6 1.5s-.7 1.5-1.6 1.5zm-839.1-23.2H27.9c-.9 0-1.6-.7-1.6-1.5s.7-1.5 1.6-1.5h130.5c.9 0 1.6.7 1.6 1.5s-.8 1.5-1.7 1.5zm106.3 0h-95c-.9 0-1.6-.7-1.6-1.5s.7-1.5 1.6-1.5h95c.9 0 1.6.7 1.6 1.5s-.7 1.5-1.6 1.5zm152.7 0H273.6c-.9 0-1.6-.7-1.6-1.5s.7-1.5 1.6-1.5h143.6c.9 0 1.6.7 1.6 1.5s-.7 1.5-1.5 1.5zm95.2 0h-89.1c-.9 0-1.6-.7-1.6-1.5s.7-1.5 1.6-1.5h89.1c.9 0 1.6.7 1.6 1.5s-.7 1.5-1.6 1.5zm73.8 0h-65.5c-.9 0-1.6-.7-1.6-1.5s.7-1.5 1.6-1.5h65.5c.9 0 1.6.7 1.6 1.5s-.8 1.5-1.6 1.5zm151.9 0H599.9c-.9 0-1.6-.7-1.6-1.5s.7-1.5 1.6-1.5h138.3c.9 0 1.6.7 1.6 1.5s-.7 1.5-1.6 1.5zm130.5 0H748.1c-.9 0-1.6-.7-1.6-1.5s.7-1.5 1.6-1.5h120.7c.9 0 1.6.7 1.6 1.5s-.8 1.5-1.7 1.5zm26.7 0h-20.1c-.9 0-1.6-.7-1.6-1.5s.7-1.5 1.6-1.5h20.1c.9 0 1.6.7 1.6 1.5s-.7 1.5-1.6 1.5zm78.1 0h-69.9c-.9 0-1.6-.7-1.6-1.5s.7-1.5 1.6-1.5h69.9c.9 0 1.6.7 1.6 1.5s-.8 1.5-1.6 1.5zm23.9 0h-12c-.9 0-1.6-.7-1.6-1.5s.7-1.5 1.6-1.5h12c.9 0 1.6.7 1.6 1.5s-.7 1.5-1.6 1.5zm-432.3-23.2H107.6c-.9 0-1.6-.7-1.6-1.5 0-.9.7-1.5 1.6-1.5h457.5c.9 0 1.6.7 1.6 1.5-.1.8-.8 1.5-1.6 1.5zm-395.5-45.2H54.9c-.9 0-1.6-.7-1.6-1.5 0-.9.7-1.5 1.6-1.5h114.7c.9 0 1.6.7 1.6 1.5-.1.8-.8 1.5-1.6 1.5zm142.6 0H180.5c-.9 0-1.6-.7-1.6-1.5 0-.9.7-1.5 1.6-1.5h131.7c.9 0 1.6.7 1.6 1.5s-.7 1.5-1.6 1.5zm26.7 0h-22.4c-.9 0-1.6-.7-1.6-1.5 0-.9.7-1.5 1.6-1.5h22.4c.9 0 1.6.7 1.6 1.5s-.7 1.5-1.6 1.5zm157.5 23.8H287.8c-.9 0-1.6-.7-1.6-1.5 0-.9.7-1.5 1.6-1.5h208.6c.9 0 1.6.7 1.6 1.5s-.7 1.5-1.6 1.5zm38.4 0h-31.3c-.9 0-1.6-.7-1.6-1.5 0-.9.7-1.5 1.6-1.5h31.3c.9 0 1.6.7 1.6 1.5s-.7 1.5-1.6 1.5zm51.5 0h-42.4c-.9 0-1.6-.7-1.6-1.5 0-.9.7-1.5 1.6-1.5h42.4c.9 0 1.6.7 1.6 1.5-.1.8-.8 1.5-1.6 1.5zm55.8 23.7h-67.8c-.9 0-1.6-.7-1.6-1.5 0-.9.7-1.5 1.6-1.5h67.8c.9 0 1.6.7 1.6 1.5s-.7 1.5-1.6 1.5zm62.8 0h-53.7c-.9 0-1.6-.7-1.6-1.5 0-.9.7-1.5 1.6-1.5h53.7c.9 0 1.6.7 1.6 1.5s-.7 1.5-1.6 1.5zm173.8 0H717.9c-.9 0-1.6-.7-1.6-1.5 0-.9.7-1.5 1.6-1.5h160.9c.9 0 1.6.7 1.6 1.5-.1.8-.8 1.5-1.7 1.5zm88.4 0h-74c-.9 0-1.6-.7-1.6-1.5 0-.9.7-1.5 1.6-1.5h74c.9 0 1.6.7 1.6 1.5-.1.8-.8 1.5-1.6 1.5zm30.3 0h-23.9c-.9 0-1.6-.7-1.6-1.5 0-.9.7-1.5 1.6-1.5h23.9c.9 0 1.6.7 1.6 1.5s-.7 1.5-1.6 1.5zm-246.3-23.7h-158c-.9 0-1.6-.7-1.6-1.5 0-.9.7-1.5 1.6-1.5h158.1c.9 0 1.6.7 1.6 1.5-.1.8-.8 1.5-1.7 1.5zm184.5 0H759c-.9 0-1.6-.7-1.6-1.5 0-.9.7-1.5 1.6-1.5h176.6c.9 0 1.6.7 1.6 1.5-.1.8-.7 1.5-1.6 1.5zm61.8 0H944c-.9 0-1.6-.7-1.6-1.5 0-.9.7-1.5 1.6-1.5h53.4c.9 0 1.6.7 1.6 1.5s-.7 1.5-1.6 1.5zm-574-23.8h-73.6c-.9 0-1.6-.7-1.6-1.5 0-.9.7-1.5 1.6-1.5h73.6c.9 0 1.6.7 1.6 1.5s-.7 1.5-1.6 1.5zm141.9 0h-130c-.9 0-1.6-.7-1.6-1.5 0-.9.7-1.5 1.6-1.5h130c.9 0 1.6.7 1.6 1.5-.1.8-.8 1.5-1.6 1.5zm108.9 0h-98.9c-.9 0-1.6-.7-1.6-1.5 0-.9.7-1.5 1.6-1.5h98.9c.9 0 1.6.7 1.6 1.5-.1.8-.8 1.5-1.6 1.5zm42.9 0h-33.5c-.9 0-1.6-.7-1.6-1.5 0-.9.7-1.5 1.6-1.5h33.5c.9 0 1.6.7 1.6 1.5-.1.8-.8 1.5-1.6 1.5zm280.3 0H732.1c-.9 0-1.6-.7-1.6-1.5 0-.9.7-1.5 1.6-1.5h265.3c.9 0 1.6.7 1.6 1.5s-.7 1.5-1.6 1.5zM118 208H92.1c-.9 0-1.6-.7-1.6-1.5s.7-1.5 1.6-1.5H118c.9 0 1.6.7 1.6 1.5s-.8 1.5-1.6 1.5zm32.9 0H125c-.9 0-1.6-.7-1.6-1.5s.7-1.5 1.6-1.5h25.9c.9 0 1.6.7 1.6 1.5s-.7 1.5-1.6 1.5zm109.8 0h-105c-.9 0-1.6-.7-1.6-1.5s.7-1.5 1.6-1.5h105c.9 0 1.6.7 1.6 1.5s-.7 1.5-1.6 1.5zm131 0H273.6c-.9 0-1.6-.7-1.6-1.5s.7-1.5 1.6-1.5h118.1c.9 0 1.6.7 1.6 1.5s-.7 1.5-1.6 1.5zm55.9 0h-48.4c-.9 0-1.6-.7-1.6-1.5s.7-1.5 1.6-1.5h48.4c.9 0 1.6.7 1.6 1.5s-.7 1.5-1.6 1.5zm163.5 0H458.8c-.9 0-1.6-.7-1.6-1.5s.7-1.5 1.6-1.5h152.3c.9 0 1.6.7 1.6 1.5s-.8 1.5-1.6 1.5zm72.5 0h-64.7c-.9 0-1.6-.7-1.6-1.5s.7-1.5 1.6-1.5h64.7c.9 0 1.6.7 1.6 1.5s-.8 1.5-1.6 1.5zm29.4 0h-16.1c-.9 0-1.6-.7-1.6-1.5s.7-1.5 1.6-1.5H713c.9 0 1.6.7 1.6 1.5s-.7 1.5-1.6 1.5zm260.5 0h-249c-.9 0-1.6-.7-1.6-1.5s.7-1.5 1.6-1.5h249c.9 0 1.6.7 1.6 1.5s-.8 1.5-1.6 1.5zm23.9 0h-18.5c-.9 0-1.6-.7-1.6-1.5s.7-1.5 1.6-1.5h18.5c.9 0 1.6.7 1.6 1.5s-.7 1.5-1.6 1.5zM54.9 185.9h-8.4c-.9 0-1.6-.7-1.6-1.5s.7-1.5 1.6-1.5h8.4c.9 0 1.6.7 1.6 1.5s-.7 1.5-1.6 1.5zm193.1 0H63.4c-.9 0-1.6-.7-1.6-1.5s.7-1.5 1.6-1.5H248c.9 0 1.6.7 1.6 1.5s-.8 1.5-1.6 1.5zm110.4 0H252.1c-.9 0-1.6-.7-1.6-1.5s.7-1.5 1.6-1.5h106.4c.9 0 1.6.7 1.6 1.5s-.8 1.5-1.7 1.5zm83.7 0h-73.4c-.9 0-1.6-.7-1.6-1.5s.7-1.5 1.6-1.5h73.4c.9 0 1.6.7 1.6 1.5s-.8 1.5-1.6 1.5zm56.7 0H450c-.9 0-1.6-.7-1.6-1.5s.7-1.5 1.6-1.5h48.8c.9 0 1.6.7 1.6 1.5s-.8 1.5-1.6 1.5zm272.8 0H508.8c-.9 0-1.6-.7-1.6-1.5s.7-1.5 1.6-1.5h262.7c.9 0 1.6.7 1.6 1.5s-.7 1.5-1.5 1.5zm136.3 0h-130c-.9 0-1.6-.7-1.6-1.5s.7-1.5 1.6-1.5h130c.9 0 1.6.7 1.6 1.5s-.7 1.5-1.6 1.5zm89.5 0h-78.1c-.9 0-1.6-.7-1.6-1.5s.7-1.5 1.6-1.5h78.1c.9 0 1.6.7 1.6 1.5s-.7 1.5-1.6 1.5zm-768.3-25h-94c-.9 0-1.6-.7-1.6-1.5 0-.9.7-1.5 1.6-1.5h94c.9 0 1.6.7 1.6 1.5s-.7 1.5-1.6 1.5zm135 0h-121c-.9 0-1.6-.7-1.6-1.5 0-.9.7-1.5 1.6-1.5h121c.9 0 1.6.7 1.6 1.5s-.7 1.5-1.6 1.5zm141.3 0H372.9c-.9 0-1.6-.7-1.6-1.5 0-.9.7-1.5 1.6-1.5h132.5c.9 0 1.6.7 1.6 1.5-.1.8-.8 1.5-1.6 1.5zm53.1 0h-47.3c-.9 0-1.6-.7-1.6-1.5 0-.9.7-1.5 1.6-1.5h47.3c.9 0 1.6.7 1.6 1.5-.1.8-.8 1.5-1.6 1.5zm207.1 0H568.1c-.9 0-1.6-.7-1.6-1.5 0-.9.7-1.5 1.6-1.5h197.5c.9 0 1.6.7 1.6 1.5s-.7 1.5-1.6 1.5zm38.3 0h-32.3c-.9 0-1.6-.7-1.6-1.5 0-.9.7-1.5 1.6-1.5h32.3c.9 0 1.6.7 1.6 1.5-.1.8-.8 1.5-1.6 1.5zm193.5 0h-186c-.9 0-1.6-.7-1.6-1.5 0-.9.7-1.5 1.6-1.5h186c.9 0 1.6.7 1.6 1.5s-.7 1.5-1.6 1.5zM112.1 119H54.9c-.9 0-1.6-.7-1.6-1.5 0-.9.7-1.5 1.6-1.5h57.2c.9 0 1.6.7 1.6 1.5s-.7 1.5-1.6 1.5zm19.2 0h-11.1c-.9 0-1.6-.7-1.6-1.5 0-.9.7-1.5 1.6-1.5h11.1c.9 0 1.6.7 1.6 1.5-.1.8-.8 1.5-1.6 1.5zm60.4 0h-52.2c-.9 0-1.6-.7-1.6-1.5 0-.9.7-1.5 1.6-1.5h52.2c.9 0 1.6.7 1.6 1.5-.1.8-.8 1.5-1.6 1.5zm30.5 0H198c-.9 0-1.6-.7-1.6-1.5 0-.9.7-1.5 1.6-1.5h24.2c.9 0 1.6.7 1.6 1.5-.1.8-.8 1.5-1.6 1.5zm104 20.9h-18.6c-.9 0-1.6-.7-1.6-1.5 0-.9.7-1.5 1.6-1.5h18.6c.9 0 1.6.7 1.6 1.5-.1.8-.8 1.5-1.6 1.5zm156.8 0H334.1c-.9 0-1.6-.7-1.6-1.5 0-.9.7-1.5 1.6-1.5H483c.9 0 1.6.7 1.6 1.5s-.7 1.5-1.6 1.5zm94.4 0h-88.3c-.9 0-1.6-.7-1.6-1.5 0-.9.7-1.5 1.6-1.5h88.3c.9 0 1.6.7 1.6 1.5s-.7 1.5-1.6 1.5zm33.7 0h-23.3c-.9 0-1.6-.7-1.6-1.5 0-.9.7-1.5 1.6-1.5h23.3c.9 0 1.6.7 1.6 1.5-.1.8-.8 1.5-1.6 1.5zm106 0h-98.2c-.9 0-1.6-.7-1.6-1.5 0-.9.7-1.5 1.6-1.5h98.2c.9 0 1.6.7 1.6 1.5-.1.8-.8 1.5-1.6 1.5zm76.5 0h-69c-.9 0-1.6-.7-1.6-1.5 0-.9.7-1.5 1.6-1.5h69c.9 0 1.6.7 1.6 1.5-.1.8-.8 1.5-1.6 1.5zm69 0h-58.7c-.9 0-1.6-.7-1.6-1.5 0-.9.7-1.5 1.6-1.5h58.7c.9 0 1.6.7 1.6 1.5s-.7 1.5-1.6 1.5zm134.8 0H873.8c-.9 0-1.6-.7-1.6-1.5 0-.9.7-1.5 1.6-1.5h123.6c.9 0 1.6.7 1.6 1.5s-.7 1.5-1.6 1.5zM361.3 119H229.1c-.9 0-1.6-.7-1.6-1.5 0-.9.7-1.5 1.6-1.5h132.1c.9 0 1.6.7 1.6 1.5s-.7 1.5-1.5 1.5zm69 0h-61.7c-.9 0-1.6-.7-1.6-1.5 0-.9.7-1.5 1.6-1.5h61.7c.9 0 1.6.7 1.6 1.5s-.7 1.5-1.6 1.5zm138.3 0H442.1c-.9 0-1.6-.7-1.6-1.5 0-.9.7-1.5 1.6-1.5h126.6c.9 0 1.6.7 1.6 1.5-.1.8-.8 1.5-1.7 1.5zm359 0H574.7c-.9 0-1.6-.7-1.6-1.5 0-.9.7-1.5 1.6-1.5h352.9c.9 0 1.6.7 1.6 1.5-.1.8-.8 1.5-1.6 1.5zM212.4 95.4H77.7c-.9 0-1.6-.7-1.6-1.5 0-.9.7-1.5 1.6-1.5h134.7c.9 0 1.6.7 1.6 1.5s-.7 1.5-1.6 1.5zm86.6 0h-81c-.9 0-1.6-.7-1.6-1.5 0-.9.7-1.5 1.6-1.5h81c.9 0 1.6.7 1.6 1.5s-.7 1.5-1.6 1.5zm134.3 0H312.2c-.9 0-1.6-.7-1.6-1.5 0-.9.7-1.5 1.6-1.5h121.1c.9 0 1.6.7 1.6 1.5s-.7 1.5-1.6 1.5zm79.3 0h-72.4c-.9 0-1.6-.7-1.6-1.5 0-.9.7-1.5 1.6-1.5h72.4c.9 0 1.6.7 1.6 1.5s-.7 1.5-1.6 1.5zm62.2 0h-49.6c-.9 0-1.6-.7-1.6-1.5 0-.9.7-1.5 1.6-1.5h49.6c.9 0 1.6.7 1.6 1.5s-.7 1.5-1.6 1.5zm25.5 0h-15.6c-.9 0-1.6-.7-1.6-1.5 0-.9.7-1.5 1.6-1.5h15.6c.9 0 1.6.7 1.6 1.5-.1.8-.8 1.5-1.6 1.5zm26.4 0h-15.6c-.9 0-1.6-.7-1.6-1.5 0-.9.7-1.5 1.6-1.5h15.6c.9 0 1.6.7 1.6 1.5-.1.8-.8 1.5-1.6 1.5zm60.5 0H638c-.9 0-1.6-.7-1.6-1.5 0-.9.7-1.5 1.6-1.5h49.2c.9 0 1.6.7 1.6 1.5-.1.8-.8 1.5-1.6 1.5zm127.5 0H694.9c-.9 0-1.6-.7-1.6-1.5 0-.9.7-1.5 1.6-1.5h119.8c.9 0 1.6.7 1.6 1.5-.1.8-.8 1.5-1.6 1.5zm82.8 0h-74.7c-.9 0-1.6-.7-1.6-1.5 0-.9.7-1.5 1.6-1.5h74.7c.9 0 1.6.7 1.6 1.5-.1.8-.8 1.5-1.6 1.5zm61.1 0h-55.4c-.9 0-1.6-.7-1.6-1.5 0-.9.7-1.5 1.6-1.5h55.4c.9 0 1.6.7 1.6 1.5-.1.8-.7 1.5-1.6 1.5zm36.3 0h-25.2c-.9 0-1.6-.7-1.6-1.5 0-.9.7-1.5 1.6-1.5h25.2c.9 0 1.6.7 1.6 1.5s-.7 1.5-1.6 1.5zm2.5 23.6h-64.1c-.9 0-1.6-.7-1.6-1.5 0-.9.7-1.5 1.6-1.5h64.1c.9 0 1.6.7 1.6 1.5s-.7 1.5-1.6 1.5zM73.8 71.8H59.7c-.9 0-1.6-.7-1.6-1.5 0-.9.7-1.5 1.6-1.5h14.1c.9 0 1.6.7 1.6 1.5s-.7 1.5-1.6 1.5zm38.3 0H80.6c-.9 0-1.6-.7-1.6-1.5 0-.9.7-1.5 1.6-1.5h31.5c.9 0 1.6.7 1.6 1.5s-.7 1.5-1.6 1.5zm58.1 0h-50.1c-.9 0-1.6-.7-1.6-1.5 0-.9.7-1.5 1.6-1.5h50.1c.9 0 1.6.7 1.6 1.5s-.7 1.5-1.6 1.5zm17.7 0h-10c-.9 0-1.6-.7-1.6-1.5 0-.9.7-1.5 1.6-1.5h10c.9 0 1.6.7 1.6 1.5s-.7 1.5-1.6 1.5zm105.3 0H198c-.9 0-1.6-.7-1.6-1.5 0-.9.7-1.5 1.6-1.5h95.2c.9 0 1.6.7 1.6 1.5-.1.8-.8 1.5-1.6 1.5zm243.1 0H302.9c-.9 0-1.6-.7-1.6-1.5 0-.9.7-1.5 1.6-1.5h233.4c.9 0 1.6.7 1.6 1.5s-.7 1.5-1.6 1.5zm25.1 0h-15.9c-.9 0-1.6-.7-1.6-1.5 0-.9.7-1.5 1.6-1.5h15.9c.9 0 1.6.7 1.6 1.5-.1.8-.7 1.5-1.6 1.5zm70.5 0h-63.3c-.9 0-1.6-.7-1.6-1.5 0-.9.7-1.5 1.6-1.5h63.3c.9 0 1.6.7 1.6 1.5s-.7 1.5-1.6 1.5zm209.2 0H638c-.9 0-1.6-.7-1.6-1.5 0-.9.7-1.5 1.6-1.5h203.1c.9 0 1.6.7 1.6 1.5s-.7 1.5-1.6 1.5zm37.1 0H847c-.9 0-1.6-.7-1.6-1.5 0-.9.7-1.5 1.6-1.5h31.2c.9 0 1.6.7 1.6 1.5s-.7 1.5-1.6 1.5zm119.2 0H887.5c-.9 0-1.6-.7-1.6-1.5 0-.9.7-1.5 1.6-1.5h109.9c.9 0 1.6.7 1.6 1.5s-.7 1.5-1.6 1.5zM381.1 50.4H38.7c-.9 0-1.6-.7-1.6-1.5 0-.9.7-1.5 1.6-1.5H381c.9 0 1.6.7 1.6 1.5s-.7 1.5-1.5 1.5zm139.3 0H390.5c-.9 0-1.6-.7-1.6-1.5 0-.9.7-1.5 1.6-1.5h129.9c.9 0 1.6.7 1.6 1.5-.1.8-.8 1.5-1.6 1.5zm34.9 0h-25.5c-.9 0-1.6-.7-1.6-1.5 0-.9.7-1.5 1.6-1.5h25.5c.9 0 1.6.7 1.6 1.5-.1.8-.8 1.5-1.6 1.5zm36.5 0h-30.4c-.9 0-1.6-.7-1.6-1.5 0-.9.7-1.5 1.6-1.5h30.4c.9 0 1.6.7 1.6 1.5-.1.8-.8 1.5-1.6 1.5zm22.4 0H599c-.9 0-1.6-.7-1.6-1.5 0-.9.7-1.5 1.6-1.5h15.2c.9 0 1.6.7 1.6 1.5-.1.8-.8 1.5-1.6 1.5zm200.5 0H624.3c-.9 0-1.6-.7-1.6-1.5 0-.9.7-1.5 1.6-1.5h190.3c.9 0 1.6.7 1.6 1.5s-.7 1.5-1.5 1.5zm133.9 0H825.4c-.9 0-1.6-.7-1.6-1.5 0-.9.7-1.5 1.6-1.5h123.2c.9 0 1.6.7 1.6 1.5-.1.8-.8 1.5-1.6 1.5zm48.8 0h-43.1c-.9 0-1.6-.7-1.6-1.5 0-.9.7-1.5 1.6-1.5h43.1c.9 0 1.6.7 1.6 1.5s-.7 1.5-1.6 1.5zM170.2 26.7h-56c-.9 0-1.6-.7-1.6-1.5s.7-1.5 1.6-1.5h56c.9 0 1.6.7 1.6 1.5s-.7 1.5-1.6 1.5zm32.8 0h-20.1c-.9 0-1.6-.7-1.6-1.5s.7-1.5 1.6-1.5H203c.9 0 1.6.7 1.6 1.5s-.8 1.5-1.6 1.5zm149.7 0H212.4c-.9 0-1.6-.7-1.6-1.5s.7-1.5 1.6-1.5h140.3c.9 0 1.6.7 1.6 1.5s-.7 1.5-1.6 1.5zm37.8 0h-26.3c-.9 0-1.6-.7-1.6-1.5s.7-1.5 1.6-1.5h26.3c.9 0 1.6.7 1.6 1.5s-.8 1.5-1.6 1.5zm177.4 0H398.1c-.9 0-1.6-.7-1.6-1.5s.7-1.5 1.6-1.5h169.8c.9 0 1.6.7 1.6 1.5s-.7 1.5-1.6 1.5zm157.3 0H577.4c-.9 0-1.6-.7-1.6-1.5s.7-1.5 1.6-1.5h147.8c.9 0 1.6.7 1.6 1.5s-.7 1.5-1.6 1.5zm47.1 0h-37.9c-.9 0-1.6-.7-1.6-1.5s.7-1.5 1.6-1.5h37.9c.9 0 1.6.7 1.6 1.5s-.7 1.5-1.6 1.5z"/><path class="st0" d="M903.2 26.7H773.6c-.9 0-1.6-.7-1.6-1.5s.7-1.5 1.6-1.5h129.5c.9 0 1.6.7 1.6 1.5s-.7 1.5-1.5 1.5zm94.2 0h-86.3c-.9 0-1.6-.7-1.6-1.5s.7-1.5 1.6-1.5h86.3c.9 0 1.6.7 1.6 1.5s-.7 1.5-1.6 1.5zM622.8 3.1H133.2c-.9 0-1.6-.7-1.6-1.5s.7-1.5 1.6-1.5h489.7c.9 0 1.6.7 1.6 1.5s-.8 1.5-1.7 1.5zm374.6 0H631.9c-.9 0-1.6-.7-1.6-1.5s.7-1.5 1.6-1.5h365.5c.9 0 1.6.7 1.6 1.5s-.7 1.5-1.6 1.5z"/></svg>