<svg version="1.2" xmlns="http://www.w3.org/2000/svg" width="84" height="84"><path fill-rule="evenodd" d="M51.3 3.7v15.5l11.1-11c.7-.7 1.7-1.1 2.7-1.1.9 0 1.9.4 2.6 1.1l7.9 7.9c1.5 1.5 1.5 3.9 0 5.4l-11 11h15.6c2.1 0 3.8 1.7 3.8 3.8v11.2c0 2.1-1.7 3.8-3.8 3.8H64.6l11.2 11.2c1.5 1.4 1.5 3.8 0 5.3l-7.9 7.9c-.8.7-1.7 1.1-2.7 1.1-1 0-1.9-.4-2.7-1.1l-11-11.1v15.6c0 2.1-1.7 3.8-3.8 3.8H36.5c-2.1 0-3.8-1.7-3.8-3.8V64.6L21.6 75.7c-.7.7-1.7 1.1-2.7 1.1-.9 0-1.9-.4-2.6-1.1l-7.9-7.9c-1.5-1.5-1.5-3.8 0-5.3l11-11.1H3.8c-2.1 0-3.8-1.7-3.8-3.8V36.4c0-2 1.7-3.8 3.8-3.8h15.5l-11-11c-1.5-1.5-1.5-3.9 0-5.4l7.9-7.9c.7-.7 1.7-1.1 2.7-1.1.9 0 1.9.4 2.7 1.1l11 11.1V3.8c0-2.1 1.7-3.8 3.8-3.8h11.2c2.1 0 3.8 1.6 3.7 3.7zm-4.4.6h-9.7V30l-7.7-7.6L19 11.9l-6.9 7 10.5 10.5 7.6 7.6H4.5v9.8h25.7l-7.6 7.6-10.5 10.5 6.9 7 10.5-10.6 7.7-7.6v25.8h9.7V53.7l7.6 7.6 10.6 10.6 6.9-7-10.5-10.5-7.6-7.6h25.7V37H53.9l7.6-7.5L72 19l-6.9-6.9-10.6 10.5-7.6 7.6z" style="fill:#03f"/></svg>